<svg width="30" height="30" viewBox="0 0 30 30" fill="none" xmlns="http://www.w3.org/2000/svg">
<mask id="mask0_192:7906" style="mask-type:alpha" maskUnits="userSpaceOnUse" x="3" y="1" width="25" height="29">
<path d="M14.4962 2.95162C14.8076 2.77 15.1926 2.77 15.504 2.95163L25.504 8.78496C25.8112 8.96417 26.0001 9.29307 26.0001 9.64874V21.3513C26.0001 21.7069 25.8112 22.0358 25.504 22.215L15.504 28.0484C15.1926 28.23 14.8076 28.23 14.4962 28.0484L13.9923 28.9122L14.4962 28.0484L4.49613 22.215C4.18891 22.0358 4 21.7069 4 21.3513V9.64874C4 9.29308 4.18891 8.96417 4.49613 8.78497L3.99226 7.92118L4.49613 8.78496L14.4962 2.95162L13.9923 2.08784L14.4962 2.95162Z" fill="#B2CA06" stroke="#93A70A" stroke-width="2"/>
</mask>
<g mask="url(#mask0_192:7906)">
<path d="M13.9923 2.08787C14.6151 1.72462 15.3851 1.72462 16.0078 2.08787L26.0078 7.92121C26.6223 8.27963 27.0001 8.93743 27.0001 9.64877V21.3513C27.0001 22.0626 26.6223 22.7204 26.0078 23.0788L16.0078 28.9122C15.3851 29.2754 14.6151 29.2754 13.9923 28.9122L3.99226 23.0788C3.37783 22.7204 3 22.0626 3 21.3513V9.64877C3 8.93743 3.37782 8.27963 3.99226 7.92121L13.9923 2.08787Z" fill="#B2CA06"/>
<path fill-rule="evenodd" clip-rule="evenodd" d="M23.8888 9.00049L15.0001 3.81543L6.11126 9.00054L15 14.3338L23.8888 9.00049ZM5 10.6662L5 21.3513L14 26.6012V16.0661L5 10.6662ZM16 26.6014L25.0001 21.3513V10.6661L16 16.0661V26.6014ZM13.9923 2.08787C14.6151 1.72462 15.3851 1.72462 16.0078 2.08787L26.0078 7.92121C26.6223 8.27963 27.0001 8.93743 27.0001 9.64877V21.3513C27.0001 22.0626 26.6223 22.7204 26.0078 23.0788L16.0078 28.9122C15.3851 29.2754 14.6151 29.2754 13.9923 28.9122L3.99226 23.0788C3.37783 22.7204 3 22.0626 3 21.3513V9.64877C3 8.93743 3.37782 8.27963 3.99226 7.92121L13.9923 2.08787Z" fill="#93A70A"/>
<path fill-rule="evenodd" clip-rule="evenodd" d="M15 6.69727L21.3868 10.9551C22.0822 11.4188 22.5 12.1993 22.5 13.0352V27.5H19.5V13.3028L15 10.3028L10.5 13.3028V27.5H7.5V13.0352C7.5 12.1993 7.91775 11.4188 8.61325 10.9551L15 6.69727Z" fill="#0090A1"/>
</g>
<path fill-rule="evenodd" clip-rule="evenodd" d="M5 4.50008C5 6.50008 8.23677 6.68383 8.91565 6.75926C10.933 6.98341 12.9724 6.99609 15 7.00008C17.6161 7.00008 19.6487 6.91878 21.0844 6.75926C21.7632 6.68383 25 6.35649 25 4.50008C25 3.50008 26 5.5001 26 6.50008C26 7.10117 26 7.70227 26 8.08619C26 8.3514 25.8995 8.61243 25.6731 8.75062C24.2163 9.63997 20.1894 9.98315 15 9.99774C15 9.99774 19.4221 10.0284 14.173 9.99774C9.39815 9.96982 5.81052 9.5727 4.36605 8.75593C4.118 8.61567 4 8.33714 4 8.05217C4 7.53481 4 7.01745 4 6.50008C4 5.50008 5 3.50008 5 4.50008Z" fill="#007381"/>
<path fill-rule="evenodd" clip-rule="evenodd" d="M23 1C25.1088 1 25.8396 2.59151 26 4.5V8.5C26 7.5 24 4.5 23 4.5C22 4.5 22 4.5 20.795 5.022C20 5.5 18.337 6.70996 16.7231 8.02379L15.9603 8.65233L15 9.45256L14.0397 8.65233C12.0877 7.02563 10 5.5 9.205 5.022C8 4.5 8 4.5 7 4.5C6 4.5 4 7.5 4 8.5V4.5C4.21657 2.64896 5.10535 1 7 1C8.5809 1 10.8814 2.29885 14.2305 4.94196L15 5.557L15.0856 5.48852C18.6959 2.56904 21.1608 1.09097 22.8444 1.00407L23 1Z" fill="#0090A1"/>
</svg>
