<svg id="Layer_1" xmlns="http://www.w3.org/2000/svg" width="28" height="28" viewBox="0 0 28 28"><rect width="28" height="28" fill="none"/><path id="_28x28-a" d="M14,26A12,12,0,1,0,2,14,12,12,0,0,0,14,26ZM14,0A14,14,0,1,1,0,14,14,14,0,0,1,14,0ZM11,9H8a3,3,0,0,0-3,3H5v7a3,3,0,0,0,3,3H20a3,3,0,0,0,3-3h0V12a3,3,0,0,0-3-3H17v2h3a1,1,0,0,1,1,1h0v7a1,1,0,0,1-1,1H8a1,1,0,0,1-1-1H7V12a1,1,0,0,1,1-1h3Zm4-5H13V14.5858l-2.2929-2.2929L9.2929,13.7071,14,18.4142l4.7071-4.7071-1.4142-1.4142L15,14.5858Z" fill="#393939"/></svg>
