<svg id="Layer_1" data-name="Layer 1" xmlns="http://www.w3.org/2000/svg" width="20" height="20" viewBox="0 0 20 20"><path id="_20x20-a" data-name="20x20-a" d="M10,0A10,10,0,1,1,0,10,10,10,0,0,1,10,0Zm7.938,11.001-1.9928,0a12.1622,12.1622,0,0,1-3.0476,6.4587A8.009,8.009,0,0,0,17.938,11.001Zm-13.8832,0-1.9928,0a8.0086,8.0086,0,0,0,5.04,6.458A12.1619,12.1619,0,0,1,4.0548,11.0005ZM9,11,6.0706,11A10.8,10.8,0,0,0,8.999,16.5937Zm4.9294,0L11,11l.0019,5.5927A10.8,10.8,0,0,0,13.9294,11ZM7.1024,2.5407,6.94,2.606A8.0082,8.0082,0,0,0,2.0619,9L4.0547,9A12.1614,12.1614,0,0,1,7.1024,2.5407Zm-1.0319,6.46L9,9,8.999,3.4063A10.7993,10.7993,0,0,0,6.0705,9.0008Zm4.9314-5.5935L11,9l2.93.0008A10.7983,10.7983,0,0,0,11.0019,3.4073Zm1.896-.8663.1948.2354a11.9792,11.9792,0,0,1,2.8526,6.2241L17.9381,9A8.0086,8.0086,0,0,0,12.8979,2.541Z" fill="#393939"/></svg>