<svg id="Layer_1" data-name="Layer 1" xmlns="http://www.w3.org/2000/svg" width="20" height="20" viewBox="0 0 20 20"><path id="_20x20-a" data-name="20x20-a" d="M10,18a8,8,0,1,0-8-8A8,8,0,0,0,10,18ZM10,0A10,10,0,1,1,0,10,10,10,0,0,1,10,0Zm5.6976,11.1356a1,1,0,0,0-1.3664.3646,5.002,5.002,0,0,1-8.6619.0008,1,1,0,0,0-1.7308,1.0021,7.002,7.002,0,0,0,12.1237-.0011A1,1,0,0,0,15.6976,11.1356ZM13.5,6A1.5,1.5,0,1,0,15,7.5,1.5,1.5,0,0,0,13.5,6Zm-7,0A1.5,1.5,0,1,0,8,7.5,1.5,1.5,0,0,0,6.5,6Z" fill="#393939"/></svg>