<svg id="Layer_1" data-name="Layer 1" xmlns="http://www.w3.org/2000/svg" width="20" height="20" viewBox="0 0 20 20"><path id="_20x20-a" data-name="20x20-a" d="M2,9v9H5V9ZM12.6441.8942l.4106.2737a3.692,3.692,0,0,1,1.5723,3.796L14.22,7h2.59q.1361,0,.2716.0123a3,3,0,0,1,2.7161,3.2593l-.6363,7A3,3,0,0,1,16.1736,20H12.331a4.9958,4.9958,0,0,1-.8219-.0681L6.9842,19.178A1,1,0,0,1,6,20H1a1,1,0,0,1-1-1V8A1,1,0,0,1,1,7H6a.9971.9971,0,0,1,.7267.313L8.16,6.3582,9.6373,1.9258A2,2,0,0,1,12.6441.8942ZM11.5347,2.5583,10.0572,6.9907a2,2,0,0,1-.788,1.0316L7,9.5352v7.6176l4.8379.8064A3.0055,3.0055,0,0,0,12.331,18h3.8426a1,1,0,0,0,.9959-.91l.6363-7a1,1,0,0,0-.9053-1.0864C16.87,9.0013,16.84,9,16.81,9H14.22a2,2,0,0,1-1.9612-2.3923l.4073-2.0361a1.692,1.692,0,0,0-.7206-1.74Z" fill="#393939"/></svg>