<?xml version="1.0" encoding="UTF-8"?>
<svg width="24px" height="24px" viewBox="0 0 24 24" version="1.1" xmlns="http://www.w3.org/2000/svg" xmlns:xlink="http://www.w3.org/1999/xlink">
    <title>02 Icons/Reactions/Bravo/24x24</title>
    <g id="02-Icons/Reactions/Bravo/24x24" stroke="none" stroke-width="1" fill="none" fill-rule="evenodd">
        <g transform="translate(0.500000, 0.500000)">
            <g id="Group-2" transform="translate(0.202392, 6.400000)">
                <path d="M10.238563,13.6365157 L12.6371494,13.4169702 C12.6371494,13.4169702 21.0007857,8.56010201 21.3771494,8.32424747 C21.9565403,7.96147474 22.6023175,7.3564702 22.1110584,6.58168383 C21.5742175,5.73486565 20.5091084,6.22957474 20.2292403,6.39601111 C19.9493721,6.56244747 21.3174539,5.73737474 21.5869721,5.57679292 C21.8564903,5.41621111 22.8336766,4.69568383 22.3209857,3.83433383 C21.8082948,2.97298383 20.7190357,3.4821202 20.4391675,3.64855656 C20.1592994,3.81499292 20.6095766,3.54526565 20.8790948,3.38478838 C21.148613,3.22431111 22.1256948,2.50367929 21.6131084,1.64232929 C21.1005221,0.780979287 20.0110539,1.2902202 19.7312903,1.45665656 C19.4515266,1.62309292 18.1577766,2.39003838 18.4272948,2.22956111 C18.696813,2.06908383 19.6738948,1.34845201 19.1613084,0.487102015 C18.6487221,-0.374247985 17.5592539,0.134992924 17.2794903,0.301429287 C16.9997266,0.467865651 10.4977312,4.33040201 10.4977312,4.33040201 C10.9719251,3.8402802 11.3538746,3.26868408 11.6252539,2.64303838 C11.8748039,1.67390201 10.9995494,0.471420197 10.7729994,0.536238378 L7.87709027,3.45535656 L7.63485845,7.63550201 L6.92154481,8.01845201 L10.2395039,13.6358884" id="Path" fill="#E4F2F4" fill-rule="nonzero"></path>
                <path d="M7.80244481,9.50937474 C10.4025948,9.29401111 16.1680675,8.74023383 16.1680675,8.74023383 L20.5067039,6.21420656 C21.0567115,5.91216082 21.7456644,6.06854312 22.1113721,6.57844292 C22.6016903,7.35845656 21.9553903,7.9602202 21.3758948,8.32435201 C20.9970221,8.56208838 12.6394494,13.4206293 12.6394494,13.4206293 L10.2399221,13.6360975 L7.80244481,9.50937474 Z" id="Path" fill="#B1DCE1" fill-rule="nonzero"></path>
                <rect id="Rectangle" fill="#199AA9" fill-rule="nonzero" transform="translate(7.097047, 11.711875) rotate(-30.556500) translate(-7.097047, -11.711875) " x="5.37032222" y="7.38013904" width="3.45345" height="8.66347273" rx="0.243172727"></rect>
                <rect id="Rectangle" stroke="#61746E" stroke-width="1.4" stroke-linecap="round" stroke-linejoin="round" transform="translate(7.097047, 11.711875) rotate(-30.556500) translate(-7.097047, -11.711875) " x="5.37032222" y="7.38013904" width="3.45345" height="8.66347273" rx="0.243172727"></rect>
                <path d="M7.0275539,7.99419747 L7.63506754,7.63550201 L7.87729936,3.45535656 L10.7732084,0.536238378 C10.9997584,0.471420197 11.875013,1.67390201 11.625463,2.64303838 C11.3540837,3.26868408 10.9721342,3.8402802 10.4979403,4.33040201 L11.7746494,3.57589747 L12.5812175,3.09362929" id="Path" stroke="#61746E" stroke-width="1.4" stroke-linecap="round" stroke-linejoin="round"></path>
                <path d="M11.5712039,3.68713383 C11.5712039,3.68713383 17.000563,0.467865651 17.2801175,0.301429287 C17.5596721,0.134992924 18.649663,-0.374247985 19.1619357,0.487102015 C19.6742084,1.34845201 18.6973357,2.06918838 18.4276084,2.22956111 C18.1578812,2.38993383 14.9701857,4.26391111 14.9701857,4.26391111 C14.9701857,4.26391111 19.4520494,1.62309292 19.7316039,1.45665656 C20.0111584,1.2902202 21.1011494,0.780979287 21.6134221,1.64232929 C22.1256948,2.50367929 21.1489266,3.22441565 20.8794084,3.38478838 C20.6098903,3.54516111 15.9823948,6.2340702 15.9823948,6.2340702" id="Path" stroke="#61746E" stroke-width="1.4" stroke-linecap="round" stroke-linejoin="round"></path>
                <path d="M15.9824994,6.24881111 C15.9824994,6.24881111 20.1599266,3.81509747 20.4395857,3.64855656 C20.7192448,3.48201565 21.8085039,2.97298383 22.3214039,3.83433383 C22.8343039,4.69568383 21.8566994,5.41610656 21.5871812,5.57679292 C21.317663,5.73747929 17.2462448,8.13428838 17.2462448,8.13428838 C17.2462448,8.13428838 19.9496857,6.56265656 20.2293448,6.3962202 C20.5090039,6.22978383 21.574113,5.73538838 22.111163,6.58189292 C22.6025266,7.35667929 21.9566448,7.96189292 21.3772539,8.32445656 C21.0008903,8.56031111 12.6372539,13.4171793 12.6372539,13.4171793 L10.2386675,13.6367247" id="Path" stroke="#61746E" stroke-width="1.4" stroke-linecap="round" stroke-linejoin="round"></path>
                <path d="M6.86822663,13.7572657 L9.26681299,13.5377202 C9.26681299,13.5377202 17.6304494,8.68085201 18.006813,8.44489292 C18.5862039,8.0821202 19.2319812,7.47711565 18.7407221,6.70243383 C18.2039857,5.85561565 17.1387721,6.35032474 16.8589039,6.51676111 C16.5790357,6.68319747 17.9471175,5.85812474 18.2167403,5.69754292 C18.486363,5.53696111 19.4633403,4.81632929 18.9506494,3.95497929 C18.4379584,3.09362929 17.3486994,3.6028702 17.0688312,3.76930656 C16.788963,3.93574292 17.2392403,3.66601565 17.5087584,3.50553838 C17.7782766,3.34506111 18.755463,2.62442929 18.2427721,1.76307929 C17.7300812,0.901729287 16.6408221,1.4109702 16.3609539,1.57740656 C16.0810857,1.74384292 14.7873357,2.51078838 15.0568539,2.35031111 C15.3263721,2.18983383 16.3035584,1.46920201 15.7908675,0.607852015 C15.2781766,-0.253497985 14.1889175,0.255638378 13.9090494,0.422179287 C13.6291812,0.588720197 7.12718572,4.45115201 7.12718572,4.45115201 C7.60162304,3.96105732 7.98378879,3.38942008 8.25533572,2.76368383 C8.50499027,1.79465201 7.62963117,0.592170197 7.40308117,0.656883833 L4.50696299,3.57610656 L4.26473117,7.75625201 L3.55141754,8.13920201 L6.86948117,13.7565338" id="Path" fill="#E4F2F4" fill-rule="nonzero"></path>
                <path d="M4.43210845,9.63012474 C7.03225845,9.41476111 12.7977312,8.86098383 12.7977312,8.86098383 L17.1363675,6.33485201 C17.686389,6.03290561 18.3752725,6.18927216 18.7410357,6.69908838 C19.2313539,7.47920656 18.5850539,8.08086565 18.0055584,8.44499747 C17.6266857,8.68273383 9.26921754,13.5412747 9.26921754,13.5412747 L6.86969027,13.7566384 L4.43210845,9.63012474 Z" id="Path" fill="#B1DCE1" fill-rule="nonzero"></path>
                <rect id="Rectangle" fill="#199AA9" fill-rule="nonzero" transform="translate(3.726725, 11.832626) rotate(-30.556500) translate(-3.726725, -11.832626) " x="2" y="7.50088991" width="3.45345" height="8.66347273" rx="0.243172727"></rect>
                <rect id="Rectangle" stroke="#61746E" stroke-width="1.4" stroke-linecap="round" stroke-linejoin="round" transform="translate(3.726725, 11.832626) rotate(-30.556500) translate(-3.726725, -11.832626) " x="2" y="7.50088991" width="3.45345" height="8.66347273" rx="0.243172727"></rect>
                <path d="M3.65721754,8.11494747 L4.26473117,7.75625201 L4.50696299,3.57610656 L7.40287208,0.656883833 C7.62942208,0.592170197 8.50478117,1.79465201 8.25512663,2.76368383 C7.98389407,3.38934018 7.60208603,3.9609721 7.12802208,4.45115201 L8.40483572,3.69664747 L9.21129936,3.21427474" id="Path" stroke="#61746E" stroke-width="1.4" stroke-linecap="round" stroke-linejoin="round"></path>
                <path d="M8.20086754,3.80788383 C8.20086754,3.80788383 13.6302266,0.588615651 13.9098857,0.422179287 C14.1895448,0.255742924 15.2788039,-0.253497985 15.7917039,0.607852015 C16.3046039,1.46920201 15.3272084,2.18983383 15.0576903,2.35031111 C14.7881721,2.51078838 11.6002675,4.38466111 11.6002675,4.38466111 C11.6002675,4.38466111 16.0821312,1.74384292 16.3617903,1.57740656 C16.6414494,1.4109702 17.7307084,0.901729287 18.2436084,1.76307929 C18.7565084,2.62442929 17.779113,3.34516565 17.5095948,3.50553838 C17.2400766,3.66591111 12.6125812,6.3548202 12.6125812,6.3548202" id="Path" stroke="#61746E" stroke-width="1.4" stroke-linecap="round" stroke-linejoin="round"></path>
                <path d="M12.612163,6.36945656 C12.612163,6.36945656 16.7895903,3.93574292 17.0692494,3.76930656 C17.3489084,3.6028702 18.4381675,3.09362929 18.9510675,3.95497929 C19.4639675,4.81632929 18.4866766,5.53706565 18.2171584,5.69754292 C17.9476403,5.8580202 13.8762221,8.25472474 13.8762221,8.25472474 C13.8762221,8.25472474 16.579663,6.68319747 16.8593221,6.51676111 C17.1389812,6.35032474 18.2041948,5.85592929 18.7411403,6.70243383 C19.2325039,7.47711565 18.5866221,8.08243383 18.0072312,8.44489292 C17.6308675,8.68085201 9.26723117,13.5377202 9.26723117,13.5377202 L6.86864481,13.7572657" id="Path" stroke="#61746E" stroke-width="1.4" stroke-linecap="round" stroke-linejoin="round"></path>
            </g>
            <g id="Group" transform="translate(12.633377, 0.238692)" stroke="#61746E" stroke-linecap="round" stroke-linejoin="round" stroke-width="1.4">
                <line x1="0.218186364" y1="0.638877273" x2="0.827268182" y2="2.22127727" id="Path"></line>
                <line x1="3.49432727" y1="-8.8817842e-16" x2="3.52401818" y2="1.69384545" id="Path"></line>
                <line x1="6.73325" y1="0.713209091" x2="6.18355" y2="2.31045455" id="Path"></line>
            </g>
        </g>
    </g>
</svg>