<?xml version="1.0" encoding="UTF-8"?>
<svg width="24px" height="24px" viewBox="0 0 24 24" version="1.1" xmlns="http://www.w3.org/2000/svg" xmlns:xlink="http://www.w3.org/1999/xlink">
    <title>02 Icons/Reactions/Good Idea/24x24 V1</title>
    <g id="02-Icons/Reactions/Good-Idea/24x24-V1" stroke="none" stroke-width="1" fill="none" fill-rule="evenodd">
        <g id="Group-2" transform="translate(6.500000, 4.979773)">
            <path d="M5.47840375,8.41761364 C7.49968017,8.51659937 9.46514743,7.73740566 10.8695401,6.28034091 C10.898846,6.05944262 10.9151619,5.83701473 10.9184038,5.61420455 C10.9398039,4.14619454 10.376991,2.72984332 9.35384513,1.6769027 C8.33069929,0.623962083 6.93108239,0.0207359976 5.46306285,0 C3.99393912,0.019304092 2.592751,0.621844971 1.56815889,1.67489206 C0.543566773,2.72793914 -0.0203744631,4.14510319 0.000562845037,5.61420455 C0.00412159879,5.82406503 0.0190678226,6.03357771 0.0453355723,6.24181818 C0.0695401178,6.27034091 0.0959037541,6.30386364 0.118290118,6.32795455 C1.52564278,7.75641176 3.47557239,8.51659865 5.47840375,8.41761364 L5.47840375,8.41761364 Z" id="Path" fill="#F5CD95" fill-rule="nonzero"></path>
            <path d="M7.69817648,10.8046591 C9.45436768,9.93220814 10.6483916,8.22879453 10.8695401,6.28034091 C9.46514743,7.73740566 7.49968017,8.51659937 5.47840375,8.41761364 C3.47557239,8.51659865 1.52564278,7.75641176 0.118290118,6.32795455 C0.095562845,6.30386364 0.0695401178,6.27034091 0.0453355723,6.24181818 C0.239425253,8.17782165 1.42509972,9.8740827 3.17658557,10.7214773 C3.43368585,11.4696647 3.57262541,12.2533466 3.58840375,13.0443182 L7.33056285,13.0443182 C7.35067924,12.2845213 7.47435751,11.5310206 7.69817648,10.8046591 Z" id="Path" fill="#F0B057" fill-rule="nonzero"></path>
            <path d="M5.47954012,18.2965909 C6.18855676,18.2892154 6.82032659,17.8473376 7.07044921,17.1838636 L7.6976083,17.1764773 C8.16600605,16.6113313 8.16600605,15.7928732 7.6976083,15.2277273 C8.00864813,14.9507758 8.18656163,14.5541412 8.18656163,14.1376705 C8.18656163,13.7211997 8.00864813,13.3245651 7.6976083,13.0476136 L3.26204012,13.0476136 C2.95100029,13.3245651 2.77308679,13.7211997 2.77308679,14.1376705 C2.77308679,14.5541412 2.95100029,14.9507758 3.26204012,15.2277273 C2.79364237,15.7928732 2.79364237,16.6113313 3.26204012,17.1764773 L3.88919921,17.1838636 C4.13924667,17.8471458 4.77073195,18.2889824 5.47954012,18.2965909 Z" id="Path" fill="#D5DDDA" fill-rule="nonzero"></path>
            <path d="M7.33056285,13.0443182 C7.34017061,12.2835611 7.46409332,11.5285711 7.69817648,10.8046591 C9.6702331,9.8264961 10.9178667,7.81552457 10.9184038,5.61420455 C10.9398041,4.14621395 10.3770067,2.72987977 9.35388531,1.67694242 C8.33076395,0.624005066 6.93117619,0.020765864 5.46317648,0 C3.99404259,0.0193042618 2.592843,0.621841463 1.56823285,1.67488518 C0.543622695,2.7279289 -0.0203440216,4.14509259 0.000562845036,5.61420455 C-0.0166610408,7.78733342 1.21991649,9.77583893 3.17658557,10.7214773 C3.445827,11.4678019 3.58627353,12.2544561 3.59192648,13.0478409" id="Path" stroke="#61746E" stroke-width="1.45833333" stroke-linecap="round" stroke-linejoin="round"></path>
            <line x1="5.45942648" y1="7.72295455" x2="3.63624466" y2="5.50306818" id="Path" stroke="#61746E" stroke-width="1.45833333" stroke-linecap="round" stroke-linejoin="round"></line>
            <line x1="5.45942648" y1="7.72295455" x2="7.2826083" y2="5.50306818" id="Path" stroke="#61746E" stroke-width="1.45833333" stroke-linecap="round" stroke-linejoin="round"></line>
            <line x1="5.45942648" y1="13.0478409" x2="5.45942648" y2="7.72295455" id="Path" stroke="#61746E" stroke-width="1.45833333" stroke-linecap="round" stroke-linejoin="round"></line>
            <path d="M7.6613583,15.2298864 C8.12473367,15.7961858 8.12316313,16.6110591 7.6576083,17.1755682 L7.02533557,17.1830682 C6.79119946,17.8493678 6.16191648,18.2952437 5.45567648,18.2952437 C4.74943649,18.2952437 4.1201535,17.8493678 3.88601739,17.1830682 L3.26101739,17.1755682 C2.7922642,16.6111939 2.7938422,15.7924496 3.26476739,15.2298864 C2.95373983,14.9517865 2.77595215,14.5543284 2.77595215,14.1371023 C2.77595215,13.7198761 2.95373983,13.3224181 3.26476739,13.0443182 L7.6613583,13.0443182 C7.67272194,13.0280682 8.86442648,13.8506818 7.6613583,15.2298864 Z" id="Path" stroke="#61746E" stroke-width="1.45833333" stroke-linecap="round" stroke-linejoin="round"></path>
            <line x1="3.26488103" y1="15.2298864" x2="7.6613583" y2="15.2298864" id="Path" stroke="#61746E" stroke-width="1.45833333" stroke-linecap="round" stroke-linejoin="round"></line>
        </g>
        <g id="Group" transform="translate(3.000000, 0.700000)" stroke="#61746E" stroke-linecap="round" stroke-linejoin="round" stroke-width="1.45833333">
            <line x1="9.08329545" y1="0.0121590909" x2="9.08329545" y2="1.12420455" id="Path"></line>
            <line x1="3.90840909" y1="1.39681818" x2="4.45715909" y2="2.36397727" id="Path"></line>
            <line x1="0.0909090909" y1="5.15477273" x2="1.04545455" y2="5.72522727" id="Path"></line>
            <line x1="14.2581818" y1="1.39681818" x2="13.7094318" y2="2.36397727" id="Path"></line>
            <line x1="18.0756818" y1="5.15477273" x2="17.1211364" y2="5.72522727" id="Path"></line>
        </g>
    </g>
</svg>