<svg xmlns="http://www.w3.org/2000/svg" width="20" height="20" viewBox="0 0 20 20">
    <g fill="none" fill-rule="evenodd">
        <g>
            <g transform="translate(-26 -16) translate(27 17)">
                <circle cx="9" cy="9" r="9.5" fill="#A9D12C" fill-rule="nonzero" stroke="#FFF"/>
                <rect width="2.783" height="6.982" x="3.625" y="7.043" stroke="#FFF" stroke-linecap="round" stroke-linejoin="round" stroke-width=".75" rx=".121"/>
                <path fill="#FFF" fill-rule="nonzero" d="M6.409 7.94h.297l1.898-2.75.532-2.7c.36-.363 1.491.27 1.491 1.39-.04.98-.156 1.954-.346 2.916h3.356c.496.001.897.403.899.899-.002.495-.403.897-.9.899h-.092c.496.001.897.403.899.898-.002.496-.403.898-.9.9h-.393c.496 0 .897.403.899.899-.002.495-.403.897-.9.898h-.37c.496.002.898.404.899.9-.001.495-.403.897-.899.898H8.163l-1.755-.83"/>
            </g>
        </g>
    </g>
</svg>
