<svg data-name="Layer 1" xmlns="http://www.w3.org/2000/svg" width="16" height="16" viewBox="0 0 16 16">
    <path data-name="16x16-a" d="M9.985.248a7.956 7.956 0 012.192.928 2.001 2.001 0 002.647 2.647 7.956 7.956 0 01.928 2.192 2 2 0 000 3.97 7.956 7.956 0 01-.928 2.193 2.001 2.001 0 00-2.647 2.647 7.956 7.956 0 01-2.192.927 2 2 0 00-3.97 0 7.956 7.956 0 01-2.193-.927 2.001 2.001 0 00-2.647-2.647 7.956 7.956 0 01-.927-2.193A2 2 0 002 8 2 2 0 00.248 6.015a7.956 7.956 0 01.928-2.192 2.001 2.001 0 002.647-2.647A7.956 7.956 0 016.015.248 2 2 0 008 2 2 2 0 009.985.248zm.24 3.077a4.001 4.001 0 01-4.45 0 4.011 4.011 0 01-2.45 2.45 4.001 4.001 0 010 4.45 4.011 4.011 0 012.45 2.45 4.001 4.001 0 014.45 0 4.011 4.011 0 012.45-2.45 4.001 4.001 0 010-4.45 4.011 4.011 0 01-2.45-2.45zM8 5a3 3 0 11-3 3 3 3 0 013-3zm0 2a1 1 0 101 1 1 1 0 00-1-1z" fill="currentColor"/>
</svg>
