<svg width="40" height="40" viewBox="0 0 40 40" fill="none" xmlns="http://www.w3.org/2000/svg">
    <path d="M20 34.467c7.99 0 14.467-6.477 14.467-14.467S27.99 5.533 20 5.533 5.533 12.01 5.533 20 12.01 34.467 20 34.467Zm0-30.934c9.094 0 16.467 7.373 16.467 16.467 0 9.094-7.373 16.467-16.467 16.467-9.094 0-16.467-7.373-16.467-16.467 0-9.094 7.373-16.467 16.467-16.467ZM21.494 19h-2.988a2.25 2.25 0 0 0-2.25 2.25v8.478a2.25 2.25 0 0 0 2.25 2.25h2.988a2.25 2.25 0 0 0 2.25-2.25V21.25a2.25 2.25 0 0 0-2.25-2.25Zm0 2a.25.25 0 0 1 .25.25v8.478a.25.25 0 0 1-.25.25h-2.988a.25.25 0 0 1-.25-.25V21.25a.25.25 0 0 1 .25-.25h2.988ZM20 9.394a3.745 3.745 0 1 0 0 7.49 3.745 3.745 0 0 0 0-7.49Zm0 2a1.744 1.744 0 1 1 0 3.49 1.744 1.744 0 0 1 0-3.49Z" fill="currentColor"/>
</svg>
