<svg xmlns="http://www.w3.org/2000/svg" width="28" height="28" fill="none">
    <path fill="currentColor" d="M10 21a4 4 0 0 1-8 0H1a1 1 0 0 1-1-1V3a1 1 0 0 1 1-1h16a1 1 0 0 1 1 1v5h3.438a2 2 0 0 1 1.94 1.515L24 12h2a2 2 0 0 1 2 2v5a2 2 0 0 1-1.85 1.994L26 21a4 4 0 0 1-8 0h-8zm-4-2a2 2 0 1 0 0 4 2 2 0 0 0 0-4zm16 0a2 2 0 1 0 0 4 2 2 0 0 0 0-4zm-6-4H2v4h.535l-.012.021.092-.154A3.997 3.997 0 0 1 6 17c1.425 0 2.676.745 3.385 1.867l.091.154L9.465 19H16v-4zm5.438-5H18v9h.535l-.012.021.092-.154A3.997 3.997 0 0 1 22 17c1.425 0 2.676.745 3.385 1.867l.091.154-.011-.021H26v-5h-3.562l-1-4zM16 4H2v9h14V4z"/>
</svg>
