<svg data-name="Layer 1" xmlns="http://www.w3.org/2000/svg" width="20" height="20" viewBox="0 0 20 20">
    <path data-name="20x20-a" d="M2 9v9h3V9zM12.644.894l.41.274a3.692 3.692 0 011.573 3.796L14.22 7h2.59q.136 0 .272.012a3 3 0 012.716 3.26l-.637 7A3 3 0 0116.174 20H12.33a4.996 4.996 0 01-.822-.068l-4.525-.754A1 1 0 016 20H1a1 1 0 01-1-1V8a1 1 0 011-1h5a.997.997 0 01.727.313l1.433-.955 1.477-4.432A2 2 0 0112.644.894zm-1.11 1.664l-1.477 4.433a2 2 0 01-.788 1.031L7 9.535v7.618l4.838.806a3.006 3.006 0 00.493.041h3.843a1 1 0 00.996-.91l.636-7a1 1 0 00-.906-1.086A1.2 1.2 0 0016.81 9h-2.59a2 2 0 01-1.961-2.392l.407-2.036a1.692 1.692 0 00-.72-1.74z" fill="currentColor"/>
</svg>
