<svg data-name="Layer 1" xmlns="http://www.w3.org/2000/svg" width="20" height="20" viewBox="0 0 20 20">
    <path data-name="20x20-a" d="M13 17a4 4 0 014-4q.188 0 .374.017a4 4 0 010-6.034Q17.188 7 17 7a4 4 0 01-4-4q0-.188.017-.374a4 4 0 01-6.034 0Q7 2.811 7 3a4 4 0 01-4 4q-.188 0-.374-.017a4 4 0 010 6.034Q2.811 13 3 13a4 4 0 014 4q0 .188-.017.374a4 4 0 016.034 0Q13 17.189 13 17zM11.99.198a9.942 9.942 0 013.527 1.46 2 2 0 002.825 2.825 9.945 9.945 0 011.46 3.527 2 2 0 000 3.98 9.945 9.945 0 01-1.46 3.527 2 2 0 00-2.825 2.825 9.942 9.942 0 01-3.527 1.46 2 2 0 00-3.98 0 9.942 9.942 0 01-3.527-1.46 2 2 0 00-2.825-2.825 9.944 9.944 0 01-1.46-3.527A2 2 0 002 10 2 2 0 00.198 8.01a9.944 9.944 0 011.46-3.527 2 2 0 002.825-2.825A9.942 9.942 0 018.01.198 2 2 0 0010 2 2 2 0 0011.99.198zM10 6a4 4 0 104 4 4 4 0 00-4-4zm0 2a2 2 0 11-2 2 2 2 0 012-2z" fill="currentColor"/>
</svg>
