<svg data-name="Layer 1" xmlns="http://www.w3.org/2000/svg" width="20" height="20" viewBox="0 0 20 20">
    <path data-name="20x20-a" d="M5.667 8.25 7.77 6.673a2.5 2.5 0 0 0 .904-1.313L9.7 1.769a1.667 1.667 0 0 1 2.602-.876l.064.054a4.654 4.654 0 0 1 1.384 2.02 4.258 4.258 0 0 1 .109 2.431L13.333 7.5h4.034a2.5 2.5 0 0 1 2.5 2.5q0 .096-.007.192l-.518 6.73A3.333 3.333 0 0 1 16.018 20h-4.114a4.165 4.165 0 0 1-.59-.042l-4.883-.697A1.667 1.667 0 0 1 5 17.61V9.583a1.667 1.667 0 0 1 .667-1.333ZM.75 8.5h1.5a.742.742 0 0 1 .75.733v9.534a.742.742 0 0 1-.75.733H.75a.742.742 0 0 1-.75-.733V9.233A.742.742 0 0 1 .75 8.5Z" fill="currentColor" fill-rule="evenodd"/>
</svg>
