<svg data-name="Layer 1" xmlns="http://www.w3.org/2000/svg" width="20" height="20" viewBox="0 0 20 20">
    <path data-name="20x20-a" d="M10 18a8 8 0 10-8-8 8 8 0 008 8zm0-18A10 10 0 110 10 10 10 0 0110 0zm1.044 8.598l-2.642.005A.396.396 0 008.005 9L8 10.024a.396.396 0 00.397.397 1 1 0 011 1v1.219a1 1 0 01-.88.993l-.115.007a.396.396 0 00-.397.397V15a.348.348 0 00.391.34h4a.357.357 0 00.402-.34v-.964a.396.396 0 00-.396-.396l-.555-.005a.442.442 0 01-.45-.391L11.402 9a.367.367 0 00-.358-.402zM10 4a2 2 0 102 1.998A2 2 0 0010 4z" fill="currentColor"/>
</svg>
