<svg data-name="Layer 1" xmlns="http://www.w3.org/2000/svg" width="28" height="28" viewBox="0 0 28 28">
    <path fill="none" d="M0 0h28v28H0z"/>
    <path data-name="28x28-a" d="M16.121 1.98l9.9 9.9A3.002 3.002 0 0125 16.79V25a2 2 0 01-2 2h-5a2 2 0 01-2-2v-6h-4v6a2 2 0 01-2 2H5a2 2 0 01-2-2v-8.209a3.002 3.002 0 01-1.02-4.912l9.9-9.9a3 3 0 014.241 0zM14 8.342l-7.778 7.778A2.987 2.987 0 015 16.862L5 25h5v-6a2 2 0 012-2h4a2 2 0 012 2v6h5v-8.138a2.987 2.987 0 01-1.222-.74zm-.707-4.95l-9.9 9.9a1 1 0 001.415 1.414l8.485-8.485a1 1 0 011.414 0l8.485 8.485a1 1 0 001.415-1.414l-9.9-9.9a1 1 0 00-1.414 0z" fill="currentColor"/>
</svg>
