<svg xmlns="http://www.w3.org/2000/svg" width="28" height="28" data-name="Layer 1" viewBox="0 0 28 28">
    <path fill="none" d="M0 0h28v28H0z"/>
    <path fill="currentColor" d="m18.526 9.162 4.584-3.994 1.395 1.609-4.584 3.993Zm.93-7.173L17.596.954l-2.65 4.791 1.86 1.035ZM10.123 3.2l12.711 14.654-1.467 1.278-.974-1.12-4.263 2.05 1.573 3.38-7.709 3.602-1.533-3.295-3.763 1.809a1.212 1.212 0 0 1-1.442-.297L.322 21.879a1.217 1.217 0 0 1-.094-1.473L9.869 5.879l-1.213-1.4Zm4.995 19.3-.719-1.545-4.183 1.955.719 1.545ZM11.154 7.458l-9 13.56 2.204 2.543 3.282-1.577-.007-.015 1.33-.622 10.048-4.83Zm16.06 2.758-5.103 1.963.761 1.989 5.104-1.964Z" data-name="28x28-a"/>
</svg>
