<svg data-name="Layer 1" xmlns="http://www.w3.org/2000/svg" width="20" height="20" viewBox="0 0 20 20">
    <path data-name="20x20-a" d="M12.509 0a1.918 1.918 0 012.065 1.94A2.69 2.69 0 0111.8 4.47a1.805 1.805 0 01-2.009-2A2.624 2.624 0 0112.51 0zM8.317 20c-1.065 0-1.89-.648-1.121-3.53l1.239-5.117c.235-.822.235-1.118 0-1.118a9.332 9.332 0 00-2.6 1.118l-.53-.883C7.96 8.291 10.974 7 12.274 7c1.065 0 1.239 1.296.709 3.235l-1.418 5.352c-.235.94-.117 1.296.118 1.296a5.333 5.333 0 002.421-1.235l.592.822C12.156 19 9.378 20 8.317 20z" fill="currentColor"/>
</svg>
