<svg data-name="Layer 1" xmlns="http://www.w3.org/2000/svg" width="28" height="28" viewBox="0 0 28 28">
    <path fill="none" d="M.206 0h28v28h-28z"/>
    <path data-name="28x28-a" d="M14.015 0a6 6 0 0 1 4.112 10.37c2.96 2.129 5.295 6.76 6.24 14.029a3.085 3.085 0 0 1-2.338 3.54 2.998 2.998 0 0 1-.601.061H6.603a3 3 0 0 1-3-3 4.674 4.674 0 0 1 .06-.601c.945-7.27 3.281-11.9 6.242-14.03A6 6 0 0 1 14.015 0Zm-2.237 11.569-.049.024c-2.661 1.434-5.018 5.55-6.106 13.207a1.435 1.435 0 0 0-.02.2 1 1 0 0 0 1 1h14.825a1 1 0 0 0 .2-.02 1.024 1.024 0 0 0 .78-1.18c-1.095-7.703-3.474-11.822-6.156-13.233a6.009 6.009 0 0 1-4.475.002ZM14.015 2a4 4 0 1 0 4 4 4 4 0 0 0-4-4Z" fill="currentColor"/>
</svg>
