<svg data-name="Layer 1" xmlns="http://www.w3.org/2000/svg" width="28" height="28" viewBox="0 0 28 28">
    <path fill="none" d="M0 0h28v28H0z"/>
    <path data-name="28x28-a" d="M14 0a8 8 0 0 1 8 8v1h1a4 4 0 0 1 4 4v11a4 4 0 0 1-4 4H5a4 4 0 0 1-4-4V13a4 4 0 0 1 4-4h15V8A6 6 0 0 0 8 8H6a8 8 0 0 1 8-8Zm9 11H5a2 2 0 0 0-2 2v11a2 2 0 0 0 2 2h18a2 2 0 0 0 2-2V13a2 2 0 0 0-2-2Zm-9 3a4 4 0 0 1 1 7.874V24h-2v-2.126A4 4 0 0 1 14 14Zm0 2a2 2 0 1 0 2 2 2 2 0 0 0-2-2Z" fill="currentColor" fill-rule="evenodd"/>
</svg>
