<svg data-name="Layer 1" xmlns="http://www.w3.org/2000/svg" width="24" height="24" viewBox="0 0 24 24">
    <path fill="none" d="M0 0h24v24H0z"/>
    <path data-name="24x24-a" d="M12 0a7 7 0 017 7q0 2.592-3.146 8H21l3 9H0l3-9h5.146Q5 9.592 5 7a7 7 0 017-7zM9.356 17H4.441l-1.666 5h18.45l-1.667-5h-4.914Q13.478 18.86 12 21q-1.478-2.14-2.644-4zM12 2a5 5 0 00-5 5c0 1.751 1.667 5.317 5 10.418C15.334 12.317 17 8.75 17 7a5 5 0 00-5-5zm0 2a3 3 0 11-3 3 3 3 0 013-3zm0 2a1 1 0 101 1 1 1 0 00-1-1z" fill="currentColor"/>
</svg>
