<svg xmlns="http://www.w3.org/2000/svg" width="28" height="28" fill="none" viewBox="0 0 28 28">
    <path stroke="currentColor" stroke-width="1.5" d="M3.5 12.25a2.188 2.188 0 1 1 4.375 0 2.188 2.188 0 0 1-4.375 0ZM22.313 10.063a2.188 2.188 0 1 0 0 4.375 2.188 2.188 0 0 0 0-4.376ZM20.125 6.563a2.188 2.188 0 1 0-4.375 0 2.188 2.188 0 0 0 4.375 0ZM7.875 6.563a2.188 2.188 0 1 1 4.375 0 2.188 2.188 0 0 1-4.375 0ZM14 21.875c-.91 0-1.925.414-2.818.913-1.38.77-3.22.557-4.112-.748-.966-1.414-.328-3.366 1.123-4.275.72-.452 1.412-.987 1.87-1.578.55-.71.959-1.752 1.242-2.686.367-1.207 1.434-2.126 2.695-2.126s2.328.92 2.695 2.126c.283.934.692 1.977 1.242 2.687.458.59 1.15 1.125 1.87 1.577 1.451.91 2.09 2.86 1.123 4.275-.891 1.305-2.732 1.519-4.112.748-.893-.5-1.908-.913-2.818-.913Z"/>
</svg>
