<svg data-name="Layer 1" xmlns="http://www.w3.org/2000/svg" width="28" height="28" viewBox="0 0 28 28">
    <path fill="none" d="M0 0h28v28H0z"/>
    <path data-name="28x28-a" d="M23.88 4A3.232 3.232 0 0 1 27 7.333v13.334A3.232 3.232 0 0 1 23.88 24H4.12A3.232 3.232 0 0 1 1 20.667V7.333A3.232 3.232 0 0 1 4.12 4ZM17 15.414l-.879.879a3 3 0 0 1-4.242 0L11 15.414 4.414 22h19.171ZM2.96 7.375v13.249L9.586 14Zm22.041.038L18.414 14l6.624 6.623ZM23.584 6H4.415l8.878 8.879a1 1 0 0 0 1.414 0Z" fill="currentColor"/>
</svg>
