<svg xmlns="http://www.w3.org/2000/svg" width="20" height="20" data-name="Layer 1" viewBox="0 0 20 20">
    <path fill="currentColor" d="m16.534 13.536.33-.666A9.04 9.04 0 0 0 18 9.5C18 5.989 14.484 3 10 3S2 5.989 2 9.5 5.516 16 10 16a14.684 14.684 0 0 0 3.62-.695l.57-.164 2.989.91ZM10 1c5.523 0 10 3.806 10 8.5a10.497 10.497 0 0 1-1.344 4.26L20 19l-5.826-1.774A16.267 16.267 0 0 1 10 18C4.477 18 0 14.194 0 9.5S4.477 1 10 1Zm4 9H8a1 1 0 0 0 0 2h6a1 1 0 0 0 0-2Zm-2-3H6a1 1 0 0 0 0 2h6a1 1 0 0 0 0-2Z" data-name="20x20-a"/>
</svg>
