<svg data-name="Layer 1" xmlns="http://www.w3.org/2000/svg" width="24" height="24" viewBox="0 0 24 24">
    <path data-name="24x24-a" d="m7.013.822 3.744 3.745a2.597 2.597 0 0 1 0 3.673L9.168 9.828a14.616 14.616 0 0 0 2.213 2.852 14.616 14.616 0 0 0 2.852 2.213l1.59-1.589a2.597 2.597 0 0 1 3.672 0l3.744 3.745a2.597 2.597 0 0 1 0 3.672l-1.803 1.804a5.245 5.245 0 0 1-6.527.715 45.891 45.891 0 0 1-7.824-6.263A45.891 45.891 0 0 1 .82 9.152a5.245 5.245 0 0 1 .715-6.526L3.34.822a2.597 2.597 0 0 1 3.673 0ZM5.598 2.236a.597.597 0 0 0-.761-.069l-.083.07L2.951 4.04a3.245 3.245 0 0 0-.443 4.038 43.903 43.903 0 0 0 5.99 7.485 43.903 43.903 0 0 0 7.486 5.99 3.245 3.245 0 0 0 3.894-.307l.144-.135 1.803-1.804a.597.597 0 0 0 .07-.761l-.07-.083-3.745-3.745a.597.597 0 0 0-.761-.069l-.083.07-2.69 2.691-1.339-.8a16.618 16.618 0 0 1-3.24-2.516A16.512 16.512 0 0 1 7.726 11.3l-.275-.444-.8-1.339 2.692-2.69a.597.597 0 0 0 .07-.762l-.07-.083Z" fill="currentColor"/>
</svg>
