<svg xmlns="http://www.w3.org/2000/svg" width="16" height="16" data-name="Layer 1" viewBox="0 0 16 16">
    <path fill="currentColor" fill-rule="evenodd" d="M8 0a2 2 0 0 1 2 2q0 .063-.004.125A4.002 4.002 0 0 1 13 6v4.535A3.998 3.998 0 0 1 15 14h-5a1.768 1.768 0 0 1-2 2 1.768 1.768 0 0 1-2-2H1a3.998 3.998 0 0 1 2-3.465V6a4.002 4.002 0 0 1 3.004-3.875Q6 2.063 6 2a2 2 0 0 1 2-2Zm0 3.678a3.263 3.263 0 0 0-1.5.384A2.002 2.002 0 0 0 5 6v6h6V6a2.002 2.002 0 0 0-1.5-1.938A3.263 3.263 0 0 0 8 3.678Z"/>
</svg>
