<svg data-name="Layer 1" xmlns="http://www.w3.org/2000/svg" width="24" height="24" viewBox="0 0 24 24">
    <path fill="none" d="M0 0h24v24H0z"/>
    <path data-name="24x24-a" d="M12 0a12 12 0 1 0 12 12A12.013 12.013 0 0 0 12 0Zm4.361 6.663a2.006 2.006 0 1 1-2.005 2.006 2.006 2.006 0 0 1 2.005-2.006Zm-8.723 0A2.006 2.006 0 1 1 5.632 8.67a2.006 2.006 0 0 1 2.006-2.006Zm11.243 9.53a7.797 7.797 0 0 1-13.72 0 .773.773 0 0 1 1.359-.734 6.252 6.252 0 0 0 11.001 0 .773.773 0 0 1 1.36.735Z" fill="currentColor"/>
</svg>
