<svg xmlns="http://www.w3.org/2000/svg" width="28" height="28" data-name="Layer 1" viewBox="0 0 28 28">
    <path fill="none" d="M0 0h28v28H0z"/>
    <path fill="currentColor" d="M14 0A14 14 0 1 1 0 14 14 14 0 0 1 14 0Zm1 2.041V4h-2V2.041a12.003 12.003 0 0 0-10.959 10.96L4 13v2H2.041a12.003 12.003 0 0 0 10.96 10.959L13 24h2v1.959A12.003 12.003 0 0 0 25.96 15L24 15v-2h1.959A12.003 12.003 0 0 0 15.001 2.042Zm6.713 4.831a1 1 0 0 1 0 .703l-4.018 9.535a1 1 0 0 1-.585.585l-9.535 4.018a1 1 0 0 1-1.288-1.288l4.018-9.535a1 1 0 0 1 .585-.585l9.535-4.018a1 1 0 0 1 1.288.585Zm-2.645 2.06-7.05 3.086 3.964 3.964Z" data-name="28x28-a"/>
</svg>
