<svg data-name="Layer 1" xmlns="http://www.w3.org/2000/svg" width="20" height="20" viewBox="0 0 20 20">
    <path data-name="20x20-a" d="M8.07 11.93a14.18 14.18 0 0 1-2.147-2.765l-.8-1.338L7.55 5.401a.164.164 0 0 0 0-.232l-3.12-3.12a.164.164 0 0 0-.232 0L2.694 3.55a2.37 2.37 0 0 0-.323 2.95 36.237 36.237 0 0 0 4.947 6.181 36.242 36.242 0 0 0 6.18 4.947 2.37 2.37 0 0 0 2.95-.323l1.504-1.503a.164.164 0 0 0 0-.232l-3.12-3.12a.164.164 0 0 0-.233 0l-2.426 2.426-1.338-.8A14.175 14.175 0 0 1 8.07 11.93Zm1.414-1.414a12.177 12.177 0 0 0 2.377 1.844l1.324-1.324a2.164 2.164 0 0 1 3.06 0l3.12 3.12a2.164 2.164 0 0 1 0 3.06l-1.502 1.504a4.37 4.37 0 0 1-5.439.596 38.245 38.245 0 0 1-6.52-5.22 38.246 38.246 0 0 1-5.22-6.52 4.37 4.37 0 0 1 .596-5.44L2.783.635a2.164 2.164 0 0 1 3.06 0l3.121 3.12a2.164 2.164 0 0 1 0 3.06L7.64 8.14a12.18 12.18 0 0 0 1.844 2.377Z" fill="currentColor"/>
</svg>
