<svg xmlns="http://www.w3.org/2000/svg" fill="none" viewBox=".12 .35 30.37 39.29">
    <path fill="currentColor" stroke="currentColor" stroke-width=".646" d="m16.322.793-.073.315.073-.315a4.501 4.501 0 0 0-2.033 0L2.026 3.637A1.83 1.83 0 0 0 .6 5.4C.59 7.24.55 8.963.514 10.579c-.042 1.844-.081 3.549-.07 5.134.024 2.996.229 5.641.945 8.165 1.437 5.067 4.93 9.473 12.773 15.08.679.487 1.608.487 2.287 0 7.842-5.607 11.339-10.013 12.776-15.08.716-2.524.92-5.17.942-8.165.012-1.58-.027-3.28-.07-5.117-.037-1.621-.077-3.35-.086-5.197a1.83 1.83 0 0 0-1.427-1.762L16.322.793Zm-1.685 1.452a2.96 2.96 0 0 1 1.337 0l12.263 2.844a.39.39 0 0 1 .17.133c.072.09.091.163.091.183.01 1.88.048 3.605.083 5.212.04 1.828.078 3.502.066 5.074-.023 2.938-.22 5.45-.881 7.783-1.318 4.648-4.488 8.759-12.204 14.277a.541.541 0 0 1-.258.05.533.533 0 0 1-.255-.047C7.332 32.236 4.163 28.125 2.845 23.477c-.662-2.333-.858-4.845-.88-7.784-.013-1.573.024-3.248.064-5.076.036-1.607.074-3.333.083-5.212 0-.02.02-.094.093-.183a.39.39 0 0 1 .169-.133l12.263-2.844Z"/>
    <path fill="currentColor" stroke="currentColor" stroke-width=".646" d="M14.415 5.45a18.91 18.91 0 0 0-.419.104L7.043 7.27c-.021.006-.048.011-.078.018-.194.041-.554.118-.87.362-.249.192-.447.449-.57.744-.152.364-.143.737-.138.941l.001.088.323.003-.323-.003c-.01 1.071-.032 2.084-.053 3.045-.03 1.383-.057 2.658-.043 3.845.024 2.02.169 3.825.634 5.556.935 3.482 3.163 6.523 8.004 10.29l.198-.255-.198.255.07.056c.147.12.387.317.693.422h.002a.682.682 0 0 0 .628-.102.706.706 0 0 0 .283-.566v-.002l.022-25.502c0-.312-.147-.597-.362-.786a.959.959 0 0 0-.851-.23Zm-.177 1.504L14.22 30.59c-4.314-3.454-6.155-6.122-6.954-9.097-.42-1.56-.556-3.242-.58-5.206a120.05 120.05 0 0 1 .041-3.804c.02-.95.04-1.961.05-3.046a4.783 4.783 0 0 1 .038-.514.451.451 0 0 1 .095-.126l.013-.005a4.225 4.225 0 0 1 .448-.143l6.867-1.696ZM6.82 8.9Z"/>
</svg>
