<svg data-name="Layer 1" xmlns="http://www.w3.org/2000/svg" width="20" height="20" viewBox="0 0 20 20">
    <path data-name="20x20-a" d="M17 1l2.561 7.684a1 1 0 01-.56 1.238L19 18a1 1 0 01-1 1H8v-4a1 1 0 00-2 0v4H2a1 1 0 01-1-1V9.922a1 1 0 01-.56-1.238L3 1zm0 9H3v7h1v-3a2 2 0 012-2h2a2 2 0 012 2v3h7zm-3 2a1 1 0 011 1v1a1 1 0 01-1 1h-1a1 1 0 01-1-1v-1a1 1 0 011-1zM5.856 2.999L4.441 3 2.775 8l2.367-.001zm8.286 0l.714 5 2.37.001-1.667-5zm-2 0H11v5h1.857zM9 2.999H7.856l-.714 5H9z" fill="currentColor"/>
</svg>
