<svg width="28" height="28" fill="none" xmlns="http://www.w3.org/2000/svg">
    <path d="m5.844 8.634 3.12 3.12a2.164 2.164 0 0 1 0 3.06L7.64 16.14a12.179 12.179 0 0 0 1.844 2.377 12.175 12.175 0 0 0 2.377 1.844l1.324-1.324a2.164 2.164 0 0 1 3.06 0l3.121 3.12a2.164 2.164 0 0 1 0 3.06l-1.503 1.504a4.37 4.37 0 0 1-5.439.596 38.248 38.248 0 0 1-6.52-5.22 38.246 38.246 0 0 1-5.22-6.52 4.37 4.37 0 0 1 .596-5.44l1.503-1.502a2.164 2.164 0 0 1 3.06 0zm-1.646 1.414-1.504 1.503a2.37 2.37 0 0 0-.323 2.95 36.242 36.242 0 0 0 4.947 6.18 36.24 36.24 0 0 0 6.18 4.948 2.37 2.37 0 0 0 2.95-.323l1.504-1.504a.164.164 0 0 0 0-.232l-3.12-3.12a.164.164 0 0 0-.233 0l-2.426 2.426-1.338-.8A14.175 14.175 0 0 1 8.07 19.93a14.18 14.18 0 0 1-2.147-2.765l-.8-1.338 2.427-2.426a.164.164 0 0 0 0-.232l-3.12-3.12a.164.164 0 0 0-.232 0zm21.75 4.636a1 1 0 0 1-.523 1.221l-.109.044-6 2a1 1 0 0 1-.74-1.854l.108-.044 6-2a1 1 0 0 1 1.265.633zM18.185.73c2.505.151 4.617 1.087 6.337 2.807 1.72 1.72 2.655 3.831 2.806 6.336a1 1 0 0 1-.634.991l-13.48 5.276a1 1 0 0 1-1.296-1.296l5.275-13.48a1 1 0 0 1 .991-.633zm-.477 4.812-1.156 2.95a1.5 1.5 0 1 1-1.092 2.794l-.844 2.156 4.238-1.658a1.5 1.5 0 0 1 2.79-1.091l.872-.343c-.496-1.668-1.021-2.77-1.53-3.278-.509-.509-1.61-1.034-3.278-1.53zm1.072-2.745-.343.875c1.885.573 3.198 1.22 3.963 1.986.766.765 1.412 2.077 1.985 3.961l.875-.341-.04-.265a7.311 7.311 0 0 0-1.89-3.831l-.223-.231c-1.142-1.143-2.48-1.841-4.062-2.113l-.265-.041zm.256 3.81 1.415 1.415-1.415 1.414-1.414-1.414 1.414-1.414zm-5.719-5.556a1 1 0 0 1 .663 1.152l-.03.113-2 6a1 1 0 0 1-1.928-.52l.03-.112 2-6a1 1 0 0 1 1.265-.633z" fill="currentColor"/>
</svg>
