<svg data-name="Layer 1" xmlns="http://www.w3.org/2000/svg" width="20" height="20" viewBox="0 0 20 20">
    <path data-name="20x20-a" d="m17 1 2.561 7.684a1 1 0 0 1-.56 1.238L19 18a1 1 0 0 1-1 1H8v-4a1 1 0 0 0-2 0v4H2a1 1 0 0 1-1-1V9.922a1 1 0 0 1-.56-1.238L3 1Zm0 9H3v7h1v-3a2 2 0 0 1 2-2h2a2 2 0 0 1 2 2v3h7Zm-3 2a1 1 0 0 1 1 1v1a1 1 0 0 1-1 1h-1a1 1 0 0 1-1-1v-1a1 1 0 0 1 1-1ZM5.856 2.999 4.441 3 2.775 8l2.367-.001Zm8.286 0 .714 5 2.37.001-1.667-5Zm-2 0H11v5h1.857ZM9 2.999H7.856l-.714 5H9Z" fill="currentColor"/>
</svg>
