<svg data-name="Layer 1" xmlns="http://www.w3.org/2000/svg" width="24" height="24" viewBox="0 0 24 24">
    <path fill="none" d="M0 0h24v24H0z"/>
    <path data-name="24x24-a" d="M8 11.5v9.633l5.86.837a2.996 2.996 0 0 0 .424.03h4.938a2 2 0 0 0 1.994-1.847l.621-8.076A.981.981 0 0 0 21.84 12a1 1 0 0 0-1-1h-4.453a2 2 0 0 1-1.897-2.633l.77-2.312A2.469 2.469 0 0 0 14.4 3.3l-.838-.628-1.23 4.309a5 5 0 0 1-1.808 2.626ZM14.112.749a2.001 2.001 0 0 1 .65.323l.838.628a4.469 4.469 0 0 1 1.558 4.988L16.388 9h4.452a3 3 0 0 1 3 3q0 .115-.009.23l-.621 8.077A4 4 0 0 1 19.222 24h-4.938a4.994 4.994 0 0 1-.707-.05l-5.588-.798A1 1 0 0 1 7 24H1a1 1 0 0 1-1-1V9a1 1 0 0 1 1-1h6a1 1 0 0 1 1 1l1.324-.993a2.999 2.999 0 0 0 1.084-1.575l1.231-4.31A2 2 0 0 1 14.112.75ZM6 10H2v12h4Z" fill="currentColor"/>
</svg>
