<svg xmlns="http://www.w3.org/2000/svg" width="28" height="28" data-name="Layer 1" viewBox="0 0 28 28">
    <path fill="none" d="M0 0h28v28H0z"/>
    <path fill="currentColor" d="M4 14.5v9a1 1 0 0 0 1 1h1v-5a3 3 0 0 1 3-3h2a3 3 0 0 1 3 3v5h9a1 1 0 0 0 1-1v-9Zm20-13 3.27 8.846A3 3 0 0 1 26 14.098V23.5a3 3 0 0 1-3 3H12v-7a1 1 0 0 0-1-1H9a1 1 0 0 0-1 1v7H5a3 3 0 0 1-3-3v-9.401a3 3 0 0 1-1.27-3.753L4 1.5Zm-3 15h-4a1 1 0 0 0-1 1v4a1 1 0 0 0 1 1h4a1 1 0 0 0 1-1v-4a1 1 0 0 0-1-1Zm-1 2v2h-2v-2ZM7.818 3.5H5.333l-2.756 7.615A1 1 0 0 0 3.5 12.5h2.682Zm14.849 0h-2.485l1.636 9H24.5a1 1 0 0 0 .923-1.385Zm-4.485 0H15v9h4.818ZM13 3.5H9.818l-1.636 9H13Z" data-name="28x28-a"/>
</svg>
