<svg data-name="Layer 1" xmlns="http://www.w3.org/2000/svg" width="24" height="24" viewBox="0 0 24 24">
    <path fill="none" d="M0 0h24v24H0z"/>
    <path data-name="24x24-a" d="M21.192 2.808a1 1 0 010 1.414l-2.234 2.234A22.43 22.43 0 0124 12q-5.373 8-12 8a10.906 10.906 0 01-5.235-1.35l-2.543 2.542a1 1 0 01-1.414-1.414l2.234-2.234A22.43 22.43 0 010 12q5.373-8 12-8a10.906 10.906 0 015.235 1.35l2.543-2.542a1 1 0 011.414 0zm-3.664 5.078l-1.356 1.356a5 5 0 01-6.93 6.93l-.985.987A8.823 8.823 0 0012 18c3.372 0 6.545-1.935 9.554-6a18.44 18.44 0 00-4.026-4.114zM12 6c-3.372 0-6.545 1.935-9.554 6a18.44 18.44 0 004.026 4.114l1.356-1.357a5 5 0 016.93-6.929l.985-.987A8.823 8.823 0 0012 6zm2.708 4.707l-4.002 4a3.001 3.001 0 004.002-4zM12 9a3.001 3.001 0 00-2.708 4.293l4-4.001A2.988 2.988 0 0012 9z" fill="currentColor"/>
</svg>
