<svg data-name="Layer 1" xmlns="http://www.w3.org/2000/svg" width="24" height="24" viewBox="0 0 24 24">
    <path fill="none" d="M0 0h24v24H0z"/>
    <path d="M20.284 2.716a5.858 5.858 0 0 1 0 8.284l-3.569 4H21l3 9H0l3-9h4.285l-3.57-4A5.858 5.858 0 0 1 12 2.716a5.858 5.858 0 0 1 8.284 0ZM9.07 17H4.441l-1.666 5h18.45l-1.667-5H14.93L12 20.284ZM5.13 4.13a3.858 3.858 0 0 0 0 5.456l6.87 7.87 6.87-7.87a3.858 3.858 0 0 0-5.456-5.456L12 5.544 10.586 4.13a3.858 3.858 0 0 0-5.456 0Z" fill="currentColor"/>
</svg>
