<svg data-name="Layer 1" xmlns="http://www.w3.org/2000/svg" width="28" height="28" viewBox="0 0 28 28">
    <path fill="none" d="M0 0h28v28H0z"/>
    <path data-name="28x28-a" d="m16 0 1 2h2l.167 1H21c3.314 0 5 1.686 5 5v15c0 3.314-1.686 5-5 5H7c-3.314 0-5-1.686-5-5V8c0-3.314 1.686-5 5-5h1.833L9 2h2l1-2ZM8.5 5H7c-2.21 0-3 .79-3 3v15c0 2.21.79 3 3 3h14c2.21 0 3-.79 3-3V8c0-2.21-.79-3-3-3h-1.5l.5 3H8ZM18 20v2H8v-2Zm-3-4v2H8v-2Zm5-4v2H8v-2ZM14.764 2h-1.528l-1 2h-1.542l-.333 2h7.278l-.333-2h-1.542Z" fill="currentColor"/>
</svg>
