<svg xmlns="http://www.w3.org/2000/svg" width="28" height="28" fill="none" viewBox="0 0 28 28">
    <path stroke="currentColor" stroke-width="1.5" d="M5.25 14h17.5m-17.5 0v7.75a1 1 0 0 0 1 1H14M5.25 14a1.312 1.312 0 0 1-1.313-1.313V9.813a1.5 1.5 0 0 1 1.5-1.5H14M22.75 14v7.75a1 1 0 0 1-1 1H14M22.75 14c.725 0 1.313-.588 1.313-1.313V9.813a1.5 1.5 0 0 0-1.5-1.5H14m0 14.437V8.312m0 0 1.49-3.871a1.92 1.92 0 0 1 2.504-1.093c1.647.659 1.596 3.008-.079 3.594L14 8.312Zm0 0-1.49-3.871a1.92 1.92 0 0 0-2.504-1.093c-1.647.659-1.596 3.008.079 3.594L14 8.312Z"/>
</svg>
