<svg xmlns="http://www.w3.org/2000/svg" width="28" height="28" data-name="Layer 1" viewBox="0 0 28 28">
    <path fill="none" d="M.025.089h28v28h-28z"/>
    <path fill="currentColor" fill-rule="evenodd" d="M14 2a3 3 0 0 1 2.953 2.466A7.577 7.577 0 0 1 22 12v5.348A6.454 6.454 0 0 1 25 23h-8a3 3 0 0 1-6 0H3a6.454 6.454 0 0 1 3-5.652V12a8.421 8.421 0 0 1 5.029-7.417A3 3 0 0 1 14 2Zm1 21h-2a1 1 0 0 0 2 0Zm-.99-19c-.01 0-1.158 0-1.158 1v.99l-1.055.44A6.422 6.422 0 0 0 8 12v6.504l-1.002.577A3.938 3.938 0 0 0 5.386 21h17.227a3.938 3.938 0 0 0-1.61-1.919L20 18.504V12a5.586 5.586 0 0 0-3.694-5.642l-1.114-.38V5c0-.947-1.07-.997-1.182-1Z" data-name="28x28-a"/>
</svg>
