<svg width="28" height="28" fill="none" xmlns="http://www.w3.org/2000/svg">
    <g clip-path="url(#clip0)">
        <path d="M23.447.106a1 1 0 01.494 1.234l-.046.107-4.343 8.683A3.5 3.5 0 0124 13.5l-.007.223.158.277h.03l-.007.039 3.694 6.465a1 1 0 01-1.672 1.09l-.064-.098-2.48-4.336L21.848 28H6.153L4.346 17.16l-2.478 4.336a1 1 0 01-1.788-.888l.052-.104 3.693-6.465L3.82 14h.028l.157-.278a7 7 0 0111.85-4.766L17.01.86A1 1 0 0118.025 0l.117.01A1 1 0 0119 1.025l-.01.116-1.128 7.898L22.106.553a1 1 0 011.341-.447zM11.402 22H7.18l.667 4h12.305l.667-4-4.221.001c-.488.562-1.374.95-2.4.995L14 23c-1.11 0-2.079-.402-2.598-.999zm10.418-6H6.18l.667 4H11.4c.488-.562 1.374-.951 2.402-.996L14 19c1.11 0 2.08.402 2.599 1h4.553l.667-4zM11 9a5 5 0 00-5 5h1a4 4 0 118 0h.133l.324-2.268A5 5 0 0011 9zm0 3a2 2 0 00-2 2h1a1 1 0 012 0h1a2 2 0 00-2-2zm9.5 0a1.5 1.5 0 00-1.414 2h2.828a1.5 1.5 0 00-1.414-2z" fill="currentColor"/>
    </g>
    <defs>
        <clipPath id="clip0">
            <path fill="currentColor" d="M0 0h28v28H0z"/>
        </clipPath>
    </defs>
</svg>
