<svg data-name="Layer 1" xmlns="http://www.w3.org/2000/svg" width="28" height="28" viewBox="0 0 28 28">
    <path fill="none" d="M0 0h28v28H0z"/>
    <path data-name="28x28-a" d="M17.5 25.35h8v-5.064l-4-3.333-4 3.333Zm-1.64-6.3 5-4.168a1 1 0 0 1 1.28 0l5 4.167a1 1 0 0 1 .36.768v6.532a1 1 0 0 1-1 1h-10a1 1 0 0 1-1-1v-6.532a1 1 0 0 1 .36-.768Zm1.64-7.7h8V6.285l-4-3.333-4 3.333Zm-11-1v4h4v2h-4v4h-2v-4h-4v-2h4v-4ZM22.14.882l5 4.166a1 1 0 0 1 .36.768v6.532a1 1 0 0 1-1 1h-10a1 1 0 0 1-1-1V5.817a1 1 0 0 1 .36-.768l5-4.166a1 1 0 0 1 1.28 0Z" fill="currentColor"/>
</svg>
