<svg width="28" height="28" viewBox="0 0 28 28" fill="none" xmlns="http://www.w3.org/2000/svg">
    <path fill-rule="evenodd" clip-rule="evenodd" d="M3 9V3h6v6H3zM1 2a1 1 0 011-1h8a1 1 0 011 1v8a1 1 0 01-1 1H2a1 1 0 01-1-1V2zm2 23v-6h6v6H3zm-2-7a1 1 0 011-1h8a1 1 0 011 1v8a1 1 0 01-1 1H2a1 1 0 01-1-1v-8zM25 3h-6v6h6V3zm-7-2a1 1 0 00-1 1v8a1 1 0 001 1h8a1 1 0 001-1V2a1 1 0 00-1-1h-8zM8 4H4v4h4V4zM4 20h4v4H4v-4zM24 4h-4v4h4V4zM13 1h2v3h-2V1zm2 5h-2v3h2V6zm0 5h-2v2H9v2h6v-4zm12 16v-5h-2v5h2zm-4-10h-2v4h-4v2h6v-6zm4 3v-3h-2v3h2zm-10-7h10v2H17v-2zM7 13H1v2h6v-2zm8 9h-2v5h10v-2h-8v-3zm-2-2v-3h6v2h-4v1h-2z" fill="currentColor"/>
</svg>
