<svg data-name="Layer 1" xmlns="http://www.w3.org/2000/svg" width="24" height="24" viewBox="0 0 24 24">
    <path fill="none" d="M0 0h24v24H0z"/>
    <path data-name="24x24-a" d="M8 10v2a3 3 0 0 1 3 3v2a3 3 0 0 1-3 3v2h8v-2a3 3 0 0 1-3-3v-7Zm6-2a1 1 0 0 1 1 1v8a1 1 0 0 0 1 1h1a1 1 0 0 1 1 1v4a1 1 0 0 1-1 1H7a1 1 0 0 1-1-1v-4a1 1 0 0 1 1-1h1a1 1 0 0 0 1-1v-2a1 1 0 0 0-1-1H7a1 1 0 0 1-1-1V9a1 1 0 0 1 1-1Zm-2.5-8A3.5 3.5 0 1 1 8 3.5 3.5 3.5 0 0 1 11.5 0Zm0 2A1.5 1.5 0 1 0 13 3.5 1.5 1.5 0 0 0 11.5 2Z" fill="currentColor"/>
</svg>
