<svg xmlns="http://www.w3.org/2000/svg" width="28" height="28" data-name="Layer 1" viewBox="0 0 28 28">
    <path fill="none" d="M0 0h28v28H0z"/>
    <path fill="currentColor" d="M3 10a1 1 0 0 0-1 1v11a1 1 0 0 0 1 1h17a1 1 0 0 0 1-1V11a1 1 0 0 0-1-1Zm22-8a3 3 0 0 1 3 3v11a3 3 0 0 1-3 3h-2v3a3 3 0 0 1-3 3H3a3 3 0 0 1-3-3V11a3 3 0 0 1 3-3h2V5a3 3 0 0 1 3-3h17ZM12.5 13h-2v2.5H8v2h2.5V20h2v-2.5H15v-2h-2.5ZM25 4H8a1 1 0 0 0-1 1v3h13a3 3 0 0 1 3 3v6h2a1 1 0 0 0 1-1V5a1 1 0 0 0-1-1Z" data-name="28x28-a"/>
</svg>
