<svg xmlns="http://www.w3.org/2000/svg" width="28" height="28" fill="none" viewBox="0 0 28 28">
    <path fill="currentColor" fill-rule="evenodd" d="M1.403 1.276a1 1 0 0 1 .884-.155l8.249 2.474 6.541-2.453a1 1 0 0 1 .639-.021l8.571 2.571A1 1 0 0 1 27 4.65v20.571a1 1 0 0 1-1.287.958l-8.249-2.474-6.541 2.453a1 1 0 0 1-.639.021l-8.571-2.571A1 1 0 0 1 1 22.65V2.079a1 1 0 0 1 .403-.803ZM3 3.423v18.483l5.571 1.671V5.094L3 3.423Zm7.571 2.227v18.503l6.506-2.44a.966.966 0 0 1 .066-.021V3.254l-6.22 2.332a1 1 0 0 1-.352.064ZM25 23.877l-5.857-1.757V3.637L25 5.394v18.483Z" clip-rule="evenodd"/>
</svg>
