<svg width="28" height="28" fill="none" xmlns="http://www.w3.org/2000/svg">
    <path d="M18 7c3.069 0 4.733 2.141 4.97 6H25a3 3 0 0 1 3 3v6a6 6 0 0 1-12 0v-6a3 3 0 0 1 3-3h1.97c-.18-2.797-1.164-4-2.97-4-.926 0-1.686 1.435-2.941 5.462l-.314 1.01C13.195 20.408 12.281 22 10 22c-3.325 0-5-2.513-5-7a1 1 0 1 1 2 0c0 3.513.991 5 3 5 .926 0 1.686-1.435 2.941-5.462l.314-1.01C14.805 8.592 15.719 7 18 7zm8 13h-8v2a4 4 0 0 0 7.995.2L26 22v-2zm-5-5h-2a1 1 0 0 0-.993.883L18 16v2h3v-3zm4 0h-2v3h3v-2a1 1 0 0 0-.883-.993L25 15zm-14-4a1 1 0 1 1 0 2H1a1 1 0 1 1 0-2h10zM6 5a1 1 0 0 1 .993.883L7 6a4 4 0 0 1 3.995 3.8L11 10H1a4 4 0 0 1 4-4 1 1 0 0 1 1-1zm0-5a1 1 0 0 1 1 1v2a1 1 0 0 1-2 0V1a1 1 0 0 1 1-1zm5.707 1.293a1 1 0 0 1 .083 1.32l-.083.094-1 1a1 1 0 0 1-1.497-1.32l.083-.094 1-1a1 1 0 0 1 1.414 0zM1.613 1.21l.094.083 1 1a1 1 0 0 1-1.32 1.497l-.094-.083-1-1a1 1 0 0 1 1.32-1.497z" fill="currentColor"/>
</svg>
