<svg data-name="Layer 1" xmlns="http://www.w3.org/2000/svg" width="28" height="28" viewBox="0 0 28 28">
    <path fill="none" d="M0 0h28v28H0z"/>
    <path data-name="28x28-a" d="M14 26A12 12 0 102 14a12 12 0 0012 12zm0-26A14 14 0 110 14 14 14 0 0114 0zM9.6 12.45a1 1 0 00-1.2 0l-3 2.25a1 1 0 00-.4.8V20a1 1 0 001 1h6a1 1 0 001-1v-4.5a1 1 0 00-.4-.8zm10 0a1 1 0 00-1.2 0l-3 2.25a1 1 0 00-.4.8V20a1 1 0 001 1h6a1 1 0 001-1v-4.5a1 1 0 00-.4-.8zM9 14.5l2 1.5v3H7v-3zm10 0l2 1.5v3h-4v-3zM14.6 3.45a1 1 0 00-1.2 0l-3 2.25a1 1 0 00-.4.8V11a1 1 0 001 1h6a1 1 0 001-1V6.5a1 1 0 00-.4-.8zM14 5.5L16 7v3h-4V7z" fill="currentColor"/>
</svg>
