<svg data-name="Layer 1" xmlns="http://www.w3.org/2000/svg" width="28" height="28" viewBox="0 0 28 28">
    <path fill="none" d="M0 0h28v28H0z"/>
    <path data-name="28x28-a" d="M14 0A14 14 0 110 14 14 14 0 0114 0zm1 2.041V4h-2V2.041a12.003 12.003 0 00-10.959 10.96L4 13v2H2.041a12.003 12.003 0 0010.96 10.959L13 24h2v1.959A12.003 12.003 0 0025.96 15L24 15v-2h1.959A12.003 12.003 0 0015.001 2.042zm6.713 4.831a1 1 0 010 .703l-4.018 9.535a1 1 0 01-.585.585l-9.535 4.018a1 1 0 01-1.288-1.288l4.018-9.535a1 1 0 01.585-.585l9.535-4.018a1 1 0 011.288.585zm-2.645 2.06l-7.05 3.086 3.964 3.964z" fill="currentColor"/>
</svg>
