<svg xmlns="http://www.w3.org/2000/svg" width="28" height="28" data-name="Layer 1" viewBox="0 0 28 28">
    <path fill="none" d="M0 0h28v28H0z"/>
    <path fill="currentColor" d="m23.924 17.05.237-.653A11.546 11.546 0 0 0 25 13c0-4.87-5.069-9-11.5-9S2 8.13 2 13s5.069 9 11.5 9a20.185 20.185 0 0 0 7.285-2.022l.56-.242 3.694.683ZM13.5 2C20.956 2 27 6.925 27 13a13.037 13.037 0 0 1-.96 4.08L28 23l-6.42-1.187A21.832 21.832 0 0 1 13.5 24C6.044 24 0 19.075 0 13S6.044 2 13.5 2Zm.8 10.2-.002.002-2.938.003a.36.36 0 0 0-.36.358v1.469a.36.36 0 0 0 .361.358h.744a.36.36 0 0 1 .361.359l.003 2.196a.36.36 0 0 1-.36.359h-.742a.36.36 0 0 0-.36.36v1.467a.36.36 0 0 0 .36.358l4.41-.005a.36.36 0 0 0 .36-.359v-1.468a.36.36 0 0 0-.361-.358h-.745a.36.36 0 0 1-.36-.358l-.006-4.376a.365.365 0 0 0-.365-.365ZM13.242 7a1.877 1.877 0 1 0 1.887 1.878A1.877 1.877 0 0 0 13.242 7Z" data-name="28x28-a"/>
</svg>
