<svg xmlns="http://www.w3.org/2000/svg" width="28" height="28" data-name="Layer 1" viewBox="0 0 28 28">
    <path fill="none" d="M0 0h28v28H0z"/>
    <path fill="currentColor" fill-rule="evenodd" d="M14 1a7 7 0 0 1 7 7q0 2.26-2.39 7h4.67a1 1 0 0 1 .948.684l3.334 10a1 1 0 0 1-.95 1.316H1.388a1 1 0 0 1-.948-1.316l3.333-10A1 1 0 0 1 4.721 15H9.39Q7 10.26 7 8a7 7 0 0 1 7-7Zm-3.556 15.998L5.44 17l-2.666 8h22.45l-2.667-8-5.002-.002Q16.09 19.675 14 23q-2.09-3.325-3.556-6.002ZM14 3a5 5 0 0 0-5 5c0 1.774 1.671 5.596 5 11.175 3.329-5.579 5-9.4 5-11.175a5 5 0 0 0-5-5Zm0 1a4 4 0 1 1-4 4 4 4 0 0 1 4-4Zm0 2a2 2 0 1 0 2 2 2 2 0 0 0-2-2Z" data-name="28x28-a"/>
</svg>
