<svg data-name="Layer 1" xmlns="http://www.w3.org/2000/svg" width="20" height="20" viewBox="0 0 20 20">
    <path data-name="20x20-a" d="M13 17h4v-3l-2-1.5-2 1.5zm2.6-6.55l3 2.25a1 1 0 01.4.8V18a1 1 0 01-1 1h-6a1 1 0 01-1-1v-4.5a1 1 0 01.4-.8l3-2.25a1 1 0 011.2 0zm-10 0l3 2.25a1 1 0 01.4.8V18a1 1 0 01-1 1H2a1 1 0 01-1-1v-4.5a1 1 0 01.4-.8l3-2.25a1 1 0 011.2 0zM5 12.5L3 14v3h4v-3zM10.6.45l3 2.25a1 1 0 01.4.8V8a1 1 0 01-1 1H7a1 1 0 01-1-1V3.5a1 1 0 01.4-.8l3-2.25a1 1 0 011.2 0zM10 2.5L8 4v3h4V4z" fill="currentColor"/>
</svg>
