<svg data-name="Layer 1" xmlns="http://www.w3.org/2000/svg" width="28" height="28" viewBox="0 0 28 28">
    <path fill="none" d="M0 0h28v28H0z"/>
    <path data-name="28x28-a" d="M10.657 10.172a4 4 0 0 1 5.657 0l.807.807a1 1 0 0 1-1.414 1.414l-.807-.807a2 2 0 0 0-2.828 0L3.586 20.07a2 2 0 0 0 0 2.828L5 24.314a2 2 0 0 0 2.828 0l4.036-4.036a1 1 0 1 1 1.414 1.414l-4.035 4.036a4 4 0 0 1-5.657 0l-1.414-1.414a4 4 0 0 1 0-5.657Zm13.657-8 1.414 1.414a4 4 0 0 1 0 5.657l-8.485 8.485a4 4 0 0 1-5.657 0l-.693-.693a1 1 0 1 1 1.415-1.414l.692.693a2 2 0 0 0 2.828 0l8.486-8.486a2 2 0 0 0 0-2.828L22.9 3.586a2 2 0 0 0-2.828 0L16.035 7.62a1 1 0 1 1-1.414-1.414l4.036-4.035a4 4 0 0 1 5.657 0Z" fill="currentColor"/>
</svg>
