<svg data-name="Layer 1" xmlns="http://www.w3.org/2000/svg" width="28" height="28" viewBox="0 0 28 28">
    <path fill="none" d="M0 0h28v28H0z"/>
    <path data-name="28x28-a" d="M14 3a6.998 6.998 0 016.094 3.553A5.502 5.502 0 0128 11.5q0 3.038-5.5 12.5-2.452-4.219-3.81-7.16Q16.98 20.262 14 25q-2.979-4.738-4.69-8.16Q7.952 19.781 5.5 24 0 14.538 0 11.5a5.502 5.502 0 017.907-4.947A6.997 6.997 0 0114 3zm0 2a5 5 0 00-5 5c0 1.774 1.671 5.596 5 11.175 3.329-5.579 5-9.4 5-11.175a5 5 0 00-5-5zm8.5 3a3.483 3.483 0 00-1.678.428 6.894 6.894 0 01.161 1.087A2.475 2.475 0 0122.5 9a2.5 2.5 0 11-2.094 3.867q-.245.72-.593 1.55a56.44 56.44 0 002.687 5.509C24.827 15.645 26 12.75 26 11.5A3.5 3.5 0 0022.5 8zm-17 0A3.5 3.5 0 002 11.5c0 1.25 1.173 4.145 3.5 8.426a56.758 56.758 0 002.688-5.51q-.35-.828-.595-1.55a2.5 2.5 0 11-.575-3.352 6.813 6.813 0 01.16-1.086A3.471 3.471 0 005.5 8zM14 6a4 4 0 11-4 4 4 4 0 014-4zm8.5 4.5a1 1 0 101 1 1 1 0 00-1-1zm-16.9 0a1 1 0 101 1 1 1 0 00-1-1zM14 8a2 2 0 102 2 2 2 0 00-2-2z" fill="currentColor"/>
</svg>
