<svg xmlns="http://www.w3.org/2000/svg" width="24" height="24" data-name="Layer 1" viewBox="0 0 24 24">
    <path fill="none" d="M0 0h24v24H0z"/>
    <path fill="currentColor" d="m9.236 4-2 4H3a1 1 0 0 0-1 1v10a1 1 0 0 0 1 1h18a1 1 0 0 0 1-1V9a1 1 0 0 0-1-1h-4.236l-2-4Zm6.146-2a1 1 0 0 1 .894.553L18 6h3a3 3 0 0 1 3 3v10a3 3 0 0 1-3 3H3a3 3 0 0 1-3-3V9a3 3 0 0 1 3-3h3l1.724-3.447A1 1 0 0 1 8.618 2ZM12 7a6 6 0 1 0 6 6 6 6 0 0 0-6-6Zm0 2a4 4 0 1 1-4 4 4 4 0 0 1 4-4Zm8 0a1 1 0 1 0 1 1 1 1 0 0 0-1-1Z" data-name="24x24-a"/>
</svg>
