<svg xmlns="http://www.w3.org/2000/svg" width="28" height="28" fill="none">
    <path fill="currentColor" d="M25 1a3 3 0 0 1 3 3v20a3 3 0 0 1-3 3H3a3 3 0 0 1-3-3V4a3 3 0 0 1 3-3h22zm1 8H2v15a1 1 0 0 0 .883.993L3 25h22a1 1 0 0 0 .993-.883L26 24V9zm-12 1a7 7 0 1 1 0 14 7 7 0 0 1 0-14zm0 2a5 5 0 1 0 0 10 5 5 0 0 0 0-10zm0 2a1 1 0 0 1 1 1v1h2a1 1 0 1 1 0 2h-3a1 1 0 0 1-1-1v-2a1 1 0 0 1 1-1zM25 3H3a1 1 0 0 0-.993.883L2 4v3h24V4a1 1 0 0 0-.883-.993L25 3zM8 4a1 1 0 1 1 0 2H4a1 1 0 0 1 0-2h4z"/>
</svg>
