<svg xmlns="http://www.w3.org/2000/svg" width="24" height="24" data-name="Layer 1" viewBox="0 0 24 24">
    <path fill="currentColor" d="m16.002 16.25 4.02 3.016c-1.4 3.143-4.227 4.734-8.02 4.734S5.38 22.41 3.98 19.266l.62-.466 3.4-2.55 4 3Zm0-6 3.4 2.55 1.596 1.42v.12a14.821 14.821 0 0 1-.322 2.903l-.074-.043-4.6-3.45-4 3-4-3-4.6 3.45-.075.043A15.142 15.142 0 0 1 3.002 14v-.087l1.6-1.113 3.4-2.55 4 3Zm-4-10.25c4.802 0 8.057 5.574 8.825 11.385l-.226-.185-4.6-3.45-4 3-4-3-4.6 3.45-.219.14C3.961 5.544 7.212 0 12.002 0Z" data-name="24x24-a"/>
</svg>
