<svg data-name="Layer 1" xmlns="http://www.w3.org/2000/svg" width="28" height="28" viewBox="0 0 28 28">
    <path fill="none" d="M0 0h28v28H0z"/>
    <path d="M23.931 3.05a6.896 6.896 0 010 9.9l-1.467 1.602q-.574.633-1.307 1.448H23.3a1 1 0 01.94.658l3.273 9a1 1 0 01-.94 1.342H1.427a1 1 0 01-.94-1.342l3.272-9A1 1 0 014.7 16h2.232l-1.309-1.448q-.385-.422-.7-.762l-.791-.84a6.81 6.81 0 010-9.9 7 7 0 019.9 0 7 7 0 019.899 0zM8.719 18H5.4l-2.546 7h22.29l-2.546-7h-3.237l-5.35 6L9.7 19.105 8.72 18zM5.547 4.465a4.817 4.817 0 00.023 7.094l.524.554q2.102 2.25 7.919 8.887l4.947-5.544q2.543-2.837 3.51-3.871a4.902 4.902 0 00.047-7.12 5 5 0 00-7.07 0l-1.415 1.414-1.415-1.414a5 5 0 00-7.07 0z" fill="currentColor"/>
</svg>
