<svg data-name="Layer 1" xmlns="http://www.w3.org/2000/svg" width="28" height="28" viewBox="0 0 28 28">
    <path fill="none" d="M0 0h28v28H0z"/>
    <path data-name="28x28-a" d="M8.181.887l4.369 4.37a3.03 3.03 0 010 4.284l-1.854 1.854a17.05 17.05 0 002.582 3.327 17.055 17.055 0 003.327 2.582l1.854-1.854a3.03 3.03 0 014.285 0l4.369 4.369a3.03 3.03 0 010 4.285l-2.105 2.104a6.119 6.119 0 01-7.614.834 53.54 53.54 0 01-9.128-7.307 53.54 53.54 0 01-7.308-9.13 6.119 6.119 0 01.834-7.613L3.897.887a3.03 3.03 0 014.284 0zM6.767 2.302a1.03 1.03 0 00-1.456 0L3.207 4.406a4.119 4.119 0 00-.562 5.125A51.55 51.55 0 009.68 18.32a51.545 51.545 0 008.79 7.035 4.119 4.119 0 005.124-.562L25.7 22.69a1.03 1.03 0 000-1.456l-4.369-4.369a1.03 1.03 0 00-1.456 0l-2.913 2.913a19.437 19.437 0 01-5.097-3.641 19.435 19.435 0 01-3.64-5.097l2.912-2.912a1.03 1.03 0 000-1.457z" fill="currentColor" fill-rule="evenodd"/>
</svg>
