<svg xmlns="http://www.w3.org/2000/svg" width="16" height="16" data-name="Layer 1" viewBox="0 0 16 16">
    <path fill="currentColor" d="M9.985.248a7.956 7.956 0 0 1 2.192.928 2.001 2.001 0 0 0 2.647 2.647 7.956 7.956 0 0 1 .928 2.192 2 2 0 0 0 0 3.97 7.956 7.956 0 0 1-.928 2.193 2.001 2.001 0 0 0-2.647 2.647 7.956 7.956 0 0 1-2.192.927 2 2 0 0 0-3.97 0 7.956 7.956 0 0 1-2.193-.927 2.001 2.001 0 0 0-2.647-2.647 7.956 7.956 0 0 1-.927-2.193A2 2 0 0 0 2 8 2 2 0 0 0 .248 6.015a7.956 7.956 0 0 1 .928-2.192 2.001 2.001 0 0 0 2.647-2.647A7.956 7.956 0 0 1 6.015.248 2 2 0 0 0 8 2 2 2 0 0 0 9.985.248Zm.24 3.077a4.001 4.001 0 0 1-4.45 0 4.011 4.011 0 0 1-2.45 2.45 4.001 4.001 0 0 1 0 4.45 4.011 4.011 0 0 1 2.45 2.45 4.001 4.001 0 0 1 4.45 0 4.011 4.011 0 0 1 2.45-2.45 4.001 4.001 0 0 1 0-4.45 4.011 4.011 0 0 1-2.45-2.45ZM8 5a3 3 0 1 1-3 3 3 3 0 0 1 3-3Zm0 2a1 1 0 1 0 1 1 1 1 0 0 0-1-1Z" data-name="16x16-a"/>
</svg>
