<svg data-name="Layer 1" xmlns="http://www.w3.org/2000/svg" width="28" height="28" viewBox="0 0 28 28">
    <path fill="none" d="M0 0h28v28H0z"/>
    <path data-name="28x28-a" d="M3.123 19.077a5.003 5.003 0 015.8 5.8q.441.206.898.376a5.002 5.002 0 018.358 0q.457-.17.898-.376a5.003 5.003 0 015.8-5.8q.206-.441.376-.898a5.002 5.002 0 010-8.358q-.17-.456-.376-.898a5.003 5.003 0 01-5.8-5.8q-.44-.206-.898-.376a5.002 5.002 0 01-8.358 0q-.456.17-.898.376a5.003 5.003 0 01-5.8 5.8q-.206.441-.376.898a5.002 5.002 0 010 8.358q.17.457.376.898zM16.983.318a13.922 13.922 0 014.597 1.91 3 3 0 004.193 4.192 13.922 13.922 0 011.909 4.596 3 3 0 000 5.967 13.922 13.922 0 01-1.91 4.597 3 3 0 00-4.192 4.193 13.922 13.922 0 01-4.596 1.909 3 3 0 00-5.967 0 13.922 13.922 0 01-4.597-1.91 3 3 0 00-4.193-4.192A13.922 13.922 0 01.32 16.983 3 3 0 003 14a3 3 0 00-2.681-2.983A13.922 13.922 0 012.227 6.42 3 3 0 006.42 2.227 13.922 13.922 0 0111.017.32 3 3 0 0014 3 3 3 0 0016.983.319zM14 8a6 6 0 106 6 6 6 0 00-6-6zm0 2a4 4 0 11-4 4 4 4 0 014-4z" fill="currentColor"/>
</svg>
