<svg xmlns="http://www.w3.org/2000/svg" width="28" height="28" data-name="Layer 1" viewBox="0 0 28 28">
    <path fill="none" d="M0 0h28v28H0z"/>
    <path fill="currentColor" fill-rule="evenodd" d="M14 3.44a8.112 8.112 0 0 1 11.598 0 8.423 8.423 0 0 1 0 11.78L14 27 2.402 15.22a8.423 8.423 0 0 1 0-11.78A8.112 8.112 0 0 1 14 3.44ZM15.055 7a4.64 4.64 0 0 0-3.25 1.146 5.19 5.19 0 0 0-1.571 3.159H9v1.234h1.119l-.017.521v.297l.017.296H9v1.227h1.25a5.12 5.12 0 0 0 1.617 3.062A4.784 4.784 0 0 0 15.087 19a6.02 6.02 0 0 0 2.51-.489v-1.627a6.428 6.428 0 0 1-2.41.497 2.8 2.8 0 0 1-2.995-2.501h3.217v-1.227h-3.357l-.016-.312V12.9l.016-.36h3.875v-1.235h-3.752a3.517 3.517 0 0 1 .984-2.036 2.7 2.7 0 0 1 1.896-.674 5.314 5.314 0 0 1 2.254.61l.691-1.5A6.074 6.074 0 0 0 15.055 7Z" data-name="28x28-a"/>
</svg>
