<svg xmlns="http://www.w3.org/2000/svg" width="28" height="28" fill="none" viewBox="0 0 28 28">
    <path stroke="currentColor" stroke-linecap="round" stroke-width="1.5" d="M13.563 14.875h6.874a1 1 0 0 1 1 1v1.063a1 1 0 0 1-1 1h-.578a.2.2 0 0 0-.198.17l-.718 4.67a1 1 0 0 1-.988.847h-7.91a1 1 0 0 1-.988-.848l-.718-4.67a.2.2 0 0 0-.198-.17h-.579a1 1 0 0 1-1-1v-1.062a1 1 0 0 1 1-1h6Zm0 0V12.25m.437-.875h1.875a6 6 0 0 0 6-6V4a.5.5 0 0 0-.5-.5H20a6 6 0 0 0-6 6v1.875Zm0 0-.438.875m.438-.875L18.375 7m-4.813 5.25-1.75-1.75m0 0V9.25a4 4 0 0 0-4-4h-.75a.5.5 0 0 0-.5.5v.75a4 4 0 0 0 4 4h1.25Z"/>
</svg>
