<svg data-name="Layer 1" xmlns="http://www.w3.org/2000/svg" width="28" height="28" viewBox="0 0 28 28">
    <path fill="none" d="M0 0h28v28H0z"/>
    <path data-name="28x28-a" d="M23.88 4A3.232 3.232 0 0127 7.333v13.334A3.232 3.232 0 0123.88 24H4.12A3.232 3.232 0 011 20.667V7.333A3.232 3.232 0 014.12 4zM17 15.414l-.879.879a3 3 0 01-4.242 0L11 15.414 4.414 22h19.171zM2.96 7.375v13.249L9.586 14zm22.041.038L18.414 14l6.624 6.623zM23.584 6H4.415l8.878 8.879a1 1 0 001.414 0z" fill="currentColor"/>
</svg>
