<svg data-name="Layer 1" xmlns="http://www.w3.org/2000/svg" width="28" height="28" viewBox="0 0 28 28">
    <path fill="none" d="M0 0h28v28H0z"/>
    <path data-name="28x28-a" d="M14 3a5 5 0 0 1 3.796 8.255 5.81 5.81 0 0 1 .75.93c.197.294.394.626.64 1.066l.06.11a7.15 7.15 0 0 1 .873-1.339 3.498 3.498 0 1 1 4.847.003 7.515 7.515 0 0 1 .97 1.527 17.038 17.038 0 0 1 1.07 5.318c.004.065.004.065.005.13a2 2 0 0 1-2 2l-3.856.001a18.567 18.567 0 0 1-.05 2.178A2 2 0 0 1 19.113 25H8.935a2 2 0 0 1-1.998-1.91c-.122-2.687.264-6.88 1.185-8.57.064-.116.392-.723.483-.887.18-.33.325-.585.466-.82a7.154 7.154 0 0 1 1.165-1.524A4.998 4.998 0 0 1 14 3Zm2.187 9.496-.147.07a5.013 5.013 0 0 1-4.167-.04 4.255 4.255 0 0 0-1.088 1.319c-.126.208-.258.44-.426.748l-.481.885c-.726 1.332-1.05 5.17-.943 7.521h10.178c.192-2.131-.142-5.964-.99-7.52a19.438 19.438 0 0 0-1.24-2.183 3.28 3.28 0 0 0-.696-.8Zm6.855.504h-1c-.171 0-.592.421-1.105 1.447a7.182 7.182 0 0 0-.415 1.027 3.978 3.978 0 0 0-.1.42A18.319 18.319 0 0 1 21.013 19h3.998a15.403 15.403 0 0 0-.863-4.553C23.635 13.421 23.214 13 23.042 13ZM5 7v3h3v2H5v3H3v-3H0v-2h3V7Zm17.542 1a1.5 1.5 0 1 0 1.5 1.5 1.5 1.5 0 0 0-1.5-1.5ZM14 5a3 3 0 1 0 3 3 3 3 0 0 0-3-3Z" fill="currentColor"/>
</svg>
