<svg data-name="Layer 1" xmlns="http://www.w3.org/2000/svg" width="24" height="24" viewBox="0 0 24 24">
    <path fill="none" d="M0 0h24v24H0z"/>
    <path data-name="24x24-a" d="M9.236 4l-2 4H3a1 1 0 00-1 1v10a1 1 0 001 1h18a1 1 0 001-1V9a1 1 0 00-1-1h-4.236l-2-4zm6.146-2a1 1 0 01.894.553L18 6h3a3 3 0 013 3v10a3 3 0 01-3 3H3a3 3 0 01-3-3V9a3 3 0 013-3h3l1.724-3.447A1 1 0 018.618 2zM12 7a6 6 0 106 6 6 6 0 00-6-6zm0 2a4 4 0 11-4 4 4 4 0 014-4zm8 0a1 1 0 101 1 1 1 0 00-1-1z" fill="currentColor"/>
</svg>
