<svg data-name="Layer 1" xmlns="http://www.w3.org/2000/svg" width="28" height="28" viewBox="0 0 28 28">
    <path fill="none" d="M0 0h28v28H0z"/>
    <path data-name="28x28-a" d="M14 0A14 14 0 110 14 14 14 0 0114 0zm0 17a7.723 7.723 0 00-6.832 3.445 1 1 0 001.664 1.11A5.738 5.738 0 0114 19a5.738 5.738 0 015.168 2.555 1 1 0 101.664-1.11A7.723 7.723 0 0014 17zm5.5-9a2.5 2.5 0 102.5 2.5A2.5 2.5 0 0019.5 8zm-11 0a2.5 2.5 0 102.5 2.5A2.5 2.5 0 008.5 8z" fill="currentColor" fill-rule="evenodd"/>
</svg>
