<svg data-name="Layer 1" xmlns="http://www.w3.org/2000/svg" width="24" height="24" viewBox="0 0 24 24">
    <path fill="none" d="M0 0h24v24H0z"/>
    <path data-name="24x24-a" d="M6.8 9.229l2.524-1.893a3 3 0 001.084-1.576l1.231-4.31A2 2 0 0114.762.4l.077.065A5.586 5.586 0 0116.5 2.89a5.11 5.11 0 01.13 2.917L16 8.329h4.84a3 3 0 013 3q0 .115-.009.23l-.621 8.077a4 4 0 01-3.988 3.693h-4.938a5.008 5.008 0 01-.707-.05l-5.86-.837A2 2 0 016 20.462v-9.633a2 2 0 01.8-1.6zm-5.8-.9h2a1 1 0 011 1v13a1 1 0 01-1 1H1a1 1 0 01-1-1v-13a1 1 0 011-1z" fill="currentColor" fill-rule="evenodd"/>
</svg>
