<svg xmlns="http://www.w3.org/2000/svg" width="24" height="24" data-name="Layer 1" viewBox="0 0 24 24">
    <path fill="none" d="M0 0h24v24H0z"/>
    <path fill="currentColor" d="M3 9a1 1 0 0 0-1 1v9a1 1 0 0 0 1 1h14a1 1 0 0 0 1-1v-9a1 1 0 0 0-1-1Zm18-6a3 3 0 0 1 3 3v9a3 3 0 0 1-2.824 2.995L21 18h-1v1a3 3 0 0 1-3 3H3a3 3 0 0 1-3-3v-9a3 3 0 0 1 3-3h1V6a3 3 0 0 1 3-3Zm-10 8H9v2H7v2h2v2h2v-2h2v-2h-2Zm10-6H7a1 1 0 0 0-1 1v1h11a3 3 0 0 1 3 3v6h1a1 1 0 0 0 1-1V6a1 1 0 0 0-1-1Z" data-name="24x24-a"/>
</svg>
