<svg data-name="Layer 1" xmlns="http://www.w3.org/2000/svg" width="20" height="20" viewBox="0 0 20 20">
    <path data-name="20x20-a" d="M8.07 11.93a14.18 14.18 0 01-2.147-2.765l-.8-1.338L7.55 5.401a.164.164 0 000-.232l-3.12-3.12a.164.164 0 00-.232 0L2.694 3.55a2.37 2.37 0 00-.323 2.95 36.237 36.237 0 004.947 6.181 36.242 36.242 0 006.18 4.947 2.37 2.37 0 002.95-.323l1.504-1.503a.164.164 0 000-.232l-3.12-3.12a.164.164 0 00-.233 0l-2.426 2.426-1.338-.8A14.175 14.175 0 018.07 11.93zm1.414-1.414a12.177 12.177 0 002.377 1.844l1.324-1.324a2.164 2.164 0 013.06 0l3.12 3.12a2.164 2.164 0 010 3.06l-1.502 1.504a4.37 4.37 0 01-5.439.596 38.245 38.245 0 01-6.52-5.22 38.246 38.246 0 01-5.22-6.52 4.37 4.37 0 01.596-5.44L2.783.635a2.164 2.164 0 013.06 0l3.121 3.12a2.164 2.164 0 010 3.06L7.64 8.14a12.18 12.18 0 001.844 2.377z" fill="currentColor"/>
</svg>
