<svg data-name="Layer 1" xmlns="http://www.w3.org/2000/svg" width="24" height="24" viewBox="0 0 24 24">
    <path fill="none" d="M0 0h24v24H0z"/>
    <path data-name="24x24-a" d="M20.382 16.198l.443-.704A7.446 7.446 0 0022 11.5C22 6.87 17.578 3 12 3S2 6.87 2 11.5 6.422 20 12 20a11.369 11.369 0 004.536-.926l.685-.298 4.047 1.27zM12 1c6.627 0 12 4.701 12 10.5a9.447 9.447 0 01-1.482 5.06L24 23l-6.666-2.092A13.367 13.367 0 0112 22C5.373 22 0 17.299 0 11.5S5.373 1 12 1zm5 12H9a1 1 0 000 2h8a1 1 0 000-2zm-2-5H7a1 1 0 000 2h8a1 1 0 000-2z" fill="currentColor"/>
</svg>
