<svg width="28" height="28" viewBox="0 0 28 28" fill="none" xmlns="http://www.w3.org/2000/svg">
    <path d="M17.938 9.188v-2.5a1 1 0 0 0-1-1H4.5a1 1 0 0 0-1 1v13.75a1 1 0 0 0 1 1h.75m12.688-12.25h3.319a1 1 0 0 1 .894.552l2.243 4.486c.07.14.106.292.106.448v5.764a1 1 0 0 1-1 1h-3.375m-2.188-12.25v5.25m0 0h6.125m-6.125 0v4.812M5.25 21.438a2.188 2.188 0 0 0 4.375 0m-4.375 0a2.188 2.188 0 0 1 4.375 0m0 0h6.125m4.375 0a2.188 2.188 0 0 1-4.375 0m4.375 0c0-1.313-.875-2.188-2.188-2.188m-2.187 2.188c0-1.313.875-2.188 2.188-2.188" stroke="currentColor" stroke-width="1.5"/>
</svg>
