<svg data-name="Layer 1" xmlns="http://www.w3.org/2000/svg" width="24" height="24" viewBox="0 0 24 24">
    <path fill="none" d="M0 0h24v24H0z"/>
    <path data-name="24x24-a" d="M5 16v3h14v-3zM20 2l2.125 4.782a3 3 0 01-2.13 4.155A.352.352 0 0120 11v3a1 1 0 011 1v5a1 1 0 01-.883.993L20 21a1 1 0 01-2 0H6a1 1 0 01-2 0 1 1 0 01-1-1v-5a1 1 0 011-1v-3l.003-.063a3 3 0 01-2.128-4.155L4 2zm-2 9H6v3h12zM6.856 4H5.3L3.703 7.594A1 1 0 004.615 9h1.526zm8.286 0H13v5h2.857zM11 4H8.856l-.714 5H11zM18.7 4h-1.558l.714 5h1.527a1 1 0 00.914-1.406z" fill="currentColor"/>
</svg>
