<svg data-name="Layer 1" xmlns="http://www.w3.org/2000/svg" width="24" height="24" viewBox="0 0 24 24">
    <path data-name="24x24-a" d="M12 0c5.523 0 9 7.373 9 14s-3.477 10-9 10-9-3.373-9-10S6.477 0 12 0Zm4 16.25-4 3-4-3-2.374 1.78C6.62 20.692 8.786 22 12 22s5.379-1.308 6.374-3.97Zm0-6-4 3-4-3-2.936 2.202C5.022 12.962 5 13.478 5 14a14.694 14.694 0 0 0 .117 1.912L8 13.75l4 3 4-3 2.883 2.162A14.694 14.694 0 0 0 19 14c0-.522-.022-1.04-.065-1.549ZM12 2C9.176 2 6.602 5.246 5.529 9.603L8 7.75l4 3 4-3 2.471 1.853C17.398 5.246 14.824 2 12 2Z" fill="currentColor"/>
</svg>
