<svg xmlns="http://www.w3.org/2000/svg" width="20" height="20" data-name="Layer 1" viewBox="0 0 20 20">
    <path fill="currentColor" d="M13 17h4v-3l-2-1.5-2 1.5Zm2.6-6.55 3 2.25a1 1 0 0 1 .4.8V18a1 1 0 0 1-1 1h-6a1 1 0 0 1-1-1v-4.5a1 1 0 0 1 .4-.8l3-2.25a1 1 0 0 1 1.2 0Zm-10 0 3 2.25a1 1 0 0 1 .4.8V18a1 1 0 0 1-1 1H2a1 1 0 0 1-1-1v-4.5a1 1 0 0 1 .4-.8l3-2.25a1 1 0 0 1 1.2 0ZM5 12.5 3 14v3h4v-3ZM10.6.45l3 2.25a1 1 0 0 1 .4.8V8a1 1 0 0 1-1 1H7a1 1 0 0 1-1-1V3.5a1 1 0 0 1 .4-.8l3-2.25a1 1 0 0 1 1.2 0ZM10 2.5 8 4v3h4V4Z" data-name="20x20-a"/>
</svg>
