<svg xmlns="http://www.w3.org/2000/svg" width="28" height="28" fill="none" viewBox="0 0 28 28">
    <path stroke="currentColor" stroke-linecap="round" stroke-width="1.5" d="M3.5 23.188h2.625m18.375 0h-2.625m-15.75 0V6.084a1 1 0 0 1 .821-.984l7.625-1.387a1 1 0 0 1 1.179.984V8.75M6.125 23.188h9.625m0 0V8.75m0 14.438h6.125M15.75 8.75h5.125a1 1 0 0 1 1 1v13.438M12.687 14v0a.438.438 0 0 1-.437-.438v-.437c0-.242.196-.438.438-.438v0c.241 0 .437.196.437.438v.438a.438.438 0 0 1-.438.437Zm-3.5 0v0a.438.438 0 0 1-.437-.438v-.437c0-.242.196-.438.438-.438v0c.241 0 .437.196.437.438v.438a.438.438 0 0 1-.438.437Zm3.938-4.813v.438a.438.438 0 0 1-.438.438v0a.438.438 0 0 1-.437-.438v-.438c0-.241.196-.437.438-.437v0c.241 0 .437.196.437.438Zm-3.938.876v0a.437.437 0 0 1-.437-.438v-.438c0-.241.196-.437.438-.437v0c.241 0 .437.196.437.438v.437a.438.438 0 0 1-.438.438Z"/>
</svg>
