<svg xmlns="http://www.w3.org/2000/svg" width="20" height="20" data-name="Layer 1" viewBox="0 0 20 20">
    <path fill="currentColor" d="M13 17a4 4 0 0 1 4-4q.188 0 .374.017a4 4 0 0 1 0-6.034Q17.188 7 17 7a4 4 0 0 1-4-4q0-.188.017-.374a4 4 0 0 1-6.034 0Q7 2.811 7 3a4 4 0 0 1-4 4q-.188 0-.374-.017a4 4 0 0 1 0 6.034Q2.811 13 3 13a4 4 0 0 1 4 4q0 .188-.017.374a4 4 0 0 1 6.034 0Q13 17.189 13 17ZM11.99.198a9.942 9.942 0 0 1 3.527 1.46 2 2 0 0 0 2.825 2.825 9.945 9.945 0 0 1 1.46 3.527 2 2 0 0 0 0 3.98 9.945 9.945 0 0 1-1.46 3.527 2 2 0 0 0-2.825 2.825 9.942 9.942 0 0 1-3.527 1.46 2 2 0 0 0-3.98 0 9.942 9.942 0 0 1-3.527-1.46 2 2 0 0 0-2.825-2.825 9.944 9.944 0 0 1-1.46-3.527A2 2 0 0 0 2 10 2 2 0 0 0 .198 8.01a9.944 9.944 0 0 1 1.46-3.527 2 2 0 0 0 2.825-2.825A9.942 9.942 0 0 1 8.01.198 2 2 0 0 0 10 2 2 2 0 0 0 11.99.198ZM10 6a4 4 0 1 0 4 4 4 4 0 0 0-4-4Zm0 2a2 2 0 1 1-2 2 2 2 0 0 1 2-2Z" data-name="20x20-a"/>
</svg>
