<svg data-name="Layer 1" xmlns="http://www.w3.org/2000/svg" width="28" height="28" viewBox="0 0 28 28">
    <path fill="none" d="M0 0h28v28H0z"/>
    <path data-name="28x28-a" d="M25 25V3H4a1 1 0 00-1 1v20a1 1 0 001 1zm2-24v26H4a3 3 0 01-3-3V4a3 3 0 013-3zm-3 2h-2v22h2zm-3 0h-2v22h2zM11 5a4 4 0 00-3.122 6.501c-1.324 1.553-2.186 4.295-2.653 8.137A3 3 0 008.204 23h5.592a3 3 0 002.979-3.362c-.467-3.842-1.33-6.585-2.654-8.139A3.998 3.998 0 0011 5zm1.5 7.708c1.038 1.083 1.835 3.43 2.29 7.171A1 1 0 0113.796 21H8.203a1 1 0 01-.992-1.12c.454-3.742 1.25-6.09 2.29-7.172A3.953 3.953 0 0011 13a3.995 3.995 0 001.336-.229zM11 7a2 2 0 11-2 2 2 2 0 012-2z" fill="currentColor"/>
</svg>
