<svg xmlns="http://www.w3.org/2000/svg" width="28" height="28" data-name="Layer 1" viewBox="0 0 28 28">
    <path fill="none" d="M0 0h28v28H0z"/>
    <path fill="currentColor" fill-rule="evenodd" d="M9.29 3c4.56 0 8.256 2.91 8.256 6.5q0 .257-.025.51c5.202.181 9.347 3.466 9.347 7.49a8.408 8.408 0 0 1-.574 2.534L28 25.004l-4.9-1.594A16.59 16.59 0 0 1 17.061 25c-5.415 0-9.805-3.358-9.805-7.5a5.847 5.847 0 0 1 .26-1.725 20.272 20.272 0 0 1-2.928-.93L0 17l1.58-5.168A7.478 7.478 0 0 1 1.032 9.5C1.032 5.91 4.73 3 9.29 3Zm7.772 9-.15.003a8.439 8.439 0 0 1-7.286 3.992 3.936 3.936 0 0 0-.305 1.505c0 2.92 3.373 5.5 7.741 5.5a14.847 14.847 0 0 0 5.211-1.423l.73-.308 1.733.564-.62-1.804.222-.635a7.05 7.05 0 0 0 .465-1.894c0-2.92-3.373-5.5-7.74-5.5ZM9.29 5C5.786 5 3.096 7.117 3.096 9.5a6.154 6.154 0 0 0 .431 1.67l.221.61-.441 1.445 1.206-.566.85.332A12.136 12.136 0 0 0 9.288 14c3.504 0 6.193-2.117 6.193-4.5S12.792 5 9.289 5Z" data-name="28x28-a"/>
</svg>
