<svg xmlns="http://www.w3.org/2000/svg" width="28" height="28" fill="none" viewBox="0 0 28 28">
    <path stroke="currentColor" stroke-linecap="round" stroke-width="1.5" d="M1.75 14.875h6.007a.2.2 0 0 0 .175-.103L9.861 11.3a.2.2 0 0 1 .36.021l2.733 6.64a.2.2 0 0 0 .365.01l1.439-2.983a.2.2 0 0 1 .18-.113h3.437M5.687 6.058c3.663-3.143 7.704.588 8.25 1.125.036.035.09.035.125 0 .547-.537 4.588-4.268 8.25-1.125C26.25 9.436 23.626 14.929 21 17.992c-1.4 1.633-4.205 3.932-5.806 5.198a1.92 1.92 0 0 1-2.388 0C11.205 21.924 8.4 19.625 7 17.992 4.375 14.929 1.75 9.436 5.687 6.058Z"/>
</svg>
