<svg data-name="Layer 1" xmlns="http://www.w3.org/2000/svg" width="16" height="16" viewBox="0 0 16 16">
    <path data-name="16x16-a" d="M7.588 8.412a9.746 9.746 0 001.9 1.476l1.06-1.06a1.731 1.731 0 012.448 0l2.497 2.497a1.731 1.731 0 010 2.448l-1.203 1.203a3.497 3.497 0 01-4.35.476 30.6 30.6 0 01-5.217-4.175A30.596 30.596 0 01.548 6.06a3.497 3.497 0 01.476-4.351L2.227.507a1.731 1.731 0 012.448 0l2.497 2.496a1.731 1.731 0 010 2.449l-1.06 1.06a9.742 9.742 0 001.476 1.9z" fill="currentColor" fill-rule="evenodd"/>
</svg>
