<svg xmlns="http://www.w3.org/2000/svg" width="28" height="28" data-name="Layer 1" viewBox="0 0 28 28">
    <path fill="none" d="M0 0h28v28H0z"/>
    <path fill="currentColor" fill-rule="evenodd" d="M19 1a2.91 2.91 0 0 1 3 2.813V5h4a2 2 0 0 1 2 2v16a2 2 0 0 1-2 2H2a2 2 0 0 1-2-2V7a2 2 0 0 1 2-2h4V3.812A3.103 3.103 0 0 1 9 1a3.103 3.103 0 0 1 3 2.813V5h4V3.812A2.91 2.91 0 0 1 19 1ZM6 7H2v16h24V7h-4v.188a3.006 3.006 0 0 1-6 0V7h-4v.188A3.103 3.103 0 0 1 9 10a3.103 3.103 0 0 1-3-2.813Zm11 6v6h-6v-6Zm-7 0v6H4v-6Zm12.5 0 1.5 1.5-1.5 1.5 1.5 1.5-1.5 1.5-1.5-1.5-1.5 1.5-1.5-1.5 1.5-1.5-1.5-1.5 1.5-1.5 1.5 1.5ZM15 15h-2v2h2Zm-7 0H6v2h2ZM19 3c-.552 0-1 .28-1 .625v3.75c0 .345.448.625 1 .625s1-.28 1-.625v-3.75C20 3.28 19.552 3 19 3ZM9 3c-.552 0-1 .28-1 .625v3.75C8 7.72 8.448 8 9 8s1-.28 1-.625v-3.75C10 3.28 9.552 3 9 3Z" data-name="28x28-a"/>
</svg>
