<svg xmlns="http://www.w3.org/2000/svg" fill="none" viewBox="0 0 38 40">
    <mask id="a" width="38" height="40" x="0" y="0" fill="currentColor" maskUnits="userSpaceOnUse">
        <path d="M0 0h38v40H0z"/>
        <path d="M18.998 39c-1.518 0-2.89-.858-3.589-2.242l-.014.002c-.411-.822-.837-1.296-1.3-1.448-.457-.148-1.077-.022-1.885.396l-.012-.01a3.97 3.97 0 0 1-4.204-.327c-1.227-.906-1.84-2.418-1.603-3.95l-.012-.01c.28-1.802-.198-2.472-1.97-2.753l-.003-.016a4.033 4.033 0 0 1-3.208-2.773 4.117 4.117 0 0 1 .99-4.151l-.004-.014c1.27-1.29 1.27-2.117 0-3.408l.005-.014a4.117 4.117 0 0 1-.991-4.153 4.039 4.039 0 0 1 3.208-2.77l.004-.015c1.771-.285 2.25-.955 1.97-2.755l.013-.008c-.238-1.534.375-3.046 1.602-3.952a3.974 3.974 0 0 1 4.204-.328l.011-.008c.806.418 1.423.547 1.886.395.462-.152.888-.626 1.3-1.448l.015.002C16.108 1.858 17.481 1 18.998 1c1.518 0 2.893.858 3.59 2.242l.015-.002c.411.822.836 1.294 1.299 1.448.462.153 1.077.023 1.886-.395l.01.01a3.967 3.967 0 0 1 4.205.328c1.225.904 1.84 2.416 1.604 3.952l.013.007c-.282 1.8.197 2.47 1.969 2.756l.004.014a4.036 4.036 0 0 1 3.209 2.77 4.114 4.114 0 0 1-.99 4.154l.005.014c-1.27 1.289-1.27 2.117 0 3.407l-.006.015c1.08 1.1 1.46 2.69.99 4.153a4.038 4.038 0 0 1-3.21 2.77l-.002.016c-1.772.284-2.251.953-1.97 2.754l-.012.008c.235 1.535-.377 3.047-1.606 3.952a3.97 3.97 0 0 1-4.202.327l-.011.01c-.808-.42-1.424-.548-1.886-.396-.463.154-.888.627-1.3 1.447l-.015-.001c-.696 1.382-2.07 2.24-3.589 2.24Zm-2.2-2.974c.427.857 1.27 1.39 2.2 1.39.932 0 1.774-.531 2.2-1.39l.017.002c.607-1.208 1.328-1.935 2.205-2.221.873-.287 1.877-.13 3.066.484l.01-.01c.841.438 1.832.368 2.583-.19a2.518 2.518 0 0 0 .979-2.44l.014-.009c-.407-2.636.659-4.123 3.254-4.546l.003-.015a2.475 2.475 0 0 0 1.984-1.696c.29-.901.05-1.883-.62-2.56l.004-.016c-1.855-1.89-1.855-3.727.001-5.616l-.006-.014c.673-.68.911-1.66.621-2.56a2.476 2.476 0 0 0-1.984-1.698l-.003-.014c-2.595-.425-3.661-1.911-3.254-4.548l-.014-.006a2.52 2.52 0 0 0-.977-2.441 2.428 2.428 0 0 0-2.584-.19l-.01-.01c-1.194.614-2.195.773-3.069.483-.875-.288-1.596-1.015-2.203-2.221H21.2c-.428-.859-1.27-1.39-2.202-1.39-.93 0-1.773.531-2.2 1.39h-.014c-.61 1.204-1.33 1.931-2.206 2.22-.875.288-1.876.13-3.067-.484l-.011.008a2.433 2.433 0 0 0-2.583.19 2.521 2.521 0 0 0-.976 2.443l-.015.008c.406 2.637-.659 4.123-3.255 4.546l-.003.014a2.479 2.479 0 0 0-1.983 1.698c-.29.9-.05 1.882.623 2.56l-.007.014c1.854 1.89 1.854 3.727 0 5.618l.007.014a2.528 2.528 0 0 0-.623 2.559c.288.9 1.047 1.55 1.983 1.697l.003.016c2.595.423 3.66 1.91 3.255 4.546l.013.01c-.152.95.222 1.883.977 2.44a2.43 2.43 0 0 0 2.584.19l.01.009c1.19-.613 2.192-.765 3.067-.485.875.288 1.596 1.015 2.205 2.221h.016Z"/>
    </mask>
    <path fill="currentColor" d="M18.998 39c-1.518 0-2.89-.858-3.589-2.242l-.014.002c-.411-.822-.837-1.296-1.3-1.448-.457-.148-1.077-.022-1.885.396l-.012-.01a3.97 3.97 0 0 1-4.204-.327c-1.227-.906-1.84-2.418-1.603-3.95l-.012-.01c.28-1.802-.198-2.472-1.97-2.753l-.003-.016a4.033 4.033 0 0 1-3.208-2.773 4.117 4.117 0 0 1 .99-4.151l-.004-.014c1.27-1.29 1.27-2.117 0-3.408l.005-.014a4.117 4.117 0 0 1-.991-4.153 4.039 4.039 0 0 1 3.208-2.77l.004-.015c1.771-.285 2.25-.955 1.97-2.755l.013-.008c-.238-1.534.375-3.046 1.602-3.952a3.974 3.974 0 0 1 4.204-.328l.011-.008c.806.418 1.423.547 1.886.395.462-.152.888-.626 1.3-1.448l.015.002C16.108 1.858 17.481 1 18.998 1c1.518 0 2.893.858 3.59 2.242l.015-.002c.411.822.836 1.294 1.299 1.448.462.153 1.077.023 1.886-.395l.01.01a3.967 3.967 0 0 1 4.205.328c1.225.904 1.84 2.416 1.604 3.952l.013.007c-.282 1.8.197 2.47 1.969 2.756l.004.014a4.036 4.036 0 0 1 3.209 2.77 4.114 4.114 0 0 1-.99 4.154l.005.014c-1.27 1.289-1.27 2.117 0 3.407l-.006.015c1.08 1.1 1.46 2.69.99 4.153a4.038 4.038 0 0 1-3.21 2.77l-.002.016c-1.772.284-2.251.953-1.97 2.754l-.012.008c.235 1.535-.377 3.047-1.606 3.952a3.97 3.97 0 0 1-4.202.327l-.011.01c-.808-.42-1.424-.548-1.886-.396-.463.154-.888.627-1.3 1.447l-.015-.001c-.696 1.382-2.07 2.24-3.589 2.24Zm-2.2-2.974c.427.857 1.27 1.39 2.2 1.39.932 0 1.774-.531 2.2-1.39l.017.002c.607-1.208 1.328-1.935 2.205-2.221.873-.287 1.877-.13 3.066.484l.01-.01c.841.438 1.832.368 2.583-.19a2.518 2.518 0 0 0 .979-2.44l.014-.009c-.407-2.636.659-4.123 3.254-4.546l.003-.015a2.475 2.475 0 0 0 1.984-1.696c.29-.901.05-1.883-.62-2.56l.004-.016c-1.855-1.89-1.855-3.727.001-5.616l-.006-.014c.673-.68.911-1.66.621-2.56a2.476 2.476 0 0 0-1.984-1.698l-.003-.014c-2.595-.425-3.661-1.911-3.254-4.548l-.014-.006a2.52 2.52 0 0 0-.977-2.441 2.428 2.428 0 0 0-2.584-.19l-.01-.01c-1.194.614-2.195.773-3.069.483-.875-.288-1.596-1.015-2.203-2.221H21.2c-.428-.859-1.27-1.39-2.202-1.39-.93 0-1.773.531-2.2 1.39h-.014c-.61 1.204-1.33 1.931-2.206 2.22-.875.288-1.876.13-3.067-.484l-.011.008a2.433 2.433 0 0 0-2.583.19 2.521 2.521 0 0 0-.976 2.443l-.015.008c.406 2.637-.659 4.123-3.255 4.546l-.003.014a2.479 2.479 0 0 0-1.983 1.698c-.29.9-.05 1.882.623 2.56l-.007.014c1.854 1.89 1.854 3.727 0 5.618l.007.014a2.528 2.528 0 0 0-.623 2.559c.288.9 1.047 1.55 1.983 1.697l.003.016c2.595.423 3.66 1.91 3.255 4.546l.013.01c-.152.95.222 1.883.977 2.44a2.43 2.43 0 0 0 2.584.19l.01.009c1.19-.613 2.192-.765 3.067-.485.875.288 1.596 1.015 2.205 2.221h.016Z"/>
    <path stroke="currentColor" stroke-width=".702" d="M18.998 39c-1.518 0-2.89-.858-3.589-2.242l-.014.002c-.411-.822-.837-1.296-1.3-1.448-.457-.148-1.077-.022-1.885.396l-.012-.01a3.97 3.97 0 0 1-4.204-.327c-1.227-.906-1.84-2.418-1.603-3.95l-.012-.01c.28-1.802-.198-2.472-1.97-2.753l-.003-.016a4.033 4.033 0 0 1-3.208-2.773 4.117 4.117 0 0 1 .99-4.151l-.004-.014c1.27-1.29 1.27-2.117 0-3.408l.005-.014a4.117 4.117 0 0 1-.991-4.153 4.039 4.039 0 0 1 3.208-2.77l.004-.015c1.771-.285 2.25-.955 1.97-2.755l.013-.008c-.238-1.534.375-3.046 1.602-3.952a3.974 3.974 0 0 1 4.204-.328l.011-.008c.806.418 1.423.547 1.886.395.462-.152.888-.626 1.3-1.448l.015.002C16.108 1.858 17.481 1 18.998 1c1.518 0 2.893.858 3.59 2.242l.015-.002c.411.822.836 1.294 1.299 1.448.462.153 1.077.023 1.886-.395l.01.01a3.967 3.967 0 0 1 4.205.328c1.225.904 1.84 2.416 1.604 3.952l.013.007c-.282 1.8.197 2.47 1.969 2.756l.004.014a4.036 4.036 0 0 1 3.209 2.77 4.114 4.114 0 0 1-.99 4.154l.005.014c-1.27 1.289-1.27 2.117 0 3.407l-.006.015c1.08 1.1 1.46 2.69.99 4.153a4.038 4.038 0 0 1-3.21 2.77l-.002.016c-1.772.284-2.251.953-1.97 2.754l-.012.008c.235 1.535-.377 3.047-1.606 3.952a3.97 3.97 0 0 1-4.202.327l-.011.01c-.808-.42-1.424-.548-1.886-.396-.463.154-.888.627-1.3 1.447l-.015-.001c-.696 1.382-2.07 2.24-3.589 2.24Zm-2.2-2.974c.427.857 1.27 1.39 2.2 1.39.932 0 1.774-.531 2.2-1.39l.017.002c.607-1.208 1.328-1.935 2.205-2.221.873-.287 1.877-.13 3.066.484l.01-.01c.841.438 1.832.368 2.583-.19a2.518 2.518 0 0 0 .979-2.44l.014-.009c-.407-2.636.659-4.123 3.254-4.546l.003-.015a2.475 2.475 0 0 0 1.984-1.696c.29-.901.05-1.883-.62-2.56l.004-.016c-1.855-1.89-1.855-3.727.001-5.616l-.006-.014c.673-.68.911-1.66.621-2.56a2.476 2.476 0 0 0-1.984-1.698l-.003-.014c-2.595-.425-3.661-1.911-3.254-4.548l-.014-.006a2.52 2.52 0 0 0-.977-2.441 2.428 2.428 0 0 0-2.584-.19l-.01-.01c-1.194.614-2.195.773-3.069.483-.875-.288-1.596-1.015-2.203-2.221H21.2c-.428-.859-1.27-1.39-2.202-1.39-.93 0-1.773.531-2.2 1.39h-.014c-.61 1.204-1.33 1.931-2.206 2.22-.875.288-1.876.13-3.067-.484l-.011.008a2.433 2.433 0 0 0-2.583.19 2.521 2.521 0 0 0-.976 2.443l-.015.008c.406 2.637-.659 4.123-3.255 4.546l-.003.014a2.479 2.479 0 0 0-1.983 1.698c-.29.9-.05 1.882.623 2.56l-.007.014c1.854 1.89 1.854 3.727 0 5.618l.007.014a2.528 2.528 0 0 0-.623 2.559c.288.9 1.047 1.55 1.983 1.697l.003.016c2.595.423 3.66 1.91 3.255 4.546l.013.01c-.152.95.222 1.883.977 2.44a2.43 2.43 0 0 0 2.584.19l.01.009c1.19-.613 2.192-.765 3.067-.485.875.288 1.596 1.015 2.205 2.221h.016Z" mask="url(#a)"/>
    <path fill="currentColor" stroke="currentColor" stroke-linejoin="round" stroke-width=".351" d="M16.456 25.841c.034.04.083.063.135.063h1.34a.175.175 0 0 0 .134-.063l9.25-11.14a.176.176 0 0 0-.022-.248l-1.338-1.11a.176.176 0 0 0-.247.024l-8.447 10.172-4.1-4.938a.175.175 0 0 0-.247-.022l-1.337 1.11a.176.176 0 0 0-.023.248l4.902 5.904Z"/>
</svg>
