<svg xmlns="http://www.w3.org/2000/svg" width="18" height="18" fill="none" viewBox="0 0 18 18">
    <path fill="currentColor" d="M6 2H5a1 1 0 0 0-1 1v3.382a2 2 0 0 1-1.106 1.789l-.552.276a.618.618 0 0 0 0 1.106l.552.276A2 2 0 0 1 4 11.618V15a1 1 0 0 0 1 1h1v2H5a3 3 0 0 1-3-3v-3.382l-.553-.276a2.618 2.618 0 0 1 0-4.684L2 6.382V3a3 3 0 0 1 3-3h1v2ZM12 2h1a1 1 0 0 1 1 1v3.382a2 2 0 0 0 1.106 1.789l.552.276a.618.618 0 0 1 0 1.106l-.552.276A2 2 0 0 0 14 11.618V15a1 1 0 0 1-1 1h-1v2h1a3 3 0 0 0 3-3v-3.382l.553-.276a2.618 2.618 0 0 0 0-4.684L16 6.382V3a3 3 0 0 0-3-3h-1v2Z"/>
</svg>
