<svg width="53" height="44" viewBox="0 0 53 44" fill="none" xmlns="http://www.w3.org/2000/svg">
    <path d="M17.85.295C5.261.957.624 7.847.624 20.435V40.44a2.658 2.658 0 0 0 2.65 2.65h15.9a2.658 2.658 0 0 0 2.65-2.65v-15.9a2.658 2.658 0 0 0-2.65-2.65h-6.493c.133-5.564.928-9.407 6.492-10.6 2.12-.397 2.65-.794 2.65-2.782V3.607c0-2.915-1.722-3.445-3.975-3.312Zm30.474 0c-12.587.662-17.225 7.552-17.225 20.14V40.44a2.658 2.658 0 0 0 2.65 2.65h15.9a2.658 2.658 0 0 0 2.65-2.65v-15.9a2.658 2.658 0 0 0-2.65-2.65h-6.492c.132-5.564.927-9.407 6.492-10.6 2.12-.397 2.65-.794 2.65-2.782V3.607c0-2.915-1.723-3.445-3.975-3.312Z" fill="currentColor"/>
</svg>
