<svg xmlns="http://www.w3.org/2000/svg" width="28" height="28" data-name="Layer 1" viewBox="0 0 28 28">
    <path fill="none" d="M0 0h28v28H0z"/>
    <path fill="currentColor" fill-rule="evenodd" d="M14 0A14 14 0 1 1 0 14 14 14 0 0 1 14 0Zm0 17a7.723 7.723 0 0 0-6.832 3.445 1 1 0 0 0 1.664 1.11A5.738 5.738 0 0 1 14 19a5.738 5.738 0 0 1 5.168 2.555 1 1 0 1 0 1.664-1.11A7.723 7.723 0 0 0 14 17Zm5.5-9a2.5 2.5 0 1 0 2.5 2.5A2.5 2.5 0 0 0 19.5 8Zm-11 0a2.5 2.5 0 1 0 2.5 2.5A2.5 2.5 0 0 0 8.5 8Z" data-name="28x28-a"/>
</svg>
