<svg data-name="Layer 1" xmlns="http://www.w3.org/2000/svg" width="28" height="28" viewBox="0 0 28 28">
    <path fill="none" d="M0 0h28v28H0z"/>
    <path data-name="28x28-a" d="M3.123 19.077a5.003 5.003 0 0 1 5.8 5.8q.441.206.898.376a5.002 5.002 0 0 1 8.358 0q.457-.17.898-.376a5.003 5.003 0 0 1 5.8-5.8q.206-.441.376-.898a5.002 5.002 0 0 1 0-8.358q-.17-.456-.376-.898a5.003 5.003 0 0 1-5.8-5.8q-.44-.206-.898-.376a5.002 5.002 0 0 1-8.358 0q-.456.17-.898.376a5.003 5.003 0 0 1-5.8 5.8q-.206.441-.376.898a5.002 5.002 0 0 1 0 8.358q.17.457.376.898ZM16.983.318a13.922 13.922 0 0 1 4.597 1.91 3 3 0 0 0 4.193 4.192 13.922 13.922 0 0 1 1.909 4.596 3 3 0 0 0 0 5.967 13.922 13.922 0 0 1-1.91 4.597 3 3 0 0 0-4.192 4.193 13.922 13.922 0 0 1-4.596 1.909 3 3 0 0 0-5.967 0 13.922 13.922 0 0 1-4.597-1.91 3 3 0 0 0-4.193-4.192A13.922 13.922 0 0 1 .32 16.983 3 3 0 0 0 3 14a3 3 0 0 0-2.681-2.983A13.922 13.922 0 0 1 2.227 6.42 3 3 0 0 0 6.42 2.227 13.922 13.922 0 0 1 11.017.32 3 3 0 0 0 14 3 3 3 0 0 0 16.983.319ZM14 8a6 6 0 1 0 6 6 6 6 0 0 0-6-6Zm0 2a4 4 0 1 1-4 4 4 4 0 0 1 4-4Z" fill="currentColor"/>
</svg>
