<svg width="28" height="28" viewBox="0 0 28 28" fill="none" xmlns="http://www.w3.org/2000/svg">
    <path d="m24.5 15.167-7.883 7.882a7.424 7.424 0 0 1-8.57 1.391v0a7.424 7.424 0 0 1-3.32-3.32v0a7.425 7.425 0 0 1 1.39-8.57l8.371-8.372a5.646 5.646 0 0 1 6.735-.943l.157.087a5.065 5.065 0 0 1 2.07 2.163v0a5.065 5.065 0 0 1-.948 5.846l-7.264 7.264a3.3 3.3 0 0 1-4.03.496v0a3.301 3.301 0 0 1-1.133-1.132v0a3.3 3.3 0 0 1 .497-4.03l5.761-5.762" stroke="currentColor" stroke-width="1.5" stroke-linecap="round"/>
</svg>
