<svg xmlns="http://www.w3.org/2000/svg" width="28" height="28" fill="none" viewBox="0 0 28 28">
    <path stroke="currentColor" stroke-linecap="round" stroke-width="1.5" d="M7.875 10.063v1.75m12.25-1.75v1.75m0 0v10.374a1 1 0 0 1-1 1H8.875a1 1 0 0 1-1-1V11.813m12.25 0 2.285.327a1 1 0 0 0 1.07-.619l1.163-2.909a1 1 0 0 0-.355-1.19l-3.467-2.428a1 1 0 0 0-.574-.18h-2.622c-.552 0-1.003.457-1.187.978-.263.746-.9 1.646-2.438 1.646-1.538 0-2.175-.9-2.438-1.646-.184-.521-.635-.979-1.187-.979H7.753a1 1 0 0 0-.574.181L3.712 7.42a1 1 0 0 0-.355 1.191l1.164 2.91a1 1 0 0 0 1.07.618l2.284-.326"/>
</svg>
