<svg data-name="Layer 1" xmlns="http://www.w3.org/2000/svg" width="28" height="28" viewBox="0 0 28 28">
    <path fill="none" d="M0 0h28v28H0z"/>
    <path data-name="28x28-a" d="M19 1a6 6 0 014.097 10.383q3.774 2.984 4.725 12.416A2 2 0 0125.832 26H12.168a2 2 0 01-1.99-2.2q.041-.406.087-.8H9a1 1 0 01-1-1v-4H6v4a1 1 0 01-1 1H1a1 1 0 01-1-1v-8.485a1 1 0 01.419-.814l6-4.286a1 1 0 011.162 0l6 4.286.017.013a7.738 7.738 0 011.304-1.332A6 6 0 0119 1zm2.244 11.565l-.106.043a6.023 6.023 0 01-4.383-.042c-2.368 1.317-3.936 4.986-4.587 11.434h13.664c-.65-6.448-2.22-10.117-4.588-11.435zM7 10.458l-5 3.571V21h2v-4a1 1 0 011-1h4a1 1 0 011 1v4h1l1-5v-1.97zM19 3a4 4 0 104 4 4 4 0 00-4-4z" fill="currentColor"/>
</svg>
