<svg data-name="Layer 1" xmlns="http://www.w3.org/2000/svg" width="24" height="24" viewBox="0 0 24 24">
    <path fill="none" d="M0 0h24v24H0z"/>
    <path data-name="24x24-a" d="M22 16a1 1 0 011 1v2a1 1 0 01-1 1H8a1 1 0 01-1-1v-2a1 1 0 011-1zM4 16a1 1 0 011 1v2a1 1 0 01-1 1H2a1 1 0 01-1-1v-2a1 1 0 011-1zm18-6a1 1 0 011 1v2a1 1 0 01-1 1H8a1 1 0 01-1-1v-2a1 1 0 011-1zM4 10a1 1 0 011 1v2a1 1 0 01-1 1H2a1 1 0 01-1-1v-2a1 1 0 011-1zm18-6a1 1 0 011 1v2a1 1 0 01-1 1H8a1 1 0 01-1-1V5a1 1 0 011-1zM4 4a1 1 0 011 1v2a1 1 0 01-1 1H2a1 1 0 01-1-1V5a1 1 0 011-1z" fill="currentColor" fill-rule="evenodd"/>
</svg>
