<svg data-name="Layer 1" xmlns="http://www.w3.org/2000/svg" width="28" height="28" viewBox="0 0 28 28">
    <path fill="none" d="M0 0h28v28H0z"/>
    <path data-name="28x28-a" d="M14 26A12 12 0 1 0 2 14a12 12 0 0 0 12 12Zm0-26A14 14 0 1 1 0 14 14 14 0 0 1 14 0ZM9.6 12.45a1 1 0 0 0-1.2 0l-3 2.25a1 1 0 0 0-.4.8V20a1 1 0 0 0 1 1h6a1 1 0 0 0 1-1v-4.5a1 1 0 0 0-.4-.8Zm10 0a1 1 0 0 0-1.2 0l-3 2.25a1 1 0 0 0-.4.8V20a1 1 0 0 0 1 1h6a1 1 0 0 0 1-1v-4.5a1 1 0 0 0-.4-.8ZM9 14.5l2 1.5v3H7v-3Zm10 0 2 1.5v3h-4v-3ZM14.6 3.45a1 1 0 0 0-1.2 0l-3 2.25a1 1 0 0 0-.4.8V11a1 1 0 0 0 1 1h6a1 1 0 0 0 1-1V6.5a1 1 0 0 0-.4-.8ZM14 5.5 16 7v3h-4V7Z" fill="currentColor"/>
</svg>
