<svg data-name="Layer 1" xmlns="http://www.w3.org/2000/svg" width="24" height="24" viewBox="0 0 24 24">
    <path fill="none" d="M0 0h24v24H0z"/>
    <path data-name="24x24-a" d="M12 0a7 7 0 0 1 7 7q0 2.592-3.146 8H21l3 9H0l3-9h5.146Q5 9.592 5 7a7 7 0 0 1 7-7ZM9.356 17H4.441l-1.666 5h18.45l-1.667-5h-4.914Q13.478 18.86 12 21q-1.478-2.14-2.644-4ZM12 2a5 5 0 0 0-5 5c0 1.751 1.667 5.317 5 10.418C15.334 12.317 17 8.75 17 7a5 5 0 0 0-5-5Zm0 2a3 3 0 1 1-3 3 3 3 0 0 1 3-3Zm0 2a1 1 0 1 0 1 1 1 1 0 0 0-1-1Z" fill="currentColor"/>
</svg>
