<svg xmlns="http://www.w3.org/2000/svg" xmlns:xlink="http://www.w3.org/1999/xlink" width="28" height="28" viewBox="0 0 28 28">
    <defs>
        <path id="a" d="M24 0a2 2 0 0 1 2 2v26l-11.445-7.63a1 1 0 0 0-1.11 0L2 28V2a2 2 0 0 1 2-2h20Zm0 10H4v14.262l8.336-5.556a3 3 0 0 1 3.147-.112l.181.112L24 24.262V10Zm0-8H4v6h20V2Z"/>
    </defs>
    <g fill="none" fill-rule="evenodd">
        <path d="M0 0h28v28H0z"/>
        <mask id="b" fill="currentColor">
            <use xlink:href="#a"/>
        </mask>
        <use xlink:href="#a" fill="currentColor" fill-rule="nonzero"/>
        <g fill="currentColor" mask="url(#b)">
            <path d="M0 0h28v28H0z"/>
        </g>
    </g>
</svg>
