<svg width="28" height="28" viewBox="0 0 28 28" fill="none" xmlns="http://www.w3.org/2000/svg">
    <path fill-rule="evenodd" clip-rule="evenodd" d="M1.403 1.276a1 1 0 01.884-.155l8.249 2.474 6.541-2.453a1 1 0 01.639-.021l8.571 2.571A1 1 0 0127 4.65v20.571a1 1 0 01-1.287.958l-8.249-2.474-6.541 2.453a1 1 0 01-.639.021l-8.571-2.571A1 1 0 011 22.65V2.079a1 1 0 01.403-.803zM3 3.423v18.483l5.571 1.671V5.094L3 3.423zm7.571 2.227v18.503l6.506-2.44a.966.966 0 01.066-.021V3.254l-6.22 2.332a1 1 0 01-.352.064zM25 23.877l-5.857-1.757V3.637L25 5.394v18.483z" fill="currentColor"/>
</svg>
