<svg xmlns="http://www.w3.org/2000/svg" width="28" height="28" data-name="Layer 1" viewBox="0 0 28 28">
    <path fill="none" d="M0 0h28v28H0z"/>
    <path fill="currentColor" d="M13.995 3a5 5 0 0 1 3.795 8.255 5.815 5.815 0 0 1 .751.93c.196.294.394.626.639 1.066l.061.11a7.16 7.16 0 0 1 .872-1.339 3.498 3.498 0 1 1 4.847.003 7.516 7.516 0 0 1 .971 1.527 17.038 17.038 0 0 1 1.07 5.318c.004.065.004.065.004.13a2 2 0 0 1-2 2l-3.855.001a18.544 18.544 0 0 1-.05 2.178A2 2 0 0 1 19.108 25H8.93a2 2 0 0 1-1.998-1.91A25.784 25.784 0 0 1 6.93 21H2.995a2 2 0 0 1-2-2c0-.065 0-.065.004-.13a17.038 17.038 0 0 1 1.07-5.317 7.589 7.589 0 0 1 .971-1.53 3.499 3.499 0 1 1 4.847.002 7.103 7.103 0 0 1 .868 1.327c.113-.202.213-.375.311-.539a7.154 7.154 0 0 1 1.165-1.523A4.998 4.998 0 0 1 13.995 3Zm2.187 9.496-.147.07a5.013 5.013 0 0 1-4.167-.04 4.255 4.255 0 0 0-1.089 1.319c-.125.208-.257.44-.426.748l-.48.885c-.727 1.332-1.05 5.17-.943 7.522h10.178c.192-2.132-.142-5.964-.991-7.521a19.401 19.401 0 0 0-1.239-2.183 3.278 3.278 0 0 0-.697-.8Zm6.855.504h-1c-.171 0-.593.421-1.106 1.447a7.17 7.17 0 0 0-.414 1.027 3.978 3.978 0 0 0-.1.42 18.319 18.319 0 0 1 .59 3.106h3.998a15.4 15.4 0 0 0-.863-4.553C23.63 13.421 23.208 13 23.037 13ZM5.963 13h-1c-.171 0-.592.421-1.105 1.447A15.4 15.4 0 0 0 2.995 19h4.074a20.354 20.354 0 0 1 .522-3.064 4.3 4.3 0 0 0-.108-.462 7.17 7.17 0 0 0-.414-1.027C6.556 13.421 6.135 13 5.963 13Zm16.574-5a1.5 1.5 0 1 0 1.5 1.5 1.5 1.5 0 0 0-1.5-1.5ZM5.463 8a1.5 1.5 0 1 0 1.5 1.5 1.5 1.5 0 0 0-1.5-1.5Zm8.532-3a3 3 0 1 0 3 3 3 3 0 0 0-3-3Z" data-name="28x28-a"/>
</svg>
