<svg data-name="Layer 1" xmlns="http://www.w3.org/2000/svg" width="28" height="28" viewBox="0 0 28 28">
    <path fill="none" d="M0 0h28v28H0z"/>
    <path data-name="28x28-a" d="M19 1a2.91 2.91 0 013 2.813V5h4a2 2 0 012 2v16a2 2 0 01-2 2H2a2 2 0 01-2-2V7a2 2 0 012-2h4V3.812A3.103 3.103 0 019 1a3.103 3.103 0 013 2.813V5h4V3.812A2.91 2.91 0 0119 1zM6 7H2v16h24V7h-4v.188a3.006 3.006 0 01-6 0V7h-4v.188A3.103 3.103 0 019 10a3.103 3.103 0 01-3-2.813zm11 6v6h-6v-6zm-7 0v6H4v-6zm12.5 0l1.5 1.5-1.5 1.5 1.5 1.5-1.5 1.5-1.5-1.5-1.5 1.5-1.5-1.5 1.5-1.5-1.5-1.5 1.5-1.5 1.5 1.5zM15 15h-2v2h2zm-7 0H6v2h2zM19 3c-.552 0-1 .28-1 .625v3.75c0 .345.448.625 1 .625s1-.28 1-.625v-3.75C20 3.28 19.552 3 19 3zM9 3c-.552 0-1 .28-1 .625v3.75C8 7.72 8.448 8 9 8s1-.28 1-.625v-3.75C10 3.28 9.552 3 9 3z" fill="currentColor" fill-rule="evenodd"/>
</svg>
