<svg xmlns="http://www.w3.org/2000/svg" width="28" height="28" fill="none" viewBox="0 0 28 28">
    <path fill="currentColor" fill-rule="evenodd" d="M3 9V3h6v6H3ZM1 2a1 1 0 0 1 1-1h8a1 1 0 0 1 1 1v8a1 1 0 0 1-1 1H2a1 1 0 0 1-1-1V2Zm2 23v-6h6v6H3Zm-2-7a1 1 0 0 1 1-1h8a1 1 0 0 1 1 1v8a1 1 0 0 1-1 1H2a1 1 0 0 1-1-1v-8ZM25 3h-6v6h6V3Zm-7-2a1 1 0 0 0-1 1v8a1 1 0 0 0 1 1h8a1 1 0 0 0 1-1V2a1 1 0 0 0-1-1h-8ZM8 4H4v4h4V4ZM4 20h4v4H4v-4ZM24 4h-4v4h4V4ZM13 1h2v3h-2V1Zm2 5h-2v3h2V6Zm0 5h-2v2H9v2h6v-4Zm12 16v-5h-2v5h2Zm-4-10h-2v4h-4v2h6v-6Zm4 3v-3h-2v3h2Zm-10-7h10v2H17v-2ZM7 13H1v2h6v-2Zm8 9h-2v5h10v-2h-8v-3Zm-2-2v-3h6v2h-4v1h-2Z" clip-rule="evenodd"/>
</svg>
