<svg xmlns="http://www.w3.org/2000/svg" width="28" height="28" data-name="Layer 1" viewBox="0 0 28 28">
    <path fill="none" d="M0 0h28v28H0z"/>
    <path fill="currentColor" d="m15.415.68 9.449 5.455a2.8 2.8 0 0 1 1.4 2.425v10.911a2.8 2.8 0 0 1-1.4 2.425l-3.383 1.966.002-1.784h-.002v-3.614l-2.8 1.68v4.245l.002.003-.001 1.073-3.267 1.887a2.8 2.8 0 0 1-2.8 0L9.35 25.467v-.03h-.002v-5.293l-2.8-1.68v3.23h.001l-.002 2.169-3.382-1.967a2.8 2.8 0 0 1-1.4-2.425V8.56a2.8 2.8 0 0 1 1.4-2.425L12.615.68a2.8 2.8 0 0 1 2.8 0ZM3.632 9.973v9.498a.933.933 0 0 0 .467.808l.582.337v-2.152a1.867 1.867 0 0 1 2.827-1.6l2.8 1.68a1.866 1.866 0 0 1 .907 1.6v4.243l1.867 1.078v-9.98Zm20.765 0-9.45 5.512v9.98l1.867-1.078v-4.243a1.866 1.866 0 0 1 .906-1.6l2.8-1.68a1.867 1.867 0 0 1 2.828 1.6v2.152l.582-.337a.933.933 0 0 0 .467-.808Zm-.23-2.027a.932.932 0 0 0-.236-.194l-8.983-5.186v10.758l9.22-5.378Zm-20.305 0 9.22 5.378V2.566L4.099 7.752a.93.93 0 0 0-.237.194Z" data-name="28x28-a"/>
</svg>
