<svg data-name="Layer 1" xmlns="http://www.w3.org/2000/svg" width="28" height="28" viewBox="0 0 28 28">
    <path fill="none" d="M0 0h28v28H0z"/>
    <path d="M25.598 15.22 14 27 2.402 15.22a8.423 8.423 0 0 1 0-11.78A8.112 8.112 0 0 1 14 3.44a8.112 8.112 0 0 1 11.598 0 8.423 8.423 0 0 1 0 11.78Z" fill="currentColor" fill-rule="evenodd"/>
    <path d="M24.173 13.817a6.423 6.423 0 0 0 0-8.974 6.112 6.112 0 0 0-8.748 0L14 6.29l-1.425-1.447a6.112 6.112 0 0 0-8.748 0 6.423 6.423 0 0 0 0 8.974L14 24.149Zm1.425 1.403L14 27 2.402 15.22a8.423 8.423 0 0 1 0-11.78A8.112 8.112 0 0 1 14 3.44a8.112 8.112 0 0 1 11.598 0 8.423 8.423 0 0 1 0 11.78Z" fill="currentColor"/>
</svg>
