<svg xmlns="http://www.w3.org/2000/svg" width="20" height="20" data-name="Layer 1" viewBox="0 0 20 20">
    <path fill="currentColor" d="M2 9v9h3V9ZM12.644.894l.41.274a3.692 3.692 0 0 1 1.573 3.796L14.22 7h2.59q.136 0 .272.012a3 3 0 0 1 2.716 3.26l-.637 7A3 3 0 0 1 16.174 20H12.33a4.996 4.996 0 0 1-.822-.068l-4.525-.754A1 1 0 0 1 6 20H1a1 1 0 0 1-1-1V8a1 1 0 0 1 1-1h5a.997.997 0 0 1 .727.313l1.433-.955 1.477-4.432A2 2 0 0 1 12.644.894Zm-1.11 1.664-1.477 4.433a2 2 0 0 1-.788 1.031L7 9.535v7.618l4.838.806a3.006 3.006 0 0 0 .493.041h3.843a1 1 0 0 0 .996-.91l.636-7a1 1 0 0 0-.906-1.086A1.2 1.2 0 0 0 16.81 9h-2.59a2 2 0 0 1-1.961-2.392l.407-2.036a1.692 1.692 0 0 0-.72-1.74Z" data-name="20x20-a"/>
</svg>
