<svg data-name="Layer 1" xmlns="http://www.w3.org/2000/svg" width="24" height="24" viewBox="0 0 24 24">
    <path fill="none" d="M0 0h24v24H0z"/>
    <path data-name="24x24-a" d="M8 10v2a3 3 0 013 3v2a3 3 0 01-3 3v2h8v-2a3 3 0 01-3-3v-7zm6-2a1 1 0 011 1v8a1 1 0 001 1h1a1 1 0 011 1v4a1 1 0 01-1 1H7a1 1 0 01-1-1v-4a1 1 0 011-1h1a1 1 0 001-1v-2a1 1 0 00-1-1H7a1 1 0 01-1-1V9a1 1 0 011-1zm-2.5-8A3.5 3.5 0 118 3.5 3.5 3.5 0 0111.5 0zm0 2A1.5 1.5 0 1013 3.5 1.5 1.5 0 0011.5 2z" fill="currentColor"/>
</svg>
