<svg data-name="Layer 1" xmlns="http://www.w3.org/2000/svg" width="24" height="24" viewBox="0 0 24 24">
    <path fill="none" d="M0 0h24v24H0z"/>
    <path data-name="24x24-a" d="M6 7v14a1 1 0 0 0 1 1h10a1 1 0 0 0 1-1V7Zm14-2v16a3 3 0 0 1-3 3H7a3 3 0 0 1-3-3V5Zm-9.768 6.318a1 1 0 0 0-1.414 1.414l1.768 1.768-1.768 1.768a1 1 0 0 0 1.414 1.414L12 15.914l1.768 1.768a1 1 0 0 0 1.414-1.414L13.414 14.5l1.768-1.768a1 1 0 0 0-1.414-1.414L12 13.086ZM14.414 0l2 2H21a1 1 0 0 1 0 2h-5.414l-2-2h-3.172l-2 2H3a1 1 0 0 1 0-2h4.586l2-2Z" fill="currentColor"/>
</svg>
