<svg xmlns="http://www.w3.org/2000/svg" width="16" height="16" data-name="Layer 1" viewBox="0 0 16 16">
    <path fill="currentColor" fill-rule="evenodd" d="M7.588 8.412a9.746 9.746 0 0 0 1.9 1.476l1.06-1.06a1.731 1.731 0 0 1 2.448 0l2.497 2.497a1.731 1.731 0 0 1 0 2.448l-1.203 1.203a3.497 3.497 0 0 1-4.35.476 30.6 30.6 0 0 1-5.217-4.175A30.596 30.596 0 0 1 .548 6.06a3.497 3.497 0 0 1 .476-4.351L2.227.507a1.731 1.731 0 0 1 2.448 0l2.497 2.496a1.731 1.731 0 0 1 0 2.449l-1.06 1.06a9.742 9.742 0 0 0 1.476 1.9Z" data-name="16x16-a"/>
</svg>
