<svg width="28" height="28" fill="none" xmlns="http://www.w3.org/2000/svg">
    <path d="M25 4a3 3 0 013 3v14a3 3 0 01-3 3H3a3 3 0 01-3-3V7a3 3 0 013-3h22zm-8 12H2v5a1 1 0 00.883.993L3 22h14v-6zm9 0h-7v6h6a1 1 0 00.993-.883L26 21v-5zm-15 2a1 1 0 110 2H5a1 1 0 110-2h6zm6-12H3a1 1 0 00-.993.883L2 7v7h12.502l-1.098-.313A3.314 3.314 0 0111 10.5 2.5 2.5 0 0113.5 8c1.48 0 2.78.981 3.187 2.404L17 11.502V6zm8 0h-6v5.499l.313-1.095a3.314 3.314 0 012.995-2.398L22.5 8a2.5 2.5 0 012.5 2.5 3.314 3.314 0 01-2.22 3.129l-.184.058-1.098.313H26V7a1 1 0 00-.883-.993L25 6zm-2.5 4l-.134.007c-.486.05-.905.366-1.086.82l-.044.126-.323 1.134 1.134-.323.127-.044c.495-.197.826-.678.826-1.22a.5.5 0 00-.5-.5zm-9 0a.5.5 0 00-.5.5c0 .542.332 1.023.826 1.22l.127.044 1.134.323-.323-1.134c-.15-.52-.6-.892-1.13-.946L13.5 10z" fill="currentColor"/>
</svg>
