<svg data-name="Layer 1" xmlns="http://www.w3.org/2000/svg" width="28" height="28" viewBox="0 0 28 28">
    <path fill="none" d="M0 0h28v28H0z"/>
    <path data-name="28x28-a" d="m24.078 19.453.294-.637A14.476 14.476 0 0 0 26 13.5C26 7.755 20.675 3 14 3S2 7.755 2 13.5 7.325 24 14 24a19.98 19.98 0 0 0 5.97-1.376l.65-.23 4.564 1.543ZM14 1c7.732 0 14 5.596 14 12.5a16.008 16.008 0 0 1-1.813 6.156L28 27l-7.366-2.49A21.582 21.582 0 0 1 14 26C6.268 26 0 20.404 0 13.5S6.268 1 14 1Zm6 14H10a1 1 0 0 0 0 2h10a1 1 0 0 0 0-2Zm-2-5H8a1 1 0 0 0 0 2h10a1 1 0 0 0 0-2Z" fill="currentColor"/>
</svg>
