<svg data-name="Layer 1" xmlns="http://www.w3.org/2000/svg" width="28" height="28" viewBox="0 0 28 28">
    <path fill="none" d="M0 0h28v28H0z"/>
    <path data-name="28x28-a" d="M19.461 2.088c2.144.534 3.285 3.357 2.55 6.304l-.019.07a3.555 3.555 0 012.849-.236c2.075.756 2.993 3.472 2.048 6.067-.884 2.43-3.087 3.892-5.068 3.448a8.324 8.324 0 011.31 4.184 3.958 3.958 0 01-1.592 3.323c-1.624 1.244-5.409.677-7.409.677s-3 2-6 1-3-4-3-5a8.853 8.853 0 011.892-5.052 3.265 3.265 0 01-1.181.75c-2.076.756-4.525-.735-5.47-3.33S.345 8.983 2.42 8.227a3.999 3.999 0 014.256 1.316 7.279 7.279 0 01-.35-.881c-.938-2.89.004-5.785 2.105-6.467s4.565 1.106 5.504 3.995a7.583 7.583 0 01.207.776c.029-.169.065-.338.107-.508.735-2.947 3.069-4.904 5.212-4.369zm-5.33 12.837c-3.477 0-7 3.822-7 7a4.827 4.827 0 00.247 1.797 2.03 2.03 0 001.385 1.305 2.57 2.57 0 002.396-.268c.166-.08.255-.122.348-.165a5.782 5.782 0 012.623-.67c.44 0 .682.01 1.785.068.755.039 1.205.056 1.679.06a5.632 5.632 0 002.729-.392 1.971 1.971 0 00.807-1.735c0-3.178-3.523-7-7-7zm.047-5.275l-.043.2a3.683 3.683 0 01-2.305 2.806 3.965 3.965 0 01-4.102-1.496c.058.128.112.26.161.396a5.363 5.363 0 01-.334 4.657 8.91 8.91 0 016.575-3.289 8.26 8.26 0 014.98 1.789 5.632 5.632 0 01.013-2.282 3.256 3.256 0 01-2.323.33 3.849 3.849 0 01-2.622-3.111zm-11.074.456c-.934.34-1.449 1.865-.853 3.503s1.971 2.475 2.906 2.135 1.449-1.866.853-3.503-1.971-2.476-2.905-2.136zm18.147 2.135c-.596 1.637-.08 3.163.853 3.503s2.31-.498 2.906-2.135.08-3.163-.853-3.503-2.31.497-2.906 2.135zm-5.061-5.3c-.495 1.984.18 3.652 1.094 3.88s2.292-.928 2.787-2.913-.18-3.651-1.094-3.88-2.292.928-2.787 2.913zM9.049 4.096c-.896.291-1.453 2.001-.82 3.947s2.087 3.001 2.983 2.71 1.453-2.001.82-3.946S9.946 3.805 9.05 4.096z" fill="currentColor"/>
</svg>
