<svg xmlns="http://www.w3.org/2000/svg" width="28" height="28" fill="none" viewBox="0 0 28 28">
    <path stroke="currentColor" stroke-width="1.5" d="M13.125 14.652a6.096 6.096 0 0 1-3.5 1.098c-.94 0-1.83-.211-2.625-.59m6.125-.508a6.158 6.158 0 0 0 1.527-1.527m-1.527 1.527 6.182 7.458c.816.984 1.989 1.89 3.2 1.484.251-.084.487-.213.68-.407.194-.193.323-.429.407-.68.407-1.211-.5-2.384-1.484-3.2l-7.458-6.182m0 0a6.096 6.096 0 0 0 1.098-3.5c0-.94-.211-1.83-.59-2.625M4.376 12.782a6.125 6.125 0 0 1 8.407-8.407m-8.407 8.407A6.152 6.152 0 0 0 7 15.16m-2.625-2.38S6.125 12.25 7 11.376c1.486-1.486 1.235-3.86 2.625-5.25.875-.875 3.157-1.75 3.157-1.75m0 0A6.152 6.152 0 0 1 15.16 7m0 0s-2.036.875-2.911 1.75c-1.312 1.312-1.292 3.435-2.625 4.813C8.791 14.425 7 15.16 7 15.16"/>
</svg>
