<svg xmlns="http://www.w3.org/2000/svg" width="20" height="20" data-name="Layer 1" viewBox="0 0 20 20">
    <path fill="currentColor" d="M10 18a8 8 0 1 0-8-8 8 8 0 0 0 8 8Zm0-18A10 10 0 1 1 0 10 10 10 0 0 1 10 0Zm1.044 8.598-2.642.005A.396.396 0 0 0 8.005 9L8 10.024a.396.396 0 0 0 .397.397 1 1 0 0 1 1 1v1.219a1 1 0 0 1-.88.993l-.115.007a.396.396 0 0 0-.397.397V15a.348.348 0 0 0 .391.34h4a.357.357 0 0 0 .402-.34v-.964a.396.396 0 0 0-.396-.396l-.555-.005a.442.442 0 0 1-.45-.391L11.402 9a.367.367 0 0 0-.358-.402ZM10 4a2 2 0 1 0 2 1.998A2 2 0 0 0 10 4Z" data-name="20x20-a"/>
</svg>
