<svg data-name="Layer 1" xmlns="http://www.w3.org/2000/svg" width="28" height="28" viewBox="0 0 28 28">
    <path fill="none" d="M0 0h28v28H0z"/>
    <path data-name="28x28-a" d="M14 0c7.732 0 14 7 14 14 0 3-2 7-6.033 7-2.235 0-3.353-.567-4.197-1.702A4.31 4.31 0 0 1 14 21a6.748 6.748 0 0 1-7-7 7.313 7.313 0 0 1 7-7c2.778 0 4.902 2.793 4.997 6.724L19 14c0 4 0 5 2.967 5C24.275 19 26 16.637 26 14c0-6.164-5.633-12-12-12a12 12 0 1 0 6.352 22.183 1.207 1.207 0 0 1 1.203.212 1.12 1.12 0 0 1 .412 1.119A14 14 0 1 1 14 0Zm0 9a5.344 5.344 0 0 0-5 5 4.758 4.758 0 0 0 5 5c2.163 0 3-1.362 3-5 0-3.08-1.417-5-3-5Z" fill="currentColor" fill-rule="evenodd"/>
</svg>
