<svg xmlns="http://www.w3.org/2000/svg" fill="none" viewBox="0 0 40 30.55">
    <path fill="currentColor" fill-rule="evenodd" d="M30.011.03c.417-.096.853.046 1.13.368l8.59 9.95c.155.18.245.396.269.617-.03.306-.162.604-.393.84l-8.317 8.507a2530 2530 0 0 1-1.108 1.132c-2.391 2.444-4.84 4.945-7.187 7.461a5.644 5.644 0 0 1-3.86 1.643 5.382 5.382 0 0 1-3.677-1.566L.749 14.36c-.999-.993-.999-2.603 0-3.596l9.659-9.601a2.572 2.572 0 0 1 2.53-.644l7.716 2.242.143-.142c.157-.156.334-.29.524-.4l.029-.017.023-.024c.15-.147.34-.252.55-.3l8.088-1.85Zm8.057 11.035-8.012-9.281-.32.073-.039-.045-7.354 1.682-.281.176a.562.562 0 0 0-.116.089l-7.738 7.691.077.077-.187.186 1.98 1.968c.81.806 2.102.872 2.992.155l3.589-2.894 7.875 7.829 7.534-7.706ZM19.26 4.148 12.45 2.17a.83.83 0 0 0-.375-.02.567.567 0 0 0-.518.151l-9.659 9.601a.558.558 0 0 0-.152.516.82.82 0 0 0 .23.727l14.708 14.62c1.387 1.38 3.617 1.42 4.997.162l.204-.186-4.518-4.49 1.495-1.486 4.452 4.425 2.699-2.894-4.128-4.104 1.494-1.485 4.048 4.023 1.994-1.633-6.883-6.842-.205.165-.076-.076-2.192 1.767c-.744.6-1.636.91-2.533.938a3.976 3.976 0 0 1-2.68-1.154l-3.203-3.183 7.61-7.565Z" clip-rule="evenodd"/>
</svg>
