<svg data-name="Layer 1" xmlns="http://www.w3.org/2000/svg" width="20" height="20" viewBox="0 0 20 20">
    <path data-name="20x20-a" d="M10 0A10 10 0 1 1 0 10 10 10 0 0 1 10 0Zm7.938 11.001h-1.993a12.162 12.162 0 0 1-3.047 6.459A8.009 8.009 0 0 0 17.938 11Zm-13.883 0H2.062a8.009 8.009 0 0 0 5.04 6.458 12.162 12.162 0 0 1-3.047-6.458ZM9 11H6.07A10.8 10.8 0 0 0 9 16.594Zm4.93 0H11l.002 5.593A10.8 10.8 0 0 0 13.929 11ZM7.101 2.54l-.162.066A8.008 8.008 0 0 0 2.062 9h1.993a12.161 12.161 0 0 1 3.047-6.46ZM6.07 9H9l-.001-5.594A10.8 10.8 0 0 0 6.07 9.001Zm4.932-5.593L11 9h2.93a10.798 10.798 0 0 0-2.928-5.593Zm1.896-.866.195.235A11.98 11.98 0 0 1 15.945 9h1.993a8.009 8.009 0 0 0-5.04-6.459Z" fill="currentColor"/>
</svg>
