<svg data-name="Layer 1" xmlns="http://www.w3.org/2000/svg" width="28" height="28" viewBox="0 0 28 28">
    <path fill="none" d="M0 0h28v28H0z"/>
    <path data-name="28x28-a" d="M2 5v18h24V5zm24-2a2 2 0 012 2v18a2 2 0 01-2 2H2a2 2 0 01-2-2V5a2 2 0 012-2zM14 7a5 5 0 00-5 5q0 .122.006.242l.004.074.012.152.011.11c.005.044.01.09.017.134l.012.08c.008.048.016.096.026.144l.02.106.027.116q.048.205.113.402l.045.13.022.06q.07.187.154.368l.035.072q.084.172.18.337l.07.115q.104.167.22.324l.037.05.08.103.04.05.034.042.07.081.052.058C8.295 17.018 7 19 6 23h2.475c.865-3.404 2.055-5.484 3.525-6.417a5.008 5.008 0 004 0c1.47.933 2.66 3.013 3.524 6.417H22c-1-4-2.296-5.982-4.288-7.65l.052-.058.07-.081.075-.092.08-.103.037-.05q.116-.157.22-.323.036-.058.07-.117.096-.164.18-.336l.034-.071q.085-.182.155-.37l.022-.059q.023-.064.044-.13.065-.197.114-.401a5.882 5.882 0 00.072-.367l.012-.08a5.125 5.125 0 00.029-.244l.012-.152.003-.06v-.015Q19 12.121 19 12a5 5 0 00-5-5zm0 2a3 3 0 11-3 3 3 3 0 013-3z" fill="currentColor"/>
</svg>
