<svg data-name="Layer 1" xmlns="http://www.w3.org/2000/svg" width="28" height="28" viewBox="0 0 28 28">
    <path fill="none" d="M0 0h28v28H0z"/>
    <path data-name="28x28-a" d="M25 2l1.841 6.138A3 3 0 0124 12v-.001V15h1a1 1 0 011 1v7a1 1 0 01-1 1h-1v1a1 1 0 01-2 0v-1H6v1a1 1 0 01-2 0v-1H3a1 1 0 01-1-1v-7a1 1 0 011-1h1v-3.001l-.144-.004a3 3 0 01-2.697-3.857L3 2zm-1 15H4v5h20zm-2-5H6v3h16zM7.874 3.999L4.488 4 3.074 8.713A1 1 0 004.032 10h3.092zM23.512 4l-3.388-.001.75 6.001h3.094a1 1 0 00.958-1.287zm-5.388-.001H15V10h3.875zm-5.125 0H9.874L9.124 10H13z" fill="currentColor" fill-rule="evenodd"/>
</svg>
