<svg data-name="Layer 1" xmlns="http://www.w3.org/2000/svg" width="28" height="28" viewBox="0 0 28 28">
    <path fill="none" d="M0 0h28v28H0z"/>
    <path data-name="28x28-a" d="M23 11a9 9 0 0 0-18 0c0 3.113 2.97 7.92 9 14.154 6.03-6.233 9-11.04 9-14.154ZM14 0a11 11 0 0 1 11 11q0 6.075-11 17Q3 17.075 3 11A11 11 0 0 1 14 0Zm.894 3.33a2 2 0 0 0-1.788 0l-5 2.5A2 2 0 0 0 7 7.617V14a2 2 0 0 0 2 2h2a2 2 0 0 0 2-2v-3h2v3a2 2 0 0 0 2 2h2a2 2 0 0 0 2-2V7.618a2 2 0 0 0-1.106-1.789ZM14 5.117l5 2.5V14h-2v-3a2 2 0 0 0-2-2h-2a2 2 0 0 0-2 2v3H9V7.618Z" fill="currentColor"/>
</svg>
