<svg data-name="Layer 1" xmlns="http://www.w3.org/2000/svg" width="28" height="28" viewBox="0 0 28 28">
    <path fill="none" d="M0 0h28v28H0z"/>
    <path data-name="28x28-a" d="M14 26A12 12 0 102 14a12 12 0 0012 12zm0-26A14 14 0 110 14 14 14 0 0114 0zm-3 9H8a3 3 0 00-3 3v7a3 3 0 003 3h12a3 3 0 003-3v-7a3 3 0 00-3-3h-3v2h3a1 1 0 011 1v7a1 1 0 01-1 1H8a1 1 0 01-1-1v-7a1 1 0 011-1h3zm4-5h-2v10.586l-2.293-2.293-1.414 1.414L14 18.414l4.707-4.707-1.414-1.414L15 14.586z" fill="currentColor"/>
</svg>
