<svg xmlns="http://www.w3.org/2000/svg" width="28" height="28" fill="none">
    <path fill="currentColor" d="M25 1a3 3 0 0 1 3 3v20a3 3 0 0 1-3 3H3a3 3 0 0 1-3-3V4a3 3 0 0 1 3-3h22zm1 8H2v15a1 1 0 0 0 .883.993L3 25h22a1 1 0 0 0 .993-.883L26 24V9zM11.5 20a1.5 1.5 0 1 1 0 3 1.5 1.5 0 0 1 0-3zm7 0a1.5 1.5 0 1 1 0 3 1.5 1.5 0 0 1 0-3zM8.618 10l1 2h12.77l-2.667 8h-9.442l-2.206-6.617L7.381 12H6a1 1 0 0 1-.993-.883L5 11a1 1 0 0 1 .883-.993L6 10h2.618zm10.994 4h-9.225l1.333 4h6.559l1.333-4zM25 3H3a1 1 0 0 0-.993.883L2 4v3h24V4a1 1 0 0 0-.883-.993L25 3zM8 4a1 1 0 1 1 0 2H4a1 1 0 0 1 0-2h4z"/>
</svg>
