<svg data-name="Layer 1" xmlns="http://www.w3.org/2000/svg" width="28" height="28" viewBox="0 0 28 28">
    <defs>
        <mask id="a" x="0" y="0" width="28" height="28" maskUnits="userSpaceOnUse">
            <g data-name="28x28-b">
                <path data-name="28x28-a" d="m7.54 20.519 1.492 1.252-3.522 4.197-1.492-1.252Zm-5.506-.116L3.152 22l3.49-2.444-1.118-1.597Zm8.104 2.084-1.8 3.862 1.764.823 1.8-3.862Zm7.019 2.162-1.422 1.252-.19-1.887a10.67 10.67 0 0 0-.658-3.051l-1.613-1.354-1.21.969a.609.609 0 0 1-.772-.01L8.33 18.082a.609.609 0 0 1-.143-.758l.744-1.36-1.574-1.32a10.68 10.68 0 0 0-3.12-.117l-1.887.139.987-1.618c1.515-2.482 2.726-3.927 3.808-4.396a8.239 8.239 0 0 1 3.791-.426A20.206 20.206 0 0 1 15.252 3.8a13.114 13.114 0 0 1 9.172-2.74l.67.066.176.65a13.245 13.245 0 0 1-1.109 9.501 20.105 20.105 0 0 1-3.586 4.992 8.33 8.33 0 0 1 .252 3.868c-.275 1.145-1.486 2.59-3.67 4.512Zm2.13-20.91a11.997 11.997 0 0 0 1.933 2.036 12.048 12.048 0 0 0 2.291 1.526 10.545 10.545 0 0 0 .037-4.348 10.332 10.332 0 0 0-4.261.786ZM5.989 12.532a7.915 7.915 0 0 1 2.123.304q.742-1.438 1.528-2.698a4.751 4.751 0 0 0-1.723.301 6.556 6.556 0 0 0-1.928 2.093Zm9.044 6.011q5.406-4.066 7.378-8.123.302-.616.535-1.227a13.768 13.768 0 0 1-2.978-1.923 13.757 13.757 0 0 1-2.442-2.643q-.566.34-1.127.748-3.68 2.679-6.72 8.675Zm3.9 1.14a4.878 4.878 0 0 0-.013-1.812q-1.11 1-2.404 1.991a7.886 7.886 0 0 1 .69 2.082 6.546 6.546 0 0 0 1.726-2.262Zm-.316-10.848a3.165 3.165 0 1 1-4.459.388 3.165 3.165 0 0 1 4.46-.388Zm-2.143 1.213a1.217 1.217 0 1 0 1.039 1.994v.002a1.217 1.217 0 0 0-1.04-1.996Z" fill="currentColor" fill-rule="evenodd"/>
            </g>
        </mask>
    </defs>
    <path fill="none" d="M0 0h28v28H0z"/>
    <path data-name="28x28-a" d="m7.54 20.519 1.492 1.252-3.522 4.197-1.492-1.252Zm-5.506-.116L3.152 22l3.49-2.444-1.118-1.597Zm8.104 2.084-1.8 3.862 1.764.823 1.8-3.862Zm7.019 2.162-1.422 1.252-.19-1.887a10.67 10.67 0 0 0-.658-3.051l-1.613-1.354-1.21.969a.609.609 0 0 1-.772-.01L8.33 18.082a.609.609 0 0 1-.143-.758l.744-1.36-1.574-1.32a10.68 10.68 0 0 0-3.12-.117l-1.887.139.987-1.618c1.515-2.482 2.726-3.927 3.808-4.396a8.239 8.239 0 0 1 3.791-.426A20.206 20.206 0 0 1 15.252 3.8a13.114 13.114 0 0 1 9.172-2.74l.67.066.176.65a13.245 13.245 0 0 1-1.109 9.501 20.105 20.105 0 0 1-3.586 4.992 8.33 8.33 0 0 1 .252 3.868c-.275 1.145-1.486 2.59-3.67 4.512Zm2.13-20.91a11.997 11.997 0 0 0 1.933 2.036 12.048 12.048 0 0 0 2.291 1.526 10.545 10.545 0 0 0 .037-4.348 10.332 10.332 0 0 0-4.261.786ZM5.989 12.532a7.915 7.915 0 0 1 2.123.304q.742-1.438 1.528-2.698a4.751 4.751 0 0 0-1.723.301 6.556 6.556 0 0 0-1.928 2.093Zm9.044 6.011q5.406-4.066 7.378-8.123.302-.616.535-1.227a13.768 13.768 0 0 1-2.978-1.923 13.757 13.757 0 0 1-2.442-2.643q-.566.34-1.127.748-3.68 2.679-6.72 8.675Zm3.9 1.14a4.878 4.878 0 0 0-.013-1.812q-1.11 1-2.404 1.991a7.886 7.886 0 0 1 .69 2.082 6.546 6.546 0 0 0 1.726-2.262Zm-.316-10.848a3.165 3.165 0 1 1-4.459.388 3.165 3.165 0 0 1 4.46-.388Zm-2.143 1.213a1.217 1.217 0 1 0 1.039 1.994v.002a1.217 1.217 0 0 0-1.04-1.996Z" fill="currentColor"/>
    <g mask="url(#a)">
        <path fill="currentColor" d="M0 0h28v28H0z"/>
    </g>
</svg>
