<svg data-name="Layer 1" xmlns="http://www.w3.org/2000/svg" width="28" height="28" viewBox="0 0 28 28">
    <path fill="none" d="M0 0h28v28H0z"/>
    <path data-name="28x28-a" d="M17 25h8v-5.063l-4-3.334-4 3.334Zm-1.64-6.3 5-4.167a1 1 0 0 1 1.28 0l5 4.167a1 1 0 0 1 .36.768V26a1 1 0 0 1-1 1H16a1 1 0 0 1-1-1v-6.532a1 1 0 0 1 .36-.768ZM3 25h8v-5.063l-4-3.334-4 3.334Zm-1.64-6.3 5-4.167a1 1 0 0 1 1.28 0l5 4.167a1 1 0 0 1 .36.768V26a1 1 0 0 1-1 1H2a1 1 0 0 1-1-1v-6.532a1 1 0 0 1 .36-.768ZM10 11h8V5.937l-4-3.334-4 3.334ZM8.36 4.7l5-4.167a1 1 0 0 1 1.28 0l5 4.167a1 1 0 0 1 .36.768V12a1 1 0 0 1-1 1H9a1 1 0 0 1-1-1V5.468a1 1 0 0 1 .36-.768Z" fill="currentColor"/>
</svg>
