<svg xmlns="http://www.w3.org/2000/svg" width="28" height="28" data-name="Layer 1" viewBox="0 0 28 28">
    <path fill="none" d="M0 0h28v28H0z"/>
    <path fill="currentColor" fill-rule="evenodd" d="m8.181.887 4.369 4.37a3.03 3.03 0 0 1 0 4.284l-1.854 1.854a17.05 17.05 0 0 0 2.582 3.327 17.055 17.055 0 0 0 3.327 2.582l1.854-1.854a3.03 3.03 0 0 1 4.285 0l4.369 4.369a3.03 3.03 0 0 1 0 4.285l-2.105 2.104a6.119 6.119 0 0 1-7.614.834 53.54 53.54 0 0 1-9.128-7.307 53.54 53.54 0 0 1-7.308-9.13 6.119 6.119 0 0 1 .834-7.613L3.897.887a3.03 3.03 0 0 1 4.284 0ZM6.767 2.302a1.03 1.03 0 0 0-1.456 0L3.207 4.406a4.119 4.119 0 0 0-.562 5.125A51.55 51.55 0 0 0 9.68 18.32a51.545 51.545 0 0 0 8.79 7.035 4.119 4.119 0 0 0 5.124-.562L25.7 22.69a1.03 1.03 0 0 0 0-1.456l-4.369-4.369a1.03 1.03 0 0 0-1.456 0l-2.913 2.913a19.437 19.437 0 0 1-5.097-3.641 19.435 19.435 0 0 1-3.64-5.097l2.912-2.912a1.03 1.03 0 0 0 0-1.457Z" data-name="28x28-a"/>
</svg>
