<svg xmlns="http://www.w3.org/2000/svg" width="24" height="24" data-name="Layer 1" viewBox="0 0 24 24">
    <path fill="none" d="M0 0h24v24H0z"/>
    <path fill="currentColor" fill-rule="evenodd" d="m6.8 9.229 2.524-1.893a3 3 0 0 0 1.084-1.576l1.231-4.31A2 2 0 0 1 14.762.4l.077.065A5.586 5.586 0 0 1 16.5 2.89a5.11 5.11 0 0 1 .13 2.917L16 8.329h4.84a3 3 0 0 1 3 3q0 .115-.009.23l-.621 8.077a4 4 0 0 1-3.988 3.693h-4.938a5.008 5.008 0 0 1-.707-.05l-5.86-.837A2 2 0 0 1 6 20.462v-9.633a2 2 0 0 1 .8-1.6Zm-5.8-.9h2a1 1 0 0 1 1 1v13a1 1 0 0 1-1 1H1a1 1 0 0 1-1-1v-13a1 1 0 0 1 1-1Z" data-name="24x24-a"/>
</svg>
