<svg xmlns="http://www.w3.org/2000/svg" width="24" height="24" data-name="Layer 1" viewBox="0 0 24 24">
    <path fill="none" d="M0 0h24v24H0z"/>
    <path fill="currentColor" d="M20 3a4 4 0 0 1 4 4v11a4 4 0 0 1-4 4H4a4 4 0 0 1-4-4V7a4 4 0 0 1 4-4Zm-5.049 10.462L13.414 15a2 2 0 0 1-2.701.117L10.586 15l-1.538-1.537-5.64 6.448A2.001 2.001 0 0 0 4 20h16a2.001 2.001 0 0 0 .593-.09ZM2 7v11a2.01 2.01 0 0 0 .046.429l5.585-6.383-5.564-5.563A2.003 2.003 0 0 0 2 7Zm19.933-.517-5.565 5.562 5.586 6.384A2.01 2.01 0 0 0 22 18V7a2.003 2.003 0 0 0-.067-.517ZM20 5H4a2.003 2.003 0 0 0-.517.068L12 13.585l8.517-8.519A2.003 2.003 0 0 0 20 5Z" data-name="24x24-a"/>
</svg>
