<svg xmlns="http://www.w3.org/2000/svg" width="40" height="40" viewBox="0 0 40 40">
    <g fill="none" fill-rule="evenodd">
        <g>
            <g transform="translate(-112 -76) translate(112 76)">
                <circle cx="20" cy="20" r="20" fill="#F2F4F4" fill-rule="nonzero"/>
                <path fill="#E4F2F4" fill-rule="nonzero" d="M17.45 30.484l3.23-.296s11.257-6.537 11.764-6.855c.78-.488 1.65-1.303.988-2.345-.723-1.14-2.156-.474-2.533-.25-.376.224 1.465-.887 1.828-1.103.363-.216 1.678-1.186.988-2.346-.69-1.16-2.157-.474-2.533-.25-.376.224.23-.139.592-.355.363-.216 1.678-1.186.988-2.345-.69-1.16-2.156-.474-2.533-.25-.376.224-2.118 1.256-1.755 1.04.363-.216 1.678-1.186.988-2.345-.69-1.16-2.156-.474-2.533-.25L17.8 17.957c.638-.66 1.152-1.43 1.518-2.271.336-1.305-.843-2.924-1.148-2.836l-3.898 3.93-.326 5.626-.96.516 4.466 7.561"/>
                <path fill="#B1DCE1" fill-rule="nonzero" d="M14.171 24.928c3.5-.29 11.261-1.035 11.261-1.035l5.84-3.4c.74-.406 1.668-.196 2.16.49.66 1.05-.21 1.86-.99 2.35-.51.32-11.76 6.86-11.76 6.86l-3.23.29-3.28-5.555z"/>
                <rect width="4.649" height="11.662" x="10.897" y="22.062" fill="#199AA9" fill-rule="nonzero" rx=".327" transform="rotate(-30.556 13.222 27.893)"/>
                <rect width="4.649" height="11.662" x="10.897" y="22.062" stroke="#757575" stroke-linecap="round" stroke-linejoin="round" stroke-width="1.5" rx=".327" transform="rotate(-30.556 13.222 27.893)"/>
                <path stroke="#757575" stroke-linecap="round" stroke-linejoin="round" stroke-width="1.5" d="M13.128 22.889l.818-.483.326-5.627 3.899-3.929c.305-.087 1.483 1.532 1.147 2.836-.365.842-.88 1.611-1.518 2.271l1.719-1.015 1.085-.65"/>
                <path stroke="#757575" stroke-linecap="round" stroke-linejoin="round" stroke-width="1.5" d="M19.244 17.091l7.685-4.557c.377-.224 1.843-.91 2.533.25.69 1.16-.625 2.13-.988 2.345-.363.216-4.654 2.739-4.654 2.739s6.033-3.555 6.41-3.78c.376-.223 1.842-.909 2.532.25.69 1.16-.625 2.13-.988 2.346-.363.216-6.591 3.836-6.591 3.836M25.183 20.54s5.623-3.277 6-3.5c.376-.225 1.842-.91 2.532.25.69 1.16-.625 2.13-.988 2.345-.362.215-5.843 3.442-5.843 3.442s3.64-2.115 4.016-2.34c.376-.224 1.81-.89 2.532.25.662 1.043-.208 1.857-.988 2.346-.507.317-11.764 6.855-11.764 6.855l-3.229.296"/>
                <path fill="#E4F2F4" fill-rule="nonzero" d="M12.914 30.646l3.228-.295s11.258-6.538 11.765-6.855c.78-.489 1.65-1.303.988-2.346-.722-1.14-2.156-.474-2.532-.25-.377.224 1.464-.887 1.827-1.103.363-.216 1.678-1.186.988-2.345-.69-1.16-2.156-.474-2.533-.25-.376.224.23-.14.593-.355.362-.216 1.678-1.186.988-2.346-.69-1.16-2.157-.474-2.533-.25-.377.224-2.119 1.257-1.756 1.04.363-.216 1.678-1.186.988-2.345-.69-1.16-2.156-.474-2.533-.25l-9.128 5.423c.638-.66 1.152-1.43 1.517-2.271.336-1.305-.842-2.924-1.147-2.836l-3.899 3.93-.326 5.627-.96.515 4.467 7.561"/>
                <path fill="#B1DCE1" fill-rule="nonzero" d="M9.634 25.091c3.5-.29 11.261-1.035 11.261-1.035l5.84-3.4c.74-.407 1.668-.196 2.16.49.66 1.05-.21 1.86-.99 2.35-.51.32-11.76 6.86-11.76 6.86l-3.23.29-3.28-5.555z"/>
                <rect width="4.649" height="11.662" x="6.361" y="22.225" fill="#199AA9" fill-rule="nonzero" rx=".327" transform="rotate(-30.556 8.685 28.056)"/>
                <rect width="4.649" height="11.662" x="6.361" y="22.225" stroke="#757575" stroke-linecap="round" stroke-linejoin="round" stroke-width="1.5" rx=".327" transform="rotate(-30.556 8.685 28.056)"/>
                <path stroke="#757575" stroke-linecap="round" stroke-linejoin="round" stroke-width="1.5" d="M8.591 23.051l.818-.482.326-5.627 3.9-3.93c.304-.088 1.482 1.531 1.146 2.836-.365.842-.88 1.612-1.518 2.272l1.72-1.016 1.085-.649"/>
                <path stroke="#757575" stroke-linecap="round" stroke-linejoin="round" stroke-width="1.5" d="M14.708 17.254l7.684-4.558c.377-.224 1.843-.91 2.533.25.69 1.16-.625 2.13-.988 2.346-.363.215-4.654 2.738-4.654 2.738s6.033-3.555 6.41-3.779c.376-.224 1.842-.91 2.532.25.69 1.16-.625 2.13-.988 2.346-.362.215-6.591 3.835-6.591 3.835M20.646 20.702s5.623-3.276 6-3.5c.377-.224 1.842-.91 2.532.25.69 1.16-.625 2.13-.987 2.345-.363.216-5.844 3.443-5.844 3.443s3.639-2.115 4.015-2.34c.377-.225 1.81-.89 2.533.25.662 1.043-.208 1.857-.988 2.346-.507.317-11.765 6.855-11.765 6.855l-3.228.295"/>
                <path stroke="#61746E" stroke-linecap="round" stroke-linejoin="round" stroke-width="1.5" d="M20.695 6.906L21.515 9.036M25.105 6.046L25.145 8.326M29.465 7.006L28.725 9.156"/>
                <path stroke="#757575" stroke-linecap="round" stroke-linejoin="round" stroke-width="1.5" d="M20.695 6.906L21.515 9.036M25.105 6.046L25.145 8.326M29.465 7.006L28.725 9.156"/>
            </g>
        </g>
    </g>
</svg>
