<svg xmlns="http://www.w3.org/2000/svg" width="40" height="40" viewBox="0 0 40 40">
    <g fill="none" fill-rule="evenodd">
        <g>
            <g transform="translate(-64 -76) translate(64 76)">
                <circle cx="20" cy="20" r="20" fill="#F2F4F4" fill-rule="nonzero"/>
                <path fill="#F5CD95" fill-rule="nonzero" d="M19.998 21.863c2.708.133 5.34-.91 7.221-2.862.04-.296.061-.594.066-.892.028-1.967-.726-3.863-2.096-5.274-1.37-1.41-3.245-2.218-5.211-2.246-1.968.026-3.844.833-5.217 2.243-1.372 1.41-2.127 3.309-2.1 5.277.005.28.025.561.06.84.033.038.068.083.098.116 1.885 1.913 4.497 2.93 7.18 2.798z"/>
                <path fill="#F0B057" fill-rule="nonzero" d="M22.972 25.06c2.352-1.168 3.951-3.45 4.247-6.06-1.88 1.952-4.513 2.996-7.22 2.863-2.683.133-5.295-.885-7.18-2.799-.03-.032-.065-.077-.098-.115.26 2.593 1.849 4.865 4.195 6 .344 1.002.53 2.052.551 3.111h5.012c.027-1.018.193-2.027.493-3z"/>
                <path fill="#D5DDDA" fill-rule="nonzero" d="M20 35.095c.95-.01 1.795-.602 2.13-1.49l.84-.01c.627-.757.627-1.853 0-2.61.417-.37.655-.902.655-1.46 0-.558-.238-1.089-.655-1.46h-5.94c-.417.371-.655.902-.655 1.46 0 .558.238 1.09.655 1.46-.627.757-.627 1.853 0 2.61l.84.01c.335.888 1.18 1.48 2.13 1.49z"/>
                <path stroke="#61746E" stroke-linecap="round" stroke-linejoin="round" stroke-width="1.5" d="M22.48 28.06c.012-1.019.178-2.03.492-3 2.64-1.31 4.312-4.004 4.313-6.952.028-1.966-.726-3.863-2.096-5.273-1.37-1.41-3.245-2.219-5.211-2.247-1.968.026-3.844.833-5.217 2.244-1.372 1.41-2.128 3.308-2.1 5.276-.023 2.91 1.634 5.574 4.255 6.84.36 1 .548 2.054.556 3.116M19.973 20.933L17.531 17.96M19.973 20.933L22.415 17.96M19.973 28.065L19.973 20.933"/>
                <path stroke="#61746E" stroke-linecap="round" stroke-linejoin="round" stroke-width="1.5" d="M22.922 30.988c.621.758.619 1.85-.005 2.606l-.846.01c-.314.892-1.157 1.49-2.103 1.49-.946 0-1.789-.598-2.102-1.49l-.837-.01c-.628-.756-.626-1.853.005-2.606-.417-.373-.655-.905-.655-1.464 0-.559.238-1.091.655-1.464h5.888c.016-.021 1.612 1.08 0 2.928zM17.034 30.988L22.922 30.988M20 4.353L20 5.842M13.069 6.207L13.804 7.503M7.956 11.241L9.234 12.005M26.931 6.207L26.196 7.503M32.044 11.241L30.766 12.005"/>
            </g>
        </g>
    </g>
</svg>
