<?xml version="1.0" encoding="UTF-8"?>
<svg width="40px" height="40px" viewBox="0 0 40 40" version="1.1" xmlns="http://www.w3.org/2000/svg" xmlns:xlink="http://www.w3.org/1999/xlink">
    <title>02 Icons/Reactions/Fantastic/40x40</title>
    <g id="02-Icons/Reactions/Fantastic/40x40" stroke="none" stroke-width="1" fill="none" fill-rule="evenodd">
        <g fill-rule="nonzero">
            <circle id="Oval" fill="#F2F4F4" cx="20" cy="20" r="20"></circle>
            <ellipse id="Oval" fill="#FCEDEE" cx="19.814" cy="21.6586" rx="12.5243" ry="12.3583"></ellipse>
            <path d="M19.8111,30.8185 C12.8562,30.8185 8.2864,26.6024 7.2984,21.4864 C7.2977,21.5443 7.2897,21.6004 7.2897,21.6585 C7.37929616,28.3214196 12.6697061,33.7478985 19.328203,34.0066324 C25.9867,34.2653663 31.6822431,29.2657764 32.2886,22.6299 C30.3174,26.1892 26.4753,30.8185 19.8111,30.8185 Z" id="Path" fill="#F8CDCF"></path>
            <path d="M10.7821,13.2262 C10.4658863,11.8165661 10.9075775,10.3440596 11.9474418,9.34119323 C12.9873061,8.33832686 14.4748414,7.95024787 15.8721,8.3173 C18.1594,9.1909 19.1714,11.7144 18.4756,14.7248 C17.7356,17.9257 14.4615,21.4416155 14.4615,21.4416155 C14.4615,21.4416155 9.6225,21.4636 6.7258,19.8485 C4.0014,18.3295 2.7917,15.8922 3.677,13.6352 C4.5623,11.3782 8.6637,10.3122 10.7821,13.2262 Z" id="Path" stroke="#61746E" stroke-width="1.5" fill="#EF7E84" stroke-linejoin="round"></path>
            <path d="M29.2179,13.2262 C29.5341137,11.8165661 29.0924225,10.3440596 28.0525582,9.34119323 C27.0126939,8.33832686 25.5251586,7.95024787 24.1279,8.3173 C21.8406,9.1909 20.8286,11.7144 21.5244,14.7248 C22.2644,17.9257 25.5385,21.4416155 25.5385,21.4416155 C25.5385,21.4416155 30.3775,21.4636 33.2742,19.8485 C35.9986,18.3295 37.2083,15.8922 36.323,13.6352 C35.4377,11.3782 31.3363,10.3122 29.2179,13.2262 Z" id="Path" stroke="#61746E" stroke-width="1.5" fill="#EF7E84" stroke-linejoin="round"></path>
            <path d="M24.3834,25.1833 C23.6809325,27.1205644 21.8733122,28.4378873 19.814,28.5133 C17.754669,28.4379416 15.9470216,27.1205989 15.2446,25.1833 L24.3834,25.1833 Z" id="Path" fill="#61746E"></path>
            <path d="M32.2631,20.2972 C32.3132834,20.7492635 32.3383002,21.2037596 32.3383002,21.6586 C32.2474809,28.5108468 26.6668487,34.018004 19.814,34.018004 C12.9611513,34.018004 7.38051909,28.5108468 7.2897,21.6586 C7.2897,21.1615392 7.31975843,20.6649333 7.3797,20.1715" id="Path" stroke="#61746E" stroke-width="1.5" stroke-linejoin="round"></path>
            <path d="M17.5565,9.5005 C19.1394175,9.21744912 20.7614535,9.23468208 22.338,9.5513" id="Path" stroke="#61746E" stroke-width="1.5" stroke-linejoin="round"></path>
        </g>
    </g>
</svg>