<svg xmlns="http://www.w3.org/2000/svg" width="40" height="40" viewBox="0 0 40 40">
    <g fill="none" fill-rule="evenodd">
        <g>
            <g transform="translate(-160 -76) translate(160 76)">
                <circle cx="20" cy="20" r="20" fill="#F2F4F4" fill-rule="nonzero"/>
                <ellipse cx="19.814" cy="21.659" fill="#FCEDEE" fill-rule="nonzero" rx="12.524" ry="12.358"/>
                <path fill="#F8CDCF" fill-rule="nonzero" d="M19.811 30.819c-6.955 0-11.525-4.217-12.513-9.333 0 .058-.008.114-.008.172.09 6.663 5.38 12.09 12.038 12.349 6.659.258 12.354-4.741 12.96-11.377-1.97 3.56-5.813 8.189-12.477 8.189z"/>
                <path fill="#EF7E84" fill-rule="nonzero" d="M10.782 13.226c-.316-1.41.126-2.882 1.165-3.885 1.04-1.003 2.528-1.39 3.925-1.024 2.287.874 3.3 3.397 2.604 6.408-.74 3.2-4.014 6.717-4.014 6.717s-4.84.022-7.736-1.593C4 18.329 2.792 15.892 3.677 13.635c.885-2.257 4.987-3.323 7.105-.409zM29.218 13.226c.316-1.41-.126-2.882-1.165-3.885-1.04-1.003-2.528-1.39-3.925-1.024-2.287.874-3.3 3.397-2.604 6.408.74 3.2 4.014 6.717 4.014 6.717s4.84.022 7.736-1.593c2.725-1.52 3.934-3.957 3.049-6.214-.885-2.257-4.987-3.323-7.105-.409z"/>
                <path fill="#757575" fill-rule="nonzero" d="M24.383 25.183c-.702 1.938-2.51 3.255-4.569 3.33-2.06-.075-3.867-1.392-4.57-3.33h9.14z"/>
                <path stroke="#757575" stroke-linejoin="round" stroke-width="1.5" d="M10.782 13.226c-.316-1.41.126-2.882 1.165-3.885 1.04-1.003 2.528-1.39 3.925-1.024 2.287.874 3.3 3.397 2.604 6.408-.74 3.2-4.014 6.717-4.014 6.717s-4.84.022-7.736-1.593C4 18.329 2.792 15.892 3.677 13.635c.885-2.257 4.987-3.323 7.105-.409zM29.218 13.226c.316-1.41-.126-2.882-1.165-3.885-1.04-1.003-2.528-1.39-3.925-1.024-2.287.874-3.3 3.397-2.604 6.408.74 3.2 4.014 6.717 4.014 6.717s4.84.022 7.736-1.593c2.725-1.52 3.934-3.957 3.049-6.214-.885-2.257-4.987-3.323-7.105-.409z"/>
                <path stroke="#757575" stroke-linecap="round" stroke-linejoin="round" stroke-width="1.5" d="M32.263 20.297c.05.452.075.907.075 1.362-.09 6.852-5.671 12.359-12.524 12.359-6.853 0-12.433-5.507-12.524-12.36 0-.496.03-.993.09-1.486M17.556 9.5c1.583-.283 3.205-.265 4.782.051"/>
            </g>
        </g>
    </g>
</svg>
