<svg xmlns="http://www.w3.org/2000/svg" width="40" height="40" viewBox="0 0 40 40">
    <g fill="none" fill-rule="evenodd">
        <g>
            <g transform="translate(-16 -76) translate(16 76)">
                <circle cx="20" cy="20" r="20" fill="#F2F4F4" fill-rule="nonzero"/>
                <path fill="#F6F8E5" fill-rule="nonzero" d="M14.122 17.533h.654l4.176-6.052 1.17-5.939c.792-.797 3.28.593 3.28 3.058-.089 2.155-.344 4.3-.761 6.415h7.381c1.091.003 1.975.886 1.978 1.977-.003 1.091-.887 1.975-1.977 1.978h-.205c1.084.02 1.957.894 1.978 1.977-.004 1.091-.887 1.975-1.978 1.978h-.867c1.09.003 1.974.887 1.977 1.977-.003 1.091-.886 1.975-1.977 1.978h-.815c1.09.003 1.974.887 1.977 1.978-.003 1.09-.887 1.974-1.977 1.977H17.982l-3.86-1.827"/>
                <path fill="#E6EEB3" fill-rule="nonzero" d="M28.72 26.965h.01c.659.21 1.16.749 1.324 1.42.163.672-.035 1.38-.524 1.87-.367.371-.868.58-1.39.58H17.98l-3.86-1.83v-7.85l13.47 5.72 1.13.09z"/>
                <path fill="#B1C906" fill-rule="nonzero" d="M13.73 15.555H8.39c-.217.005-.39.183-.39.4v14.57c.004.214.176.386.39.39h5.34c.214-.004.386-.176.39-.39v-14.57c0-.217-.173-.395-.39-.4z"/>
                <rect width="6.122" height="15.359" x="8" y="15.559" stroke="#757575" stroke-linecap="round" stroke-linejoin="round" stroke-width="1.5" rx=".395"/>
                <path stroke="#757575" stroke-linecap="round" stroke-linejoin="round" stroke-width="1.5" d="M14.122 17.533h.654l4.176-6.052 1.17-5.939c.792-.797 3.28.593 3.28 3.058-.089 2.155-.344 4.3-.761 6.415h7.381c1.091.003 1.975.886 1.978 1.977h0c-.003 1.091-.887 1.975-1.977 1.978h-.205c1.084.02 1.957.894 1.978 1.977h0c-.004 1.091-.887 1.975-1.978 1.978h-.867c1.09.003 1.974.887 1.977 1.977h0c-.003 1.091-.886 1.975-1.977 1.978h-.815c1.09.003 1.974.887 1.977 1.978h0c-.003 1.09-.887 1.974-1.977 1.977H17.982l-3.86-1.827"/>
            </g>
        </g>
    </g>
</svg>
