<svg id="Layer_1" data-name="Layer 1" xmlns="http://www.w3.org/2000/svg" width="24" height="24" viewBox="0 0 24 24"><rect width="24" height="24" fill="none"/><path id="_24x24-a" data-name="24x24-a" d="M9.2361,4l-2,4H3A1,1,0,0,0,2,9V19a1,1,0,0,0,1,1H21a1,1,0,0,0,1-1V9a1,1,0,0,0-1-1H16.7639l-2-4ZM15.382,2a1,1,0,0,1,.8944.5528L18,6h3a3,3,0,0,1,3,3V19a3,3,0,0,1-3,3H3a3,3,0,0,1-3-3V9A3,3,0,0,1,3,6H6L7.7236,2.5528A1,1,0,0,1,8.618,2ZM12,7a6,6,0,1,0,6,6A6,6,0,0,0,12,7Zm0,2a4,4,0,1,1-4,4A4,4,0,0,1,12,9Zm8,0a1,1,0,1,0,1,1A1,1,0,0,0,20,9Z" fill="#393939"/></svg>