<svg id="Layer_1" data-name="Layer 1" xmlns="http://www.w3.org/2000/svg" width="24" height="24" viewBox="0 0 24 24"><rect width="24" height="24" fill="none"/><path id="_24x24-a" data-name="24x24-a" d="M6,7V21a1,1,0,0,0,1,1H17a1,1,0,0,0,1-1V7ZM20,5V21a3,3,0,0,1-3,3H7a3,3,0,0,1-3-3V5Zm-9.7678,6.318A1,1,0,0,0,8.818,12.7322h0L10.5858,14.5,8.818,16.2678a1,1,0,0,0,1.4142,1.4142h0L12,15.9142l1.7678,1.7678a1,1,0,0,0,1.4142-1.4142h0L13.4142,14.5l1.7678-1.7678a1,1,0,0,0-1.4142-1.4142h0L12,13.0858ZM14.4142,0l2,2H21a1,1,0,0,1,0,2H15.5858l-2-2H10.4142l-2,2H3A1,1,0,0,1,3,2H7.5858l2-2Z" fill="#393939"/></svg>