<svg id="Layer_1" data-name="Layer 1" xmlns="http://www.w3.org/2000/svg" width="24" height="24" viewBox="0 0 24 24"><rect width="24" height="24" fill="none"/><path id="_24x24-a" data-name="24x24-a" d="M3,9a1,1,0,0,0-1,1v9a1,1,0,0,0,1,1H17a1,1,0,0,0,1-1V10a1,1,0,0,0-1-1ZM21,3a3,3,0,0,1,3,3v9a3,3,0,0,1-2.8237,2.9949L21,18H20v1a3,3,0,0,1-3,3H3a3,3,0,0,1-3-3V10A3,3,0,0,1,3,7H4V6A3,3,0,0,1,7,3ZM11,11H9v2H7v2H9v2h2V15h2V13H11ZM21,5H7A1,1,0,0,0,6,6V7H17a3,3,0,0,1,3,3v6h1a1,1,0,0,0,1-1V6A1,1,0,0,0,21,5Z" fill="#393939"/></svg>