<svg id="Layer_1" data-name="Layer 1" xmlns="http://www.w3.org/2000/svg" width="24" height="24" viewBox="0 0 24 24"><rect width="24" height="24" fill="none"/><path id="_24x24-a" data-name="24x24-a" d="M8,10v2a3,3,0,0,1,3,3v2a3,3,0,0,1-3,3v2h8V20a3,3,0,0,1-3-3V10Zm6-2a1,1,0,0,1,1,1v8a1,1,0,0,0,1,1h1a1,1,0,0,1,1,1v4a1,1,0,0,1-1,1H7a1,1,0,0,1-1-1V19a1,1,0,0,1,1-1H8a1,1,0,0,0,1-1V15a1,1,0,0,0-1-1H7a1,1,0,0,1-1-1V9A1,1,0,0,1,7,8ZM11.5,0A3.5,3.5,0,1,1,8,3.5,3.5,3.5,0,0,1,11.5,0Zm0,2A1.5,1.5,0,1,0,13,3.5,1.5,1.5,0,0,0,11.5,2Z" fill="#393939"/></svg>