<svg id="Layer_1" data-name="Layer 1" xmlns="http://www.w3.org/2000/svg" width="24" height="24" viewBox="0 0 24 24"><rect width="24" height="24" fill="none"/><path id="_24x24-a" data-name="24x24-a" d="M5,16v3H19V16ZM20,2l2.1251,4.7816a3,3,0,0,1-2.1295,4.1553A.352.352,0,0,1,20,11v3a1,1,0,0,1,1,1v5a1,1,0,0,1-.8834.9933L20,21a1,1,0,0,1-2,0H6a1,1,0,0,1-2,0,1,1,0,0,1-1-1V15a1,1,0,0,1,1-1V11l.0032-.0627A3.0005,3.0005,0,0,1,1.8749,6.7816L4,2Zm-2,9H6l-.0007,3h12ZM6.8563,4H5.3L3.7025,7.5939A1,1,0,0,0,4.6163,9h1.526Zm8.286,0h-2.143V9h2.857Zm-4.143,0H8.8563l-.714,5h2.857ZM18.7,4h-1.558l.714,5h1.5274a1,1,0,0,0,.9138-1.4061Z" fill="#393939"/></svg>