<svg id="Layer_1" data-name="Layer 1" xmlns="http://www.w3.org/2000/svg" width="24" height="24" viewBox="0 0 24 24"><rect width="24" height="24" fill="none"/><path id="_24x24-a" data-name="24x24-a" d="M12,22A10,10,0,1,0,2,12,10,10,0,0,0,12,22ZM12,0A12,12,0,1,1,0,12,12,12,0,0,1,12,0ZM5.9351,14.498a1,1,0,1,0-1.7314,1.0011,9.0027,9.0027,0,0,0,15.5912.0025A1,1,0,0,0,18.0638,14.5,7.0027,7.0027,0,0,1,5.9351,14.498ZM16,7a2,2,0,1,0,2,2A2,2,0,0,0,16,7ZM8,7a2,2,0,1,0,2,2A2,2,0,0,0,8,7Z" fill="#393939"/></svg>