<svg viewBox="0 0 21 20" fill="none" xmlns="http://www.w3.org/2000/svg"><path d="M1.70712 4.29288L10 12.5858L18.2929 4.29288C18.3856 4.19936 18.4959 4.12506 18.6174 4.07427C18.7389 4.02347 18.8692 3.99718 19.0009 3.99689C19.1326 3.9966 19.2631 4.02233 19.3848 4.07259C19.5065 4.12285 19.6171 4.19666 19.7102 4.28978C19.8033 4.3829 19.8771 4.49349 19.9274 4.61522C19.9777 4.73694 20.0034 4.86739 20.0031 4.99908C20.0028 5.13077 19.9765 5.2611 19.9257 5.3826C19.8749 5.5041 19.8006 5.61437 19.7071 5.70708L10 15.4142L0.292916 5.70708C0.106737 5.51927 0.0025361 5.26535 0.00311519 5.00089C0.00369429 4.73643 0.109006 4.48297 0.296006 4.29597C0.483006 4.10897 0.736466 4.00366 1.00092 4.00308C1.26538 4.0025 1.5193 4.1067 1.70712 4.29288Z" fill="#799189"/></svg>
