<svg xmlns="http://www.w3.org/2000/svg" width="25" height="24" viewBox="0 0 25 24">
    <g fill="none" fill-rule="evenodd">
        <g>
            <g transform="translate(-119 -44) translate(120.5 45)">
                <path fill="#E4F2F4" fill-rule="nonzero" d="M10.441 18.455l2.399-.22s8.363-4.856 8.74-5.092c.579-.363 1.225-.968.733-1.742-.536-.847-1.601-.353-1.881-.186-.28.166 1.088-.659 1.357-.82.27-.16 1.247-.88.734-1.742-.512-.861-1.602-.352-1.881-.186-.28.167.17-.103.44-.263.269-.16 1.246-.881.733-1.743-.512-.861-1.602-.352-1.881-.185l-1.304.772c.27-.16 1.246-.88.734-1.742-.513-.861-1.602-.352-1.882-.186L10.7 9.15c.474-.49.856-1.062 1.128-1.688.25-.97-.626-2.172-.853-2.107L8.08 8.275l-.242 4.18-.713.382 3.318 5.618"/>
                <path fill="#B1DCE1" fill-rule="nonzero" d="M8.005 14.328c2.6-.215 8.365-.769 8.365-.769l4.34-2.526c.55-.302 1.238-.146 1.604.364.49.78-.156 1.382-.736 1.746-.379.238-8.736 5.097-8.736 5.097l-2.4.215-2.437-4.127z"/>
                <rect width="3.453" height="8.663" x="5.573" y="12.199" fill="#199AA9" fill-rule="nonzero" rx=".243" transform="rotate(-30.556 7.3 16.53)"/>
                <rect width="3.453" height="8.663" x="5.573" y="12.199" stroke="#757575" stroke-linecap="round" stroke-linejoin="round" stroke-width="1.4" rx=".243" transform="rotate(-30.556 7.3 16.53)"/>
                <path stroke="#757575" stroke-linecap="round" stroke-linejoin="round" stroke-width="1.4" d="M7.23 12.813l.607-.359.243-4.18 2.896-2.919c.226-.065 1.101 1.138.852 2.107-.272.626-.653 1.197-1.128 1.687l1.277-.754.807-.482"/>
                <path stroke="#757575" stroke-linecap="round" stroke-linejoin="round" stroke-width="1.4" d="M11.774 8.506l5.709-3.386c.28-.166 1.37-.675 1.881.186.513.861-.464 1.582-.734 1.742l-3.457 2.035 4.761-2.807c.28-.167 1.37-.676 1.882.185.512.862-.465 1.582-.734 1.743-.27.16-4.897 2.849-4.897 2.849M16.185 11.068s4.177-2.434 4.457-2.6c.28-.167 1.369-.676 1.882.185.513.862-.465 1.582-.734 1.743l-4.341 2.557s2.703-1.571 2.983-1.738c.28-.166 1.345-.66 1.882.186.49.775-.155 1.38-.734 1.742-.377.236-8.74 5.093-8.74 5.093l-2.399.22"/>
                <path fill="#E4F2F4" fill-rule="nonzero" d="M7.07 18.576l2.4-.22s8.363-4.856 8.74-5.092c.579-.363 1.224-.968.733-1.743-.537-.846-1.602-.352-1.882-.185-.28.166 1.089-.659 1.358-.82.27-.16 1.247-.88.734-1.742-.513-.861-1.602-.352-1.882-.186l.44-.264c.27-.16 1.247-.88.734-1.742-.513-.861-1.602-.352-1.882-.186-.28.167-1.573.934-1.304.773.27-.16 1.247-.88.734-1.742-.512-.862-1.602-.352-1.882-.186L7.33 9.27c.474-.49.856-1.062 1.128-1.687.25-.97-.626-2.172-.853-2.107L4.71 8.395l-.242 4.18-.713.383 3.318 5.617"/>
                <path fill="#B1DCE1" fill-rule="nonzero" d="M4.635 14.449c2.6-.215 8.365-.77 8.365-.77l4.339-2.525c.55-.302 1.239-.146 1.604.364.49.78-.156 1.382-.735 1.746-.379.238-8.736 5.096-8.736 5.096l-2.4.216-2.438-4.127z"/>
                <rect width="3.453" height="8.663" x="2.202" y="12.32" fill="#199AA9" fill-rule="nonzero" rx=".243" transform="rotate(-30.556 3.93 16.652)"/>
                <rect width="3.453" height="8.663" x="2.202" y="12.32" stroke="#757575" stroke-linecap="round" stroke-linejoin="round" stroke-width="1.4" rx=".243" transform="rotate(-30.556 3.93 16.652)"/>
                <path stroke="#757575" stroke-linecap="round" stroke-linejoin="round" stroke-width="1.4" d="M3.86 12.934l.607-.359.242-4.18 2.896-2.92c.227-.064 1.102 1.139.853 2.108-.272.625-.654 1.197-1.128 1.687l1.277-.754.807-.483"/>
                <path stroke="#757575" stroke-linecap="round" stroke-linejoin="round" stroke-width="1.4" d="M8.403 8.627l5.71-3.386c.279-.166 1.368-.676 1.881.186.513.861-.464 1.582-.734 1.742l-3.457 2.035s4.482-2.641 4.761-2.808c.28-.166 1.37-.675 1.882.186.513.861-.464 1.582-.734 1.742-.27.16-4.897 2.85-4.897 2.85M12.815 11.188s4.177-2.433 4.457-2.6c.28-.166 1.369-.675 1.881.186.513.861-.464 1.582-.733 1.742l-4.341 2.558s2.703-1.572 2.983-1.738c.28-.167 1.345-.661 1.882.185.49.775-.155 1.38-.734 1.743-.377.236-8.74 5.093-8.74 5.093l-2.399.22"/>
                <path stroke="#61746E" stroke-linecap="round" stroke-linejoin="round" stroke-width="1.255" d="M12.852.939L13.461 2.522M16.128.3L16.157 1.994M19.367 1.014L18.817 2.611"/>
                <path stroke="#757575" stroke-linecap="round" stroke-linejoin="round" stroke-width="1.4" d="M12.852.939L13.461 2.522M16.128.3L16.157 1.994M19.367 1.014L18.817 2.611"/>
            </g>
        </g>
    </g>
</svg>
