<svg xmlns="http://www.w3.org/2000/svg" width="24" height="20" viewBox="0 0 24 20">
    <g fill="none" fill-rule="evenodd">
        <g>
            <g transform="translate(-168 -46) translate(168.5 47)">
                <ellipse cx="11.375" cy="9.184" fill="#FCEDEE" fill-rule="nonzero" rx="8.425" ry="8.313"/>
                <path fill="#F8CDCF" fill-rule="nonzero" d="M11.373 15.346c-4.678 0-7.752-2.836-8.417-6.278 0 .04-.006.077-.006.116.06 4.482 3.62 8.132 8.099 8.306 4.479.174 8.31-3.189 8.718-7.652-1.327 2.394-3.911 5.508-8.393 5.508z"/>
                <path fill="#EF7E84" fill-rule="nonzero" d="M5.3 3.512c-.214-.949.084-1.94.783-2.614.7-.674 1.7-.935 2.64-.688 1.539.587 2.22 2.285 1.751 4.31-.57 1.68-1.49 3.22-2.7 4.518-1.79.008-3.562-.357-5.204-1.071C.738 6.945-.076 5.305.52 3.787c.466-.855 1.34-1.41 2.313-1.466.972-.055 1.905.395 2.466 1.19zM17.7 3.512c.214-.949-.084-1.94-.783-2.614-.7-.674-1.7-.935-2.64-.688-1.539.587-2.22 2.285-1.751 4.31.57 1.68 1.49 3.22 2.7 4.518 1.79.008 3.562-.357 5.204-1.071 1.832-1.022 2.646-2.662 2.05-4.18-.466-.855-1.34-1.41-2.313-1.466-.972-.055-1.905.395-2.466 1.19z"/>
                <path fill="#757575" fill-rule="nonzero" d="M14.449 11.555c-.473 1.303-1.689 2.19-3.074 2.24-1.385-.05-2.601-.937-3.074-2.24h6.148z"/>
                <path stroke="#757575" stroke-linejoin="round" stroke-width="1.4" d="M5.3 3.512c-.214-.949.084-1.94.783-2.614.7-.674 1.7-.935 2.64-.688 1.539.587 2.22 2.285 1.751 4.31-.57 1.68-1.49 3.22-2.7 4.518-1.79.008-3.562-.357-5.204-1.071C.738 6.945-.076 5.305.52 3.787c.466-.855 1.34-1.41 2.313-1.466.972-.055 1.905.395 2.466 1.19zM17.7 3.512c.214-.949-.084-1.94-.783-2.614-.7-.674-1.7-.935-2.64-.688-1.539.587-2.22 2.285-1.751 4.31.57 1.68 1.49 3.22 2.7 4.518 1.79.008 3.562-.357 5.204-1.071 1.832-1.022 2.646-2.662 2.05-4.18-.466-.855-1.34-1.41-2.313-1.466-.972-.055-1.905.395-2.466 1.19z"/>
                <path stroke="#757575" stroke-linecap="round" stroke-linejoin="round" stroke-width="1.4" d="M19.75 8.269c.033.304.05.61.05.916-.064 4.607-3.817 8.31-8.425 8.31-4.608 0-8.361-3.703-8.425-8.31 0-.335.02-.669.06-1M9.856 1.005c1.065-.19 2.156-.178 3.217.035"/>
            </g>
        </g>
    </g>
</svg>
