<?xml version="1.0" encoding="UTF-8"?>
<svg width="24px" height="24px" viewBox="0 0 24 24" version="1.1" xmlns="http://www.w3.org/2000/svg" xmlns:xlink="http://www.w3.org/1999/xlink">
    <title>02 Icons/Reactions/Fantastic/24x24</title>
    <g id="02-Icons/Reactions/Fantastic/24x24" stroke="none" stroke-width="1" fill="none" fill-rule="evenodd">
        <g id="Group-3" transform="translate(0.500000, 2.500000)">
            <g id="Group-2" transform="translate(2.000000, 0.000000)">
                <ellipse id="Oval" fill="#FCEDEE" fill-rule="nonzero" cx="9.40005597" cy="9.27546779" rx="9.40005597" ry="9.27546779"></ellipse>
                <path d="M9.39851626,16.1503999 C4.17851548,16.1503999 0.748683837,12.9860398 0.00718531189,9.14626049 C0.00718531189,9.18975729 0.000641545704,9.23184269 0.000641545704,9.27546779 C0.0681523217,14.2761026 4.03877846,18.3486296 9.03609789,18.5428071 C14.0334173,18.7369846 18.3080815,14.9848393 18.7634155,10.0045203 C17.2833696,12.6759166 14.39975,16.1503999 9.39851626,16.1503999 Z" id="Path" fill="#F8CDCF" fill-rule="nonzero"></path>
                <ellipse id="Oval" stroke="#61746E" stroke-width="1.4" stroke-linecap="round" stroke-linejoin="round" cx="9.40005597" cy="9.27546779" rx="9.40005597" ry="9.27546779"></ellipse>
                <path d="M12.829631,11.9209457 C12.3024491,13.3750254 10.9457161,14.3638076 9.40005597,14.4204077 C7.85439587,14.3638076 6.49766288,13.3750254 5.97048094,11.9209457 L12.829631,11.9209457 Z" id="Path" fill="#61746E" fill-rule="nonzero"></path>
            </g>
            <g id="Group" transform="translate(0.200000, 0.000000)" fill="#EF7E84" fill-rule="nonzero" stroke="#61746E" stroke-linejoin="round" stroke-width="1.4">
                <path d="M4.97214226,3.39352068 C4.75946287,2.44528096 5.05660103,1.45476411 5.75610477,0.780163772 C6.45560851,0.105563437 7.45624165,-0.15548837 8.39615226,0.0914106812 C9.93485226,0.679060681 10.6156523,2.37657568 10.1474873,4.40172568 C9.57663079,6.08164143 8.65636161,7.62156375 7.44728726,8.92007568 C5.65711929,8.92755734 3.88496514,8.56259956 2.24342226,7.84839068 C0.41078226,6.82661568 -0.40295774,5.18694568 0.19262726,3.66871568 C0.658775152,2.81339871 1.53344947,2.25933071 2.50593375,2.20333699 C3.47841804,2.14734327 4.41090547,2.59735848 4.97214226,3.39352068 Z" id="Path"></path>
                <path d="M17.6209781,3.39352068 C17.8336575,2.44528096 17.5365193,1.45476411 16.8370156,0.780163772 C16.1375119,0.105563437 15.1368787,-0.15548837 14.1969681,0.0914106812 C12.6582681,0.679060681 11.9774681,2.37657568 12.4456331,4.40172568 C13.0164896,6.08164143 13.9367588,7.62156375 15.1458331,8.92007568 C16.9360011,8.92755734 18.7081552,8.56259956 20.3496981,7.84839068 C22.1823381,6.82661568 22.9960781,5.18694568 22.4004931,3.66871568 C21.9343452,2.81339871 21.0596709,2.25933071 20.0871866,2.20333699 C19.1147023,2.14734327 18.1822149,2.59735848 17.6209781,3.39352068 Z" id="Path"></path>
            </g>
        </g>
    </g>
</svg>