<svg xmlns="http://www.w3.org/2000/svg" viewBox="0 0 28 28" height="28" width="28">
  <defs/>
  <path d="M14 23.5511111c2.8933333 0 5.2577778-2.3644444 5.2577778-5.2577778H8.74222222c0 2.8933334 2.36444448 5.2577778 5.25777778 5.2577778zM14 0C6.25333333 0 0 6.25333333 0 14c0 7.7466667 6.25333333 14 14 14 7.7466667 0 14-6.2533333 14-14 0-7.74666667-6.2533333-14-14-14zm0 26.4444444C7.12444444 26.4444444 1.55555556 20.8755556 1.55555556 14 1.55555556 7.12444444 7.12444444 1.55555556 14 1.55555556c6.8755556 0 12.4444444 5.56888888 12.4444444 12.44444444 0 6.8755556-5.5688888 12.4444444-12.4444444 12.4444444zm-2.8622222-13.6577777c.84-.84.84-2.1777778 0-3.01777781-.84-.84-2.1777778-.84-3.0177778 0l-.52888889.52888891-.52888889-.52888891c-.84-.84-2.17777778-.84-3.01777778 0-.84.84000001-.84 2.17777781 0 3.01777781l.52888889.5288889 3.01777778 3.0177777 3.01777779-3.0177777.5288889-.5288889zm12.4755555-3.01777781c-.84-.84-2.1777777-.84-3.0177777 0l-.5288889.52888891-.5288889-.52888891c-.84-.84-2.1777778-.84-3.0177778 0-.84.84000001-.84 2.17777781 0 3.01777781l.5288889.5288889 3.0177778 3.0177777 3.0177777-3.0177777.5288889-.5288889c.84-.84.84-2.2088889 0-3.01777781z" fill="currentColor" fill-rule="evenodd"/>
</svg>
