<svg xmlns="http://www.w3.org/2000/svg" width="24" height="24" viewBox="0 0 24 24">
    <g fill="none" fill-rule="evenodd">
        <g>
            <g transform="translate(-24 -44) translate(25 45)">
                <path fill="#F6F8E5" fill-rule="nonzero" d="M5.782 10.562h.56l3.583-5.19L10.928.275c.68-.684 2.814.51 2.814 2.624-.076 1.848-.295 3.687-.653 5.502h6.331c.936.003 1.694.76 1.697 1.696-.003.936-.761 1.694-1.697 1.697h-.175c.929.017 1.678.766 1.696 1.696-.003.935-.76 1.693-1.696 1.696H18.5c.936.003 1.694.76 1.697 1.696-.003.936-.761 1.694-1.697 1.697h-.7c.937.002 1.694.76 1.697 1.696-.003.935-.76 1.692-1.695 1.696h-8.71l-3.31-1.567"/>
                <path fill="#E6EEB3" fill-rule="nonzero" d="M18.303 18.653h.009c.565.18.995.642 1.136 1.218.14.577-.03 1.185-.45 1.604-.315.318-.744.498-1.192.498H9.09l-3.311-1.57V13.67l11.554 4.906.97.077z"/>
                <path fill="#B1C906" fill-rule="nonzero" d="M5.445 8.866H.865c-.187.004-.335.157-.335.343v12.498c.003.183.151.331.335.334h4.58c.184-.003.332-.15.335-.334V9.209c0-.186-.149-.339-.335-.343z"/>
                <rect width="5.252" height="13.175" x=".53" y="8.869" stroke="#757575" stroke-linecap="round" stroke-linejoin="round" stroke-width="1.4" rx=".339"/>
                <path stroke="#757575" stroke-linecap="round" stroke-linejoin="round" stroke-width="1.4" d="M5.782 10.562h.56l3.583-5.19L10.928.275c.68-.684 2.814.51 2.814 2.624-.076 1.848-.295 3.687-.653 5.502h6.331c.936.003 1.694.76 1.697 1.696h0c-.003.936-.761 1.694-1.697 1.697h-.175c.929.017 1.678.766 1.696 1.696h0c-.003.935-.76 1.693-1.696 1.696H18.5c.936.003 1.694.76 1.697 1.696h0c-.003.936-.761 1.694-1.697 1.697h-.7c.937.002 1.694.76 1.697 1.696h0c-.003.935-.76 1.692-1.695 1.696h-8.71l-3.31-1.567"/>
            </g>
        </g>
    </g>
</svg>
