<?xml version="1.0" encoding="UTF-8"?>
<svg width="24px" height="24px" viewBox="0 0 24 24" version="1.1" xmlns="http://www.w3.org/2000/svg" xmlns:xlink="http://www.w3.org/1999/xlink">
    <title>02 Icons/Reactions/Thanks/24x24</title>
    <g id="02-Icons/Reactions/Thanks/24x24" stroke="none" stroke-width="1" fill="none" fill-rule="evenodd">
        <g transform="translate(1.500000, 1.250000)">
            <path d="M5.53041176,10.1031765 L6.06695294,10.1031765 L9.49312941,5.13764706 L10.4531059,0.264388235 C11.1031412,-0.389917647 13.1448706,0.750976471 13.1448706,2.77368235 C13.0713704,4.54144442 12.8623174,6.30095941 12.5195529,8.03672941 L18.5760235,8.03672941 C19.4710498,8.03935904 20.1959586,8.76426786 20.1985882,9.65929412 L20.1985882,9.65929412 C20.1958876,10.5542698 19.4709995,11.2791001 18.5760235,11.2817294 L18.4077882,11.2817294 C19.2967701,11.2986092 20.0134023,12.0151842 20.0303529,12.9041647 L20.0303529,12.9041647 C20.0277233,13.799191 19.3028145,14.5240998 18.4077882,14.5267294 L17.6960235,14.5267294 C18.5909783,14.529359 19.3158292,15.2542099 19.3184588,16.1491647 L19.3184588,16.1491647 C19.3158296,17.0441406 18.5909992,17.7690288 17.6960235,17.7717294 L17.0269647,17.7717294 C17.9219195,17.774359 18.6467704,18.4992099 18.6494,19.3941647 L18.6494,19.3941647 C18.6467028,20.2886162 17.922579,21.0132024 17.0281294,21.0164706 L8.69724706,21.0164706 L5.53041176,19.5182706" id="Path" fill="#F6F8E5" fill-rule="nonzero"></path>
            <path d="M17.5076,17.8421294 L17.5157529,17.8421294 C18.0563237,18.0145291 18.4679914,18.4561586 18.6020512,19.0074901 C18.736111,19.5588215 18.5731862,20.1401669 18.1721294,20.5415294 C17.8706922,20.8459213 17.4601439,21.0172782 17.0317529,21.0175059 L8.69556471,21.0175059 L5.52847059,19.5163294 L5.52847059,13.0755059 L16.5802353,17.7687529 L17.5076,17.8421294 Z" id="Path" fill="#E6EEB3" fill-rule="nonzero"></path>
            <path d="M5.20843529,8.48035294 L0.827070588,8.48035294 C0.648890372,8.48450567 0.506705346,8.63031288 0.507034721,8.80854118 L0.507034721,20.7630824 C0.510143721,20.9385293 0.651623658,21.0800092 0.827070588,21.0831176 L5.20843529,21.0831176 C5.38388222,21.0800092 5.52536216,20.9385293 5.52847116,20.7630824 L5.52847116,8.80854118 C5.52880054,8.63031288 5.38661551,8.48450567 5.20843529,8.48035294 Z" id="Path" fill="#B1C906" fill-rule="nonzero"></path>
            <rect id="Rectangle" stroke="#61746E" stroke-width="1.33913043" stroke-linecap="round" stroke-linejoin="round" x="0.507035294" y="8.48345882" width="5.02337647" height="12.6017294" rx="0.323917647"></rect>
            <path d="M5.53041176,10.1031765 L6.06695294,10.1031765 L9.49312941,5.13764706 L10.4531059,0.264388235 C11.1031412,-0.389917647 13.1448706,0.750976471 13.1448706,2.77368235 C13.0713704,4.54144442 12.8623174,6.30095941 12.5195529,8.03672941 L18.5760235,8.03672941 C19.4710498,8.03935904 20.1959586,8.76426786 20.1985882,9.65929412 L20.1985882,9.65929412 C20.1958876,10.5542698 19.4709995,11.2791001 18.5760235,11.2817294 L18.4077882,11.2817294 C19.2967701,11.2986092 20.0134023,12.0151842 20.0303529,12.9041647 L20.0303529,12.9041647 C20.0277233,13.799191 19.3028145,14.5240998 18.4077882,14.5267294 L17.6960235,14.5267294 C18.5909783,14.529359 19.3158292,15.2542099 19.3184588,16.1491647 L19.3184588,16.1491647 C19.3158296,17.0441406 18.5909992,17.7690288 17.6960235,17.7717294 L17.0269647,17.7717294 C17.9219195,17.774359 18.6467704,18.4992099 18.6494,19.3941647 L18.6494,19.3941647 C18.6467028,20.2886162 17.922579,21.0132024 17.0281294,21.0164706 L8.69724706,21.0164706 L5.53041176,19.5182706" id="Path" stroke="#61746E" stroke-width="1.33913043" stroke-linecap="round" stroke-linejoin="round"></path>
        </g>
    </g>
</svg>