<svg xmlns="http://www.w3.org/2000/svg" width="24" height="24" viewBox="0 0 24 24">
  <defs/>
  <path d="M8 11.1350606v9.9675002l5.9276478.8662397c.142152.0207735.2855661.0311995.4291613.0311995h4.9946292c1.0571357 0 1.9360479-.8325779 2.0171265-1.9107879L22 11.6524387c0-.5714801-.4528831-1.0347562-1.0115428-1.0347562h-4.5042173c-.2174455 0-.4334689-.0358602-.6397558-.1062005-1.0599821-.3614357-1.632839-1.53344186-1.2795116-2.61774899l.7795838-2.39242239c.3398848-1.04305384-.0108346-2.19156516-.8706827-2.85125033L13.6265709 2l-1.245401 4.45893378c-.3032503 1.08573307-.9454064 2.04017002-1.8284847 2.71767768L8 11.1350606zM14.206372.07969607c.2363257.0690021.4582912.18164038.6549172.33234325l.8432471.64630211c1.549036 1.18725005 2.1808651 3.25425137 1.5685549 5.13145852l-.7758524 2.37859115h4.4826581C22.6478538 8.5683911 24 9.95018443 24 11.6547129l-.0022248.1184423-.6321186 8.4273625C23.2042756 22.3444709 21.4548649 24 19.3507135 24h-4.9707227c-.2381798 0-.4760592-.0172762-.7118451-.0516985l-5.62601249-.821237C7.96864369 23.6212903 7.55105281 24 7.04690732 24H1.00670105C.45071541 24 0 23.5394022 0 22.9712261V8.5683911c0-.56817615.45071541-1.02877393 1.00670105-1.02877393h6.04020627c.55598564 0 1.00670105.46059778 1.00670105 1.02877393l1.33242566-1.02123027c.52731084-.40415448.91076027-.97350594 1.09183957-1.62117963l1.23944-4.43315547C12.0227956.40019578 13.137185-.23248392 14.206372.07969607zM6 10H2v12h4V10z" fill="currentColor" fill-rule="evenodd"/>
</svg>
