<svg id="Layer_1" data-name="Layer 1" xmlns="http://www.w3.org/2000/svg" width="28" height="28" viewBox="0 0 28 28"><rect width="28" height="28" fill="none"/><path id="_28x28-a" data-name="28x28-a" d="M4,14.5v9a1,1,0,0,0,1,1H6v-5a3,3,0,0,1,3-3h2a3,3,0,0,1,3,3v5h9a1,1,0,0,0,1-1v-9Zm20-13,3.2692,8.8462a3,3,0,0,1-1.2684,3.7518L26,23.5a3,3,0,0,1-3,3H12v-7a1,1,0,0,0-1-1H9a1,1,0,0,0-1,1v7H5a3,3,0,0,1-3-3l0-9.4012a3.0006,3.0006,0,0,1-1.27-3.7526L4,1.5Zm-3,15H17a1,1,0,0,0-1,1h0v4a1,1,0,0,0,1,1h4a1,1,0,0,0,1-1h0v-4a1,1,0,0,0-1-1Zm-1,2v2H18v-2ZM7.818,3.5H5.3333L2.5769,11.1154A1,1,0,0,0,3.5,12.5H6.182Zm14.8487,0H20.182l1.636,9H24.5a1,1,0,0,0,.9231-1.3846Zm-4.4847,0H15v9h4.818ZM13,3.5H9.818l-1.636,9H13Z" fill="#393939"/></svg>