<svg id="Layer_1" data-name="Layer 1" xmlns="http://www.w3.org/2000/svg" width="28" height="28" viewBox="0 0 28 28"><rect width="28" height="28" fill="none"/><path id="_28x28-a" data-name="28x28-a" d="M16,0l1,2h2l.167,1H21c3.3137,0,5,1.6863,5,5V23c0,3.3137-1.6863,5-5,5H7c-3.3137,0-5-1.6863-5-5V8C2,4.6863,3.6863,3,7,3H8.833L9,2h2l1-2ZM8.5,5H7C4.7909,5,4,5.7909,4,8V23c0,2.2091.7909,3,3,3H21c2.2091,0,3-.7909,3-3V8c0-2.2091-.7909-3-3-3H19.5L20,8H8ZM18,20v2H8V20Zm-3-4v2H8V16Zm5-4v2H8V12ZM14.7639,2H13.2361l-1,2H10.6943l-.3334,2h7.2782l-.3334-2H15.7639Z" fill="#393939"/></svg>