<svg id="Layer_1" data-name="Layer 1" xmlns="http://www.w3.org/2000/svg" width="28" height="28" viewBox="0 0 28 28"><rect width="28" height="28" fill="none"/><path id="_28x28-a" data-name="28x28-a" d="M24.0775,19.4533l.2948-.6373A14.4756,14.4756,0,0,0,26,13.5C26,7.7547,20.6747,3,14,3S2,7.7547,2,13.5,7.3253,24,14,24a19.98,19.98,0,0,0,5.97-1.3764l.6507-.229L25.184,23.937ZM14,1c7.732,0,14,5.5964,14,12.5a16.0079,16.0079,0,0,1-1.8125,6.1558L28,27l-7.3658-2.49A21.5816,21.5816,0,0,1,14,26C6.268,26,0,20.4036,0,13.5S6.268,1,14,1Zm6,14H10a1,1,0,0,0,0,2H20a1,1,0,0,0,0-2Zm-2-5H8a1,1,0,0,0,0,2H18a1,1,0,0,0,0-2Z" fill="#393939"/></svg>