<svg id="Layer_1" data-name="Layer 1" xmlns="http://www.w3.org/2000/svg" width="28" height="28" viewBox="0 0 28 28"><rect width="28" height="28" fill="none"/><path id="_28x28-a" data-name="28x28-a" d="M14,0A14,14,0,1,1,0,14,14,14,0,0,1,14,0Zm1.0005,2.0411L15,4H13l.0005-1.959A12.003,12.003,0,0,0,2.041,13.0005L4,13v2l-1.9589.0005A12.0028,12.0028,0,0,0,13.0005,25.959L13,24h2l.0005,1.9589A12.0029,12.0029,0,0,0,25.9589,15.0005L24,15V13l1.959.0005A12.0028,12.0028,0,0,0,15.0005,2.0411Zm6.7123,4.8313a1,1,0,0,1,0,.7022L17.6951,17.11a1,1,0,0,1-.5852.5852L7.5746,21.7128a1,1,0,0,1-1.2874-1.2874L10.3049,10.89a1,1,0,0,1,.5852-.5852l9.5353-4.0177A1,1,0,0,1,21.7128,6.8724Zm-2.6451,2.06-7.05,3.0856,3.9642,3.9642Z" fill="#393939"/></svg>