<svg id="Layer_1" data-name="Layer 1" xmlns="http://www.w3.org/2000/svg" width="28" height="28" viewBox="0 0 28 28"><rect width="28" height="28" fill="none"/><path id="_28x28-a" data-name="28x28-a" d="M14,0c7.732,0,14,7,14,14,0,3-2,7-6.0334,7-2.2342,0-3.3529-.5672-4.1963-1.7015A4.31,4.31,0,0,1,14,21a6.7478,6.7478,0,0,1-7-7,7.3132,7.3132,0,0,1,7-7c2.7779,0,4.9016,2.7934,4.9967,6.724L19,14c0,4,0,5,2.9666,5C24.2747,19,26,16.6375,26,14,26,7.8362,20.3672,2,14,2a12,12,0,1,0,6.3523,22.183,1.2074,1.2074,0,0,1,1.2028.2119,1.12,1.12,0,0,1,.4115,1.1189A14.0005,14.0005,0,1,1,14,0Zm0,9a5.3443,5.3443,0,0,0-5,5,4.7582,4.7582,0,0,0,5,5c2.1628,0,3-1.3619,3-5C17,10.9205,15.5833,9,14,9Z" fill="#393939" fill-rule="evenodd"/></svg>