<svg id="Layer_1" data-name="Layer 1" xmlns="http://www.w3.org/2000/svg" width="28" height="28" viewBox="0 0 28 28"><rect width="28" height="28" fill="none"/><path id="_28x28-a" data-name="28x28-a" d="M19,1a2.9108,2.9108,0,0,1,3,2.8125V5h4a2,2,0,0,1,2,2V23a2,2,0,0,1-2,2H2a2,2,0,0,1-2-2V7A2,2,0,0,1,2,5H6V3.8125A3.1025,3.1025,0,0,1,9,1a3.1025,3.1025,0,0,1,3,2.8125V5h4V3.8125A2.9108,2.9108,0,0,1,19,1ZM6,7H2V23H26V7H22v.1875a3.0062,3.0062,0,0,1-6,0V7H12v.1875A3.1025,3.1025,0,0,1,9,10,3.1025,3.1025,0,0,1,6,7.1875Zm11,6v6H11V13Zm-7,0v6H4V13Zm12.5,0L24,14.5,22.5,16,24,17.5,22.5,19,21,17.5,19.5,19,18,17.5,19.5,16,18,14.5,19.5,13,21,14.5ZM15,15H13v2h2ZM8,15H6v2H8ZM19,3c-.5523,0-1,.28-1,.625v3.75C18,7.72,18.4477,8,19,8s1-.28,1-.625V3.625C20,3.28,19.5523,3,19,3ZM9,3c-.5523,0-1,.28-1,.625v3.75C8,7.72,8.4477,8,9,8s1-.28,1-.625V3.625C10,3.28,9.5523,3,9,3Z" fill="#393939" fill-rule="evenodd"/></svg>