<svg id="Layer_1" data-name="Layer 1" xmlns="http://www.w3.org/2000/svg" width="28" height="28" viewBox="0 0 28 28"><rect width="28" height="28" fill="none"/><path id="_28x28-a" data-name="28x28-a" d="M14,0A14,14,0,1,1,0,14,14,14,0,0,1,14,0Zm0,17a7.7233,7.7233,0,0,0-6.8321,3.4453,1,1,0,0,0,1.6642,1.1094A5.7384,5.7384,0,0,1,14,19a5.7384,5.7384,0,0,1,5.1679,2.5547,1,1,0,1,0,1.6642-1.1094A7.7233,7.7233,0,0,0,14,17Zm5.5-9A2.5,2.5,0,1,0,22,10.5,2.5,2.5,0,0,0,19.5,8ZM8.5,8A2.5,2.5,0,1,0,11,10.5,2.5,2.5,0,0,0,8.5,8Z" fill="#393939" fill-rule="evenodd"/></svg>