<svg id="Layer_1" data-name="Layer 1" xmlns="http://www.w3.org/2000/svg" width="28" height="28" viewBox="0 0 28 28"><rect width="28" height="28" fill="none"/><path id="_28x28-a" data-name="28x28-a" d="M3,10a1,1,0,0,0-1,1V22a1,1,0,0,0,1,1H20a1,1,0,0,0,1-1V11a1,1,0,0,0-1-1ZM25,2a3,3,0,0,1,3,3h0V16a3,3,0,0,1-3,3H23v3a3,3,0,0,1-3,3H3a3,3,0,0,1-3-3V11A3,3,0,0,1,3,8H5V5A3,3,0,0,1,8,2H25ZM12.5,13h-2v2.5H8v2h2.5V20h2V17.5H15v-2H12.5ZM25,4H8A1,1,0,0,0,7,5H7V8H20a3,3,0,0,1,3,3v6h2a1,1,0,0,0,1-1h0V5a1,1,0,0,0-1-1Z" fill="#393939"/></svg>