<svg id="Layer_1" data-name="Layer 1" xmlns="http://www.w3.org/2000/svg" width="28" height="28" viewBox="0 0 28 28"><rect width="28" height="28" fill="none"/><path id="_28x28-a" data-name="28x28-a" d="M13.9946,3A5,5,0,0,1,17.79,11.2549a5.8146,5.8146,0,0,1,.7512.9308c.196.2936.3935.6254.6386,1.0656l.0612.11a7.16,7.16,0,0,1,.8724-1.339,3.4985,3.4985,0,1,1,4.8469.0024,7.5155,7.5155,0,0,1,.9708,1.5278,17.0381,17.0381,0,0,1,1.07,5.3175c.0035.0648.0035.0648.0042.13a2,2,0,0,1-2,2h0l-3.8557.0014a18.5439,18.5439,0,0,1-.05,2.1778A2,2,0,0,1,19.108,25H8.93a2,2,0,0,1-1.9979-1.9091c-.0287-.631-.0294-1.3448-.0018-2.09L2.9946,21a2,2,0,0,1-2-2c.0007-.0649.0007-.0649.0042-.13a17.0381,17.0381,0,0,1,1.07-5.3175,7.5888,7.5888,0,0,1,.9712-1.53,3.4986,3.4986,0,1,1,4.8469.0024,7.1027,7.1027,0,0,1,.8679,1.3269c.113-.2021.2129-.3751.3114-.5386A7.1538,7.1538,0,0,1,10.231,11.29,4.9985,4.9985,0,0,1,13.9946,3Zm2.1869,9.4959-.1468.07a5.0134,5.0134,0,0,1-4.1668-.04,4.2554,4.2554,0,0,0-1.0886,1.3187c-.1253.208-.2575.4409-.4262.7488-.0873.1592-.4147.764-.4806.8848C9.1462,16.81,8.8227,20.6487,8.93,23H19.108c.1918-2.1317-.142-5.964-.9913-7.5211a19.4013,19.4013,0,0,0-1.2387-2.1828A3.2778,3.2778,0,0,0,16.1815,12.4959ZM23.0368,13h-1c-.1713,0-.5926.4213-1.1055,1.4472a7.1708,7.1708,0,0,0-.4145,1.0272,3.9785,3.9785,0,0,0-.1.42A18.319,18.319,0,0,1,21.0079,19l3.9975,0a15.4,15.4,0,0,0-.863-4.5528C23.63,13.4213,23.2082,13,23.0368,13ZM5.9632,13h-1c-.1714,0-.5927.4213-1.1056,1.4472A15.4,15.4,0,0,0,2.9946,19H7.0688a20.3542,20.3542,0,0,1,.5226-3.0636,4.3006,4.3006,0,0,0-.1082-.4621,7.1708,7.1708,0,0,0-.4145-1.0272C6.5558,13.4213,6.1345,13,5.9632,13ZM22.5368,8a1.5,1.5,0,1,0,1.5,1.5A1.5,1.5,0,0,0,22.5368,8ZM5.4632,8a1.5,1.5,0,1,0,1.5,1.5A1.5,1.5,0,0,0,5.4632,8Zm8.5314-3a3,3,0,1,0,3,3A3,3,0,0,0,13.9946,5Z" fill="#393939"/></svg>