<svg id="Layer_1" data-name="Layer 1" xmlns="http://www.w3.org/2000/svg" width="28" height="28" viewBox="0 0 28 28"><rect width="28" height="28" fill="none"/><path id="_28x28-a" data-name="28x28-a" d="M14,0a8,8,0,0,1,8,8V9h1a4,4,0,0,1,4,4V24a4,4,0,0,1-4,4H5a4,4,0,0,1-4-4V13A4,4,0,0,1,5,9H20V8A6,6,0,0,0,8,8H6A8,8,0,0,1,14,0Zm9,11H5a2,2,0,0,0-2,2V24a2,2,0,0,0,2,2H23a2,2,0,0,0,2-2V13A2,2,0,0,0,23,11Zm-9,3a4.0006,4.0006,0,0,1,1,7.874V24H13V21.874A4.0006,4.0006,0,0,1,14,14Zm0,2a2,2,0,1,0,2,2A2,2,0,0,0,14,16Z" fill="#393939" fill-rule="evenodd"/></svg>