<svg id="Layer_1" data-name="Layer 1" xmlns="http://www.w3.org/2000/svg" width="28" height="28" viewBox="0 0 28 28">
  <rect width="28" height="28" fill="none"/>
  <path id="_28x28-a" data-name="28x28-a"
        d="M18.5263,9.1621,23.11,5.1684l1.3946,1.6082L19.9208,10.77Zm.9294-7.1735L17.5962.9538l-2.65,4.7917,1.86,1.0348ZM10.1226,3.2,22.834,17.8543l-1.467,1.2782-.9739-1.1212L16.13,20.0626l1.5729,3.38L9.9942,27.0443,8.4609,23.7489l-3.763,1.809a1.2118,1.2118,0,0,1-1.442-.297L.322,21.879a1.2174,1.2174,0,0,1-.0943-1.4731L9.8694,5.8788l-1.2137-1.4ZM15.1182,22.5l-.7189-1.5448-4.1836,1.9551.7189,1.5449ZM11.1537,7.4577l-9,13.5612,2.2047,2.5419L7.64,21.9837,7.633,21.969l1.3307-.622,10.0471-4.8307Zm16.0605,2.758-5.1033,1.9631.7614,1.9892,5.1034-1.9637Z"
        fill="#393939"/>
</svg>
