<svg id="Layer_1" data-name="Layer 1" xmlns="http://www.w3.org/2000/svg" width="28" height="28" viewBox="0 0 28 28"><rect width="28" height="28" fill="none"/><path id="_28x28-a" data-name="28x28-a" d="M23.88,4A3.232,3.232,0,0,1,27,7.3333V20.6667A3.232,3.232,0,0,1,23.88,24H4.12A3.232,3.232,0,0,1,1,20.6667V7.3333A3.232,3.232,0,0,1,4.12,4ZM17,15.4142l-.8787.8787a3,3,0,0,1-4.2426,0L11,15.4142,4.414,22H23.585ZM2.96,7.375V20.624L9.5858,14Zm22.041.038L18.4142,14l6.6238,6.623ZM23.584,6H4.415l8.8779,8.8787a1,1,0,0,0,1.4142,0Z" fill="#393939"/></svg>