<svg id="Layer_1" data-name="Layer 1" xmlns="http://www.w3.org/2000/svg" width="28" height="28" viewBox="0 0 28 28">
  <rect width="28" height="28" fill="none"/>
  <path id="_28x28-a" data-name="28x28-a"
        d="M19,1a6,6,0,0,1,4.0971,10.3833q3.7735,2.9838,4.7247,12.4159A2,2,0,0,1,25.8319,26H12.1681a2,2,0,0,1-1.99-2.2008q.041-.4056.0871-.7993H9a1,1,0,0,1-1-1V18H6v4a1,1,0,0,1-1,1H1a1,1,0,0,1-1-1V13.5146a1,1,0,0,1,.4188-.8137l6-4.2857a1,1,0,0,1,1.1624,0l6,4.2857.0166.0129a7.7382,7.7382,0,0,1,1.304-1.3314A6,6,0,0,1,19,1Zm2.2442,11.5648-.1062.0431a6.0232,6.0232,0,0,1-4.3831-.0421C14.3872,13.8833,12.8188,17.5515,12.1681,24H25.8319C25.1812,17.5515,23.6128,13.8833,21.2442,12.5648ZM7,10.4578,2,14.0292V21H4V17a1,1,0,0,1,1-1H9a1,1,0,0,1,1,1v4h1l1-5V14.0292ZM19,3a4,4,0,1,0,4,4A4,4,0,0,0,19,3Z"
        fill="#393939"/>
</svg>
