<svg id="Layer_1" data-name="Layer 1" xmlns="http://www.w3.org/2000/svg" width="28" height="28" viewBox="0 0 28 28"><rect x="0.0253" y="0.0893" width="28" height="28" fill="none"/><path id="_28x28-a" data-name="28x28-a" d="M14,2a3.0009,3.0009,0,0,1,2.9525,2.4655A7.5773,7.5773,0,0,1,22,12v5.3476A6.4543,6.4543,0,0,1,25,23H17a3,3,0,0,1-6,0H3a6.4543,6.4543,0,0,1,3-5.6524V12a8.4213,8.4213,0,0,1,5.0287-7.4168A3.0007,3.0007,0,0,1,14,2Zm1,21H13a1,1,0,0,0,2,0ZM14.01,4C14,4,12.8524,4,12.8524,5v.99L11.7973,6.43A6.4224,6.4224,0,0,0,8,12v6.5042l-1.0025.5769A3.9381,3.9381,0,0,0,5.3865,21h17.227a3.9381,3.9381,0,0,0-1.611-1.9189L20,18.5042V12a5.5861,5.5861,0,0,0-3.694-5.6418l-1.1136-.3805V5C15.1924,4.0526,14.1222,4.0027,14.01,4Z" fill="#393939" fill-rule="evenodd"/></svg>