<svg id="Layer_1" data-name="Layer 1" xmlns="http://www.w3.org/2000/svg" width="28" height="28" viewBox="0 0 28 28"><rect width="28" height="28" fill="none"/><path id="_28x28-a" data-name="28x28-a" d="M17.5,25.3491h8V20.2859l-4-3.3333-4,3.3333Zm-1.64-6.3,5-4.1667a1,1,0,0,1,1.28,0l5,4.1667a1,1,0,0,1,.36.7682v6.5316a1,1,0,0,1-1,1h-10a1,1,0,0,1-1-1V19.8175A1,1,0,0,1,15.86,19.0493Zm1.64-7.7h8V6.2859l-4-3.3333-4,3.3333Zm-11-1v4h4v2h-4v4h-2v-4H.5v-2h4v-4ZM22.14.8826l5,4.1667a1,1,0,0,1,.36.7682v6.5316a1,1,0,0,1-1,1h-10a1,1,0,0,1-1-1V5.8175a1,1,0,0,1,.36-.7682l5-4.1667A1,1,0,0,1,22.14.8826Z" fill="#393939"/></svg>