<svg id="Layer_1" data-name="Layer 1" xmlns="http://www.w3.org/2000/svg" width="28" height="28" viewBox="0 0 28 28"><rect width="28" height="28" fill="none"/><path id="_28x28-a" data-name="28x28-a" d="M17,25h8V19.9368l-4-3.3334-4,3.3334Zm-1.64-6.3,5-4.1667a1,1,0,0,1,1.28,0l5,4.1667a1,1,0,0,1,.36.7682V26a1,1,0,0,1-1,1H16a1,1,0,0,1-1-1V19.4684A1,1,0,0,1,15.36,18.7ZM3,25h8V19.9368L7,16.6034,3,19.9368ZM1.36,18.7l5-4.1667a1,1,0,0,1,1.28,0l5,4.1667a1,1,0,0,1,.36.7682V26a1,1,0,0,1-1,1H2a1,1,0,0,1-1-1V19.4684A1,1,0,0,1,1.36,18.7ZM10,11h8V5.9367L14,2.6034,10,5.9367ZM8.36,4.7l5-4.1667a1,1,0,0,1,1.28,0l5,4.1667a1,1,0,0,1,.36.7682V12a1,1,0,0,1-1,1H9a1,1,0,0,1-1-1V5.4684A1,1,0,0,1,8.36,4.7Z" fill="#393939"/></svg>