<svg id="Layer_1" data-name="Layer 1" xmlns="http://www.w3.org/2000/svg" width="28" height="28" viewBox="0 0 28 28"><rect width="28" height="28" fill="none"/><path id="_28x28-a" data-name="28x28-a" d="M8.1813.8874,12.55,5.2562a3.03,3.03,0,0,1,0,4.2846l-1.8538,1.8539a17.0507,17.0507,0,0,0,2.5819,3.3271,17.0548,17.0548,0,0,0,3.3272,2.582L18.4592,15.45a3.03,3.03,0,0,1,4.2847,0l4.3688,4.3688a3.03,3.03,0,0,1,0,4.2847l-2.1043,2.1043a6.1188,6.1188,0,0,1-7.6141.8341,53.5406,53.5406,0,0,1-9.1288-7.3072A53.5406,53.5406,0,0,1,.9582,10.6058a6.119,6.119,0,0,1,.8341-7.6141L3.8966.8874A3.03,3.03,0,0,1,8.1813.8874ZM6.7671,2.3016a1.03,1.03,0,0,0-1.4562,0h0L3.2065,4.4059A4.119,4.119,0,0,0,2.645,9.5313,51.55,51.55,0,0,0,9.68,18.32a51.5451,51.5451,0,0,0,8.7891,7.0346,4.119,4.119,0,0,0,5.1254-.5615h0l2.1043-2.1043a1.03,1.03,0,0,0,0-1.4563h0L21.33,16.8642a1.03,1.03,0,0,0-1.4563,0h0l-2.9125,2.9125A19.4372,19.4372,0,0,1,11.864,16.136a19.4352,19.4352,0,0,1-3.6406-5.0969h0l2.9125-2.9125a1.03,1.03,0,0,0,0-1.4562h0Z" fill="#393939" fill-rule="evenodd"/></svg>