<svg id="Layer_1" data-name="Layer 1" xmlns="http://www.w3.org/2000/svg" width="28" height="28" viewBox="0 0 28 28"><rect width="28" height="28" fill="none"/><path id="_28x28-a" data-name="28x28-a" d="M14,3a6.9977,6.9977,0,0,1,6.094,3.5532A5.5016,5.5016,0,0,1,28,11.5q0,3.0375-5.5,12.5-2.452-4.2186-3.8109-7.16Q16.9793,20.2623,14,25q-2.9789-4.7381-4.69-8.16Q7.9525,19.7811,5.5,24,0,14.5376,0,11.5A5.5024,5.5024,0,0,1,7.9065,6.553,6.9965,6.9965,0,0,1,14,3Zm0,2a5,5,0,0,0-5,5c0,1.7745,1.6711,5.5965,5,11.175,3.3289-5.5785,5-9.4005,5-11.175A5,5,0,0,0,14,5Zm8.5,3a3.4835,3.4835,0,0,0-1.6781.4278,6.8938,6.8938,0,0,1,.1615,1.0869A2.4749,2.4749,0,0,1,22.5,9a2.5,2.5,0,1,1-2.0936,3.8668q-.245.7208-.5933,1.55A56.44,56.44,0,0,0,22.5,19.9258C24.8267,15.6449,26,12.75,26,11.5A3.5,3.5,0,0,0,22.5,8ZM5.5,8A3.5,3.5,0,0,0,2,11.5c0,1.25,1.1733,4.1449,3.5,8.4258a56.7577,56.7577,0,0,0,2.688-5.5094q-.35-.8284-.5951-1.5506a2.4992,2.4992,0,1,1-.5747-3.3522,6.8127,6.8127,0,0,1,.1589-1.0853A3.4715,3.4715,0,0,0,5.5,8ZM14,6a4,4,0,1,1-4,4A4,4,0,0,1,14,6Zm8.5,4.5a1,1,0,1,0,1,1A1,1,0,0,0,22.5,10.5Zm-16.9,0a1,1,0,1,0,1,1A1,1,0,0,0,5.6,10.5ZM14,8a2,2,0,1,0,2,2A2,2,0,0,0,14,8Z" fill="#393939"/></svg>