<svg id="Layer_1" data-name="Layer 1" xmlns="http://www.w3.org/2000/svg" width="28" height="28" viewBox="0 0 28 28"><rect width="28" height="28" fill="none"/><path d="M23.931,3.05a6.8955,6.8955,0,0,1,0,9.8994L22.4637,14.552Q21.89,15.1847,21.1569,16L23.3,16a1,1,0,0,1,.94.6583l3.2727,9A1,1,0,0,1,26.5723,27H1.4277a1,1,0,0,1-.94-1.3417l3.2727-9A1,1,0,0,1,4.7,16l2.2315,0L5.623,14.552q-.3845-.4218-.7-.7625l-.791-.84a6.8109,6.8109,0,0,1,0-9.8994,7,7,0,0,1,9.8994,0A7,7,0,0,1,23.931,3.05ZM8.7188,18.0005,5.4009,18,2.8554,25H25.1446l-2.5455-7-3.237,0-5.35,6h0L9.6991,19.1052Q9.1879,18.5282,8.7188,18.0005ZM5.5465,4.4645A4.8168,4.8168,0,0,0,5.57,11.5594l.5244.5535Q8.1956,14.3632,14.0126,21L18.96,15.4559q2.5435-2.8368,3.51-3.8714a4.902,4.902,0,0,0,.0473-7.12,5,5,0,0,0-7.071,0L14.0318,5.8787,12.6175,4.4645A5,5,0,0,0,5.5465,4.4645Z" fill="#393939"/></svg>