<svg id="Layer_1" data-name="Layer 1" xmlns="http://www.w3.org/2000/svg" width="28" height="28" viewBox="0 0 28 28"><rect width="28" height="28" fill="none"/><path d="M25.598,15.22,14,27,2.402,15.22a8.4227,8.4227,0,0,1,0-11.78A8.1118,8.1118,0,0,1,14,3.44a8.1118,8.1118,0,0,1,11.598,0A8.4227,8.4227,0,0,1,25.598,15.22Z" fill="#b2ca1c" fill-rule="evenodd"/><path d="M24.1728,13.8167a6.4226,6.4226,0,0,0,0-8.9738,6.1117,6.1117,0,0,0-8.7476,0L14,6.2905,12.5748,4.8429a6.1117,6.1117,0,0,0-8.7476,0,6.4226,6.4226,0,0,0,0,8.9738L14,24.1493ZM25.598,15.22,14,27,2.402,15.22a8.4227,8.4227,0,0,1,0-11.78A8.1118,8.1118,0,0,1,14,3.44a8.1118,8.1118,0,0,1,11.598,0A8.4227,8.4227,0,0,1,25.598,15.22Z" fill="#799189"/></svg>