<svg id="Layer_1" data-name="Layer 1" xmlns="http://www.w3.org/2000/svg" width="28" height="28" viewBox="0 0 28 28"><rect width="28" height="28" fill="none"/><path id="_28x28-a" data-name="28x28-a" d="M7.5391,20.519l1.4926,1.2521L5.51,25.9681,4.0178,24.716Zm-5.505-.1162L3.1517,22l3.49-2.4439L5.5243,17.9589Zm8.1036,2.0842L8.3371,26.3485l1.7652.8236L11.9029,23.31Zm7.0188,2.162-1.4213,1.2521-.1911-1.8869a10.6708,10.6708,0,0,0-.6568-3.0514L13.2737,19.609l-1.21.9685a.6087.6087,0,0,1-.7719-.0092L8.33,18.0824a.6087.6087,0,0,1-.143-.7584l.7438-1.3592L7.3565,14.6439A10.6808,10.6808,0,0,0,4.237,14.527l-1.887.1388.9867-1.6173c1.515-2.4828,2.7263-3.9273,3.8086-4.3966a8.2386,8.2386,0,0,1,3.791-.4261A20.206,20.206,0,0,1,15.2525,3.8a13.1138,13.1138,0,0,1,9.1712-2.7391l.67.0651.1759.6507a13.2445,13.2445,0,0,1-1.1084,9.5005,20.105,20.105,0,0,1-3.5865,4.9913,8.33,8.33,0,0,1,.252,3.8683C20.5524,21.2817,19.3411,22.7262,17.1565,24.649Zm2.13-20.91A11.9974,11.9974,0,0,0,21.22,5.7752a12.0484,12.0484,0,0,0,2.2911,1.5254,10.5447,10.5447,0,0,0,.0365-4.3479,10.3317,10.3317,0,0,0-4.2608.7864ZM5.9894,12.5317a7.9148,7.9148,0,0,1,2.1231.3044Q8.854,11.3983,9.64,10.1377a4.7513,4.7513,0,0,0-1.7226.3013A6.5562,6.5562,0,0,0,5.9894,12.5317Zm9.0434,6.0115q5.4059-4.0666,7.3786-8.123.3013-.616.535-1.2272A13.7682,13.7682,0,0,1,19.9681,7.27,13.7565,13.7565,0,0,1,17.526,4.6272q-.5655.34-1.1273.7481-3.68,2.6782-6.72,8.6751Zm3.8993,1.1389a4.8779,4.8779,0,0,0-.0122-1.8115q-1.11,1-2.4037,1.9917a7.8855,7.8855,0,0,1,.69,2.0817A6.5458,6.5458,0,0,0,18.9321,19.6821Zm.073-6.3864a3.1652,3.1652,0,1,1,.73-2.3106,3.1653,3.1653,0,0,1-.73,2.3106Zm-1.4925-1.2521a.864.864,0,1,1,0-.0013Z" fill="#393939"/></svg>