<svg id="Layer_1" data-name="Layer 1" xmlns="http://www.w3.org/2000/svg" width="28" height="28" viewBox="0 0 28 28"><rect width="28" height="28" fill="none"/><path id="_28x28-a" data-name="28x28-a" d="M3.1232,19.077a5.0025,5.0025,0,0,1,5.8,5.8q.441.2063.8982.3762a5.0019,5.0019,0,0,1,8.3576,0q.4568-.17.8982-.3762a5.0025,5.0025,0,0,1,5.8-5.8q.2063-.441.3762-.8982a5.0019,5.0019,0,0,1,0-8.3576q-.17-.4567-.3762-.8982a5.0025,5.0025,0,0,1-5.8-5.8q-.441-.2063-.8982-.3762a5.0019,5.0019,0,0,1-8.3576,0q-.4567.17-.8982.3762a5.0025,5.0025,0,0,1-5.8,5.8q-.2063.441-.3762.8982a5.0019,5.0019,0,0,1,0,8.3576Q2.9168,18.6356,3.1232,19.077ZM16.9833.3185A13.9225,13.9225,0,0,1,21.58,2.2272,3,3,0,0,0,25.7728,6.42a13.9225,13.9225,0,0,1,1.9087,4.5963,3,3,0,0,0,0,5.9666A13.9225,13.9225,0,0,1,25.7728,21.58,3,3,0,0,0,21.58,25.7728a13.9225,13.9225,0,0,1-4.5963,1.9087,3,3,0,0,0-5.9666,0A13.9225,13.9225,0,0,1,6.42,25.7728,3,3,0,0,0,2.2272,21.58,13.9225,13.9225,0,0,1,.3185,16.9833,3,3,0,0,0,3,14,3,3,0,0,0,.3185,11.0167,13.9225,13.9225,0,0,1,2.2272,6.42,3,3,0,0,0,6.42,2.2272,13.9225,13.9225,0,0,1,11.0167.3185,3,3,0,0,0,14,3,3,3,0,0,0,16.9833.3185ZM14,8a6,6,0,1,0,6,6A6,6,0,0,0,14,8Zm0,2a4,4,0,1,1-4,4A4,4,0,0,1,14,10Z" fill="#393939"/></svg>