<svg width="28" height="28" viewBox="0 0 28 28" fill="none" xmlns="http://www.w3.org/2000/svg">
<path d="M13.125 14.6521C12.1329 15.3442 10.9263 15.75 9.625 15.75C8.6856 15.75 7.7956 15.5385 7 15.1606M13.125 14.6521C13.7197 14.2373 14.2373 13.7197 14.6521 13.125M13.125 14.6521L19.307 22.1103C20.1226 23.0943 21.2958 24.0008 22.5076 23.5942C22.758 23.5101 22.9941 23.3809 23.1875 23.1875C23.3809 22.9941 23.5101 22.7581 23.5942 22.5076C24.0008 21.2958 23.0943 20.1226 22.1103 19.307L14.6521 13.125M14.6521 13.125C15.3442 12.1329 15.75 10.9263 15.75 9.625C15.75 8.6856 15.5385 7.7956 15.1606 7M4.375 12.7816C3.81953 11.8598 3.5 10.7797 3.5 9.625C3.5 6.24226 6.24226 3.5 9.625 3.5C10.7797 3.5 11.8598 3.81953 12.7816 4.375M4.375 12.7816C4.99489 13.8104 5.90862 14.6421 7 15.1606M4.375 12.7816C4.375 12.7816 6.125 12.25 7 11.375C8.48553 9.88947 8.23451 7.51549 9.625 6.125C10.5 5.25 12.7816 4.375 12.7816 4.375M12.7816 4.375C13.8104 4.99489 14.6421 5.90862 15.1606 7M15.1606 7C15.1606 7 13.125 7.875 12.25 8.75C10.9385 10.0615 10.9577 12.1849 9.625 13.5625C8.79055 14.4251 7 15.1606 7 15.1606" stroke="#635C80" stroke-width="1.5"/>
</svg>
