<svg width="28" height="28" viewBox="0 0 28 28" fill="none" xmlns="http://www.w3.org/2000/svg">
<path d="M21.4375 17.9375L17.0625 10.0625M17.0625 10.0625H10.5L6.5625 17.9375M17.0625 10.0625L16.0361 8.00971C15.7037 7.34481 16.1872 6.5625 16.9305 6.5625H20.4375C20.9898 6.5625 21.4375 7.01022 21.4375 7.5625V8.75M5.6875 6.5625H8.13197C8.51074 6.5625 8.857 6.7765 9.02639 7.11529L14.4375 17.9375M6.5625 22.3125C4.14625 22.3125 2.1875 20.3537 2.1875 17.9375C2.1875 15.5213 4.14625 13.5625 6.5625 13.5625C8.97875 13.5625 10.9375 15.5213 10.9375 17.9375C10.9375 20.3537 8.97875 22.3125 6.5625 22.3125ZM17.0625 17.9375C17.0625 15.5213 19.0213 13.5625 21.4375 13.5625C23.8537 13.5625 25.8125 15.5213 25.8125 17.9375C25.8125 20.3537 23.8537 22.3125 21.4375 22.3125C19.0213 22.3125 17.0625 20.3537 17.0625 17.9375Z" stroke="#635C80" stroke-width="1.5" stroke-linecap="round"/>
</svg>
