<svg width="28" height="28" viewBox="0 0 28 28" fill="none" xmlns="http://www.w3.org/2000/svg">
<path d="M1.75 14.875H7.7573C7.82994 14.875 7.89686 14.8356 7.93214 14.7721L9.86084 11.3005C9.94221 11.154 10.1568 11.1665 10.2206 11.3215L12.9544 17.9608C13.0203 18.1208 13.2444 18.1273 13.3195 17.9715L14.758 14.9881C14.7913 14.919 14.8613 14.875 14.9381 14.875H18.375M5.68735 6.05788C9.34978 2.91547 13.3906 6.64597 13.9375 7.18277C13.973 7.21764 14.0269 7.21764 14.0624 7.18277C14.6094 6.64597 18.6502 2.91547 22.3126 6.05789C26.2502 9.43642 23.625 14.9293 21 17.9918C19.6001 19.625 16.7951 21.9237 15.1935 23.1898C14.4916 23.7446 13.5083 23.7446 12.8064 23.1898C11.2049 21.9239 8.40016 19.6254 6.99998 17.9918C4.37499 14.9293 1.74972 9.43642 5.68735 6.05788Z" stroke="#635C80" stroke-width="1.5" stroke-linecap="round"/>
</svg>
