<svg width="28" height="28" viewBox="0 0 28 28" fill="none" xmlns="http://www.w3.org/2000/svg">
<path d="M21.4375 23.625H7.65625C6.81056 23.625 6.125 22.9394 6.125 22.0938V22.0938C6.125 21.2481 6.81056 20.5625 7.65625 20.5625H20.875C21.4273 20.5625 21.875 20.1148 21.875 19.5625V5.375C21.875 4.82272 21.4273 4.375 20.875 4.375H18.375M6.125 21.875V7.375C6.125 5.71814 7.46815 4.375 9.125 4.375H14M14 4.375V10.0839C14 10.2516 14.194 10.3448 14.3249 10.24L15.5628 9.24976C15.928 8.95758 16.447 8.95758 16.8122 9.24976L18.0501 10.24C18.181 10.3448 18.375 10.2516 18.375 10.0839V4.375M14 4.375H18.375" stroke="#635C80" stroke-width="1.5" stroke-linecap="round"/>
</svg>
