<svg width="28" height="28" viewBox="0 0 28 28" fill="none" xmlns="http://www.w3.org/2000/svg">
<path d="M6.125 21.875H5.9375C4.83293 21.875 3.9375 20.9796 3.9375 19.875V14C3.9375 13.0335 4.721 12.25 5.6875 12.25V12.25M6.125 21.875V23.625M6.125 21.875H21.875M21.875 21.875H22.0625C23.1671 21.875 24.0625 20.9796 24.0625 19.875V14C24.0625 13.0335 23.279 12.25 22.3125 12.25V12.25M21.875 21.875V23.625M5.6875 12.25H5.875C6.97957 12.25 7.875 13.1454 7.875 14.25V17.375C7.875 17.9273 8.32272 18.375 8.875 18.375H19.125C19.6773 18.375 20.125 17.9273 20.125 17.375V14.25C20.125 13.1454 21.0204 12.25 22.125 12.25H22.3125M5.6875 12.25V9C5.6875 7.89543 6.58293 7 7.6875 7H20.3125C21.4171 7 22.3125 7.89543 22.3125 9V12.25" stroke="#635C80" stroke-width="1.5" stroke-linecap="round"/>
</svg>
