<svg width="28" height="28" viewBox="0 0 28 28" fill="none" xmlns="http://www.w3.org/2000/svg">
<path d="M5.25 14H22.75M5.25 14V21.75C5.25 22.3023 5.69771 22.75 6.25 22.75H14M5.25 14V14C4.52513 14 3.9375 13.4124 3.9375 12.6875V9.8125C3.9375 8.98407 4.60907 8.3125 5.4375 8.3125H14M22.75 14V21.75C22.75 22.3023 22.3023 22.75 21.75 22.75H14M22.75 14V14C23.4749 14 24.0625 13.4124 24.0625 12.6875V9.8125C24.0625 8.98407 23.3909 8.3125 22.5625 8.3125H14M14 22.75V8.3125M14 8.3125L15.4891 4.44093C15.8733 3.44196 17.0002 2.95008 17.994 3.34759V3.34759C19.6413 4.00654 19.5898 6.35605 17.9152 6.94219L14 8.3125ZM14 8.3125L12.5109 4.44093C12.1267 3.44196 10.9998 2.95008 10.006 3.34759V3.34759C8.35866 4.00654 8.41015 6.35605 10.0848 6.94219L14 8.3125Z" stroke="#635C80" stroke-width="1.5"/>
</svg>
