<svg xmlns="http://www.w3.org/2000/svg" fill="none" viewBox="0 0 40 30.55"><path fill="currentColor" fill-rule="evenodd" d="M30.0112.0291504c.417-.0953664.8524.047264 1.1303.3692376l8.5888 9.949112c.1558.1804.2453.3963.2697.6174-.0304.3063-.1617.6039-.3925.8399l-8.3176 8.5073c-.3675.3759-.737.7534-1.1078 1.1322-2.3916 2.4433-4.8399 4.9444-7.1873 7.4611-1.0687 1.0623-2.4593 1.6098-3.8597 1.6424-1.3344-.0318-2.6592-.5538-3.6774-1.566L.749379 14.3609c-.999172-.9932-.999172-2.6029.000001-3.5961L10.408 1.1636c.6613-.65735 1.6311-.904326 2.5295-.643364l7.7164 2.241304.143-.14147c.1574-.15653.3337-.29094.5238-.40078l.0289-.01666.0238-.02333c.1503-.1476.3402-.25248.5498-.30042l8.088-1.8497296ZM38.0681 11.0653l-8.0126-9.28152-.3198.07315-.0385-.04452-7.3547 1.68203-.281.17574c-.0422.02434-.0809.05399-.1155.08838l-7.7379 7.69184.0772.0767-.1871.186 1.9795 1.9677c.8107.8059 2.1022.8726 2.9924.1549l3.5889-2.8936 7.8754 7.8286 7.5337-7.7054ZM19.2599 4.14775l-6.8092-1.9771c-.1241-.03604-.2525-.04204-.3756-.02039-.1864-.03994-.3818.01645-.518.15183L1.89847 11.9033c-.14078.1399-.19167.3354-.15269.5154-.04545.2562.03128.5296.23019.7273L16.6843 27.7669c1.3869 1.3787 3.6168 1.4184 4.9967.1614l.2041-.1859-4.5176-4.4906 1.4947-1.4858 4.4514 4.425 2.6992-2.894-4.1282-4.1037 1.4946-1.4857 4.0476 4.0235 1.9945-1.6329-6.8836-6.8425-.2049.1652-.0761-.0757-2.1915 1.7669c-.7441.5999-1.6365.9102-2.5332.9381-.9775-.0315-1.942-.42-2.6809-1.1545l-3.2016-3.1826 7.6104-7.56535Z" clip-rule="evenodd"/></svg>
