<svg id="Layer_1" data-name="Layer 1" xmlns="http://www.w3.org/2000/svg" width="28" height="28" viewBox="0 0 28 28"><rect width="28" height="28" fill="none"/><path id="_28x28-a" data-name="28x28-a" d="M16.1213,1.9792l9.9,9.9A3.0016,3.0016,0,0,1,25,16.7915L25,25a2,2,0,0,1-2,2H18a2,2,0,0,1-2-2V19H12v6a2,2,0,0,1-2,2H5a2,2,0,0,1-2-2l0-8.2085a3.0016,3.0016,0,0,1-1.02-4.9128l9.9-9.8995A3,3,0,0,1,16.1213,1.9792ZM14,8.3431,6.2218,16.1213a2.9873,2.9873,0,0,1-1.2211.7411L5,25h5V19a2,2,0,0,1,2-2h4a2,2,0,0,1,2,2v6h5l-.0007-8.1376a2.9873,2.9873,0,0,1-1.2211-.7411Zm-.7071-4.95-9.8995,9.9a1,1,0,0,0,1.4142,1.4142l8.4853-8.4853a1,1,0,0,1,1.4142,0l8.4853,8.4853a1,1,0,0,0,1.4142-1.4142L14.7071,3.3934A1,1,0,0,0,13.2929,3.3934Z" fill="#393939"/></svg>