<svg id="Layer_1" data-name="Layer 1" xmlns="http://www.w3.org/2000/svg" width="28" height="28" viewBox="0 0 28 28"><rect width="28" height="28" fill="none"/><path id="_28x28-a" data-name="28x28-a" d="M23.9238,17.05l.2373-.6526A11.5457,11.5457,0,0,0,25,13c0-4.87-5.0688-9-11.5-9S2,8.13,2,13s5.0688,9,11.5,9a20.185,20.185,0,0,0,7.285-2.0221l.5591-.2422,3.6949.683ZM13.5,2C20.9558,2,27,6.9249,27,13a13.0375,13.0375,0,0,1-.9593,4.08L28,23l-6.42-1.1868A21.8324,21.8324,0,0,1,13.5,24C6.0442,24,0,19.0751,0,13S6.0442,2,13.5,2Zm.8,10.2-.0018.0018L11.36,12.205a.36.36,0,0,0-.36.3585v1.4682a.36.36,0,0,0,.361.3585h.7444a.36.36,0,0,1,.3609.3585l.0031,2.1962a.36.36,0,0,1-.36.3591h-.7426a.36.36,0,0,0-.36.3591v1.4682a.36.36,0,0,0,.3609.3579l4.4088-.0048a.36.36,0,0,0,.36-.3592V17.657a.36.36,0,0,0-.361-.3579h-.7444a.3592.3592,0,0,1-.361-.3579l-.0048-4.3765A.3653.3653,0,0,0,14.3,12.2ZM13.2418,7a1.8772,1.8772,0,1,0,1.887,1.8778A1.8773,1.8773,0,0,0,13.2418,7Z" fill="#393939"/></svg>