<svg width="26" height="28" viewBox="0 0 26 28" fill="none" xmlns="http://www.w3.org/2000/svg"><path fill-rule="evenodd" clip-rule="evenodd" d="M13 0C15.1217 0 17.1566 0.842855 18.6569 2.34315C20.1571 3.84344 21 5.87827 21 8V9H22C23.0609 9 24.0783 9.42143 24.8284 10.1716C25.5786 10.9217 26 11.9391 26 13V24C26 25.0609 25.5786 26.0783 24.8284 26.8284C24.0783 27.5786 23.0609 28 22 28H4C2.93913 28 1.92172 27.5786 1.17157 26.8284C0.421427 26.0783 0 25.0609 0 24V13C0 11.9391 0.421427 10.9217 1.17157 10.1716C1.92172 9.42143 2.93913 9 4 9H5H19V8C19 6.4087 18.3679 4.88258 17.2426 3.75736C16.1174 2.63214 14.5913 2 13 2C11.4087 2 9.88258 2.63214 8.75736 3.75736C7.63214 4.88258 7 6.4087 7 8V9H5V8C5 5.87827 5.84285 3.84344 7.34315 2.34315C8.84344 0.842855 10.8783 0 13 0ZM22 11H4C3.46957 11 2.96086 11.2107 2.58579 11.5858C2.21071 11.9609 2 12.4696 2 13V24C2 24.5304 2.21071 25.0391 2.58579 25.4142C2.96086 25.7893 3.46957 26 4 26H22C22.5304 26 23.0391 25.7893 23.4142 25.4142C23.7893 25.0391 24 24.5304 24 24V13C24 12.4696 23.7893 11.9609 23.4142 11.5858C23.0391 11.2107 22.5304 11 22 11ZM13 14C13.9736 14.0002 14.9137 14.3554 15.6442 14.9991C16.3746 15.6428 16.8453 16.5307 16.9679 17.4966C17.0906 18.4624 16.8568 19.4398 16.3105 20.2457C15.7641 21.0515 14.9426 21.6304 14 21.874V24H12V21.874C11.0574 21.6304 10.2359 21.0515 9.68952 20.2457C9.14316 19.4398 8.9094 18.4624 9.03206 17.4966C9.15473 16.5307 9.62538 15.6428 10.3558 14.9991C11.0863 14.3554 12.0264 14.0002 13 14ZM13 16C12.6044 16 12.2178 16.1173 11.8889 16.3371C11.56 16.5568 11.3036 16.8692 11.1522 17.2346C11.0009 17.6001 10.9613 18.0022 11.0384 18.3902C11.1156 18.7781 11.3061 19.1345 11.5858 19.4142C11.8655 19.6939 12.2219 19.8844 12.6098 19.9616C12.9978 20.0387 13.3999 19.9991 13.7654 19.8478C14.1308 19.6964 14.4432 19.44 14.6629 19.1111C14.8827 18.7822 15 18.3956 15 18C15 17.4696 14.7893 16.9609 14.4142 16.5858C14.0391 16.2107 13.5304 16 13 16Z" fill="#393939"/></svg>
