<svg width="28" height="28" viewBox="0 0 28 28" fill="none" xmlns="http://www.w3.org/2000/svg">
<path d="M23.1875 19.25C23.1875 21.6662 21.2288 23.625 18.8125 23.625C16.3963 23.625 14.4375 21.6662 14.4375 19.25C14.4375 16.8338 16.3963 14.875 18.8125 14.875C21.2288 14.875 23.1875 16.8338 23.1875 19.25Z" stroke="#635C80" stroke-width="1.5"/>
<path d="M12.6875 5.25C12.6875 4.76675 13.0793 4.375 13.5625 4.375H19.6875C20.1708 4.375 20.5625 4.76675 20.5625 5.25V11.375C20.5625 11.8582 20.1708 12.25 19.6875 12.25H13.5625C13.0793 12.25 12.6875 11.8582 12.6875 11.375V5.25Z" stroke="#635C80" stroke-width="1.5"/>
<path d="M3.86111 16.85L7.49257 10.3134C7.65926 10.0134 8.09077 10.0134 8.25746 10.3134L11.8889 16.85C12.0509 17.1416 11.8401 17.5 11.5065 17.5H4.24355C3.90996 17.5 3.6991 17.1416 3.86111 16.85Z" stroke="#635C80" stroke-width="1.5"/>
</svg>
