<svg width="28" height="28" viewBox="0 0 28 28" fill="none" xmlns="http://www.w3.org/2000/svg">
<path d="M24.4999 15.1668L16.6172 23.0494C14.3575 25.3092 10.9052 25.8694 8.04685 24.4402V24.4402C6.60998 23.7218 5.44489 22.5567 4.72645 21.1198V21.1198C3.29726 18.2614 3.85748 14.8092 6.11724 12.5494L14.4883 4.17833C16.2709 2.39574 19.0193 2.01082 21.223 3.23511L21.3802 3.32246C22.2725 3.81817 22.9942 4.57192 23.4507 5.4849V5.4849C24.4256 7.43483 24.0435 9.78988 22.5019 11.3314L15.2384 18.5949C14.1677 19.6656 12.5057 19.8702 11.2073 19.0912V19.0912C10.7429 18.8125 10.3542 18.4238 10.0755 17.9594V17.9594C9.29644 16.661 9.50104 14.999 10.5717 13.9283L16.3333 8.16675" stroke="#635C80" stroke-width="1.5" stroke-linecap="round"/>
</svg>
