<svg width="28" height="28" viewBox="0 0 28 28" fill="none" xmlns="http://www.w3.org/2000/svg"><path fill-rule="evenodd" clip-rule="evenodd" d="M3 9V3H9V9H3ZM1 2C1 1.44772 1.44772 1 2 1H10C10.5523 1 11 1.44772 11 2V10C11 10.5523 10.5523 11 10 11H2C1.44772 11 1 10.5523 1 10V2ZM3 25V19H9V25H3ZM1 18C1 17.4477 1.44772 17 2 17H10C10.5523 17 11 17.4477 11 18V26C11 26.5523 10.5523 27 10 27H2C1.44772 27 1 26.5523 1 26V18ZM25 3H19V9H25V3ZM18 1C17.4477 1 17 1.44772 17 2V10C17 10.5523 17.4477 11 18 11H26C26.5523 11 27 10.5523 27 10V2C27 1.44772 26.5523 1 26 1H18ZM8 4H4V8H8V4ZM4 20H8V24H4V20ZM24 4H20V8H24V4ZM13 1H15V4H13V1ZM15 6H13V9H15V6ZM15 11H13V13H9V15H15V11ZM27 27V22H25V27H27ZM23 17H21V21H17V23H23V17ZM27 20V17H25V20H27ZM17 13H27V15H17V13ZM7 13H1V15H7V13ZM15 22H13V27H23V25H15V22ZM13 20V17H19V19H15V20H13Z" fill="#393939"/></svg>
