<svg width="28" height="28" fill="none" xmlns="http://www.w3.org/2000/svg"><path fill-rule="evenodd" clip-rule="evenodd" d="M6.57 22.323H1a1 1 0 01-.978-1.206L4.314.793A1 1 0 015.292 0h11.462c.045 0 .09.001.134.006.584.062 4.83.673 5.21 5.401h.109c.061 0 .12.003.18.01.794.103 6.621 1.074 5.458 7.409-.575 3.131-2.3 5.01-3.99 6.127-2.36 1.557-5.332 1.568-8.159 1.568a.583.583 0 00-.57.458l-1.953-.428a2.583 2.583 0 012.523-2.03c2.96 0 5.285-.068 7.056-1.237 1.326-.875 2.667-2.32 3.126-4.82.234-1.274.093-2.13-.14-2.708-.233-.58-.614-1.02-1.08-1.366-.95-.705-2.126-.931-2.482-.983h-.135l-.02.15c-.521 3.838-2.726 5.733-4.653 6.665-1.853.897-3.97.894-6.035.892h-.33a.985.985 0 00-.961.767l-2.18 9.92h4.161l1.15-5.25 1.954.428-1.322 6.035a1 1 0 01-.977.786H6.623a1 1 0 01-.978-1.212l.925-4.265zm.414-2h-4.75L6.104 2H16.72c.273.035 1.26.21 2.083.862.521.412 1.135 1.134 1.287 2.545h-9.048a1 1 0 00-.977.789l-3.08 14.127zM20.022 7.407c-.44 2.955-2.085 4.319-3.525 5.015-1.43.692-3.123.692-5.381.691h-.113c-.134 0-.267.01-.397.027l1.243-5.733h8.173zM16.754 2c.001 0 .001 0 0 0z" fill="#393939"/></svg>
