<svg id="Layer_1" data-name="Layer 1" xmlns="http://www.w3.org/2000/svg" width="28" height="28" viewBox="0 0 28 28"><rect width="28" height="28" fill="none"/><path id="_28x28-a" data-name="28x28-a" d="M14,0A14,14,0,1,1,0,14,14,14,0,0,1,14,0Zm0,17c-2.7891,0-4.6605,2.3153-5.5886,7.7l.013-.0711a12.0215,12.0215,0,0,0,11.1522,0C18.6469,19.299,16.7757,17,14,17ZM14,2A12,12,0,0,0,6.6111,23.4561q1.191-5.7744,4.2-7.6054a4.9995,4.9995,0,1,1,6.3769.0011q3.01,1.8286,4.2,7.6036A12,12,0,0,0,14,2Zm0,7a3,3,0,1,0,3,3A3,3,0,0,0,14,9Z" fill="#393939"/></svg>