<svg width="28" height="28" viewBox="0 0 28 28" fill="none" xmlns="http://www.w3.org/2000/svg">
<path d="M3.5 12.25C3.5 11.0419 4.47938 10.0625 5.6875 10.0625C6.89562 10.0625 7.875 11.0419 7.875 12.25C7.875 13.4581 6.89562 14.4375 5.6875 14.4375C4.47938 14.4375 3.5 13.4581 3.5 12.25Z" stroke="#635C80" stroke-width="1.5"/>
<path d="M22.3125 10.0625C21.1044 10.0625 20.125 11.0419 20.125 12.25C20.125 13.4581 21.1044 14.4375 22.3125 14.4375C23.5206 14.4375 24.5 13.4581 24.5 12.25C24.5 11.0419 23.5206 10.0625 22.3125 10.0625Z" stroke="#635C80" stroke-width="1.5"/>
<path d="M20.125 6.5625C20.125 5.35438 19.1456 4.375 17.9375 4.375C16.7294 4.375 15.75 5.35438 15.75 6.5625C15.75 7.77062 16.7294 8.75 17.9375 8.75C19.1456 8.75 20.125 7.77062 20.125 6.5625Z" stroke="#635C80" stroke-width="1.5"/>
<path d="M7.875 6.5625C7.875 5.35438 8.85438 4.375 10.0625 4.375C11.2706 4.375 12.25 5.35438 12.25 6.5625C12.25 7.77062 11.2706 8.75 10.0625 8.75C8.85438 8.75 7.875 7.77062 7.875 6.5625Z" stroke="#635C80" stroke-width="1.5"/>
<path d="M14 21.875C13.09 21.875 12.075 22.2887 11.1819 22.7877C9.80197 23.5587 7.96124 23.3452 7.06971 22.0399C6.10376 20.6257 6.74191 18.6745 8.19283 17.7645C8.9132 17.3128 9.60475 16.7777 10.0625 16.1875C10.613 15.4778 11.022 14.4348 11.3055 13.5011C11.672 12.2945 12.739 11.375 14 11.375C15.261 11.375 16.328 12.2945 16.6945 13.5011C16.978 14.4348 17.387 15.4778 17.9375 16.1875C18.3953 16.7777 19.0868 17.3128 19.8072 17.7645C21.2581 18.6745 21.8962 20.6257 20.9303 22.0399C20.0388 23.3452 18.198 23.5587 16.8181 22.7877C15.925 22.2887 14.91 21.875 14 21.875Z" stroke="#635C80" stroke-width="1.5"/>
</svg>
