<svg width="28" height="28" viewBox="0 0 28 28" fill="none" xmlns="http://www.w3.org/2000/svg">
<path d="M13.5625 14.875H20.4375C20.9898 14.875 21.4375 15.3227 21.4375 15.875V16.9375C21.4375 17.4898 20.9898 17.9375 20.4375 17.9375H19.8591C19.7604 17.9375 19.6764 18.0095 19.6614 18.1071L18.943 22.7771C18.8679 23.2649 18.4482 23.625 17.9546 23.625H10.0454C9.55185 23.625 9.1321 23.2649 9.05705 22.7771L8.33859 18.1071C8.32358 18.0095 8.23963 17.9375 8.14092 17.9375H7.5625C7.01022 17.9375 6.5625 17.4898 6.5625 16.9375V15.875C6.5625 15.3227 7.01022 14.875 7.5625 14.875H13.5625ZM13.5625 14.875V12.25M14 11.375H15.875C19.1887 11.375 21.875 8.68871 21.875 5.375V4C21.875 3.72386 21.6511 3.5 21.375 3.5H20C16.6863 3.5 14 6.18629 14 9.5V11.375ZM14 11.375L13.5625 12.25M14 11.375L18.375 7M13.5625 12.25L11.8125 10.5M11.8125 10.5V9.25C11.8125 7.04086 10.0216 5.25 7.8125 5.25H7.0625C6.78636 5.25 6.5625 5.47386 6.5625 5.75V6.5C6.5625 8.70914 8.35336 10.5 10.5625 10.5H11.8125Z" stroke="#635C80" stroke-width="1.5" stroke-linecap="round"/>
</svg>
