<svg width="28" height="28" viewBox="0 0 28 28" fill="none" xmlns="http://www.w3.org/2000/svg">
<path d="M3.5 23.1875H6.125M24.5 23.1875H21.875M6.125 23.1875V6.08458C6.125 5.60129 6.47062 5.18716 6.94611 5.10071L14.5711 3.71434C15.185 3.60274 15.75 4.07431 15.75 4.69821V8.75M6.125 23.1875H15.75M15.75 23.1875V8.75M15.75 23.1875H21.875M15.75 8.75H20.875C21.4273 8.75 21.875 9.19772 21.875 9.75V23.1875M12.6875 14V14C12.4459 14 12.25 13.8041 12.25 13.5625V13.125C12.25 12.8834 12.4459 12.6875 12.6875 12.6875V12.6875C12.9291 12.6875 13.125 12.8834 13.125 13.125V13.5625C13.125 13.8041 12.9291 14 12.6875 14ZM9.1875 14V14C8.94588 14 8.75 13.8041 8.75 13.5625V13.125C8.75 12.8834 8.94588 12.6875 9.1875 12.6875V12.6875C9.42912 12.6875 9.625 12.8834 9.625 13.125V13.5625C9.625 13.8041 9.42912 14 9.1875 14ZM13.125 9.1875V9.625C13.125 9.86662 12.9291 10.0625 12.6875 10.0625V10.0625C12.4459 10.0625 12.25 9.86663 12.25 9.625V9.1875C12.25 8.94588 12.4459 8.75 12.6875 8.75V8.75C12.9291 8.75 13.125 8.94588 13.125 9.1875ZM9.1875 10.0625V10.0625C8.94588 10.0625 8.75 9.86663 8.75 9.625V9.1875C8.75 8.94588 8.94588 8.75 9.1875 8.75V8.75C9.42912 8.75 9.625 8.94588 9.625 9.1875V9.625C9.625 9.86662 9.42912 10.0625 9.1875 10.0625Z" stroke="#635C80" stroke-width="1.5" stroke-linecap="round"/>
</svg>
