<svg xmlns="http://www.w3.org/2000/svg" fill="none" viewBox="0.12 0.35 30.37 39.29"><path fill="currentColor" stroke="currentColor" stroke-width=".646243" d="m16.3215.793063-.073.314767.073-.314767c-.668-.154912-1.3642-.154912-2.0322 0L2.02632 3.63725c-.82891.19226-1.42226.92163-1.42654 1.7617C.590399 7.24062.550905 8.96336.513846 10.5798c-.042252 1.8431-.081338 3.548-.069013 5.1336.023283 2.9952.228141 5.641.944037 8.1645 1.43757 5.0674 4.93079 9.4731 12.77273 15.081.6792.4856 1.6084.4857 2.2876-.0001 7.8415-5.6076 11.3385-10.0134 12.7759-15.0809.7159-2.5236.9199-5.1693.9424-8.1645.0119-1.5806-.0274-3.2803-.0698-5.1172-.0374-1.62132-.0773-3.34956-.0867-5.19725-.0042-.83976-.5979-1.56951-1.4265-1.7617L16.3215.793063ZM14.6367 2.24501c.4401-.10205.8973-.10205 1.3374 0l12.263 2.84419c.0264.00613.0971.04447.169.13304.0727.08942.0923.16283.0924.18311.0095 1.87925.0476 3.60489.083 5.21195.0403 1.8273.0772 3.5014.0651 5.0738-.0228 2.9383-.2188 5.4493-.8807 7.783-1.3184 4.6478-4.4878 8.7587-12.2041 14.2769-.0231.0165-.1152.0501-.2581.0507-.1434.0005-.2337-.0325-.2548-.0476C7.33242 32.2359 4.16345 28.125 2.84495 23.4773c-.66203-2.3336-.858-4.8455-.88076-7.7847-.01219-1.5729.02475-3.2475.06507-5.0752.03546-1.60727.07352-3.33293.08309-5.21197.00011-.02077.01979-.09417.09232-.18333.07189-.08836.14256-.12668.16906-.13282L14.6367 2.24501Z"/><path fill="currentColor" stroke="currentColor" stroke-width=".646243" d="m14.415 5.44986-.0003.00006c-.0328.0076-.1072.02614-.2037.05019-.0638.01591-.1374.03423-.2149.05339-.0001 0-.0001 0-.0001.00001L7.04343 7.2703l-.00004.00001c-.02144.0053-.04794.01097-.07867.01755-.19339.04143-.55389.11864-.86943.36199h-.00001c-.24923.19221-.44708.4489-.56992.74372-.15196.36469-.14329.73793-.13856.94164.0008.03442.00148.064.00126.08789l.32311.00297-.32311-.00297c-.00984 1.0714-.03178 2.0843-.05259 3.0451-.02996 1.3831-.05758 2.6582-.04343 3.8444.0241 2.02.1686 3.825.63366 5.5565.93533 3.4824 3.16301 6.5226 8.0042 10.2898l.1985-.255-.1985.255c.0202.0157.0434.0346.0694.0559.148.1209.388.317.6934.4218l.0024.0008c.1053.0352.2174.0442.3271.0262.1096-.0181.2126-.0625.301-.1288.0883-.0663.1592-.1524.208-.2506.0487-.0982.0742-.2062.0749-.3155v-.0019l.022-25.50143c.0002-.31247-.1468-.59715-.3617-.78678-.2164-.19103-.5245-.30417-.8514-.22873Zm-.1767 1.50379L14.2199 30.591c-4.31356-3.4538-6.15521-6.1224-6.95425-9.0973-.41909-1.5604-.55542-3.242-.57882-5.2062-.01392-1.1684.0119-2.4223.04035-3.8037.01957-.9504.04039-1.9613.05036-3.04622v-.00006c.00087-.09705.00926-.2313.01972-.34809.00518-.05783.01059-.10823.01533-.14479.00107-.00825.00204-.01527.00289-.02114.02349-.04691.0579-.09224.09432-.12573.00384-.00154.00817-.00326.01302-.00514.03249-.01264.07793-.02912.13052-.04708.10638-.03634.22892-.07425.3178-.09622.00002 0 .00003 0 .00004-.00001l6.86712-1.69567ZM6.81946 8.90013c.00002.00013-.00032.00198-.00107.00514.00068-.00369.00105-.00528.00107-.00514Z"/></svg>
