<svg width="28" height="28" viewBox="0 0 28 28" fill="none" xmlns="http://www.w3.org/2000/svg">
<path fill-rule="evenodd" clip-rule="evenodd" d="M3 0C1.34315 0 0 1.34315 0 3V25C0 26.6569 1.34315 28 3 28H15C16.6569 28 18 26.6569 18 25V3C18 1.34315 16.6569 0 15 0H3ZM2 5C2 4.44772 2.44772 4 3 4H15C15.5523 4 16 4.44772 16 5V21C16 21.5523 15.5523 22 15 22H3C2.44772 22 2 21.5523 2 21V5ZM8 24C7.44772 24 7 24.4477 7 25C7 25.5523 7.44772 26 8 26H10C10.5523 26 11 25.5523 11 25C11 24.4477 10.5523 24 10 24H8Z" fill="#393939"/>
</svg>
