<svg width="28" height="28" viewBox="0 0 28 28" fill="none" xmlns="http://www.w3.org/2000/svg">
<path d="M7.875 10.0625V11.8125M20.125 10.0625V11.8125M20.125 11.8125V22.1875C20.125 22.7398 19.6773 23.1875 19.125 23.1875H8.875C8.32272 23.1875 7.875 22.7398 7.875 22.1875V11.8125M20.125 11.8125L22.4095 12.1389C22.8661 12.2041 23.3081 11.9486 23.4794 11.5203L24.6431 8.61103C24.8156 8.17986 24.6685 7.68671 24.2881 7.4204L20.8207 4.99327C20.6527 4.87561 20.4525 4.8125 20.2473 4.8125H17.625C17.0727 4.8125 16.6225 5.26992 16.4384 5.79061C16.1746 6.53681 15.5376 7.4375 14 7.4375C12.4624 7.4375 11.8254 6.53681 11.5616 5.79061C11.3775 5.26992 10.9273 4.8125 10.375 4.8125H7.75272C7.54755 4.8125 7.34734 4.87561 7.17926 4.99327L3.71193 7.4204C3.33149 7.68671 3.18444 8.17986 3.35691 8.61103L4.52062 11.5203C4.69192 11.9486 5.13391 12.2041 5.59052 12.1389L7.875 11.8125" stroke="#635C80" stroke-width="1.5" stroke-linecap="round"/>
</svg>
