<svg width="28" height="28" viewBox="0 0 28 28" fill="none" xmlns="http://www.w3.org/2000/svg">
<path d="M17.9375 9.1875V6.6875C17.9375 6.13522 17.4898 5.6875 16.9375 5.6875H4.5C3.94772 5.6875 3.5 6.13522 3.5 6.6875V20.4375C3.5 20.9898 3.94773 21.4375 4.50001 21.4375C4.78295 21.4375 5.06413 21.4375 5.25 21.4375M17.9375 9.1875H21.257C21.6357 9.1875 21.982 9.4015 22.1514 9.74029L24.3944 14.2264C24.4639 14.3652 24.5 14.5183 24.5 14.6736V20.4375C24.5 20.9898 24.0523 21.4375 23.5 21.4375C22.697 21.4375 21.4822 21.4375 20.125 21.4375M17.9375 9.1875V14.4375M17.9375 14.4375H24.0625M17.9375 14.4375C17.9375 14.4375 17.9375 17.7123 17.9375 19.25M5.25 21.4375C5.25 22.6456 6.22938 23.625 7.4375 23.625C8.64562 23.625 9.625 22.6456 9.625 21.4375M5.25 21.4375C5.25 20.2294 6.22938 19.25 7.4375 19.25C8.64562 19.25 9.625 20.2294 9.625 21.4375M9.625 21.4375C10.6848 21.4375 14.6902 21.4375 15.75 21.4375M20.125 21.4375C20.125 22.6456 19.1456 23.625 17.9375 23.625C16.7294 23.625 15.75 22.6456 15.75 21.4375M20.125 21.4375C20.125 20.125 19.25 19.25 17.9375 19.25M15.75 21.4375C15.75 20.125 16.625 19.25 17.9375 19.25" stroke="#635C80" stroke-width="1.5"/>
</svg>
