<svg id="Layer_1" data-name="Layer 1" xmlns="http://www.w3.org/2000/svg" width="16" height="16" viewBox="0 0 16 16"><path id="_16x16-a" data-name="16x16-a" d="M11,0a1,1,0,0,1,1,1V2h3a1,1,0,0,1,1,1V14a1,1,0,0,1-1,1H1a1,1,0,0,1-1-1V3A1,1,0,0,1,1,2H4V1A1,1,0,0,1,6,1V2h4V1A1,1,0,0,1,11,0ZM4,4H2v9H14V4H12V5a1,1,0,0,1-2,0V4H6V5A1,1,0,0,1,4,5ZM9.4142,6.1716l1.4142,1.4142L9.414,9l1.4144,1.4142L9.4142,11.8284,8,10.414,6.5858,11.8284,5.1716,10.4142,6.586,9,5.1716,7.5858,6.5858,6.1716,8,7.586Z" fill="#393939"/></svg>