<svg id="Layer_1" data-name="Layer 1" xmlns="http://www.w3.org/2000/svg" width="16" height="16" viewBox="0 0 16 16"><path id="outline-a" d="M8,0a2,2,0,0,1,2,2q0,.063-.0038.125A4.0018,4.0018,0,0,1,13,6v4.5351A3.9984,3.9984,0,0,1,15,14H10a1.7678,1.7678,0,0,1-2,2,1.7678,1.7678,0,0,1-2-2H1a3.9984,3.9984,0,0,1,2-3.4649V6A4.0018,4.0018,0,0,1,6.0038,2.125Q6,2.063,6,2A2,2,0,0,1,8,0ZM8,3.678a3.2625,3.2625,0,0,0-1.5.3844A2.0016,2.0016,0,0,0,5,6v6h6V6A2.0016,2.0016,0,0,0,9.5,4.0624,3.2625,3.2625,0,0,0,8,3.678Z" fill="#393939" fill-rule="evenodd"/></svg>