<svg id="Layer_1" data-name="Layer 1" xmlns="http://www.w3.org/2000/svg" width="16" height="16" viewBox="0 0 16 16"><path id="_16x16-a" data-name="16x16-a" d="M7.5876,8.4125A9.7459,9.7459,0,0,0,9.4888,9.8879l1.0593-1.0594a1.7313,1.7313,0,0,1,2.4484,0l2.4964,2.4965a1.7313,1.7313,0,0,1,0,2.4484l-1.2024,1.2024a3.4966,3.4966,0,0,1-4.351.4767,30.6,30.6,0,0,1-5.2164-4.1756A30.5958,30.5958,0,0,1,.5475,6.0605,3.4965,3.4965,0,0,1,1.0242,1.71L2.2267.5071a1.7312,1.7312,0,0,1,2.4483,0L7.1715,3.0035a1.7313,1.7313,0,0,1,0,2.4484L6.1122,6.5112A9.7418,9.7418,0,0,0,7.5876,8.4125Z" fill="#393939" fill-rule="evenodd"/></svg>