<svg id="Layer_1" data-name="Layer 1" xmlns="http://www.w3.org/2000/svg" width="16" height="16" viewBox="0 0 16 16"><path d="M13.6569,1.1716a4,4,0,0,1,0,5.6568L10.962,9.999,14,10l2,6H0l2-6,3.038-.001L2.3431,6.8284A4,4,0,0,1,8,1.1716,4,4,0,0,1,13.6569,1.1716ZM6.737,11.999,3.4415,12l-.6666,2h10.45l-.6666-2L9.263,11.999,8,13.4853Zm-2.98-9.4132A2,2,0,0,0,3.6405,5.287l.2267.2463L8,10.3967l4.1328-4.8634.11-.1191A2,2,0,0,0,9.4142,2.5858L8,4,6.5858,2.5858A2,2,0,0,0,3.7574,2.5858Z" fill="#393939"/></svg>