<svg viewBox="0 0 110 110" xmlns="http://www.w3.org/2000/svg"><g fill="none"><path d="m0 0h110v110h-110z"/><path d="m95.896 80.31775-6.503 3.776v-18.514c0-1.349-.726-2.601-1.895-3.275-1.168-.675-2.62-.671-3.782 0l-12.166 6.996c-2.341 1.344-3.796 3.856-3.796 6.555v20.803l-9.738 5.656v-44.369l40.033-23.244v41.88c0 1.535-.824 2.966-2.153 3.736zm-54.109 16.341v-20.803c0-2.699-1.455-5.211-3.794-6.552l-12.162-6.994c-1.168-.68-2.62-.676-3.789-.005-1.169.674-1.894 1.926-1.894 3.275v18.514l-6.504-3.776c-1.328-.77-2.152-2.201-2.152-3.736v-41.88l40.032 23.244v44.368zm9.737-88.973v42.76l-36.819-21.379zm43.312 21.381-36.82 21.379v-42.759zm4.323-4.989-38.952-22.619c-3.352-1.945-7.518-1.945-10.875 0l-38.949 22.619c-3.32 1.924-5.383 5.504-5.383 9.34v43.164c0 3.837 2.063 7.417 5.382 9.342l16.258 9.439v-25.108l8.115 4.669c.333.189.54.549.54.932v24.535l14.038 8.151c1.677.973 3.557 1.46 5.437 1.458012 1.88 0 3.761-.485012 5.438-1.458012l14.038-8.151v-24.535c0-.383.207-.743.542-.934l8.113-4.667v25.108l16.257-9.439c3.32-1.925 5.382-5.505 5.382-9.342v-43.164c0-3.834-2.061-7.414-5.381-9.34z" fill="currentColor"/></g></svg>
