<svg xmlns="http://www.w3.org/2000/svg" xmlns:xlink="http://www.w3.org/1999/xlink" width="34" height="36" viewBox="0 0 34 36"><defs><filter id="ropq1gbted" width="163.6%" height="342.6%" x="-31.8%" y="-86.6%" filterUnits="objectBoundingBox"><feOffset dy="2" in="SourceAlpha" result="shadowOffsetOuter1"/><feGaussianBlur in="shadowOffsetOuter1" result="shadowBlurOuter1" stdDeviation="2"/><feColorMatrix in="shadowBlurOuter1" values="0 0 0 0 0 0 0 0 0 0 0 0 0 0 0 0 0 0 0.2 0"/></filter><filter id="166ggzfdcf" width="163.6%" height="265.6%" x="-31.8%" y="-59.2%" filterUnits="objectBoundingBox"><feOffset dy="2" in="SourceAlpha" result="shadowOffsetOuter1"/><feGaussianBlur in="shadowOffsetOuter1" result="shadowBlurOuter1" stdDeviation="2"/><feColorMatrix in="shadowBlurOuter1" values="0 0 0 0 0 0 0 0 0 0 0 0 0 0 0 0 0 0 0.2 0"/></filter><path id="gwd8vpvsfa" d="M25.048 20.586l-11 6.769c-.643.396-1.453.396-2.096 0l-11-6.77C.36 20.223 0 19.578 0 18.883V9.118c0-.695.36-1.34.952-1.704l11-6.769c.643-.396 1.453-.396 2.096 0l11 6.77c.592.363.952 1.008.952 1.703v9.764c0 .695-.36 1.34-.952 1.704z"/><path id="uisljms1ze" d="M3 4c0 2 3.237 2.184 3.916 2.26 1.346.149 3.216.23 5.6.239L13 6.5c2.616 0 4.649-.081 6.084-.24C19.764 6.183 23 5.855 23 4c0-1 .647 1.934 1 3v1c-1.076 1.076-4.93 1.484-10.582 1.5l-1.245-.002C6.923 9.467 3.11 8.99 2 8V6c0-1 1-3 1-2z"/><path id="ix9g37m7zg" d="M21 .5c2.109 0 2.84 1.592 3 3.5v4c0-1-2-4-3-4s-1 0-2.205.522C18 5 16.337 6.21 14.723 7.524l-.763.628-.96.8-.96-.8C10.088 6.526 8 5 7.205 4.522 6 4 6 4 5 4S2 7 2 8V4C2.217 2.149 3.105.5 5 .5c1.58 0 3.881 1.299 7.23 3.942l.77.615.086-.068C16.696 2.069 19.16.59 20.844.504L21 .5z"/></defs><g fill="none" fill-rule="evenodd"><g><g><g transform="translate(-191 -9) translate(195 11)"><mask id="326ahcq78c" fill="#fff"><use xlink:href="#gwd8vpvsfa"/></mask><g><use fill="#000" filter="url(#9gy1mkjjgb)" xlink:href="#gwd8vpvsfa"/><use fill="#FFF" xlink:href="#gwd8vpvsfa"/></g><path fill="#B9CF1E" fill-rule="nonzero" d="M25.048 20.586l-11 6.769c-.643.396-1.453.396-2.096 0l-11-6.77C.36 20.223 0 19.578 0 18.883V9.118c0-.695.36-1.34.952-1.704l11-6.769c.643-.396 1.453-.396 2.096 0l11 6.77c.592.363.952 1.008.952 1.703v9.764c0 .695-.36 1.34-.952 1.704z" mask="url(#326ahcq78c)"/><path fill-rule="nonzero" stroke="#A0B605" stroke-width="2" d="M13 1.348c.182 0 .363.05.524.149h0l11 6.769c.296.182.476.504.476.852h0v9.764c0 .348-.18.67-.476.852h0l-11 6.77c-.16.098-.342.148-.524.148s-.363-.05-.524-.149h0l-11-6.769C1.18 19.552 1 19.23 1 18.882h0V9.118c0-.348.18-.67.476-.852h0l11-6.77c.16-.098.342-.148.524-.148z" mask="url(#326ahcq78c)"/><path fill-rule="nonzero" stroke="#A0B605" stroke-linecap="round" stroke-width="2" d="M0 8L13 15 26 8" mask="url(#326ahcq78c)"/><path fill-rule="nonzero" stroke="#A0B605" stroke-width="2" d="M13 27L13 15" mask="url(#326ahcq78c)"/><path fill="#EB5E65" fill-rule="nonzero" d="M5 11L12.034 6.981 17.217 8.304 9 13 9 26 5 24z" mask="url(#326ahcq78c)"/><path fill="#EB5E65" fill-rule="nonzero" d="M9.717 11L15.932 7.448 21 8.838 13.717 13 13.717 26 9.717 24z" mask="url(#326ahcq78c)" transform="matrix(-1 0 0 1 30.717 0)"/></g><g transform="translate(-191 -9) translate(195 11)"><use fill="#000" filter="url(#ropq1gbted)" xlink:href="#uisljms1ze"/><use fill="#D4555B" xlink:href="#uisljms1ze"/></g><g transform="translate(-191 -9) translate(195 11)"><use fill="#000" filter="url(#166ggzfdcf)" xlink:href="#ix9g37m7zg"/><use fill="#EB5E65" xlink:href="#ix9g37m7zg"/></g></g></g></g></svg>
