<svg viewBox="0 0 500 500" xmlns="http://www.w3.org/2000/svg" fill="currentColor"><path d="m446.1 115-168.4-98c-14.8-9.2-40.7-9.2-55.5 0l-168.3 98c-16.7 11.1-25.9 25.9-25.9 42.5v188.7c0 16.6 5.5 33.3 20.3 42.5l66.6 35.1v-109.1l48.1 25.9v109.1l59.2 33.3c16.6 9.2 38.8 9.2 55.5 0l59.2-33.3v-109.1l48.1-25.9v109.1l66.6-35.1c14.8-9.2 20.4-25.9 20.4-42.5v-188.7c0-16.6-11.1-33.3-25.9-42.5zm-209 340.3-46.2-25.9v-86.9c0-11.1-3.7-20.3-14.8-27.7l-53.8-27.8c-9.2-3.7-16.7-5.5-22.2-1.8s-9.2 9.2-9.2 16.6v77.7l-25.9-14.8c-5.5-3.7-5.5-12.9-5.5-18.5l-1.9-175.7 177.6 103.5zm-168.4-312.6 166.5-96.2v192.4zm362.6 0-166.5 96.2v-192.4zm11.1 203.5c0 5.5-3.7 16.6-7.4 18.5l-25.9 14.8v-77.7c0-7.4-3.7-14.8-9.2-16.6-5.5-3.7-16.6-1.8-22.2 1.8l-51.8 27.7c-11.1 5.5-16.6 14.8-16.6 27.7v88.8l-46.3 26v-183.2l177.6-103.6c1.8 3.8 1.8 175.8 1.8 175.8z"/></svg>
