<svg width="28" height="29" viewBox="0 0 28 29" fill="none" xmlns="http://www.w3.org/2000/svg">
<mask id="mask0_49:4812" style="mask-type:alpha" maskUnits="userSpaceOnUse" x="2" y="1" width="25" height="28">
<path d="M13.4962 2.45162C13.8076 2.27 14.1926 2.27 14.504 2.45163L24.504 8.28496C24.8112 8.46417 25.0001 8.79307 25.0001 9.14874V20.8513C25.0001 21.2069 24.8112 21.5358 24.504 21.715L14.504 27.5484C14.1926 27.73 13.8076 27.73 13.4962 27.5484L12.9923 28.4122L13.4962 27.5484L3.49613 21.715C3.18891 21.5358 3 21.2069 3 20.8513V9.14874C3 8.79308 3.18891 8.46417 3.49613 8.28497L2.99226 7.42118L3.49613 8.28496L13.4962 2.45162L12.9923 1.58784L13.4962 2.45162Z" fill="#B2CA06" stroke="#93A70A" stroke-width="2"/>
</mask>
<g mask="url(#mask0_49:4812)">
<path d="M13.4962 2.45162C13.8076 2.27 14.1926 2.27 14.504 2.45163L24.504 8.28496C24.8112 8.46417 25.0001 8.79307 25.0001 9.14874V20.8513C25.0001 21.2069 24.8112 21.5358 24.504 21.715L14.504 27.5484C14.1926 27.73 13.8076 27.73 13.4962 27.5484L12.9923 28.4122L13.4962 27.5484L3.49613 21.715C3.18891 21.5358 3 21.2069 3 20.8513V9.14874C3 8.79308 3.18891 8.46417 3.49613 8.28497L2.99226 7.42118L3.49613 8.28496L13.4962 2.45162L12.9923 1.58784L13.4962 2.45162Z" fill="#B2CA06" stroke="#93A70A" stroke-width="2"/>
<path d="M4 9L14 15M14 15L24 9M14 15V28" stroke="#93A70A" stroke-width="2"/>
<path d="M8 27V12.5352C8 12.2008 8.1671 11.8886 8.4453 11.7031L14 8L19.5547 11.7031C19.8329 11.8886 20 12.2008 20 12.5352V27" stroke="#0090A1" stroke-width="3"/>
</g>
<path fill-rule="evenodd" clip-rule="evenodd" d="M4 4.00008C4 6.00008 7.23677 6.18383 7.91565 6.25926C9.93303 6.48341 11.9724 6.49609 14 6.50008C16.6161 6.50008 18.6487 6.41878 20.0844 6.25926C20.7632 6.18383 24 5.85649 24 4.00008C24 3.00008 25 5.0001 25 6.00008C25 7.00006 25 8.00008 25 8.00008C23.9238 9.0763 19.6512 9.48185 14 9.49774C14 9.49774 18.4221 9.52844 13.173 9.49774C7.92388 9.46705 4.10954 8.99017 3 8.00008C3 7.33341 3 6.66675 3 6.00008C3 5.00008 4 3.00008 4 4.00008Z" fill="#007381"/>
<path fill-rule="evenodd" clip-rule="evenodd" d="M22 0.5C24.1088 0.5 24.8396 2.09151 25 4V8C25 7 23 4 22 4C21 4 21 4 19.795 4.522C19 5 17.337 6.20996 15.7231 7.52379L14.9603 8.15233L14 8.95256L13.0397 8.15233C11.0877 6.52563 9 5 8.205 4.522C7 4 7 4 6 4C5 4 3 7 3 8V4C3.21657 2.14896 4.10535 0.5 6 0.5C7.5809 0.5 9.88138 1.79885 13.2305 4.44196L14 5.057L14.0856 4.98852C17.6959 2.06904 20.1608 0.590972 21.8444 0.504073L22 0.5Z" fill="#0090A1"/>
</svg>
