<svg id="Layer_1" data-name="Layer 1" xmlns="http://www.w3.org/2000/svg" width="24" height="24" viewBox="0 0 24 24"><path id="_24x24-a" data-name="24x24-a" d="M16.0015,16.25l4.0207,3.0157C18.6227,22.4092,15.7946,24,12.0015,24S5.38,22.4092,3.9808,19.2657L4.6015,18.8l3.4-2.55,4,3Zm0-6,3.4,2.55,1.597,1.42v.12a14.8214,14.8214,0,0,1-.3224,2.9031l-.0745-.043-4.6-3.45-4,3-4-3-4.6,3.45-.0745.043A15.1421,15.1421,0,0,1,3.0015,14l.001-.087L4.6015,12.8l3.4-2.55,4,3Zm-4-10.25c4.8021,0,8.0577,5.574,8.8255,11.3854L20.6015,11.2l-4.6-3.45-4,3-4-3-4.6,3.45-.2194.1395C3.961,5.5446,7.212,0,12.0015,0Z" fill="#393939"/></svg>