<svg id="Layer_1" data-name="Layer 1" xmlns="http://www.w3.org/2000/svg" width="24" height="24" viewBox="0 0 24 24"><path id="_24x24-a" data-name="24x24-a" d="M12,0c5.5228,0,9,7.3726,9,14s-3.4772,10-9,10S3,20.6274,3,14,6.4772,0,12,0Zm4,16.25-4,3-4-3L5.6259,18.03C6.6212,20.6917,8.7865,22,12,22s5.3788-1.3083,6.3741-3.97Zm0-6-4,3-4-3L5.0644,12.4521C5.022,12.9612,5,13.4781,5,14a14.694,14.694,0,0,0,.1174,1.9121L8,13.75l4,3,4-3,2.8826,2.1621A14.694,14.694,0,0,0,19,14c0-.5223-.022-1.04-.0645-1.5489ZM12,2C9.1758,2,6.6022,5.2464,5.5288,9.6029L8,7.75l4,3,4-3,2.4712,1.8529C17.3978,5.2464,14.8242,2,12,2Z" fill="#393939"/></svg>