<svg id="Layer_1" data-name="Layer 1" xmlns="http://www.w3.org/2000/svg" width="24" height="24" viewBox="0 0 24 24"><rect width="24" height="24" fill="none"/><path id="_24x24-a" data-name="24x24-a" d="M21.1924,2.8076a1,1,0,0,1,0,1.4142l-2.234,2.2338A22.43,22.43,0,0,1,24,12q-5.3726,8-12,8a10.9065,10.9065,0,0,1-5.2346-1.3508L4.2218,21.1924a1,1,0,0,1-1.4142-1.4142l2.234-2.2338A22.43,22.43,0,0,1,0,12Q5.3726,4,12,4a10.9065,10.9065,0,0,1,5.2346,1.3508l2.5436-2.5432A1,1,0,0,1,21.1924,2.8076ZM17.5276,7.8857,16.1715,9.2425a5.0008,5.0008,0,0,1-6.9289,6.9291l-.9859.9871A8.8234,8.8234,0,0,0,12,18c3.3716,0,6.5445-1.9346,9.5542-6A18.4407,18.4407,0,0,0,17.5276,7.8857ZM12,6C8.6284,6,5.4555,7.9346,2.4458,12a18.4407,18.4407,0,0,0,4.0266,4.1143l1.356-1.3569a5.0008,5.0008,0,0,1,6.929-6.929l.9859-.9871A8.8234,8.8234,0,0,0,12,6Zm2.708,4.7073-4.0017,4a3.0014,3.0014,0,0,0,4.0017-4ZM12,9a3.0013,3.0013,0,0,0-2.7076,4.2935l4-4.0015A2.988,2.988,0,0,0,12,9Z" fill="#393939"/></svg>