<svg id="Layer_1" data-name="Layer 1" xmlns="http://www.w3.org/2000/svg" width="24" height="24" viewBox="0 0 24 24"><rect width="24" height="24" fill="none"/><path id="_24x24-a" data-name="24x24-a" d="M12,22A10,10,0,1,0,2,12,10,10,0,0,0,12,22ZM12,0A12,12,0,1,1,0,12,12,12,0,0,1,12,0Zm1,10H10a1,1,0,0,0-1,1H9v1a1,1,0,0,0,1,1,1,1,0,0,1,1,1h0v1a1,1,0,0,1-1,1,1,1,0,0,0-1,1H9v1a1,1,0,0,0,1,1h5a1,1,0,0,0,1-1h0V17a1,1,0,0,0-1-1,1,1,0,0,1-1-1h0V11a1,1,0,0,0-1-1ZM12,5a2,2,0,1,0,2,2A2,2,0,0,0,12,5Z" fill="#393939"/></svg>