<svg id="Layer_1" data-name="Layer 1" xmlns="http://www.w3.org/2000/svg" width="24" height="24" viewBox="0 0 24 24"><rect width="24" height="24" fill="none"/><path id="_24x24-a" data-name="24x24-a" d="M20,3a4,4,0,0,1,4,4V18a4,4,0,0,1-4,4H4a4,4,0,0,1-4-4V7A4,4,0,0,1,4,3ZM14.9514,13.4619,13.4142,15a2,2,0,0,1-2.7012.1168L10.5858,15,9.0484,13.4629,3.4072,19.9107A2.001,2.001,0,0,0,4,20H20a2.001,2.001,0,0,0,.5928-.0893ZM2,7V18a2.0108,2.0108,0,0,0,.046.4286l5.5854-6.3827L2.0675,6.483A2.0029,2.0029,0,0,0,2,7Zm19.9325-.517-5.5641,5.5619,5.5856,6.3837A2.0108,2.0108,0,0,0,22,18V7A2.0029,2.0029,0,0,0,21.9325,6.483ZM20,5H4a2.0029,2.0029,0,0,0-.517.0675L12,13.5858l8.517-8.5183A2.0029,2.0029,0,0,0,20,5Z" fill="#393939"/></svg>