<svg id="Layer_1" data-name="Layer 1" xmlns="http://www.w3.org/2000/svg" width="24" height="24" viewBox="0 0 24 24"><path id="_24x24-a" data-name="24x24-a" d="M7.0126.8222l3.7446,3.7447a2.5968,2.5968,0,0,1,0,3.6726L9.1682,9.8284A14.6163,14.6163,0,0,0,11.3813,12.68a14.6163,14.6163,0,0,0,2.8519,2.2131l1.589-1.589a2.5967,2.5967,0,0,1,3.6725,0l3.7447,3.7447a2.5968,2.5968,0,0,1,0,3.6726l-1.8037,1.8037a5.2448,5.2448,0,0,1-6.5264.7149A45.8914,45.8914,0,0,1,7.0846,16.977,45.8914,45.8914,0,0,1,.8213,9.1523a5.2448,5.2448,0,0,1,.7149-6.5264L3.34.8222A2.597,2.597,0,0,1,7.0126.8222ZM5.5983,2.2364a.5971.5971,0,0,0-.7615-.069l-.0826.069L2.9505,4.04a3.2449,3.2449,0,0,0-.4424,4.0377,43.9026,43.9026,0,0,0,5.9907,7.485,43.9026,43.9026,0,0,0,7.485,5.9907,3.2449,3.2449,0,0,0,3.894-.3071l.1437-.1352,1.8037-1.8038a.5972.5972,0,0,0,.0691-.7615l-.0691-.0826-3.7447-3.7447a.5972.5972,0,0,0-.7615-.0691l-.0826.0691L14.5451,17.41l-1.3381-.8a16.6176,16.6176,0,0,1-3.24-2.5156,16.5117,16.5117,0,0,1-2.241-2.7957l-.2746-.4442-.8-1.3381L9.343,6.8252a.5972.5972,0,0,0,.0691-.7615L9.343,5.9811Z" fill="#393939"/></svg>