<svg id="Layer_1" data-name="Layer 1" xmlns="http://www.w3.org/2000/svg" width="24" height="24" viewBox="0 0 24 24"><rect width="24" height="24" fill="none"/><path id="_24x24-a" data-name="24x24-a" d="M12,0A12,12,0,1,0,24,12,12.0134,12.0134,0,0,0,12,0Zm4.3612,6.6633a2.0055,2.0055,0,1,1-2.0055,2.0055,2.0055,2.0055,0,0,1,2.0055-2.0055Zm-8.7234,0A2.0055,2.0055,0,1,1,5.6323,8.6688,2.0055,2.0055,0,0,1,7.6378,6.6633Zm11.2429,9.5305a7.7969,7.7969,0,0,1-13.72,0A.7726.7726,0,0,1,6.52,15.4589a6.2518,6.2518,0,0,0,11.0013,0,.7726.7726,0,0,1,1.3592.7349Z" fill="#393939"/></svg>