<svg id="Layer_1" data-name="Layer 1" xmlns="http://www.w3.org/2000/svg" width="24" height="24" viewBox="0 0 24 24"><rect width="24" height="24" fill="none"/><path id="_24x24-a" data-name="24x24-a" d="M6.8,9.2287,9.3236,7.3361A3,3,0,0,0,10.4081,5.76l1.2312-4.3091A2,2,0,0,1,14.7624.4005l.0763.0648A5.5857,5.5857,0,0,1,16.5,2.89a5.1106,5.1106,0,0,1,.1306,2.9166L16,8.3287h4.84a3,3,0,0,1,3,3q0,.1152-.0088.23L23.21,19.6355a4,4,0,0,1-3.9882,3.6932H14.2843a5.0085,5.0085,0,0,1-.7071-.05l-5.86-.8372A2,2,0,0,1,6,20.4614V10.8287A2,2,0,0,1,6.8,9.2287Zm-5.8-.9H3a1,1,0,0,1,1,1v13a1,1,0,0,1-1,1H1a1,1,0,0,1-1-1v-13A1,1,0,0,1,1,8.3287Z" fill="#393939" fill-rule="evenodd"/></svg>