<svg id="Layer_1" data-name="Layer 1" xmlns="http://www.w3.org/2000/svg" width="16" height="16" viewBox="0 0 16 16"><path id="_16x16-a" data-name="16x16-a" d="M9.9848.2481a7.9562,7.9562,0,0,1,2.1924.9277,2.001,2.001,0,0,0,2.647,2.647,7.9562,7.9562,0,0,1,.9277,2.1924,2,2,0,0,0,0,3.97,7.9562,7.9562,0,0,1-.9277,2.1924,2.001,2.001,0,0,0-2.647,2.647,7.9562,7.9562,0,0,1-2.1924.9277,2,2,0,0,0-3.97,0,7.9562,7.9562,0,0,1-2.1924-.9277,2.001,2.001,0,0,0-2.647-2.647A7.9562,7.9562,0,0,1,.2481,9.9848,2,2,0,0,0,2,8,2,2,0,0,0,.2481,6.0152a7.9562,7.9562,0,0,1,.9277-2.1924,2.001,2.001,0,0,0,2.647-2.647A7.9562,7.9562,0,0,1,6.0152.2481,2,2,0,0,0,8,2,2,2,0,0,0,9.9848.2481Zm.24,3.0765a4.001,4.001,0,0,1-4.449,0A4.0111,4.0111,0,0,1,3.3246,5.7755a4.001,4.001,0,0,1,0,4.449,4.0111,4.0111,0,0,1,2.4509,2.4509,4.001,4.001,0,0,1,4.449,0,4.0111,4.0111,0,0,1,2.4509-2.4509,4.001,4.001,0,0,1,0-4.449A4.0111,4.0111,0,0,1,10.2245,3.3246ZM8,5A3,3,0,1,1,5,8,3,3,0,0,1,8,5ZM8,7A1,1,0,1,0,9,8,1,1,0,0,0,8,7Z" fill="#393939"/></svg>