<svg height="30" viewBox="0 0 30 30" width="30" xmlns="http://www.w3.org/2000/svg"><g fill="none"><path d="m0 0h30v30h-30z"/><path d="m14.0518004.2390578c.5919526-.31874373 1.3044466-.31874373 1.8963992 0l11.7406364 6.73059626c.6478197.34882601 1.0518004 1.02517731 1.0518004 1.7609422v12.80541184c0 .7357649-.4039807 1.4121162-1.0518004 1.7609422l-4.9997767 2.8318448-.0000593-6.6614929-2.1593299 1.2442669v6.579974l-4.5814705 2.4669457c-.5919526.3187437-1.3044466.3187437-1.8963992 0l-4.63876493-2.4977965v-6.546344l-2.20003547-1.2550461.0003267 6.6169315-5.02734453-2.7792834c-.64781972-.348826-1.05180035-1.0251773-1.05180035-1.7609422v-12.80541184c0-.73576489.40398063-1.41211619 1.05180035-1.7609422zm-10.91861858 9.3939422.001 11.9030081 2.07881818 1.1912941.0002429-4.9879046c.00000845-.1736435.04523231-.3442923.13122042-.4951503.27349085-.4798137.88416486-.6470714 1.36397857-.3735805l3.69499161 2.1061223c.6242072.3557943 1.009602 1.0190717 1.009602 1.7375592l-.0000355 5.3509539 2.5861818 1.3926978v-11.739zm23.60699998.313-10.741 5.785v11.727l2.5298182-1.3616978.0006701-5.3847331c0-.6604739.3256936-1.2745032.8635603-1.6457764l.1388212-.0876472 3.6581833-2.1053545c.1517384-.0873283.3237445-.1332897.498818-.1332882.5522848.0000049.9999961.447724.9999913 1.0000088l-.0000442 5.0397906 2.0516364-1.2432941zm-10.741-7.38v10.892l9.792-5.272zm-2-.006-9.63499998 5.471 9.63499998 5.396z" fill="currentColor"/></g></svg>
