<svg id="Layer_1" data-name="Layer 1" xmlns="http://www.w3.org/2000/svg" width="20" height="20" viewBox="0 0 20 20"><path id="_20x20-a" data-name="20x20-a" d="M17,1l2.5613,7.6838a1,1,0,0,1-.56,1.2377L19,18a1,1,0,0,1-1,1H8V15a1,1,0,0,0-2,0v4H2a1,1,0,0,1-1-1L.9992,9.9218a1,1,0,0,1-.56-1.238L3,1Zm-.0006,9h-14L3,17H4V14a2,2,0,0,1,2-2H8a2,2,0,0,1,2,2v3h7ZM14,12a1,1,0,0,1,1,1v1a1,1,0,0,1-1,1H13a1,1,0,0,1-1-1V13a1,1,0,0,1,1-1ZM5.8564,2.999,4.4415,3,2.7749,8l2.3675-.001Zm8.286,0,.714,5L17.2251,8,15.5585,3Zm-2,0h-1.143v5h1.857Zm-3.143,0H7.8564l-.714,5h1.857Z" fill="#393939"/></svg>