<svg id="Layer_1" data-name="Layer 1" xmlns="http://www.w3.org/2000/svg" width="20" height="20" viewBox="0 0 20 20"><path id="_20x20-a" data-name="20x20-a" d="M16.5338,13.5359l.3307-.666A9.04,9.04,0,0,0,18,9.5C18,5.9888,14.4838,3,10,3S2,5.9888,2,9.5,5.5162,16,10,16a14.6837,14.6837,0,0,0,3.62-.6954l.5694-.1641,2.9892.91ZM10,1c5.5228,0,10,3.8056,10,8.5a10.497,10.497,0,0,1-1.3442,4.2593L20,19l-5.826-1.7736A16.2673,16.2673,0,0,1,10,18C4.4772,18,0,14.1944,0,9.5S4.4772,1,10,1Zm4,9H8a1,1,0,0,0,0,2h6a1,1,0,0,0,0-2ZM12,7H6A1,1,0,0,0,6,9h6a1,1,0,0,0,0-2Z" fill="#393939"/></svg>