<svg id="Layer_1" data-name="Layer 1" xmlns="http://www.w3.org/2000/svg" width="20" height="20" viewBox="0 0 20 20"><path id="_20x20-a" data-name="20x20-a" d="M12.5087,0a1.9176,1.9176,0,0,1,2.0652,1.9391A2.69,2.69,0,0,1,11.8,4.47a1.8049,1.8049,0,0,1-2.0087-2A2.6243,2.6243,0,0,1,12.5087,0ZM8.3174,20c-1.0652,0-1.8913-.6478-1.1217-3.53l1.2391-5.1174c.2348-.8218.2348-1.1174,0-1.1174a9.3321,9.3321,0,0,0-2.6,1.1174l-.53-.8826C7.9609,8.2913,10.9739,7,12.2739,7c1.0652,0,1.2391,1.2957.7087,3.2348L11.5652,15.587c-.2348.9391-.1174,1.2956.1174,1.2956a5.3332,5.3332,0,0,0,2.4218-1.2348l.5913.8218C12.1565,19,9.3783,20,8.3174,20Z" fill="#393939"/></svg>