<svg id="Layer_1" data-name="Layer 1" xmlns="http://www.w3.org/2000/svg" width="20" height="20" viewBox="0 0 20 20"><path id="_20x20-a" data-name="20x20-a" d="M13,17h4V14l-2-1.5L13,14Zm2.6-6.55,3,2.25a1,1,0,0,1,.4.8V18a1,1,0,0,1-1,1H12a1,1,0,0,1-1-1V13.5a1,1,0,0,1,.4-.8l3-2.25A1,1,0,0,1,15.6,10.45Zm-10,0,3,2.25a1,1,0,0,1,.4.8V18a1,1,0,0,1-1,1H2a1,1,0,0,1-1-1V13.5a1,1,0,0,1,.4-.8l3-2.25A1,1,0,0,1,5.6,10.45ZM5,12.5,3,14v3H7V14ZM10.6.45l3,2.25a1,1,0,0,1,.4.8V8a1,1,0,0,1-1,1H7A1,1,0,0,1,6,8V3.5a1,1,0,0,1,.4-.8L9.4.45A1,1,0,0,1,10.6.45ZM10,2.5,8,4V7h4V4Z" fill="#393939"/></svg>