<svg id="Layer_1" data-name="Layer 1" xmlns="http://www.w3.org/2000/svg" width="20" height="20" viewBox="0 0 20 20"><path id="_20x20-a" data-name="20x20-a" d="M8.07,11.93A14.1808,14.1808,0,0,1,5.9235,9.1652l-.8-1.3381L7.55,5.4007a.1641.1641,0,0,0,0-.2321l-3.12-3.12a.1641.1641,0,0,0-.2321,0L2.6944,3.5512a2.3706,2.3706,0,0,0-.3231,2.95,36.2371,36.2371,0,0,0,4.9468,6.1808,36.2425,36.2425,0,0,0,6.1808,4.9469,2.3708,2.3708,0,0,0,2.95-.3232l1.5031-1.5031a.1643.1643,0,0,0,0-.2321l-3.1206-3.12a.164.164,0,0,0-.232,0l-2.4265,2.4264-1.338-.8A14.1747,14.1747,0,0,1,8.07,11.93Zm1.4142-1.4142A12.1769,12.1769,0,0,0,11.861,12.36l1.3241-1.3241a2.164,2.164,0,0,1,3.06,0l3.1206,3.1205a2.1642,2.1642,0,0,1,0,3.06L17.8631,18.72a4.3707,4.3707,0,0,1-5.4387.5958,38.2454,38.2454,0,0,1-6.52-5.2194A38.2457,38.2457,0,0,1,.6844,7.5756,4.3709,4.3709,0,0,1,1.28,2.1369L2.7833.6338a2.1642,2.1642,0,0,1,3.0605,0L8.9644,3.7544a2.1642,2.1642,0,0,1,0,3.0605L7.64,8.139A12.1807,12.1807,0,0,0,9.4844,10.5156Z" fill="#393939"/></svg>