<svg id="Layer_1" data-name="Layer 1" xmlns="http://www.w3.org/2000/svg" width="20" height="20" viewBox="0 0 20 20"><path id="_20x20-a" data-name="20x20-a" d="M5.6667,8.25,7.77,6.6727A2.5,2.5,0,0,0,8.6735,5.36L9.7,1.7686A1.6666,1.6666,0,0,1,12.302.8931l.0636.054A4.6541,4.6541,0,0,1,13.75,2.9676a4.2577,4.2577,0,0,1,.1088,2.4305L13.3334,7.5h4.0335a2.5,2.5,0,0,1,2.5,2.5q0,.096-.0074.1917l-.5177,6.7306A3.3333,3.3333,0,0,1,16.0183,20H11.9036a4.1646,4.1646,0,0,1-.5893-.0419L6.431,19.2605A1.6667,1.6667,0,0,1,5,17.6106V9.5833A1.6665,1.6665,0,0,1,5.6667,8.25ZM.75,8.5h1.5A.7418.7418,0,0,1,3,9.2333v9.5333a.7419.7419,0,0,1-.75.7334H.75A.7419.7419,0,0,1,0,18.7666V9.2333A.7418.7418,0,0,1,.75,8.5Z" fill="#393939" fill-rule="evenodd"/></svg>