<svg id="Layer_1" data-name="Layer 1" xmlns="http://www.w3.org/2000/svg" width="28" height="28" viewBox="0 0 28 28"><rect width="28" height="28" fill="none"/><path id="_28x28-a" data-name="28x28-a" d="M25,25V3H4A1,1,0,0,0,3,4V24a1,1,0,0,0,1,1ZM27,1V27H4a3,3,0,0,1-3-3V4A3,3,0,0,1,4,1ZM24,3H22V25h2ZM21,3H19V25h2ZM11,5a4,4,0,0,0-3.1217,6.5012c-1.3242,1.5523-2.1863,4.2951-2.6529,8.1371A3,3,0,0,0,8.2035,23h5.593a3,3,0,0,0,2.9781-3.3617c-.4666-3.842-1.3287-6.5848-2.6537-8.1388A3.9982,3.9982,0,0,0,11,5Zm1.4993,7.7076c1.0388,1.0833,1.8354,3.43,2.29,7.1718A1,1,0,0,1,13.7965,21H8.2035a1,1,0,0,1-.9927-1.1206c.4545-3.7419,1.2511-6.0885,2.29-7.1718A3.9528,3.9528,0,0,0,11,13a3.9954,3.9954,0,0,0,1.3363-.2286ZM11,7A2,2,0,1,1,9,9,2,2,0,0,1,11,7Z" fill="#393939"/></svg>