<svg id="Layer_1" data-name="Layer 1" xmlns="http://www.w3.org/2000/svg" width="28" height="28" viewBox="0 0 28 28"><rect width="28" height="28" fill="none"/><path id="_28x28-a" data-name="28x28-a" d="M9.2892,3c4.56,0,8.2571,2.91,8.2571,6.5q0,.2572-.025.51c5.2015.1813,9.3463,3.4656,9.3463,7.49a8.4081,8.4081,0,0,1-.5739,2.5343L28,25.0037l-4.9009-1.5932A16.5906,16.5906,0,0,1,17.0623,25c-5.4153,0-9.8052-3.3579-9.8052-7.5a5.8471,5.8471,0,0,1,.26-1.7248,20.2719,20.2719,0,0,1-2.9278-.93L0,17l1.58-5.1677A7.4775,7.4775,0,0,1,1.0321,9.5C1.0321,5.91,4.7289,3,9.2892,3Zm7.7731,9-.15.0026a8.4386,8.4386,0,0,1-7.2862,3.9921A3.9355,3.9355,0,0,0,9.3213,17.5c0,2.92,3.373,5.5,7.741,5.5a14.8468,14.8468,0,0,0,5.2112-1.4226l.7286-.308,1.7337.5636-.6194-1.8038.2217-.6354A7.05,7.05,0,0,0,24.8033,17.5C24.8033,14.58,21.43,12,17.0623,12ZM9.2892,5C5.7855,5,3.0964,7.1169,3.0964,9.5A6.1541,6.1541,0,0,0,3.5272,11.17l.2213.61-.4418,1.4454,1.2068-.5666.8488.3319A12.1362,12.1362,0,0,0,9.2892,14c3.5037,0,6.1928-2.1169,6.1928-4.5S12.7929,5,9.2892,5Z" fill="#393939" fill-rule="evenodd"/></svg>