<svg width="28" height="28" fill="none" xmlns="http://www.w3.org/2000/svg"><path d="M10 21a4 4 0 01-8 0H1a1 1 0 01-1-1V3a1 1 0 011-1h16a1 1 0 011 1v5h3.438a2 2 0 011.94 1.515L24 12h2a2 2 0 012 2v5a2 2 0 01-1.85 1.994L26 21a4 4 0 01-8 0h-8zm-4-2a2 2 0 100 4 2 2 0 000-4zm16 0a2 2 0 100 4 2 2 0 000-4zm-6-4H2v4h.535l-.012.021.092-.154A3.997 3.997 0 016 17c1.425 0 2.676.745 3.385 1.867l.091.154L9.465 19H16v-4zm5.438-5H18v9h.535l-.012.021.092-.154A3.997 3.997 0 0122 17c1.425 0 2.676.745 3.385 1.867l.091.154-.011-.021H26v-5h-3.562l-1-4zM16 4H2v9h14V4z" fill="#393939"/></svg>
