<svg id="Layer_1" data-name="Layer 1" xmlns="http://www.w3.org/2000/svg" width="28" height="28" viewBox="0 0 28 28"><rect width="28" height="28" fill="none"/><path id="_28x28-a" data-name="28x28-a" d="M23,11A9,9,0,0,0,5,11c0,3.1133,2.97,7.9207,9,14.1537C20.03,18.9207,23,14.1133,23,11ZM14,0A11,11,0,0,1,25,11q0,6.0752-11,17Q3,17.0752,3,11A11,11,0,0,1,14,0Zm.8944,3.3292a2,2,0,0,0-1.7888,0h0l-5,2.5A2,2,0,0,0,7,7.618H7V14a2,2,0,0,0,2,2h2a2,2,0,0,0,2-2h0V11h2v3a2,2,0,0,0,2,2h2a2,2,0,0,0,2-2h0V7.618a2,2,0,0,0-1.1056-1.7888h0ZM14,5.118l5,2.5V14H17V11a2,2,0,0,0-2-2H13a2,2,0,0,0-2,2h0v3H9V7.618Z" fill="#393939"/></svg>