<svg id="Layer_1" data-name="Layer 1" xmlns="http://www.w3.org/2000/svg" width="28" height="28" viewBox="0 0 28 28"><rect width="28" height="28" fill="none"/><path id="_28x28-a" data-name="28x28-a" d="M14,3a5,5,0,0,1,3.7956,8.2549,5.8094,5.8094,0,0,1,.7513.9308c.196.2936.3935.6254.6386,1.0656l.0612.11a7.15,7.15,0,0,1,.8724-1.339,3.4985,3.4985,0,1,1,4.8469.0024,7.5154,7.5154,0,0,1,.9707,1.5278,17.038,17.038,0,0,1,1.07,5.3175c.0035.0648.0035.0648.0042.13a2,2,0,0,1-2,2h0l-3.8558.0014a18.5671,18.5671,0,0,1-.05,2.1778A2,2,0,0,1,19.1134,25H8.9352a2,2,0,0,1-1.9979-1.9091c-.1224-2.6884.2633-6.88,1.1848-8.57.0635-.1165.3923-.7237.4826-.8884.1807-.33.3252-.5844.4668-.8195a7.154,7.154,0,0,1,1.165-1.5237A4.9984,4.9984,0,0,1,14,3Zm2.1869,9.4959-.1467.07a5.0134,5.0134,0,0,1-4.1668-.04,4.2555,4.2555,0,0,0-1.0887,1.3187c-.1253.208-.2574.4409-.4262.7488-.0872.1592-.4147.764-.4806.8848-.7262,1.3315-1.05,5.17-.9427,7.5212H19.1134c.1919-2.1317-.1419-5.964-.9913-7.5211a19.4382,19.4382,0,0,0-1.2386-2.1828A3.28,3.28,0,0,0,16.1869,12.4959ZM23.0423,13h-1c-.1713,0-.5926.4213-1.1056,1.4472a7.1824,7.1824,0,0,0-.4145,1.0272,3.9785,3.9785,0,0,0-.1.42A18.319,18.319,0,0,1,21.0133,19l3.9976,0a15.4027,15.4027,0,0,0-.863-4.5528C23.6349,13.4213,23.2136,13,23.0423,13ZM5,7v3H8v2H5v3H3V12H0V10H3V7ZM22.5423,8a1.5,1.5,0,1,0,1.5,1.5A1.5,1.5,0,0,0,22.5423,8ZM14,5a3,3,0,1,0,3,3A3,3,0,0,0,14,5Z" fill="#393939"/></svg>