<svg id="Layer_1" data-name="Layer 1" xmlns="http://www.w3.org/2000/svg" width="28" height="28" viewBox="0 0 28 28"><rect width="28" height="28" fill="none"/><path id="_28x28-a" data-name="28x28-a" d="M4,5A2,2,0,0,0,2,7V21a2,2,0,0,0,2,2H24a2,2,0,0,0,2-2V7a2,2,0,0,0-2-2ZM24,3a4,4,0,0,1,4,4V21a4,4,0,0,1-4,4H4a4,4,0,0,1-4-4V7A4,4,0,0,1,4,3Zm0,14H12v4H24ZM11,17H4v4h7Zm11-5H19v4h3Zm-4,0H15v4h3Zm-4,0H11v4h3Zm-4,0H7v4h3ZM24,7H21v4h3ZM20,7H17v4h3ZM16,7H13v4h3ZM12,7H9v4h3ZM8,7H5v4H8Z" fill="#393939"/></svg>