<svg id="Layer_1" data-name="Layer 1" xmlns="http://www.w3.org/2000/svg" width="28" height="28" viewBox="0 0 28 28"><rect width="28" height="28" fill="none"/><path id="_28x28-a" data-name="28x28-a" d="M10.6569,10.1716a4,4,0,0,1,5.6568,0h0l.8076.8076a1,1,0,0,1-1.4142,1.4142h0L14.9,11.5858a2,2,0,0,0-2.8284,0h0L3.5858,20.0711a2,2,0,0,0,0,2.8284h0L5,24.3137a2,2,0,0,0,2.8284,0h0l4.0356-4.0355a1,1,0,1,1,1.4142,1.4142h0L9.2426,25.7279a4,4,0,0,1-5.6568,0h0L2.1716,24.3137a4,4,0,0,1,0-5.6568h0Zm13.6568-8,1.4142,1.4142a4,4,0,0,1,0,5.6568l-8.4853,8.4853a4,4,0,0,1-5.6568,0l-.6924-.6924a1,1,0,1,1,1.4142-1.4142L13,16.3137a2,2,0,0,0,2.8284,0l8.4853-8.4853a2,2,0,0,0,0-2.8284L22.9,3.5858a2,2,0,0,0-2.8284,0L16.0355,7.6213a1,1,0,1,1-1.4142-1.4142l4.0356-4.0355A4,4,0,0,1,24.3137,2.1716Z" fill="#393939"/></svg>