<svg width="28" height="28" viewBox="0 0 28 28" fill="none" xmlns="http://www.w3.org/2000/svg">
<path fill-rule="evenodd" clip-rule="evenodd" d="M1.40307 1.27627C1.65668 1.08757 1.98457 1.0299 2.28735 1.12073L10.5359 3.59531L17.0774 1.14223C17.2822 1.06545 17.5065 1.0579 17.7159 1.12073L26.2873 3.69216C26.7103 3.81906 27 4.20838 27 4.64999V25.2214C27 25.5375 26.8505 25.835 26.5969 26.0237C26.3433 26.2124 26.0154 26.2701 25.7127 26.1792L17.4641 23.7047L10.9226 26.1578C10.7178 26.2345 10.4935 26.2421 10.2841 26.1792L1.71265 23.6078C1.28967 23.4809 1 23.0916 1 22.65V2.07856C1 1.76245 1.14946 1.46496 1.40307 1.27627ZM3 3.42259V21.906L8.57141 23.5774V5.09401L3 3.42259ZM10.5714 5.64999V24.1534L17.0774 21.7137C17.099 21.7056 17.1208 21.6982 17.1428 21.6917V3.25372L10.9226 5.58632C10.8095 5.6287 10.6906 5.64999 10.5714 5.64999ZM25 23.8774L19.1428 22.1202V3.63687L25 5.39402V23.8774Z" fill="#393939"/>
</svg>
