<svg id="Layer_1" data-name="Layer 1" xmlns="http://www.w3.org/2000/svg" width="28" height="28" viewBox="0 0 28 28"><rect width="28" height="28" fill="none"/><path id="_28x28-a" data-name="28x28-a" d="M25,2l1.8414,6.138A3,3,0,0,1,24,12V11.999L23.9991,15H25a1,1,0,0,1,1,1v7a1,1,0,0,1-1,1H23.9991L24,25a1,1,0,0,1-2,0l-.0009-1h-16L6,25a1,1,0,0,1-2,0l-.0009-1H3a1,1,0,0,1-1-1V16a1,1,0,0,1,1-1h.9991V11.999l-.1433-.0041A3,3,0,0,1,1.1586,8.138L3,2ZM24,17H4v5H24Zm-2-5H6l-.0009,3h16ZM7.8741,3.999,4.4881,4,3.0743,8.7127A1,1,0,0,0,4.0321,10h3.092ZM23.5119,4l-3.3878-.001.75,6.001h3.0938a1,1,0,0,0,.9578-1.2873Zm-5.3878-.001h-3.125V10h3.875Zm-5.125,0H9.8741L9.1241,10h3.875Z" fill="#393939" fill-rule="evenodd"/></svg>