<svg id="Layer_1" data-name="Layer 1" xmlns="http://www.w3.org/2000/svg" width="28" height="28" viewBox="0 0 28 28"><rect width="28" height="28" fill="none"/><path id="_28x28-a" data-name="28x28-a" d="M15.4146.68,24.864,6.1351a2.8,2.8,0,0,1,1.4,2.4249V19.4712a2.8,2.8,0,0,1-1.4,2.4249l-3.3827,1.9661.0015-1.7842-.0015,0V18.464l-2.8,1.68v4.2453l.0015.0026-.001,1.0735-3.2671,1.8863a2.8,2.8,0,0,1-2.8,0L9.35,25.467v-.03l-.0023,0V20.144l-2.8-1.68v3.23l.0014.0008-.0024,2.1678L3.1652,21.8961a2.8,2.8,0,0,1-1.4-2.4249V8.56a2.8,2.8,0,0,1,1.4-2.4249L12.6146.68A2.8,2.8,0,0,1,15.4146.68ZM3.6319,9.9728v9.4984a.9334.9334,0,0,0,.4667.8083l.5827.3364V18.464a1.8666,1.8666,0,0,1,2.827-1.6006l2.8,1.68a1.8664,1.8664,0,0,1,.9063,1.6006l0,4.2433,1.867,1.078v-9.98Zm20.7654,0L14.9479,15.485l-.0007,9.98,1.867-1.078,0-4.2433a1.8664,1.8664,0,0,1,.9063-1.6006l2.8-1.68a1.8666,1.8666,0,0,1,2.827,1.6006v2.1519l.5828-.3364a.9333.9333,0,0,0,.4666-.8083Zm-.23-2.0267a.9316.9316,0,0,0-.2364-.1944L14.9479,2.5655V13.3239l9.2192-5.3778Zm-20.305,0,9.2192,5.3778V2.5655L4.0986,7.7517a.93.93,0,0,0-.2365.1944Z" fill="#393939"/></svg>