<svg id="Layer_1" data-name="Layer 1" xmlns="http://www.w3.org/2000/svg" width="28" height="28" viewBox="0 0 28 28"><rect width="28" height="28" fill="none"/><path id="_28x28-a" data-name="28x28-a" d="M14,26A12,12,0,1,0,2,14,12,12,0,0,0,14,26ZM14,0A14,14,0,1,1,0,14,14,14,0,0,1,14,0ZM9.6,12.45a1,1,0,0,0-1.2,0h0l-3,2.25a1,1,0,0,0-.4.8H5V20a1,1,0,0,0,1,1h6a1,1,0,0,0,1-1h0V15.5a1,1,0,0,0-.4-.8h0Zm10,0a1,1,0,0,0-1.2,0h0l-3,2.25a1,1,0,0,0-.4.8h0V20a1,1,0,0,0,1,1h6a1,1,0,0,0,1-1h0V15.5a1,1,0,0,0-.4-.8h0ZM9,14.5,11,16v3H7V16Zm10,0L21,16v3H17V16ZM14.6,3.45a1,1,0,0,0-1.2,0h0l-3,2.25a1,1,0,0,0-.4.8h0V11a1,1,0,0,0,1,1h6a1,1,0,0,0,1-1h0V6.5a1,1,0,0,0-.4-.8h0ZM14,5.5,16,7v3H12V7Z" fill="#393939"/></svg>