<svg id="Layer_1" data-name="Layer 1" xmlns="http://www.w3.org/2000/svg" width="28" height="28" viewBox="0 0 28 28"><rect width="28" height="28" fill="none"/><path id="_28x28-a" data-name="28x28-a" d="M2,5V23H26V5ZM26,3a2,2,0,0,1,2,2V23a2,2,0,0,1-2,2H2a2,2,0,0,1-2-2V5A2,2,0,0,1,2,3ZM14,7a5,5,0,0,0-5,5q0,.1216.0058.242l.004.0736q.0048.0767.0118.152.0051.0554.0114.11c.0051.0446.0109.09.0173.1345l.0121.08c.0076.0481.016.0962.0251.144q.01.0526.0211.1055c.0084.0393.0171.0779.0262.1164q.0484.2046.1134.402.0213.0651.0445.13l.0218.0594q.07.1878.1548.3685l.0345.0723q.0837.1715.18.3364c.0226.0385.046.0772.07.1156q.1041.1668.22.324l.037.05q.0393.0519.08.1029l.04.05h0l.0346.0416q.0343.0411.07.0813l.0518.0582C8.2955,17.0184,7,19,6,23H8.4752C9.34,19.5956,10.53,17.5159,12,16.5826A5.008,5.008,0,0,0,16,16.5837c1.4693.9322,2.66,3.0119,3.5243,6.4163H22c-1-4-2.2955-5.9816-4.2877-7.65l.0518-.0582q.0351-.04.07-.0813.0381-.0455.0752-.0918.0406-.0508.08-.1029l.0367-.0492q.1163-.1575.22-.3239.0363-.058.07-.1164.096-.1638.18-.3364l.0341-.0714q.0849-.1812.1551-.3691l.0216-.059q.0232-.0648.0447-.13.0647-.1971.1133-.4016c.0091-.0387.0178-.0773.0261-.1161.0075-.0357.0146-.0709.0213-.1063.009-.0475.0174-.0956.025-.1439l.0121-.08c.0064-.0454.0122-.09.0174-.1356.0041-.0357.0079-.0722.0113-.1087q.007-.0761.0118-.152l.0034-.06h0l.0007-.0151Q19,12.1212,19,12A5,5,0,0,0,14,7Zm0,2a3,3,0,1,1-3,3A3,3,0,0,1,14,9Z" fill="#393939"/></svg>