<svg id="Layer_1" data-name="Layer 1" xmlns="http://www.w3.org/2000/svg" width="28" height="28" viewBox="0 0 28 28"><rect x="0.2057" width="28" height="28" fill="none"/><path id="_28x28-a" data-name="28x28-a" d="M14.0153,0a6,6,0,0,1,4.1113,10.37c2.96,2.129,5.2956,6.76,6.2405,14.0287a3.085,3.085,0,0,1-2.3379,3.54A2.9984,2.9984,0,0,1,21.428,28H6.6026a3,3,0,0,1-3-3,4.6739,4.6739,0,0,1,.0609-.6012c.9449-7.2689,3.2809-11.9,6.2413-14.029A5.9993,5.9993,0,0,1,14.0153,0ZM11.7777,11.5688l-.0485.0243C9.0677,13.0275,6.7107,17.1437,5.6229,24.8a1.4355,1.4355,0,0,0-.02.2,1,1,0,0,0,1,1H21.428a1,1,0,0,0,.2-.02,1.0237,1.0237,0,0,0,.7793-1.18c-1.0945-7.7028-3.4737-11.8224-6.1552-13.2326a6.0086,6.0086,0,0,1-4.4748.0018ZM14.0153,2a4,4,0,1,0,4,4A4,4,0,0,0,14.0153,2Z" fill="#393939"/></svg>