<svg id="Layer_1" data-name="Layer 1" xmlns="http://www.w3.org/2000/svg" width="28" height="28" viewBox="0 0 28 28"><rect width="28" height="28" fill="none"/><path id="_28x28-a" data-name="28x28-a" d="M19.4611,2.088c2.1435.5344,3.2854,3.3569,2.5506,6.3043l-.0192.07a3.5552,3.5552,0,0,1,2.8481-.2358c2.0759.7556,2.9931,3.4717,2.0487,6.0666-.8843,2.43-3.0871,3.8915-5.0681,3.4477a8.3243,8.3243,0,0,1,1.3093,4.1842,3.9585,3.9585,0,0,1-1.5916,3.3234c-1.624,1.2435-5.4084.6766-7.4084.6766s-3,2-6,1-3-4-3-5a8.8534,8.8534,0,0,1,1.8919-5.0523,3.2648,3.2648,0,0,1-1.1818.7508c-2.0759.7555-4.5244-.7355-5.4689-3.33S.3445,8.9817,2.42,8.2261A3.9988,3.9988,0,0,1,6.6762,9.5417a7.2786,7.2786,0,0,1-.35-.881C5.3876,5.7718,6.33,2.8764,8.4309,2.1938S12.9961,3.3,13.9347,6.1885a7.5835,7.5835,0,0,1,.2078.7762c.0284-.1686.0645-.338.1068-.5078C14.9842,3.51,17.3176,1.5535,19.4611,2.088ZM14.1305,14.9246c-3.4763,0-7,3.8224-7,7a4.8275,4.8275,0,0,0,.2477,1.7977A2.0309,2.0309,0,0,0,8.763,25.0272a2.5691,2.5691,0,0,0,2.3956-.2683c.1662-.0794.2557-.122.3484-.1652a5.7822,5.7822,0,0,1,2.6235-.6691c.44,0,.6814.01,1.7845.0671.7554.0389,1.2052.0565,1.6786.0609A5.6321,5.6321,0,0,0,20.323,23.66a1.9711,1.9711,0,0,0,.8075-1.7354C21.1305,18.747,17.6068,14.9246,14.1305,14.9246ZM14.1779,9.65l-.0428.1995a3.683,3.683,0,0,1-2.305,2.806A3.9645,3.9645,0,0,1,7.7284,11.16c.058.1278.1115.2605.1609.3961a5.363,5.363,0,0,1-.3343,4.6568,8.9108,8.9108,0,0,1,6.5755-3.2887,8.26,8.26,0,0,1,4.98,1.7888,5.6316,5.6316,0,0,1,.0125-2.2824,3.256,3.256,0,0,1-2.3234.33A3.8486,3.8486,0,0,1,14.1779,9.65Zm-11.0734.4556c-.9342.34-1.4494,1.8656-.8534,3.5031s1.9713,2.4751,2.9055,2.1351,1.4493-1.8656.8533-3.5032S4.0386,9.7655,3.1045,10.1055Zm18.1466,2.135c-.596,1.6376-.0808,3.1632.8534,3.5032s2.3094-.4975,2.9054-2.1351.0809-3.1631-.8533-3.5031S21.8472,10.603,21.2511,12.2405Zm-5.0612-5.3c-.4948,1.9847.18,3.652,1.0939,3.88s2.2925-.9275,2.7873-2.9122-.18-3.6519-1.0939-3.88S16.6848,4.9561,16.19,6.9407ZM9.049,4.0959c-.8961.2911-1.4527,2.0014-.8206,3.9467s2.0877,3.0018,2.9837,2.7107,1.4526-2.0014.8205-3.9467S9.945,3.8048,9.049,4.0959Z" fill="#393939"/></svg>