<svg id="Layer_1" data-name="Layer 1" xmlns="http://www.w3.org/2000/svg" width="28" height="28" viewBox="0 0 28 28">
  <rect width="28" height="28" fill="none"/>
  <path id="_28x28-a" data-name="28x28-a"
        d="M14,1a7,7,0,0,1,7,7q0,2.2592-2.39,7h4.6695a1,1,0,0,1,.9487.6838l3.3334,10A1,1,0,0,1,26.6126,27H1.3874a1,1,0,0,1-.9487-1.3162l3.3334-10A1,1,0,0,1,4.7208,15H9.39Q7,10.2591,7,8A7,7,0,0,1,14,1ZM10.4436,16.9985,5.4415,17,2.7749,25h22.45l-2.6666-8-5.0021-.0015Q16.09,19.6753,14,23,11.91,19.6752,10.4436,16.9985ZM14,3A5,5,0,0,0,9,8c0,1.7745,1.6711,5.5965,5,11.175C17.3289,13.5965,19,9.7745,19,8A5,5,0,0,0,14,3Zm0,1a4,4,0,1,1-4,4A4,4,0,0,1,14,4Zm0,2a2,2,0,1,0,2,2A2,2,0,0,0,14,6Z"
        fill="#393939" fill-rule="evenodd"/>
</svg>
