<svg id="Layer_1" data-name="Layer 1" xmlns="http://www.w3.org/2000/svg" width="28" height="28" viewBox="0 0 28 28"><rect width="28" height="28" fill="none"/><path id="_28x28-a" data-name="28x28-a" d="M14,3.44a8.1118,8.1118,0,0,1,11.598,0,8.4227,8.4227,0,0,1,0,11.78L14,27,2.402,15.22a8.4227,8.4227,0,0,1,0-11.78A8.1118,8.1118,0,0,1,14,3.44ZM15.0548,7a4.6391,4.6391,0,0,0-3.2495,1.1463,5.19,5.19,0,0,0-1.5713,3.1583H9v1.2345h1.1188l-.0164.521v.2966l.0164.2966H9V14.88h1.2505a5.1193,5.1193,0,0,0,1.6165,3.0621A4.7844,4.7844,0,0,0,15.0878,19a6.02,6.02,0,0,0,2.5091-.489h0V16.8838a6.4278,6.4278,0,0,1-2.41.497A2.8006,2.8006,0,0,1,12.192,14.88h3.2166V13.6533H12.0521l-.0165-.3126V12.9l.0165-.3607h3.8748V11.3046H12.1755a3.5171,3.5171,0,0,1,.9831-2.0361,2.7,2.7,0,0,1,1.8962-.6733,5.3138,5.3138,0,0,1,2.2542.6092h0L18,7.7054A6.0737,6.0737,0,0,0,15.0548,7Z" fill="#393939" fill-rule="evenodd"/></svg>