<svg xmlns="http://www.w3.org/2000/svg" width="22" height="22" viewBox="0 0 22 22">
    <g fill="none" fill-rule="evenodd">
        <g>
            <g transform="translate(-121 -15) translate(122 16)">
                <circle cx="10" cy="10" r="10.5" fill="#008FA0" fill-rule="nonzero" stroke="#FFF"/>
                <path fill="#FFF" fill-rule="nonzero" d="M8.83 15.114l1.589-.146s5.54-3.217 5.789-3.373c.384-.24.811-.64.486-1.154-.356-.56-1.061-.233-1.246-.123-.186.11.72-.436.899-.543.179-.106.826-.583.486-1.154-.34-.57-1.061-.233-1.246-.123-.185.11.113-.068.291-.175.179-.106.826-.583.486-1.154-.34-.57-1.06-.233-1.246-.123-.185.11-1.042.619-.864.512.179-.106.826-.583.486-1.154-.34-.57-1.06-.233-1.246-.123L9.002 8.95c.314-.325.567-.703.747-1.118.165-.642-.415-1.438-.565-1.395L7.266 8.37l-.16 2.769-.473.254 2.198 3.72"/>
                <path fill="#FFF" fill-rule="nonzero" d="M7.216 12.38c1.722-.143 5.541-.51 5.541-.51l2.874-1.673c.364-.2.82-.097 1.063.241.325.517-.104.915-.487 1.156-.251.158-5.787 3.376-5.787 3.376l-1.59.143-1.614-2.733z"/>
                <rect width="2.287" height="5.738" x="5.605" y="10.969" fill="#FFF" fill-rule="nonzero" rx=".161" transform="rotate(-30.558 6.749 13.838)"/>
                <path fill="#008FA0" fill-rule="nonzero" d="M6.597 15.194l1.59-.146s5.54-3.217 5.788-3.373c.384-.24.812-.641.486-1.154-.355-.56-1.06-.233-1.246-.123-.185.11.72-.437.9-.543.178-.106.825-.583.486-1.154-.34-.57-1.062-.233-1.247-.123l.292-.175c.178-.106.825-.583.486-1.154-.34-.57-1.061-.233-1.247-.123l-.863.512c.178-.106.825-.583.486-1.154-.34-.57-1.061-.233-1.246-.123L6.77 9.03c.314-.325.567-.703.746-1.118.166-.642-.414-1.438-.564-1.396L5.033 8.45l-.16 2.769-.473.254 2.198 3.72"/>
                <path fill="#008FA0" fill-rule="nonzero" d="M4.984 12.46c1.722-.143 5.54-.51 5.54-.51l2.875-1.673c.364-.2.82-.097 1.062.241.325.517-.103.915-.487 1.156-.25.158-5.787 3.376-5.787 3.376l-1.589.143-1.614-2.733z"/>
                <rect width="2.288" height="5.738" x="3.373" y="11.05" fill="#008FA0" fill-rule="nonzero" rx=".161" transform="rotate(-30.556 4.517 13.919)"/>
                <rect width="2.288" height="5.738" x="3.373" y="11.05" stroke="#FFF" stroke-linecap="round" stroke-linejoin="round" stroke-width=".75" rx=".161" transform="rotate(-30.556 4.517 13.919)"/>
                <path stroke="#FFF" stroke-linecap="round" stroke-linejoin="round" stroke-width=".75" d="M4.47 11.457l.403-.238.16-2.769 1.919-1.933c.15-.043.73.753.564 1.395-.18.415-.432.793-.746 1.118l.846-.5.534-.32"/>
                <path stroke="#FFF" stroke-linecap="round" stroke-linejoin="round" stroke-width=".75" d="M7.48 8.604l3.781-2.243c.186-.11.907-.447 1.247.123.34.57-.308 1.048-.486 1.154-.179.107-2.29 1.348-2.29 1.348l3.153-1.86c.186-.11.907-.447 1.247.123.34.57-.308 1.048-.486 1.154-.179.107-3.244 1.888-3.244 1.888M10.402 10.3s2.767-1.612 2.952-1.722c.185-.11.907-.448 1.247.123.34.57-.308 1.048-.487 1.154l-2.875 1.694s1.79-1.041 1.976-1.151c.185-.11.89-.438 1.246.123.326.513-.102.913-.486 1.154-.25.156-5.789 3.373-5.789 3.373l-1.589.145M10.426 3.512L10.83 4.56M12.597 3.088L12.616 4.21M14.742 3.561L14.378 4.619M10.426 3.512L10.83 4.56M12.597 3.088L12.616 4.21M14.742 3.561L14.378 4.619"/>
            </g>
        </g>
    </g>
</svg>
