<svg xmlns="http://www.w3.org/2000/svg" width="20" height="20" viewBox="0 0 20 20">
    <g fill="none" fill-rule="evenodd">
        <g>
            <g transform="translate(-122 -16) translate(123 17)">
                <circle cx="9" cy="9" r="9.5" fill="#008FA0" fill-rule="nonzero" stroke="#FFF"/>
                <path fill="#FFF" fill-rule="nonzero" d="M7.947 13.602l1.43-.13s4.986-2.896 5.21-3.036c.345-.216.73-.577.438-1.04-.32-.504-.955-.21-1.122-.11-.167.1.649-.393.81-.488.16-.096.742-.525.437-1.039-.306-.514-.955-.21-1.122-.11-.167.098.102-.062.262-.158.161-.096.744-.525.438-1.039-.306-.513-.955-.21-1.122-.11l-.777.46c.16-.095.743-.525.437-1.038-.305-.514-.955-.21-1.121-.111L8.102 8.055c.282-.292.51-.633.672-1.006.149-.578-.373-1.295-.508-1.256l-1.727 1.74-.144 2.492-.425.228 1.978 3.349"/>
                <path fill="#FFF" fill-rule="nonzero" d="M6.495 11.142c1.55-.128 4.986-.459 4.986-.459l2.587-1.506c.328-.18.738-.087.956.217.293.465-.093.824-.438 1.041-.226.142-5.208 3.038-5.208 3.038l-1.43.129-1.453-2.46z"/>
                <path fill="#FFF" fill-rule="nonzero" d="M5.206 9.872h1.736c.09 0 .161.073.161.162v4.842c0 .089-.072.16-.16.16H5.205c-.09 0-.161-.071-.161-.16v-4.842c0-.09.072-.162.16-.162z" transform="rotate(-30.558 6.074 12.455)"/>
                <path fill="#008FA0" fill-rule="nonzero" d="M5.938 13.674l1.43-.13s4.985-2.896 5.21-3.036c.345-.216.73-.577.437-1.04-.32-.504-.955-.21-1.122-.11-.166.1.65-.393.81-.488.16-.096.743-.526.437-1.039-.305-.513-.955-.21-1.121-.11-.167.099.101-.062.262-.158.16-.096.743-.525.438-1.039-.306-.513-.955-.21-1.122-.11l-.777.46c.16-.095.743-.525.437-1.038-.306-.514-.955-.21-1.122-.111-.166.1-4.042 2.402-4.042 2.402.283-.292.51-.633.672-1.006.148-.578-.373-1.295-.508-1.256L4.53 7.605l-.144 2.492-.426.228 1.978 3.349"/>
                <path fill="#008FA0" fill-rule="nonzero" d="M4.485 11.214c1.55-.128 4.987-.459 4.987-.459l2.587-1.506c.328-.18.738-.087.956.217.293.465-.093.824-.438 1.041-.226.142-5.208 3.038-5.208 3.038l-1.43.128-1.454-2.459z"/>
                <path fill="#008FA0" fill-rule="nonzero" d="M3.197 9.945h1.736c.09 0 .161.072.161.16v4.843c0 .09-.072.161-.16.161H3.196c-.09 0-.162-.072-.162-.16v-4.843c0-.09.073-.161.162-.161z" transform="rotate(-30.556 4.065 12.527)"/>
                <path stroke="#FFF" stroke-linecap="round" stroke-linejoin="round" stroke-width=".75" d="M2.004 10.745L3.5 9.862c.076-.045.175-.02.22.057l2.462 4.17c.045.076.02.175-.057.22l-1.495.883c-.077.045-.175.02-.22-.057l-2.462-4.17c-.046-.076-.02-.175.056-.22zM4.023 10.31l.363-.213.144-2.492 1.727-1.74c.135-.039.657.678.508 1.256-.162.373-.39.714-.672 1.006l.761-.45.48-.288"/>
                <path stroke="#FFF" stroke-linecap="round" stroke-linejoin="round" stroke-width=".75" d="M6.732 7.743l3.403-2.018c.167-.1.816-.403 1.122.11.306.514-.277.944-.437 1.04L8.759 8.086l2.838-1.673c.167-.1.816-.403 1.122.11.305.514-.277.943-.438 1.04-.16.095-2.92 1.698-2.92 1.698M9.362 9.27s2.49-1.45 2.657-1.55c.166-.1.816-.403 1.121.11.306.514-.276.944-.437 1.04l-2.588 1.524s1.612-.937 1.778-1.036c.167-.1.802-.394 1.122.11.293.462-.092.823-.437 1.04-.225.14-5.21 3.035-5.21 3.035l-1.43.131M9.384 3.161L9.747 4.104M11.337 2.78L11.354 3.789M13.268 3.205L12.94 4.157M9.384 3.161L9.747 4.104M11.337 2.78L11.354 3.789M13.268 3.205L12.94 4.157"/>
            </g>
        </g>
    </g>
</svg>
