<svg xmlns="http://www.w3.org/2000/svg" width="24" height="24" viewBox="0 0 24 24">
    <g fill="none" fill-rule="evenodd">
        <g>
            <g>
                <g transform="translate(-411 -3044) translate(360 2993) translate(52.2 52.2)">
                    <circle cx="10.8" cy="10.8" r="11.4" fill="#008FA0" fill-rule="nonzero" stroke="#FFF" stroke-width="1.2"/>
                    <path fill="#FFF" fill-rule="nonzero" d="M9.536 16.323l1.716-.157s5.983-3.475 6.252-3.643c.415-.26.877-.693.525-1.247-.384-.605-1.146-.252-1.346-.133l.972-.586c.193-.114.892-.63.525-1.246s-1.146-.252-1.346-.133c-.2.119.122-.074.314-.189.193-.115.892-.63.525-1.246-.366-.617-1.145-.252-1.346-.133-.2.12-1.125.668-.932.553.193-.115.891-.63.525-1.247-.367-.616-1.146-.252-1.346-.132L9.722 9.666c.34-.35.613-.76.807-1.207.178-.694-.448-1.554-.61-1.507L7.847 9.04l-.173 2.99-.51.274 2.373 4.018"/>
                    <path fill="#FFF" fill-rule="nonzero" d="M7.793 13.37c1.86-.154 5.985-.55 5.985-.55l3.103-1.807c.394-.216.887-.105 1.148.26.351.558-.111.989-.526 1.25-.27.17-6.25 3.645-6.25 3.645l-1.716.154-1.744-2.952z"/>
                    <path fill="#FFF" fill-rule="nonzero" d="M6.247 11.847h2.084c.107 0 .193.086.193.193v5.81c0 .108-.086.194-.193.194H6.247c-.107 0-.193-.086-.193-.193v-5.81c0-.108.086-.194.193-.194z" transform="rotate(-30.558 7.289 14.946)"/>
                    <path fill="#008FA0" fill-rule="nonzero" d="M7.125 16.41l1.716-.158s5.983-3.474 6.252-3.643c.415-.26.877-.692.525-1.246-.384-.606-1.146-.252-1.346-.133-.2.119.779-.472.972-.586.192-.115.891-.63.525-1.247-.367-.616-1.146-.252-1.346-.133-.2.12.121-.074.314-.188.193-.115.892-.63.525-1.247-.366-.616-1.146-.252-1.346-.133-.2.12-1.125.668-.933.553.193-.115.892-.63.525-1.246-.366-.616-1.146-.252-1.346-.133l-4.85 2.882c.339-.35.612-.76.806-1.207.178-.693-.448-1.554-.61-1.507L5.436 9.126l-.173 2.99-.511.274 2.374 4.019"/>
                    <path fill="#008FA0" fill-rule="nonzero" d="M5.383 13.457c1.86-.154 5.984-.551 5.984-.551l3.103-1.807c.394-.216.887-.104 1.148.26.351.559-.111.989-.526 1.25-.27.17-6.25 3.645-6.25 3.645l-1.716.154-1.743-2.951z"/>
                    <path fill="#008FA0" fill-rule="nonzero" d="M3.836 11.934H5.92c.107 0 .193.086.193.193v5.81c0 .108-.086.194-.193.194H3.836c-.107 0-.193-.086-.193-.193v-5.811c0-.107.086-.193.193-.193z" transform="rotate(-30.556 4.878 15.032)"/>
                    <path stroke="#FFF" stroke-linecap="round" stroke-linejoin="round" stroke-width=".9" d="M2.405 12.894l1.795-1.06c.092-.054.21-.023.264.068l2.955 5.004c.054.092.023.21-.069.265l-1.794 1.06c-.092.054-.21.023-.265-.069l-2.954-5.004c-.054-.091-.024-.21.068-.264zM4.828 12.373l.435-.257.173-2.99 2.072-2.088c.162-.047.788.814.61 1.507-.194.448-.467.857-.806 1.207l.913-.54.577-.345"/>
                    <path stroke="#FFF" stroke-linecap="round" stroke-linejoin="round" stroke-width=".9" d="M8.078 9.292l4.084-2.422c.2-.12.98-.483 1.346.133.367.616-.332 1.131-.525 1.246-.192.115-2.473 1.456-2.473 1.456l3.406-2.009c.2-.119.98-.483 1.346.133.367.616-.332 1.132-.525 1.247-.193.114-3.503 2.038-3.503 2.038M11.234 11.124s2.989-1.741 3.189-1.86c.2-.12.979-.483 1.346.133.366.616-.333 1.131-.525 1.246-.193.115-3.106 1.83-3.106 1.83s1.934-1.125 2.134-1.244c.2-.119.962-.472 1.346.133.352.554-.11.987-.525 1.247-.27.168-6.252 3.643-6.252 3.643l-1.716.157M11.261 3.793L11.696 4.925M13.604 3.336L13.625 4.547M15.921 3.846L15.528 4.988M11.261 3.793L11.696 4.925M13.604 3.336L13.625 4.547M15.921 3.846L15.528 4.988"/>
                </g>
            </g>
        </g>
    </g>
</svg>
