<svg xmlns="http://www.w3.org/2000/svg" width="24" height="24" viewBox="0 0 24 24">
    <g fill="none" fill-rule="evenodd">
        <g>
            <g>
                <g>
                    <g transform="translate(-411 -3124) translate(360 2993) translate(0 80) translate(52.2 52.2)">
                        <circle cx="10.8" cy="10.8" r="11.52" fill="#ED9D2D" fill-rule="nonzero" stroke="#FFF" stroke-width="1.44"/>
                        <path fill="#FFF" fill-rule="nonzero" d="M12.193 15.452c.008-.561.1-1.119.277-1.652 1.485-.736 2.424-2.25 2.425-3.907.016-1.105-.408-2.172-1.178-2.965-.77-.792-1.824-1.247-2.93-1.262-1.105.014-2.16.468-2.932 1.26-.771.794-1.196 1.86-1.18 2.967-.013 1.636.918 3.133 2.391 3.845.202.549.307 1.13.31 1.714"/>
                        <path stroke="#FFF" stroke-linecap="round" stroke-linejoin="round" stroke-width="1.08" d="M10.8 2.16L10.8 2.997M6.904 3.203L7.317 3.931M4.03 6.032L4.748 6.461M14.696 3.203L14.283 3.931M17.57 6.032L16.852 6.461M12.443 17.132c.349.426.347 1.04-.003 1.465l-.476.006c-.177.501-.65.837-1.182.837-.531 0-1.005-.336-1.182-.837l-.47-.006c-.353-.425-.352-1.041.003-1.465-.235-.21-.368-.509-.368-.823 0-.314.133-.613.368-.822h3.31c.008-.013.906.607 0 1.645z"/>
                    </g>
                </g>
            </g>
        </g>
    </g>
</svg>
