<svg xmlns="http://www.w3.org/2000/svg" width="20" height="20" viewBox="0 0 20 20">
    <g fill="none" fill-rule="evenodd">
        <g>
            <g transform="translate(-74 -16) translate(75 17)">
                <circle cx="9" cy="9" r="9.5" fill="#ED9D2D" fill-rule="nonzero" stroke="#FFF"/>
                <path fill="#FFF" fill-rule="nonzero" d="M10.161 12.877c.006-.468.084-.933.23-1.377 1.238-.614 2.02-1.875 2.021-3.256.014-.921-.34-1.81-.981-2.47-.642-.661-1.52-1.04-2.441-1.053-.922.012-1.801.39-2.444 1.051-.643.661-.997 1.55-.984 2.472-.01 1.363.766 2.61 1.993 3.204.168.458.256.941.258 1.429"/>
                <path stroke="#FFF" stroke-linecap="round" stroke-linejoin="round" stroke-width=".75" d="M9 1.8L9 2.498M5.753 2.669L6.098 3.276M3.358 5.027L3.957 5.384M12.247 2.669L11.902 3.276M14.642 5.027L14.043 5.384M10.369 14.277c.29.355.29.866-.002 1.22l-.397.005c-.147.418-.542.698-.985.698-.443 0-.838-.28-.985-.698l-.392-.005c-.294-.354-.293-.867.002-1.22-.195-.175-.306-.424-.306-.686 0-.262.111-.511.306-.686h2.759c.007-.01.755.506 0 1.372z"/>
            </g>
        </g>
    </g>
</svg>
