<svg xmlns="http://www.w3.org/2000/svg" width="22" height="22" viewBox="0 0 22 22">
    <g fill="none" fill-rule="evenodd">
        <g>
            <g transform="translate(-73 -15) translate(74 16)">
                <circle cx="10" cy="10" r="10.5" fill="#ED9D2D" fill-rule="nonzero" stroke="#FFF"/>
                <path fill="#FFF" fill-rule="nonzero" d="M11.29 14.308c.007-.52.093-1.036.256-1.53 1.375-.682 2.245-2.084 2.245-3.618.015-1.023-.377-2.01-1.09-2.745-.713-.734-1.689-1.155-2.712-1.17-1.025.014-2.001.434-2.716 1.169-.714.734-1.107 1.722-1.092 2.746-.012 1.515.85 2.9 2.214 3.56.186.509.283 1.046.287 1.588"/>
                <path stroke="#FFF" stroke-linecap="round" stroke-linejoin="round" stroke-width=".75" d="M10 2L10 2.775M6.393 2.965L6.775 3.639M3.731 5.585L4.397 5.983M13.607 2.965L13.225 3.639M16.269 5.585L15.603 5.983M11.521 15.863c.323.395.322.963-.003 1.356l-.44.006c-.164.464-.602.775-1.095.775-.492 0-.93-.311-1.094-.775l-.435-.006c-.327-.393-.326-.964.002-1.356-.217-.194-.34-.471-.34-.762 0-.29.123-.568.34-.762h3.065c.008-.01.839.563 0 1.524z"/>
            </g>
        </g>
    </g>
</svg>
