<svg xmlns="http://www.w3.org/2000/svg" width="24" height="24" viewBox="0 0 24 24">
    <g fill="none" fill-rule="evenodd">
        <g>
            <g>
                <g>
                    <g transform="translate(-411 -3284) translate(360 2993) translate(0 240) translate(52.2 52.2)">
                        <circle cx="10.8" cy="10.8" r="11.52" fill="#EC5F65" fill-rule="nonzero" stroke="#FFF" stroke-width="1.44"/>
                        <ellipse cx="10.71" cy="11.084" fill="#FFF" fill-rule="nonzero" rx="6.072" ry="5.992"/>
                        <path fill="#EC5F65" fill-rule="nonzero" d="M6.331 6.995c-.153-.683.06-1.397.565-1.883.504-.486 1.225-.674 1.903-.496 1.164.55 1.712 1.9 1.262 3.106-.412 1.21-1.075 2.32-1.946 3.256-1.29.006-2.568-.257-3.75-.772-1.321-.736-1.908-1.918-1.479-3.012.336-.617.967-1.016 1.668-1.056.7-.04 1.373.284 1.777.857zM15.269 6.995c.153-.683-.06-1.397-.565-1.883-.504-.486-1.225-.674-1.903-.496-1.164.55-1.712 1.9-1.262 3.106.412 1.21 1.075 2.32 1.946 3.256 1.29.006 2.568-.257 3.75-.772 1.321-.736 1.908-1.918 1.479-3.012-.336-.617-.967-1.016-1.668-1.056-.7-.04-1.373.284-1.777.857zM12.925 12.792c-.34.94-1.217 1.579-2.215 1.615-.999-.036-1.875-.675-2.215-1.614h4.43z"/>
                        <path stroke="#FFF" stroke-linejoin="round" stroke-width="1.08" d="M6.331 6.995c-.153-.683.06-1.397.565-1.883.504-.486 1.225-.674 1.903-.496 1.164.55 1.712 1.9 1.262 3.106-.412 1.21-1.075 2.32-1.946 3.256-1.29.006-2.568-.257-3.75-.772-1.321-.736-1.908-1.918-1.479-3.012.336-.617.967-1.016 1.668-1.056.7-.04 1.373.284 1.777.857zM15.269 6.995c.153-.683-.06-1.397-.565-1.883-.504-.486-1.225-.674-1.903-.496-1.164.55-1.712 1.9-1.262 3.106.412 1.21 1.075 2.32 1.946 3.256 1.29.006 2.568-.257 3.75-.772 1.321-.736 1.908-1.918 1.479-3.012-.336-.617-.967-1.016-1.668-1.056-.7-.04-1.373.284-1.777.857z"/>
                        <path stroke="#FFF" stroke-linecap="round" stroke-linejoin="round" stroke-width="1.08" d="M16.745 10.424c.19 1.707-.364 3.414-1.518 4.686-1.155 1.272-2.8 1.988-4.517 1.965-1.729.023-3.383-.702-4.538-1.988-1.155-1.286-1.698-3.009-1.49-4.725M9.615 5.19c.768-.138 1.554-.13 2.319.024"/>
                    </g>
                </g>
            </g>
        </g>
    </g>
</svg>
