<svg xmlns="http://www.w3.org/2000/svg" width="20" height="20" viewBox="0 0 20 20">
    <g fill="none" fill-rule="evenodd">
        <g>
            <g transform="translate(-170 -16) translate(171 17)">
                <circle cx="9" cy="9" r="9.5" fill="#EC5F65" fill-rule="nonzero" stroke="#FFF"/>
                <ellipse cx="8.925" cy="9.236" fill="#FFF" fill-rule="nonzero" rx="5.06" ry="4.993"/>
                <path fill="#EC5F65" fill-rule="nonzero" d="M5.276 5.83c-.128-.57.05-1.165.47-1.57s1.022-.562 1.586-.414c.97.459 1.428 1.584 1.052 2.589-.343 1.009-.896 1.934-1.622 2.714-1.075.004-2.14-.215-3.125-.644-1.1-.614-1.59-1.598-1.232-2.51.28-.514.806-.847 1.39-.88.584-.034 1.144.236 1.48.715zM12.724 5.83c.128-.57-.05-1.165-.47-1.57s-1.022-.562-1.586-.414c-.97.459-1.428 1.584-1.052 2.589.343 1.009.896 1.934 1.622 2.714 1.075.004 2.14-.215 3.125-.644 1.1-.614 1.59-1.598 1.232-2.51-.28-.514-.806-.847-1.39-.88-.584-.034-1.144.236-1.48.715zM10.77 10.66c-.283.783-1.013 1.316-1.845 1.346-.832-.03-1.563-.563-1.846-1.345h3.692z"/>
                <path stroke="#FFF" stroke-linejoin="round" stroke-width=".75" d="M5.276 5.83c-.128-.57.05-1.165.47-1.57s1.022-.562 1.586-.414c.97.459 1.428 1.584 1.052 2.589-.343 1.009-.896 1.934-1.622 2.714-1.075.004-2.14-.215-3.125-.644-1.1-.614-1.59-1.598-1.232-2.51.28-.514.806-.847 1.39-.88.584-.034 1.144.236 1.48.715zM12.724 5.83c.128-.57-.05-1.165-.47-1.57s-1.022-.562-1.586-.414c-.97.459-1.428 1.584-1.052 2.589.343 1.009.896 1.934 1.622 2.714 1.075.004 2.14-.215 3.125-.644 1.1-.614 1.59-1.598 1.232-2.51-.28-.514-.806-.847-1.39-.88-.584-.034-1.144.236-1.48.715z"/>
                <path stroke="#FFF" stroke-linecap="round" stroke-linejoin="round" stroke-width=".75" d="M13.954 8.686c.158 1.423-.303 2.845-1.265 3.905-.962 1.06-2.333 1.657-3.764 1.638-1.44.019-2.819-.585-3.782-1.657-.962-1.071-1.415-2.507-1.242-3.937M8.013 4.324c.64-.114 1.295-.107 1.932.02"/>
            </g>
        </g>
    </g>
</svg>
