<svg xmlns="http://www.w3.org/2000/svg" width="22" height="22" viewBox="0 0 22 22">
    <g fill="none" fill-rule="evenodd">
        <g>
            <g transform="translate(-169 -15) translate(170 16)">
                <circle cx="10" cy="10" r="10.5" fill="#EC5F65" fill-rule="nonzero" stroke="#FFF"/>
                <ellipse cx="9.916" cy="10.263" fill="#FFF" fill-rule="nonzero" rx="5.622" ry="5.548"/>
                <path fill="#EC5F65" fill-rule="nonzero" d="M5.862 6.477c-.142-.632.056-1.293.523-1.744.467-.45 1.135-.624 1.762-.46 1.078.51 1.586 1.76 1.169 2.877-.381 1.121-.995 2.149-1.802 3.015-1.195.005-2.377-.238-3.473-.715-1.223-.682-1.766-1.776-1.369-2.79.312-.57.895-.94 1.544-.977.65-.037 1.272.263 1.646.794zM14.138 6.477c.142-.632-.056-1.293-.523-1.744-.467-.45-1.135-.624-1.762-.46-1.078.51-1.586 1.76-1.169 2.877.381 1.121.995 2.149 1.802 3.015 1.195.005 2.377-.238 3.473-.715 1.223-.682 1.766-1.776 1.369-2.79-.312-.57-.895-.94-1.544-.977-.65-.037-1.272.263-1.646.794zM11.968 11.845c-.315.87-1.127 1.461-2.052 1.495-.924-.034-1.735-.625-2.05-1.495h4.102z"/>
                <path stroke="#FFF" stroke-linejoin="round" stroke-width=".75" d="M5.862 6.477c-.142-.632.056-1.293.523-1.744.467-.45 1.135-.624 1.762-.46 1.078.51 1.586 1.76 1.169 2.877-.381 1.121-.995 2.149-1.802 3.015-1.195.005-2.377-.238-3.473-.715-1.223-.682-1.766-1.776-1.369-2.79.312-.57.895-.94 1.544-.977.65-.037 1.272.263 1.646.794zM14.138 6.477c.142-.632-.056-1.293-.523-1.744-.467-.45-1.135-.624-1.762-.46-1.078.51-1.586 1.76-1.169 2.877.381 1.121.995 2.149 1.802 3.015 1.195.005 2.377-.238 3.473-.715 1.223-.682 1.766-1.776 1.369-2.79-.312-.57-.895-.94-1.544-.977-.65-.037-1.272.263-1.646.794z"/>
                <path stroke="#FFF" stroke-linecap="round" stroke-linejoin="round" stroke-width=".75" d="M15.505 9.652c.175 1.58-.337 3.16-1.406 4.339-1.069 1.177-2.592 1.84-4.183 1.819-1.6.021-3.132-.65-4.201-1.84-1.07-1.192-1.573-2.786-1.38-4.375M8.903 4.805c.71-.127 1.439-.12 2.147.023"/>
            </g>
        </g>
    </g>
</svg>
