<svg xmlns="http://www.w3.org/2000/svg" width="24" height="24" viewBox="0 0 24 24">
    <g fill="none" fill-rule="evenodd">
        <g>
            <g>
                <g>
                    <g transform="translate(-411 -3204) translate(360 2993) translate(0 160) translate(52.2 52.2)">
                        <circle cx="10.8" cy="10.8" r="11.52" fill="#A9D12C" fill-rule="nonzero" stroke="#FFF" stroke-width="1.44"/>
                        <rect width="3.34" height="8.379" x="4.35" y="8.452" stroke="#FFF" stroke-linecap="round" stroke-linejoin="round" stroke-width="1.08" rx=".174"/>
                        <path fill="#FFF" fill-rule="nonzero" d="M7.69 9.529h.357l2.278-3.302.638-3.24c.432-.435 1.79.324 1.79 1.669-.05 1.175-.188 2.345-.416 3.499h4.027c.595.001 1.077.483 1.079 1.078-.002.596-.484 1.078-1.079 1.08h-.111c.595.001 1.077.483 1.079 1.078-.002.595-.484 1.077-1.08 1.079h-.472c.595.002 1.077.484 1.078 1.079-.001.595-.483 1.077-1.078 1.078h-.445c.595.002 1.077.484 1.079 1.08-.002.594-.484 1.076-1.08 1.078H9.797l-2.106-.997"/>
                    </g>
                </g>
            </g>
        </g>
    </g>
</svg>
