<svg width="16" height="16" viewBox="0 0 16 16" fill="none" xmlns="http://www.w3.org/2000/svg">
    <g clip-path="url(#clip0_3729_11664)">
        <path d="M1 6.99894C0.447715 6.99894 0 7.44666 0 7.99894C0 8.55123 0.447715 8.99894 1 8.99894H12.1666L6.87069 14.2948C6.68419 14.4825 6.57968 14.7364 6.58008 15.001C6.58048 15.2655 6.68575 15.5191 6.87283 15.7062C7.0599 15.8933 7.31351 15.9985 7.57807 15.9989C7.84263 15.9993 8.09655 15.8948 8.28419 15.7083L15.9982 7.99413L8.29819 0.294131C8.20548 0.200858 8.09528 0.126798 7.97389 0.0761959C7.8525 0.0255939 7.72233 -0.000555809 7.59082 -0.000754173C7.45931 -0.000952537 7.32905 0.0248033 7.20751 0.0750381C7.08597 0.125273 6.97554 0.199 6.88255 0.291991C6.78956 0.384983 6.71584 0.495412 6.6656 0.61695C6.61537 0.738488 6.58961 0.868745 6.58981 1.00025C6.59001 1.13176 6.61616 1.26194 6.66676 1.38333C6.71736 1.50471 6.79142 1.61492 6.88469 1.70763L12.1762 6.99894H1Z" fill="#393939"/>
    </g>
    <defs>
        <clipPath id="clip0_3729_11664">
            <rect width="16" height="16" fill="white"/>
        </clipPath>
    </defs>
</svg>
