<svg width="16" height="16" viewBox="0 0 16 16" fill="none" xmlns="http://www.w3.org/2000/svg">
    <path d="M9 1C9 0.447715 8.55229 0 8 0C7.44772 0 7 0.447715 7 1V12.1666L1.70412 6.87069C1.51648 6.68419 1.26255 6.57968 0.997991 6.58008C0.73343 6.58048 0.47982 6.68575 0.292748 6.87283C0.105675 7.0599 0.000402067 7.31351 1.13631e-06 7.57807C-0.000397508 7.84263 0.104109 8.09655 0.290615 8.28419L8.00482 15.9982L15.7048 8.29819C15.7981 8.20548 15.8721 8.09528 15.9227 7.97389C15.9734 7.8525 15.9995 7.72233 15.9997 7.59082C15.9999 7.45931 15.9741 7.32905 15.9239 7.20751C15.8737 7.08597 15.7999 6.97554 15.707 6.88255C15.614 6.78956 15.5035 6.71584 15.382 6.6656C15.2605 6.61537 15.1302 6.58961 14.9987 6.58981C14.8672 6.59001 14.737 6.61616 14.6156 6.66676C14.4942 6.71736 14.384 6.79142 14.2913 6.88469L9 12.1762V1Z" fill="#393939"/>
</svg>
