<svg width="16" height="16" viewBox="0 0 16 16" fill="none" xmlns="http://www.w3.org/2000/svg">
    <g clip-path="url(#clip0_3729_11663)">
        <path d="M14.999 8.99925C15.5512 8.99925 15.999 8.55153 15.999 7.99925C15.999 7.44696 15.5512 6.99925 14.999 6.99925H3.83238L9.12826 1.70336C9.31477 1.51572 9.41928 1.2618 9.41888 0.997235C9.41848 0.732675 9.3132 0.479065 9.12613 0.291993C8.93906 0.10492 8.68545 -0.000353243 8.42089 -0.000754174C8.15633 -0.00115282 7.9024 0.103354 7.71476 0.28986L0.000762939 8.00406L7.70076 15.7041C7.79347 15.7973 7.90368 15.8714 8.02506 15.922C8.14645 15.9726 8.27663 15.9987 8.40814 15.9989C8.53965 15.9991 8.6699 15.9734 8.79144 15.9232C8.91298 15.8729 9.02341 15.7992 9.1164 15.7062C9.20939 15.6132 9.28312 15.5028 9.33335 15.3812C9.38359 15.2597 9.40935 15.1294 9.40915 14.9979C9.40895 14.8664 9.3828 14.7362 9.3322 14.6149C9.2816 14.4935 9.20753 14.3833 9.11426 14.2906L3.82278 8.99925H14.999Z" fill="#393939"/>
    </g>
    <defs>
        <clipPath id="clip0_3729_11663">
            <rect width="16" height="16" fill="white"/>
        </clipPath>
    </defs>
</svg>
