<svg width="16" height="16" viewBox="0 0 16 16" fill="none" xmlns="http://www.w3.org/2000/svg">
    <g clip-path="url(#clip0_3729_11651)">
        <path d="M6.9997 14.9982C6.9997 15.5505 7.44741 15.9982 7.9997 15.9982C8.55198 15.9982 8.9997 15.5505 8.9997 14.9982V3.83161L14.2956 9.1275C14.4832 9.31401 14.7371 9.41851 15.0017 9.41811C15.2663 9.41771 15.5199 9.31244 15.707 9.12537C15.894 8.93829 15.9993 8.68468 15.9997 8.42012C16.0001 8.15556 15.8956 7.90164 15.7091 7.714L7.99489 0L0.294886 7.7C0.201614 7.79271 0.127553 7.90292 0.0769512 8.0243C0.0263493 8.14569 0.000199501 8.27587 1.13713e-06 8.40738C-0.000197227 8.53889 0.0255587 8.66914 0.0757935 8.79068C0.126028 8.91222 0.199755 9.02265 0.292747 9.11564C0.385739 9.20863 0.496167 9.28236 0.617706 9.33259C0.739244 9.38283 0.8695 9.40858 1.00101 9.40838C1.13252 9.40819 1.2627 9.38204 1.38408 9.33143C1.50547 9.28083 1.61568 9.20677 1.70839 9.1135L6.9997 3.82202V14.9982Z" fill="#393939"/>
    </g>
    <defs>
        <clipPath id="clip0_3729_11651">
            <rect width="16" height="16" fill="white"/>
        </clipPath>
    </defs>
</svg>
