<svg width="24" height="24" viewBox="0 0 24 24" fill="none" xmlns="http://www.w3.org/2000/svg">
<path fill-rule="evenodd" clip-rule="evenodd" d="M5.5 2.5C4.39543 2.5 3.5 3.39543 3.5 4.5V7.5C3.5 8.05228 3.94772 8.5 4.5 8.5H19.5C20.0523 8.5 20.5 8.05228 20.5 7.5V4.5C20.5 3.39543 19.6046 2.5 18.5 2.5H5.5ZM19.5 10H4.5C3.94772 10 3.5 10.4477 3.5 11V21.0701C3.5 21.8809 4.41427 22.3546 5.07668 21.887L11.4233 17.4071C11.769 17.163 12.231 17.163 12.5767 17.4071L18.9233 21.887C19.5857 22.3546 20.5 21.8809 20.5 21.0701V11C20.5 10.4477 20.0523 10 19.5 10Z" fill="#201649"/>
</svg>
