<svg height="24" viewBox="0 0 24 24" width="24" xmlns="http://www.w3.org/2000/svg" xmlns:xlink="http://www.w3.org/1999/xlink"><defs><path id="goodhood_checkmark_circle" d="m12 0c6.627 0 12 5.373 12 12s-5.373 12-12 12-12-5.373-12-12 5.373-12 12-12zm0 2c-5.523 0-10 4.477-10 10s4.477 10 10 10 10-4.477 10-10-4.477-10-10-10zm6.614 5.21c.402.314.5.873.246 1.3l-.07.104-7.696 9.894-5.801-5.8c-.39-.391-.39-1.025 0-1.415.36-.36.928-.388 1.32-.083l.094.083 4.199 4.198 6.305-8.105c.339-.436.967-.514 1.403-.175z"/><mask id="goodhood_checkmark_circle_mask" fill="#fff"><use fill="#fff" fill-rule="evenodd" xlink:href="#goodhood_checkmark_circle"/></mask></defs><g fill="none" fill-rule="evenodd"><path d="m0 0h24v24h-24z"/><use fill="#979797" fill-rule="nonzero" xlink:href="#goodhood_checkmark_circle"/><g fill="#393939" mask="url(#goodhood_checkmark_circle_mask)"><path d="m0 0h24v24h-24z"/></g></g></svg>
