<svg width="24" height="24" viewBox="0 0 24 24" fill="none" xmlns="http://www.w3.org/2000/svg">
<g id="comment_bubble">
<path id="Vector" d="M8.95801 13.5H15.958M9.95801 10H16.958M21.958 12C21.958 16.9706 17.9286 21 12.958 21C11.6402 21 10.3885 20.7168 9.26055 20.2078C9.06249 20.1185 8.84248 20.0861 8.6289 20.1261L4.67572 20.8657C4.33024 20.9304 4.02765 20.6278 4.0923 20.2823L4.83195 16.3291C4.87191 16.1155 4.83952 15.8955 4.75016 15.6975C4.24124 14.5695 3.95801 13.3178 3.95801 12C3.95801 7.02944 7.98744 3 12.958 3C17.9286 3 21.958 7.02944 21.958 12Z" stroke="#799189" stroke-width="1.5" stroke-linecap="round"/>
</g>
</svg>
