<svg id="Layer_1" data-name="Layer 1" xmlns="http://www.w3.org/2000/svg" width="24" height="24" viewBox="0 0 24 24"><rect width="24" height="24" fill="none"/><path id="_24x24-a" data-name="24x24-a" d="M20.3819,16.1977l.4432-.7038A7.4461,7.4461,0,0,0,22,11.5C22,6.8694,17.5778,3,12,3S2,6.8694,2,11.5,6.4222,20,12,20a11.3686,11.3686,0,0,0,4.5364-.9258l.6844-.2977,4.047,1.27ZM12,1c6.6274,0,12,4.701,12,10.5a9.447,9.447,0,0,1-1.4825,5.06L24,23l-6.6659-2.0918A13.3666,13.3666,0,0,1,12,22C5.3726,22,0,17.299,0,11.5S5.3726,1,12,1Zm5,12H9a1,1,0,0,0,0,2h8a1,1,0,0,0,0-2ZM15,8H7a1,1,0,0,0,0,2h8a1,1,0,0,0,0-2Z" fill="#393939"/></svg>