<svg id="Layer_1" data-name="Layer 1" xmlns="http://www.w3.org/2000/svg" width="24" height="24" viewBox="0 0 24 24"><rect width="24" height="24" fill="none"/><path id="_24x24-a" data-name="24x24-a" d="M22,16a1,1,0,0,1,1,1v2a1,1,0,0,1-1,1H8a1,1,0,0,1-1-1V17a1,1,0,0,1,1-1ZM4,16a1,1,0,0,1,1,1v2a1,1,0,0,1-1,1H2a1,1,0,0,1-1-1V17a1,1,0,0,1,1-1Zm18-6a1,1,0,0,1,1,1v2a1,1,0,0,1-1,1H8a1,1,0,0,1-1-1V11a1,1,0,0,1,1-1ZM4,10a1,1,0,0,1,1,1v2a1,1,0,0,1-1,1H2a1,1,0,0,1-1-1V11a1,1,0,0,1,1-1ZM22,4a1,1,0,0,1,1,1V7a1,1,0,0,1-1,1H8A1,1,0,0,1,7,7V5A1,1,0,0,1,8,4ZM4,4A1,1,0,0,1,5,5V7A1,1,0,0,1,4,8H2A1,1,0,0,1,1,7V5A1,1,0,0,1,2,4Z" fill="#393939" fill-rule="evenodd"/></svg>