<svg id="Layer_1" data-name="Layer 1" xmlns="http://www.w3.org/2000/svg" width="24" height="24" viewBox="0 0 24 24"><rect width="24" height="24" fill="none"/><path id="_24x24-a" data-name="24x24-a" d="M12,0a7,7,0,0,1,7,7q0,2.5917-3.1458,8H21l3,9H0l3-9H8.1458Q5,9.5917,5,7A7,7,0,0,1,12,0ZM9.3562,17,4.4415,17,2.7749,22h18.45l-1.6666-5-4.9147,0q-1.166,1.86-2.6438,4Q10.5221,18.86,9.3562,17ZM12,2A5,5,0,0,0,7,7c0,1.7514,1.6665,5.3166,5,10.4175C15.3335,12.3166,17,8.7514,17,7A5,5,0,0,0,12,2Zm0,2A3,3,0,1,1,9,7,3,3,0,0,1,12,4Zm0,2a1,1,0,1,0,1,1A1,1,0,0,0,12,6Z" fill="#393939"/></svg>