<svg id="Layer_1" data-name="Layer 1" xmlns="http://www.w3.org/2000/svg" width="24" height="24" viewBox="0 0 24 24"><rect width="24" height="24" fill="none"/><path d="M20.2843,2.7157a5.858,5.858,0,0,1,0,8.2843L16.715,15H21l3,9H0l3-9H7.285L3.7157,11A5.8579,5.8579,0,0,1,12,2.7157,5.858,5.858,0,0,1,20.2843,2.7157ZM9.069,17H4.4415L2.7749,22h18.45l-1.6666-5H14.93L12,20.2843ZM5.13,4.13a3.8581,3.8581,0,0,0,0,5.4559l6.87,7.87,6.87-7.87A3.8579,3.8579,0,0,0,13.4142,4.13L12,5.5442,10.5858,4.13A3.8581,3.8581,0,0,0,5.13,4.13Z" fill="#393939"/></svg>