<svg id="Layer_1" data-name="Layer 1" xmlns="http://www.w3.org/2000/svg" width="24" height="24" viewBox="0 0 24 24"><rect width="24" height="24" fill="none"/><path id="_24x24-a" data-name="24x24-a" d="M19,0a5,5,0,1,1-3.9343,8.086L9.83,10.7036A5.0368,5.0368,0,0,1,9.8319,13.29l5.237,2.62a4.98,4.98,0,1,1-.8978,1.7887L8.9382,15.081a5,5,0,1,1-.0039-6.167L14.17,6.2964A5.0042,5.0042,0,0,1,19,0Zm0,16a3,3,0,1,0,3,3A3,3,0,0,0,19,16ZM5,9a3,3,0,1,0,3,3A3,3,0,0,0,5,9ZM19,2a3,3,0,1,0,3,3A3,3,0,0,0,19,2Z" fill="#393939"/></svg>