<svg width="24" height="24" viewBox="0 0 24 24" fill="none" xmlns="http://www.w3.org/2000/svg">
<g id="share_arrow outline">
<path id="Vector" d="M14.4664 3.34142L20.7714 9.64645C20.9667 9.84171 20.9667 10.1583 20.7714 10.3536L14.4664 16.6586C14.3404 16.7846 14.125 16.6953 14.125 16.5172V13.0604C14.125 12.7618 13.8664 12.5313 13.571 12.5757C12.4939 12.7376 10.0943 13.172 8.625 14C6.32821 15.2944 4.35196 18.6512 3.53095 20.198C3.43063 20.387 3.12474 20.3127 3.12486 20.0987C3.12735 15.6828 3.23681 13.2682 6.125 10.5C8.41696 8.3033 10.4143 7.57092 13.6241 7.50499C13.9002 7.49932 14.125 7.27614 14.125 7L14.125 3.48284C14.125 3.30466 14.3404 3.21543 14.4664 3.34142Z" stroke="#799189" stroke-width="1.5"/>
</g>
</svg>
