<svg id="Layer_1" data-name="Layer 1" xmlns="http://www.w3.org/2000/svg" width="24" height="24" viewBox="0 0 24 24"><path id="_24x24-a" data-name="24x24-a" d="M1.3337,9.9388l-.13-6.6073A2.087,2.087,0,0,1,3.25,1.204q.041-.0006.0819,0l6.6072.13a1.565,1.565,0,0,1,1.0761.4581l11.323,11.323a1.5653,1.5653,0,0,1,0,2.2135l-7.01,7.01a1.5652,1.5652,0,0,1-2.2136,0L1.7918,11.0149A1.5652,1.5652,0,0,1,1.3337,9.9388ZM7.73,7.73a1.8261,1.8261,0,1,0-2.5825,0A1.8261,1.8261,0,0,0,7.73,7.73Z" fill="#393939" fill-rule="evenodd"/></svg>