<svg id="Layer_1" data-name="Layer 1" xmlns="http://www.w3.org/2000/svg" width="24" height="24" viewBox="0 0 24 24"><rect width="24" height="24" fill="none"/><path id="_24x24-a" data-name="24x24-a" d="M8,11.5v9.6327l5.86.8371a2.9962,2.9962,0,0,0,.4243.03h4.9376a2,2,0,0,0,1.9941-1.8466l.6213-8.0767c.002-.0255.0029-.0511.0029-.0767a1,1,0,0,0-1-1H16.3874A2,2,0,0,1,14.49,8.3675l.7706-2.312A2.4685,2.4685,0,0,0,14.4,3.3l-.8376-.6282L12.3312,6.9809a5,5,0,0,1-1.8076,2.6264ZM14.1118.7487a2.001,2.001,0,0,1,.6506.3231L15.6,1.7a4.4686,4.4686,0,0,1,1.5581,4.9879L16.3874,9H20.84a3,3,0,0,1,3,3q0,.1152-.0088.23L23.21,20.3068A4,4,0,0,1,19.2219,24H14.2843a4.9937,4.9937,0,0,1-.7071-.05L7.9885,23.152A1,1,0,0,1,7,24H1a1,1,0,0,1-1-1V9A1,1,0,0,1,1,8H7A1,1,0,0,1,8,9l1.3236-.9927a2.999,2.999,0,0,0,1.0845-1.5758l1.2312-4.3092A2,2,0,0,1,14.1118.7487ZM6,10H2V22H6Z" fill="#393939"/></svg>