<svg width="24" height="24" viewBox="0 0 24 24" fill="none" xmlns="http://www.w3.org/2000/svg">
<g id="thanks_thumb">
<path id="Vector" d="M8.375 10H4.375C3.82272 10 3.375 10.4477 3.375 11V18.5C3.375 19.0523 3.82272 19.5 4.375 19.5H8.375M8.375 10L11.7747 2.71495C11.8359 2.58382 11.9675 2.5 12.1122 2.5V2.5C13.8643 2.5 15.2382 4.00447 15.0796 5.7494L14.8872 7.86585C14.8806 7.93789 14.9374 8 15.0097 8H20.0972C21.3045 8 22.2365 9.06153 22.0804 10.2587L21.1021 17.7587C20.9722 18.7548 20.1235 19.5 19.1189 19.5H8.375M8.375 10V19.5" stroke="#799189" stroke-width="1.5"/>
</g>
</svg>
