<svg viewBox="0 0 500 500" xmlns="http://www.w3.org/2000/svg" fill="currentColor"><path d="m49.7 248.1v1.6c0 12.4-16.5 15.6-16.5 25.6 0 4.6 4.2 8.1 9.7 8.1 3 0 5.6-1.1 7.4-2 2.3-1.2 4.6-1.2 6 1l1.7 2.4c1.6 2.1 1.6 4-.7 5.5-3 2-8.4 4.5-15.5 4.5-11.3 0-21.9-6.8-21.9-18.3 0-15.3 16.2-18 17.4-27.8l.2-1.7c.5-2 1.6-2.8 4-2.8h4c2.8-.1 4.2 1.2 4.2 3.9zm0-16.5c0 2.6-1.5 4.1-4.2 4.1h-4c-2.7 0-4.1-1.5-4.1-4.1v-3.4c0-2.7 1.4-4.1 4.1-4.1h4c2.7 0 4.2 1.4 4.2 4.1zm13 2.9h-2.7c-2.7 0-4.1-1.4-4.1-4.1v-1.7c0-2.6 1.4-4.1 4.2-4.1h2.9v-10.2c0-2.6 1.5-4.1 4.2-4.1h4c2.7 0 4.2 1.5 4.2 4.1v10.2h7.4c2.7 0 4.2 1.5 4.2 4.1v1.7c0 2.7-1.5 4.1-4.1 4.1h-7.5v19.3c0 7.4 4.7 8.9 8.2 9.3 3.1.3 4.2 1.3 4.2 4v3c0 2.9-1.7 4.1-5.2 4.1-9.1 0-19.9-4.8-19.9-18.3zm29-23v-2.9c0-2.6 1.4-4.1 4.1-4.1h4.4c2.7 0 4.2 1.5 4.2 4.1v2.9c0 2.6-1.5 4-4.2 4h-4.4c-2.7 0-4.1-1.4-4.1-4zm0 16.6c0-2.6 1.4-4.1 4.1-4.1h4.4c2.7 0 4.1 1.5 4.1 4.1v41.6c0 2.7-1.4 4.1-4.1 4.1h-4.4c-2.7 0-4.1-1.4-4.1-4.1zm43.7-5.3c14.5 0 22.6 10.1 22.6 23.7 0 2.1-1.9 4.2-4.4 4.2h-31c.8 9 7.6 13.7 15.3 13.7 4.7 0 8.6-1.8 11-3.2 2.5-1.2 4.3-.9 5.6 1.4l1.2 2c1.2 2.2.8 4.2-1.4 5.5-3.3 2-9.3 5-17.3 5-16.9 0-27.4-11.9-27.4-26.1 0-15.5 10.6-26.2 25.8-26.2zm10 20.4c-.2-6.9-4.5-11-10.3-11-6.5 0-11.1 4.4-12.3 11zm18-15.1c0-2.6 1.4-4.1 4.1-4.1h3.9c2.7 0 4.1 1.5 4.1 4.1v3c0 1.1-.2 2.2-.2 2.2h.2c2.2-4.2 7.8-10.5 18.1-10.5 11.3 0 17.8 5.8 17.8 18.9v27.9c0 2.7-1.4 4.1-4.2 4.1h-4.3c-2.7 0-4.2-1.4-4.2-4.1v-25.4c0-6.1-1.6-10.1-8-10.1-9 0-14.7 7.3-14.7 16.3v19.2c0 2.7-1.4 4.1-4.1 4.1h-4.4c-2.7 0-4.1-1.4-4.1-4.1zm78.6-5.3c14.5 0 22.6 10.1 22.6 23.7 0 2.1-1.9 4.2-4.4 4.2h-31c.8 9 7.6 13.7 15.3 13.7 4.7 0 8.6-1.8 11-3.2 2.5-1.2 4.3-.9 5.6 1.4l1.2 2c1.2 2.2.8 4.2-1.4 5.5-3.3 2-9.3 5-17.3 5-16.9 0-27.4-11.9-27.4-26.1-.1-15.5 10.5-26.2 25.8-26.2zm9.9 20.4c-.2-6.9-4.5-11-10.3-11-6.5 0-11.1 4.4-12.3 11zm15.5 21.1 1.2-1.8c1.5-2 3.2-2.2 5.7-1 2.4 1.3 6.2 3.4 11.4 3.4 4.4 0 7.1-2 7.1-5.1 0-8.1-25.3-5.1-25.3-22.2 0-9.8 8.8-14.9 19.5-14.9 6.8 0 11.5 2.1 14.2 3.6 2.3 1.2 2.6 3.2 1.5 5.5l-1 1.8c-1.2 2.3-3.1 2.6-5.6 1.6-2.2-1-5.5-2.4-9.7-2.4-4.4 0-6.9 1.8-6.9 4.9 0 8.2 25.3 5 25.3 22 0 8.8-7.6 15.3-19.4 15.3-8.2 0-13.9-3-17-5.1-2.3-1.3-2.5-3.5-1-5.6zm64.6 0 1.2-1.8c1.5-2 3.2-2.2 5.7-1 2.4 1.3 6.2 3.4 11.4 3.4 4.4 0 7.1-2 7.1-5.1 0-8.1-25.3-5.1-25.3-22.2 0-9.8 8.8-14.9 19.5-14.9 6.8 0 11.5 2.1 14.2 3.6 2.3 1.2 2.6 3.2 1.5 5.5l-1 1.8c-1.2 2.3-3.1 2.6-5.6 1.6-2.2-1-5.5-2.4-9.7-2.4-4.4 0-6.9 1.8-6.9 4.9 0 8.2 25.3 5 25.3 22 0 8.8-7.6 15.3-19.4 15.3-8.2 0-13.9-3-17-5.1-2.3-1.3-2.5-3.5-1-5.6zm68.8-21.3h2.1v-1.2c0-6.5-4.3-8.8-9.5-8.8-4.3 0-8.2 1.6-10.6 2.8-2.5 1.1-4.4.7-5.6-1.7l-1-1.9c-1.2-2.2-.8-4.2 1.6-5.5 3.3-1.7 9.1-4.1 16.7-4.1 13.2 0 21.1 7.2 21.1 19.8v27c0 2.7-1.4 4.1-4.2 4.1h-3.4c-2.7 0-4.1-1.4-4.1-4.1v-2c0-1.4.2-2.1.2-2.1h-.2s-4.8 9.4-16 9.4c-9.3 0-16.9-5.9-16.9-14.9 0-14.4 18.4-16.8 29.8-16.8zm-9.5 22.4c7.1 0 11.7-7 11.7-13.1v-1.9h-2.1c-6.4 0-17.3 1-17.3 8.4 0 3.4 2.6 6.6 7.7 6.6zm31.8-56.9c0-2.6 1.4-4.1 4.1-4.1h4.4c2.7 0 4.1 1.5 4.1 4.1v48.7c0 4.9 2.1 5.8 4 6 1.8.2 3.1 1.3 3.1 3.5v3.3c0 2.5-1.2 4.2-4.2 4.2-6.8 0-15.5-1.8-15.5-16zm27.2 41.2v-1.6c0-12.4 16.5-15.6 16.5-25.6 0-4.6-4.2-8.1-9.7-8.1-3 0-5.6 1.1-7.4 2-2.3 1.2-4.6 1.2-6-1l-1.7-2.4c-1.6-2.1-1.6-4 .7-5.5 3-2 8.4-4.5 15.5-4.5 11.3 0 21.9 6.8 21.9 18.3 0 15.3-16.2 18-17.4 27.8l-.2 1.7c-.5 2-1.6 2.8-4 2.8h-4c-2.8.1-4.2-1.2-4.2-3.9zm0 16.5c0-2.6 1.5-4.1 4.2-4.1h4c2.7 0 4.1 1.5 4.1 4.1v3.4c0 2.7-1.4 4.1-4.1 4.1h-4c-2.7 0-4.2-1.4-4.2-4.1z"/></svg>
