<svg viewBox="0 0 500 500" xmlns="http://www.w3.org/2000/svg" fill="currentColor"><path d="m20.5 240.1c0-2.4 1.3-3.7 3.7-3.7h3.5c2.4 0 3.7 1.3 3.7 3.7v2.7c0 1-.2 2-.2 2h.2c2.3-4.4 7.9-9.5 15.1-9.5 7 0 11.6 3.2 13.5 9.3h.2c2.4-4.7 8.5-9.3 15.7-9.3 9.6 0 15.1 5.3 15.1 17.1v25.3c0 2.5-1.4 3.7-3.8 3.7h-3.9c-2.5 0-3.8-1.2-3.8-3.7v-23.1c0-5.1-1-9-6.3-9-7.8 0-11.7 7.8-11.7 15.6v16.5c0 2.5-1.3 3.7-3.7 3.7h-4c-2.4 0-3.8-1.2-3.8-3.7v-23.1c0-4.9-.7-9-6.1-9-8.1 0-11.9 8.1-11.9 15.6v16.5c0 2.5-1.3 3.7-3.7 3.7h-4c-2.4 0-3.7-1.2-3.7-3.7zm98.3-4.8c13.1 0 20.4 9.1 20.4 21.5 0 1.9-1.7 3.8-4 3.8h-28.1c.7 8.1 6.9 12.4 13.8 12.4 4.2 0 7.8-1.6 9.9-2.9 2.3-1.1 3.9-.8 5.1 1.2l1.1 1.8c1.1 2 .7 3.8-1.3 4.9-3 1.9-8.4 4.5-15.6 4.5-15.3 0-24.7-10.8-24.7-23.6 0-13.9 9.6-23.6 23.4-23.6zm9 18.5c-.2-6.3-4.1-10-9.3-10-5.9 0-10 4-11.1 10zm14 19.1 1.1-1.6c1.4-1.9 2.9-2 5.1-.9s5.6 3.1 10.3 3.1c4 0 6.4-1.8 6.4-4.6 0-7.3-22.8-4.6-22.8-20 0-8.8 7.9-13.5 17.6-13.5 6.1 0 10.4 1.9 12.8 3.3 2.1 1.1 2.3 2.9 1.4 4.9l-.9 1.6c-1.1 2.1-2.8 2.4-5.1 1.4-2-.9-5-2.2-8.8-2.2-4 0-6.2 1.6-6.2 4.4 0 7.4 22.8 4.5 22.8 19.9 0 7.9-6.9 13.9-17.5 13.9-7.4 0-12.6-2.7-15.4-4.6-2-1.3-2.2-3.2-.8-5.1zm34.5-32.3c-.9-2.6.2-4.2 3-4.2h4.2c2.2 0 3.6 1 4.2 3.1l8.6 24.8c.9 2.6 1.7 6.8 1.7 6.8h.2s.7-4.1 1.6-6.8l8.6-24.8c.6-2.1 2.1-3.1 4.2-3.1h4.2c2.8 0 4 1.7 3.1 4.2l-13.9 37.8c-.7 2.1-2.1 3-4.2 3h-7.2c-2.2 0-3.6-.9-4.2-3zm68.2-5.3c14 0 25.4 9.8 25.4 23.6 0 13.9-11.4 23.6-25.4 23.6s-25.3-9.7-25.3-23.6c0-13.8 11.3-23.6 25.3-23.6zm0 37.7c7.5 0 13.7-5.7 13.7-14s-6.2-14-13.7-14-13.6 5.7-13.6 14c-.1 8.3 6.1 14 13.6 14zm30-47.9v-2.6c0-2.4 1.3-3.7 3.7-3.7h4c2.4 0 3.8 1.3 3.8 3.7v2.6c0 2.4-1.4 3.6-3.8 3.6h-4c-2.5 0-3.7-1.2-3.7-3.6zm0 15c0-2.4 1.3-3.7 3.7-3.7h4c2.4 0 3.7 1.3 3.7 3.7v37.6c0 2.5-1.3 3.7-3.7 3.7h-4c-2.4 0-3.7-1.2-3.7-3.7zm16.9 32.8 1.1-1.6c1.4-1.9 2.9-2 5.1-.9s5.6 3.1 10.3 3.1c4 0 6.4-1.8 6.4-4.6 0-7.3-22.8-4.6-22.8-20 0-8.8 7.9-13.5 17.6-13.5 6.1 0 10.4 1.9 12.8 3.3 2.1 1.1 2.3 2.9 1.4 4.9l-.9 1.6c-1.1 2.1-2.8 2.4-5.1 1.4-2-.9-5-2.2-8.8-2.2-4 0-6.2 1.6-6.2 4.4 0 7.4 22.8 4.5 22.8 19.9 0 7.9-6.9 13.9-17.5 13.9-7.4 0-12.6-2.7-15.4-4.6-2-1.3-2.2-3.2-.8-5.1zm38.5-47.8v-2.6c0-2.4 1.3-3.7 3.7-3.7h4c2.4 0 3.8 1.3 3.8 3.7v2.6c0 2.4-1.4 3.6-3.8 3.6h-4c-2.4 0-3.7-1.2-3.7-3.6zm0 15c0-2.4 1.3-3.7 3.7-3.7h4c2.4 0 3.7 1.3 3.7 3.7v37.6c0 2.5-1.3 3.7-3.7 3.7h-4c-2.4 0-3.7-1.2-3.7-3.7zm18.8 0c0-2.4 1.3-3.7 3.7-3.7h3.5c2.4 0 3.7 1.3 3.7 3.7v2.7c0 1-.2 2-.2 2h.2c2-3.8 7-9.5 16.3-9.5 10.2 0 16.1 5.2 16.1 17.1v25.3c0 2.5-1.3 3.7-3.8 3.7h-3.9c-2.4 0-3.8-1.2-3.8-3.7v-23c0-5.5-1.4-9.2-7.2-9.2-8.1 0-13.3 6.6-13.3 14.7v17.4c0 2.5-1.3 3.7-3.7 3.7h-4c-2.4 0-3.7-1.2-3.7-3.7zm48.4 32.8 1.1-1.6c1.4-1.9 2.9-2 5.1-.9s5.6 3.1 10.3 3.1c4 0 6.4-1.8 6.4-4.6 0-7.3-22.8-4.6-22.8-20 0-8.8 7.9-13.5 17.6-13.5 6.1 0 10.4 1.9 12.8 3.3 2.1 1.1 2.3 2.9 1.4 4.9l-.9 1.6c-1.1 2.1-2.8 2.4-5.1 1.4-2-.9-5-2.2-8.8-2.2-4 0-6.2 1.6-6.2 4.4 0 7.4 22.8 4.5 22.8 19.9 0 7.9-6.9 13.9-17.5 13.9-7.4 0-12.6-2.7-15.4-4.6-1.9-1.3-2.1-3.2-.8-5.1zm39.8 2.3c0-1.7.9-2.6 2.7-2.6h2.8c1.7 0 2.7.9 2.7 2.6v2.9c0 1.8-1 2.7-2.7 2.7h-2.8c-1.8 0-2.7-.9-2.7-2.7zm14.4-19.9h-1.6c-1.7 0-2.7-.9-2.7-2.7v-1.1c0-1.7.9-2.7 2.7-2.7h1.6v-1.5c0-10.3 9.3-11.8 12.6-11.8h1c1.7 0 2.7.9 2.7 2.7v1.6c0 1.7-1 2.5-2.8 2.6-2 .1-5.2.6-5.2 5.3v1.2h4.4c1.7 0 2.7 1 2.7 2.7v1.1c0 1.8-.9 2.7-2.7 2.7h-4.4v22.8c0 1.8-1 2.7-2.7 2.7h-2.9c-1.7 0-2.7-.9-2.7-2.7zm19.7-4.2c0-1.7.9-2.7 2.7-2.7h2.5c1.7 0 2.7 1 2.7 2.7v3c0 1.2-.2 2.2-.2 2.2h.1c1.3-3.9 4.9-8.2 9.6-8.2 1.8 0 2.5.9 2.5 2.7v2.5c0 1.7-1 2.7-2.8 2.7-6 0-8.9 5.8-8.9 11.7v10.4c0 1.8-.9 2.7-2.7 2.7h-2.8c-1.7 0-2.7-.9-2.7-2.7z"/></svg>
