<svg viewBox="0 0 500 500" xmlns="http://www.w3.org/2000/svg" fill="currentColor"><path d="m20.3 229.4c-1-2.9.2-4.7 3.3-4.7h4.8c2.4 0 4 1.1 4.8 3.5l9.6 27.8c1 3 1.9 7.6 1.9 7.6h.2s.8-4.6 1.8-7.6l9.6-27.8c.7-2.4 2.3-3.5 4.8-3.5h4.8c3.1 0 4.5 1.9 3.4 4.7l-15.6 42.3c-.8 2.4-2.3 3.4-4.8 3.4h-8.1c-2.4 0-4-1-4.8-3.4zm52.1-17.4v-3c0-2.7 1.4-4.2 4.1-4.2h4.5c2.7 0 4.2 1.5 4.2 4.2v3c0 2.7-1.5 4.1-4.2 4.1h-4.5c-2.7 0-4.1-1.4-4.1-4.1zm0 16.8c0-2.7 1.4-4.2 4.1-4.2h4.5c2.7 0 4.1 1.5 4.1 4.2v42.2c0 2.8-1.4 4.2-4.1 4.2h-4.5c-2.7 0-4.1-1.4-4.1-4.2zm45.9-5.3c8.3 0 13.9 3 16.9 5 2.1 1.4 2.2 3.5.8 5.6l-1.3 2c-1.5 2.3-3.2 2.3-5.7 1.1-2.1-1.4-5.6-3.1-10-3.1-9.5 0-15.7 7-15.7 15.6 0 8.5 6.2 15.8 16.1 15.8 5.1 0 9.1-2.2 11.5-3.9 2.5-1.4 4.5-1.1 5.8 1.3l1 1.9c1.2 2.2.9 4.2-1.1 5.5-3.1 2.3-9.4 5.8-18.3 5.8-17.1 0-28-11.8-28-26.4 0-14.2 10.9-26.2 28-26.2zm24.3-11.5v-3c0-2.7 1.4-4.2 4.1-4.2h4.5c2.7 0 4.2 1.5 4.2 4.2v3c0 2.7-1.5 4.1-4.2 4.1h-4.5c-2.7 0-4.1-1.4-4.1-4.1zm0 16.8c0-2.7 1.4-4.2 4.1-4.2h4.5c2.7 0 4.1 1.5 4.1 4.2v42.2c0 2.8-1.4 4.2-4.1 4.2h-4.5c-2.7 0-4.1-1.4-4.1-4.2zm21.1 0c0-2.7 1.4-4.2 4.1-4.2h3.9c2.7 0 4.1 1.5 4.1 4.2v3.1c0 1.1-.2 2.3-.2 2.3h.2c2.2-4.3 7.9-10.7 18.3-10.7 11.4 0 18 5.8 18 19.2v28.3c0 2.8-1.4 4.2-4.3 4.2h-4.4c-2.7 0-4.2-1.4-4.2-4.2v-25.7c0-6.1-1.6-10.3-8.1-10.3-9.1 0-14.9 7.4-14.9 16.5v19.5c0 2.8-1.4 4.2-4.1 4.2h-4.5c-2.7 0-4.1-1.4-4.1-4.2v-42.2zm56.5-16.8v-3c0-2.7 1.4-4.2 4.1-4.2h4.5c2.7 0 4.2 1.5 4.2 4.2v3c0 2.7-1.5 4.1-4.2 4.1h-4.5c-2.6 0-4.1-1.4-4.1-4.1zm0 16.8c0-2.7 1.4-4.2 4.1-4.2h4.5c2.7 0 4.1 1.5 4.1 4.2v42.2c0 2.8-1.4 4.2-4.1 4.2h-4.5c-2.7 0-4.1-1.4-4.1-4.2zm21.1 0c0-2.7 1.4-4.2 4.1-4.2h3.9c2.7 0 4.1 1.5 4.1 4.2v3.1c0 1.1-.2 2.3-.2 2.3h.2c2.5-4.9 8.8-10.7 16.9-10.7 7.8 0 13 3.6 15.1 10.4h.2c2.7-5.2 9.5-10.4 17.6-10.4 10.7 0 16.9 5.9 16.9 19.2v28.3c0 2.8-1.5 4.2-4.3 4.2h-4.4c-2.8 0-4.2-1.4-4.2-4.2v-26c0-5.7-1.1-10.1-7.1-10.1-8.7 0-13.2 8.7-13.2 17.5v18.6c0 2.8-1.4 4.2-4.1 4.2h-4.5c-2.7 0-4.3-1.4-4.3-4.2v-26c0-5.4-.8-10.1-6.9-10.1-9.1 0-13.4 9.1-13.4 17.5v18.6c0 2.8-1.4 4.2-4.1 4.2h-4.5c-2.7 0-4.1-1.4-4.1-4.2v-42.2zm87-16.8v-3c0-2.7 1.4-4.2 4.1-4.2h4.5c2.7 0 4.2 1.5 4.2 4.2v3c0 2.7-1.5 4.1-4.2 4.1h-4.5c-2.7 0-4.1-1.4-4.1-4.1zm0 16.8c0-2.7 1.4-4.2 4.1-4.2h4.5c2.7 0 4.1 1.5 4.1 4.2v42.2c0 2.8-1.4 4.2-4.1 4.2h-4.5c-2.7 0-4.1-1.4-4.1-4.2zm44.3-5.3c14.7 0 22.9 10.2 22.9 24 0 2.2-1.9 4.3-4.5 4.3h-31.5c.8 9.1 7.7 13.8 15.5 13.8 4.8 0 8.7-1.8 11.1-3.3 2.5-1.2 4.4-.9 5.7 1.4l1.2 2c1.2 2.3.8 4.3-1.4 5.5-3.3 2.1-9.4 5-17.5 5-17.1 0-27.7-12.1-27.7-26.4 0-15.4 10.7-26.3 26.2-26.3zm10.1 20.7c-.2-7-4.6-11.2-10.4-11.2-6.6 0-11.2 4.5-12.4 11.2zm18.2-32.2v-3c0-2.7 1.4-4.2 4.1-4.2h4.5c2.7 0 4.2 1.5 4.2 4.2v3c0 2.7-1.5 4.1-4.2 4.1h-4.5c-2.7 0-4.1-1.4-4.1-4.1zm0 16.8c0-2.7 1.4-4.2 4.1-4.2h4.5c2.7 0 4.1 1.5 4.1 4.2v42.2c0 2.8-1.4 4.2-4.1 4.2h-4.5c-2.7 0-4.1-1.4-4.1-4.2zm24.1 41.1c0-1.9 1-2.9 3-2.9h3.2c2 0 3 1 3 2.9v3.2c0 2-1.1 3-3 3h-3.2c-2 0-3-1-3-3zm17.2-39v-2.1c0-1.9 1-3 3-3h3.2c2 0 3 1.1 3 3v2.1c0 1.9-1.1 2.9-3 2.9h-3.2c-2 0-3-1-3-2.9zm0 12c0-1.9 1-3 3-3h3.2c2 0 3 1.1 3 3v30.2c0 2-1 3-3 3h-3.2c-2 0-3-1-3-3zm19.6 4.7h-2c-2 0-3-1-3-3v-1.2c0-1.9 1-3 3-3h2.1v-7.4c0-1.9 1.1-3 3-3h2.9c2 0 3 1.1 3 3v7.4h5.4c2 0 3 1.1 3 3v1.2c0 2-1.1 3-3 3h-5.2v14c0 5.4 3.4 6.5 5.9 6.7 2.3.2 3 .9 3 2.9v2.2c0 2.1-1.2 3-3.8 3-6.6 0-14.4-3.5-14.4-13.3v-15.5z"/></svg>
