<svg viewBox="0 0 500 500" xmlns="http://www.w3.org/2000/svg" fill="currentColor"><path d="m20 238.6c0-2.6 1.4-4 4-4h3.8c2.6 0 4 1.4 4 4v3c0 1-.2 2.2-.2 2.2h.2c2.1-4.1 7.6-10.3 17.5-10.3 10.9 0 17.2 5.6 17.2 18.5v27.2c0 2.7-1.4 4-4.1 4h-4.2c-2.6 0-4.1-1.3-4.1-4v-24.7c0-5.8-1.6-9.9-7.8-9.9-8.7 0-14.3 7.1-14.3 15.9v18.7c0 2.7-1.4 4-4 4h-4c-2.6 0-4-1.3-4-4zm77.7-5.2c14.1 0 22 9.7 22 23.1 0 2.1-1.9 4.1-4.3 4.1h-30.2c.7 8.7 7.4 13.3 14.8 13.3 4.5 0 8.3-1.7 10.7-3.2 2.4-1.1 4.2-.8 5.5 1.3l1.2 1.9c1.2 2.2.7 4.1-1.4 5.3-3.2 2-9 4.8-16.8 4.8-16.4 0-26.6-11.6-26.6-25.3 0-14.8 10.3-25.3 25.1-25.3zm9.8 19.9c-.2-6.8-4.4-10.8-10-10.8-6.3 0-10.8 4.3-12 10.8zm18.7-33.7c0-2.6 1.5-4 4.1-4h4.2c2.7 0 4.1 1.4 4.1 4v17.5c0 2.4-.3 4.1-.3 4.1h.2s4.4-7.8 15.1-7.8c13.1 0 21.9 10.4 21.9 25.2 0 15.5-9.8 25.4-22.6 25.4-11.1 0-15.1-8.2-15.1-8.2h-.2s.2.7.2 2.1v1.5c0 2.1-1.4 3.4-4.1 3.4h-3.3c-2.6 0-4.1-1.3-4.1-4-.1.2-.1-59.2-.1-59.2zm24.2 54.5c6.9 0 12.5-5.4 12.5-15 0-9.1-5-15.2-12.2-15.2-6.4 0-12.5 4.6-12.5 15 0 7.8 4.1 15.2 12.2 15.2zm54.2-40.7c14.1 0 22 9.7 22 23.1 0 2.1-1.9 4.1-4.3 4.1h-30.3c.7 8.7 7.4 13.3 14.8 13.3 4.5 0 8.3-1.7 10.7-3.2 2.4-1.1 4.2-.8 5.5 1.3l1.2 1.9c1.2 2.2.7 4.1-1.4 5.3-3.2 2-9 4.8-16.8 4.8-16.4 0-26.6-11.6-26.6-25.3-.1-14.8 10.2-25.3 25.2-25.3zm9.6 19.9c-.2-6.8-4.4-10.8-10-10.8-6.3 0-10.8 4.3-12 10.8zm18.7-14.7c0-2.6 1.4-4 4-4h3.8c2.6 0 4 1.4 4 4v3c0 1-.2 2.2-.2 2.2h.2c2.1-4.1 7.6-10.3 17.5-10.3 10.9 0 17.2 5.6 17.2 18.5v27.2c0 2.7-1.4 4-4.1 4h-4.1c-2.6 0-4.1-1.3-4.1-4v-24.7c0-5.8-1.6-9.9-7.8-9.9-8.7 0-14.3 7.1-14.3 15.9v18.7c0 2.7-1.4 4-4 4h-4.3c-2.6 0-4-1.3-4-4v-40.6zm80.8 14.5h2v-1.1c0-6.4-4.2-8.5-9.2-8.5-4.2 0-8 1.5-10.3 2.8-2.4 1-4.3.6-5.5-1.6l-.9-1.8c-1.2-2.2-.7-4.1 1.6-5.3 3.2-1.6 8.8-4 16.2-4 12.8 0 20.5 7 20.5 19.3v26.3c0 2.7-1.4 4-4.1 4h-3.3c-2.6 0-4-1.3-4-4v-1.9c0-1.3.2-2.1.2-2.1h-.2s-4.6 9.1-15.5 9.1c-9 0-16.4-5.7-16.4-14.6 0-14.2 17.9-16.6 28.9-16.6zm-9.2 21.9c6.9 0 11.3-6.9 11.3-12.7v-1.8h-2c-6.2 0-16.8.9-16.8 8.2 0 3.1 2.6 6.3 7.5 6.3zm32.6-36.4c0-2.6 1.4-4 4-4h3.8c2.6 0 4 1.4 4 4v3c0 1-.2 2.2-.2 2.2h.2c2.1-4.1 7.6-10.3 17.5-10.3 10.9 0 17.2 5.6 17.2 18.5v27.2c0 2.7-1.4 4-4.1 4h-4.2c-2.6 0-4.1-1.3-4.1-4v-24.7c0-5.8-1.6-9.9-7.8-9.9-8.7 0-14.3 7.1-14.3 15.9v18.7c0 2.7-1.4 4-4 4h-4.1c-2.6 0-4-1.3-4-4zm55.5 38.7c0-1.9 1-2.8 3-2.8h3.1c1.9 0 3 .9 3 2.8v3.1c0 1.9-1 2.9-3 2.9h-3.1c-1.9 0-3-.9-3-2.9zm29.2-29.9c7.9 0 10.5 5 10.5 5h.2s-.2-.9-.2-2v-13.1c0-1.9 1-2.9 2.9-2.9h3.1c1.9 0 2.9 1 2.9 2.9v43c0 1.9-1 2.9-2.9 2.9h-2.6c-1.9 0-2.9-.9-2.9-2.6v-1.4c0-.6.2-1.2.2-1.2h-.2s-3.1 6-11.2 6c-9.6 0-16-7.5-16-18.4-.1-11 6.7-18.2 16.2-18.2zm1.7 29.4c4.6 0 9-3.3 9-11 0-5.4-2.9-10.8-8.9-10.8-4.8 0-9 3.9-9 10.9-.1 6.5 3.6 10.9 8.9 10.9zm40.6-29.4c10.2 0 15.9 7 15.9 16.7 0 1.5-1.3 3-3.1 3h-21.8c.6 6.3 5.4 9.6 10.8 9.6 3.3 0 6-1.2 7.7-2.2 1.8-.8 3.1-.6 3.9.9l.8 1.4c.8 1.6.6 3-1 3.8-2.3 1.5-6.5 3.5-12.1 3.5-11.9 0-19.2-8.3-19.2-18.4 0-10.7 7.4-18.3 18.1-18.3zm7.1 14.3c-.2-4.9-3.2-7.8-7.2-7.8-4.5 0-7.8 3.1-8.6 7.8z"/></svg>
