<svg height="43" viewBox="0 0 306 43" width="306" xmlns="http://www.w3.org/2000/svg" fill="currentColor"><path d="m64.1213 11.4029536c8.477 0 13.213 5.9405182 13.213 14.0162728 0 1.2684272-1.112 2.4793363-2.573 2.4793363h-18.182c.468 5.3068091 4.443 8.0747455 8.945 8.0747455 2.747 0 5.027-1.0373455 6.431-1.9021364 1.461-.6932454 2.514-.5196818 3.274.8062637l.701 1.1544c.702 1.3259454.468 2.4793363-.818 3.2290909-1.93 1.2119181-5.437 2.9415-10.115 2.9415-9.879 0-16.018-7.0353819-16.018-15.3997364 0-9.0555818 6.197-15.3997364 15.142-15.3997364zm26.3709-.0003027c3.975 0 6.723 1.2694364 8.301 2.1342273 1.344.6922363 1.52 1.9031454.877 3.2301l-.584 1.0383545c-.702 1.3834637-1.813 1.5570273-3.275.9223091-1.286-.5761909-3.215-1.4409818-5.671-1.4409818-2.572 0-4.034 1.0373455-4.034 2.8829727 0 4.8456546 14.791 2.9425091 14.791 12.9779182 0 5.1907636-4.443 9.0545727-11.341 9.0545727-4.794 0-8.127-1.7871-9.939-2.9980091-1.344-.7497545-1.461-2.0191909-.584-3.2876181l.702-1.0383546c.876-1.2109091 1.87-1.3269545 3.332-.5772 1.403.7497546 3.624 2.0191909 6.664 2.0191909 2.573 0 4.151-1.1533909 4.151-2.9990182 0-4.7871272-14.79-3.0000272-14.79-13.0939636 0-5.7679636 5.144-8.8245 11.4-8.8245zm54.9912-.0004036c9.063 0 16.429 6.4026818 16.429 15.4007454 0 9.0555818-7.366 15.3997364-16.429 15.3997364-9.062 0-16.369-6.3441546-16.369-15.3997364 0-8.9980636 7.307-15.4007454 16.369-15.4007454zm41.8223.0004036c3.976 0 6.724 1.2694364 8.303 2.1342273 1.343.6922363 1.519 1.9031454.876 3.2301l-.584 1.0383545c-.702 1.3834637-1.813 1.5570273-3.275.9223091-1.286-.5761909-3.215-1.4409818-5.67-1.4409818-2.572 0-4.034 1.0373455-4.034 2.8829727 0 4.8456546 14.791 2.9425091 14.791 12.9779182 0 5.1907636-4.443 9.0545727-11.343 9.0545727-4.793 0-8.126-1.7871-9.937-2.9980091-1.345-.7497545-1.462-2.0191909-.585-3.2876181l.701-1.0383546c.877-1.2109091 1.871-1.3269545 3.333-.5772 1.403.7497546 3.624 2.0191909 6.664 2.0191909 2.573 0 4.152-1.1533909 4.152-2.9990182 0-4.7871272-14.791-3.0000272-14.791-13.0939636 0-5.7679636 5.144-8.8245 11.399-8.8245zm68.4736 0c3.976 0 6.724 1.2694364 8.302 2.1342273 1.344.6922363 1.52 1.9031454.877 3.2301l-.585 1.0383545c-.701 1.3834637-1.812 1.5570273-3.274.9223091-1.286-.5761909-3.215-1.4409818-5.671-1.4409818-2.572 0-4.034 1.0373455-4.034 2.8829727 0 2.1920818 3.026956 3.0030317 6.342194 4.1629079l.525455.1862903c3.865049 1.3910921 7.923351 3.3720772 7.923351 8.62872 0 5.1907636-4.443 9.0545727-11.341 9.0545727-4.794 0-8.127-1.7871-9.939-2.9980091-1.345-.7497545-1.461-2.0191909-.584-3.2876181l.701-1.0383546c.877-1.2109091 1.871-1.3269545 3.332-.5772 1.404.7497546 3.625 2.0191909 6.665 2.0191909 2.573 0 4.151-1.1533909 4.151-2.9990182 0-4.7871272-14.791-3.0000272-14.791-13.0939636 0-5.7679636 5.145-8.8245 11.4-8.8245zm-219.4316-.0001009c6.197 0 9.763 3.4611818 9.763 11.1898091v16.4966182c0 1.6145454-.877 2.4218182-2.455 2.4218182h-2.514c-1.637 0-2.456-.8072728-2.456-2.4218182v-15.1121455c0-3.3451363-.643-5.8840091-4.092-5.8840091-5.028 0-7.6 5.0767364-7.6 10.2099818v10.7861728c0 1.6145454-.818 2.4218182-2.397 2.4218182h-2.572c-1.579 0-2.455-.8072728-2.455-2.4218182v-15.1121455c0-3.1725818-.468-5.8840091-3.976-5.8840091-5.262 0-7.717 5.3078182-7.717 10.2099818v10.7861728c0 1.6145454-.819 2.4218182-2.397 2.4218182h-2.573c-1.578 0-2.396-.8072728-2.396-2.4218182v-24.5713637c0-1.5570272.818-2.4228272 2.396-2.4228272h2.281c1.578 0 2.397.8658 2.397 2.4228272v1.7871c0 .6347182-.117 1.3269546-.117 1.3269546h.117c1.461-2.8829727 5.086-6.2291182 9.763-6.2291182 4.501 0 7.483 2.0767091 8.711 6.0565636h.117c1.578-3.0565363 5.495-6.0565636 10.172-6.0565636zm194.2643 0c6.607 0 10.407 3.4036636 10.407 11.1898091v16.4966182c0 1.6145454-.819 2.4218182-2.456 2.4218182h-2.513c-1.578 0-2.456-.8072728-2.456-2.4218182v-14.9971091c0-3.5762182-.935-5.9990455-4.677-5.9990455-5.262 0-8.594 4.3269818-8.594 9.6337909v11.3623637c0 1.6145454-.818 2.4218182-2.396 2.4218182h-2.573c-1.579 0-2.397-.8072728-2.397-2.4218182v-24.5713637c0-1.5570272.818-2.4228272 2.397-2.4228272h2.281c1.578 0 2.396.8658 2.396 2.4228272v1.7871c0 .6347182-.117 1.3269546-.117 1.3269546h.117c1.286-2.4803455 4.56-6.2291182 10.581-6.2291182zm-124.558.6920345c1.402 0 2.338.6347182 2.748 2.019191l5.553 16.207009c.584 1.730591 1.111 4.4420182 1.111 4.4420182h.117s.468-2.7114272 1.052-4.4420182l5.553-16.207009c.411-1.3844728 1.345-2.019191 2.749-2.019191h2.748c1.811 0 2.572 1.0958728 1.987 2.7689455l-9.003 24.6864c-.468 1.3844727-1.345 1.9606636-2.748 1.9606636h-4.677c-1.402 0-2.338-.5761909-2.748-1.9606636l-9.12-24.6864c-.584-1.6730727.117-2.7689455 1.93-2.7689455zm63.8193.0002019c1.578 0 2.397.8658 2.397 2.4228272v24.5713637c0 1.6145454-.819 2.4218182-2.397 2.4218182h-2.573c-1.578 0-2.397-.8072728-2.397-2.4218182v-24.5713637c0-1.5570272.819-2.4228272 2.397-2.4228272zm35.8994 0c1.578 0 2.397.8658 2.397 2.4228272v24.5713637c0 1.6145454-.819 2.4218182-2.397 2.4218182h-2.573c-1.578 0-2.396-.8072728-2.396-2.4218182v-24.5713637c0-1.5570272.818-2.4228272 2.396-2.4228272zm97.6606 7.69563c1.174 0 1.593.5792181 1.593 1.7376545v1.6145455c0 1.1160545-.671 1.7366454-1.803 1.7366454-3.899 0-5.787 3.8073-5.787 7.6539546v6.7861363c0 1.1574273-.587 1.7366455-1.719 1.7366455h-1.844c-1.133 0-1.72-.5792182-1.72-1.7366455v-17.6257909c0-1.1160545.587-1.7376545 1.72-1.7376545h1.634c1.133 0 1.762.6216 1.762 1.7376545v1.9869c0 .7850727-.126 1.4470364-.126 1.4470364h.084c.839-2.5237364 3.187-5.3370818 6.206-5.3370818zm-15.2386-8.2744446c1.132 0 1.718.5792182 1.718 1.7376546v1.0756909c0 1.1180727-.628 1.6135363-1.802 1.6962818-1.3.0827454-3.397.3723545-3.397 3.4339364v.7860818h2.852c1.132 0 1.719.6216 1.719 1.7376545v.7033364c0 1.1584363-.587 1.7376545-1.719 1.7376545h-2.852v14.8951909c0 1.1574273-.629 1.7366455-1.761 1.7366455h-1.844c-1.133 0-1.72-.5792182-1.72-1.7366455v-14.8951909h-1.048c-1.133 0-1.72-.5792182-1.72-1.7376545v-.7033364c0-1.1160545.587-1.7376545 1.72-1.7376545h1.048v-.9929455c0-6.5925067 5.801021-7.7012646 8.066705-7.7358457zm-14.4969 24.2444182c1.133 0 1.762.5802273 1.762 1.6962818v1.8627818c0 1.1574273-.629 1.7366455-1.762 1.7366455h-1.844c-1.174 0-1.761-.5792182-1.761-1.7366455v-1.8627818c0-1.1160545.587-1.6962818 1.761-1.6962818zm-128.2144-18.1280155c-4.852 0-8.827 3.7487728-8.827 9.1706182 0 5.4793637 3.975 9.1706182 8.827 9.1706182 4.853 0 8.887-3.6912545 8.887-9.1706182 0-5.4218454-4.034-9.1706182-8.887-9.1706182zm-81.5371-.692539c-3.801 0-6.49 2.5953818-7.191 6.5177181h13.212c-.117-4.0948909-2.631-6.5177181-6.021-6.5177181zm105.927-16.38097641c1.578 0 2.455.8658 2.455 2.42282727v1.73059091c0 1.55702728-.877 2.3643-2.455 2.3643h-2.573c-1.578 0-2.397-.80727272-2.397-2.3643v-1.73059091c0-1.55702727.819-2.42282727 2.397-2.42282727zm35.8994 0c1.578 0 2.456.8658 2.456 2.42282727v1.73059091c0 1.55702728-.878 2.3643-2.456 2.3643h-2.573c-1.578 0-2.396-.80727272-2.396-2.3643v-1.73059091c0-1.55702727.818-2.42282727 2.396-2.42282727z" fill-rule="evenodd"/></svg>
