<svg height="55" viewBox="0 0 271 55" width="271" xmlns="http://www.w3.org/2000/svg"><path d="m15.6275 24.9927c1.579 0 2.456.801 2.456 2.344v.915c0 7.259-9.646 9.146-9.646 14.976 0 2.685 2.455 4.744 5.67 4.744 1.754 0 3.274-.629 4.327-1.144 1.344-.685 2.689-.685 3.507.573l.994 1.428c.936 1.257.936 2.343-.409 3.202-1.754 1.142-4.911 2.628-9.062 2.628-6.606 0-12.803-4.001-12.803-10.746 0-8.974 9.471-10.516 10.172-16.29l.118-.971c.292-1.201.935-1.659 2.338-1.659zm204.3529-12.46c7.717 0 12.336 4.23 12.336 11.603v15.833c0 1.601-.818 2.401-2.456 2.401h-1.987c-1.579 0-2.397-.8-2.397-2.401v-1.143c0-.799.116-1.257.116-1.257h-.116s-2.806 5.487-9.354 5.487c-5.438 0-9.88-3.43-9.88-8.745 0-8.4179651 10.508292-9.9118091 17.187864-9.9454115l1.460136-.0005885v-.686c0-3.829-2.512-5.144-5.552-5.144-2.514 0-4.794.915-6.198 1.658-1.462.629-2.572.4-3.274-.972l-.584-1.086c-.702-1.314-.468-2.458.934-3.201 1.93-.972 5.321-2.401 9.764-2.401zm-151.7204.0008c8.477 0 13.212 5.887 13.212 13.889 0 1.258-1.111 2.458-2.572 2.458h-18.182c.468 5.259 4.443 8.002 8.945 8.002 2.747 0 5.027-1.029 6.431-1.886 1.461-.686 2.514-.515 3.274.8l.701 1.143c.702 1.315.468 2.458-.818 3.201-1.93 1.2-5.437 2.915-10.115 2.915-9.88 0-16.018-6.973-16.018-15.262 0-8.973 6.196-15.26 15.142-15.26zm62.394 0c8.477 0 13.212 5.887 13.212 13.889 0 1.258-1.11 2.458-2.572 2.458h-18.182c.468 5.259 4.444 8.002 8.946 8.002 2.747 0 5.026-1.029 6.429-1.886 1.462-.686 2.515-.515 3.275.8l.701 1.143c.702 1.315.468 2.458-.817 3.201-1.93 1.2-5.438 2.915-10.115 2.915-9.881 0-16.019-6.973-16.019-15.262 0-8.973 6.197-15.26 15.142-15.26zm26.3714-.0003c3.976 0 6.723 1.258 8.301 2.115 1.344.686 1.52 1.886.877 3.201l-.584 1.029c-.702 1.371-1.813 1.543-3.275.914-1.286-.571-3.215-1.429-5.671-1.429-2.572 0-4.033 1.029-4.033 2.858 0 4.801 14.79 2.915 14.79 12.861 0 5.144-4.443 8.973-11.341 8.973-4.794 0-8.127-1.771-9.939-2.971-1.344-.743-1.461-2.001-.584-3.259l.702-1.028c.876-1.201 1.87-1.316 3.332-.572 1.403.743 3.624 2 6.664 2 2.573 0 4.151-1.143 4.151-2.972 0-2.0572048-2.782384-2.8889569-5.933517-3.9874988l-.528189-.1858165c-3.98082-1.4159887-8.328294-3.3783714-8.328294-8.8016847 0-5.716 5.144-8.745 11.4-8.745zm37.8232 0c3.976 0 6.724 1.258 8.302 2.115 1.344.686 1.52 1.886.877 3.201l-.585 1.029c-.701 1.371-1.812 1.543-3.274.914-1.286-.571-3.215-1.429-5.671-1.429-2.573 0-4.034 1.029-4.034 2.858 0 4.801 14.791 2.915 14.791 12.861 0 5.144-4.443 8.973-11.342 8.973-4.793 0-8.126-1.771-9.938-2.971-1.345-.743-1.462-2.001-.584-3.259l.701-1.028c.877-1.201 1.871-1.316 3.332-.572 1.404.743 3.625 2 6.665 2 2.573 0 4.151-1.143 4.151-2.972 0-4.743-14.791-2.972-14.791-12.975 0-5.716 5.144-8.745 11.4-8.745zm-164.2321-7.2591c1.578 0 2.456.857 2.456 2.401v5.944h4.326c1.578 0 2.456.857 2.456 2.401v.972c0 1.6-.878 2.4-2.398 2.4h-4.384v11.318c0 4.344 2.747 5.201 4.794 5.43 1.812.17 2.455.743 2.455 2.343v1.772c0 1.715-.994 2.4-3.04 2.4-5.32 0-11.634-2.8-11.634-10.688v-12.575h-1.579c-1.578 0-2.397-.8-2.397-2.4v-.972c0-1.544.819-2.401 2.456-2.401h1.695v-5.944c0-1.544.877-2.401 2.456-2.401zm211.0996-3.4861c1.578 0 2.396.857 2.396 2.4v28.522c0 2.858 1.229 3.372 2.339 3.487 1.053.114 1.812.742 1.812 2.058v1.942c0 1.488-.702 2.458-2.454 2.458-3.976 0-9.063-1.028-9.063-9.374v-29.093c0-1.543.818-2.4 2.396-2.4zm-194.0874 11.4311c1.579 0 2.397.858 2.397 2.401v24.349c0 1.6-.818 2.401-2.397 2.401h-2.573c-1.578 0-2.396-.801-2.396-2.401v-24.349c0-1.543.818-2.401 2.396-2.401zm54.6484-.686c6.607 0 10.407 3.373 10.407 11.089v16.347c0 1.6-.819 2.401-2.456 2.401h-2.513c-1.578 0-2.456-.801-2.456-2.401v-14.862c0-3.543-.936-5.944-4.677-5.944-5.262 0-8.594 4.287-8.594 9.546v11.26c0 1.6-.818 2.401-2.397 2.401h-2.573c-1.578 0-2.396-.801-2.396-2.401v-24.349c0-1.543.818-2.401 2.396-2.401h2.281c1.578 0 2.396.858 2.396 2.401v1.771c0 .629-.116 1.315-.116 1.315h.116c1.287-2.458 4.561-6.173 10.582-6.173zm155.1516 23.0356c1.579 0 2.397.857 2.397 2.4v2c0 1.601-.818 2.401-2.397 2.401h-2.338c-1.578 0-2.455-.8-2.455-2.401v-2c0-1.543.877-2.4 2.455-2.4zm-32.4783-6.803h-1.229c-3.741 0-10.113.572-10.113 4.916 0 1.943 1.52 3.83 4.501 3.83 4.151 0 6.841-4.115 6.841-7.66zm32.3033-27.778c6.607 0 12.803 4.001 12.803 10.745 0 8.974-9.47 10.517-10.172 16.29l-.117.971c-.292 1.202-.936 1.659-2.339 1.659h-2.338c-1.578 0-2.455-.801-2.455-2.344v-.914c0-7.259 9.646-9.146 9.646-14.976 0-2.686-2.456-4.744-5.67-4.744-1.755 0-3.275.629-4.328 1.143-1.343.686-2.688.686-3.507-.572l-.994-1.428c-.935-1.258-.935-2.344.41-3.201 1.754-1.144 4.911-2.629 9.061-2.629zm-189.1687 17.0328c-3.801 0-6.49 2.572-7.191 6.459h13.212c-.117-4.058-2.631-6.459-6.021-6.459zm62.394 0c-3.8 0-6.49 2.572-7.192 6.459h13.213c-.117-4.058-2.631-6.459-6.021-6.459zm-114.8515-4.7438c1.579 0 2.456.8 2.456 2.4v2.001c0 1.543-.877 2.4-2.456 2.4h-2.338c-1.579 0-2.397-.857-2.397-2.4v-2.001c0-1.6.818-2.4 2.397-2.4zm32.0012-11.4896c1.579 0 2.455.857 2.455 2.401v1.715c0 1.543-.876 2.343-2.455 2.343h-2.573c-1.578 0-2.396-.8-2.396-2.343v-1.715c0-1.544.818-2.401 2.396-2.401z" fill="currentColor"/></svg>
