<svg height="42" viewBox="0 0 267 42" width="267" xmlns="http://www.w3.org/2000/svg" fill="currentColor"><path d="m259.7173 14.5849c1.132 0 1.761.615 1.761 1.722v4.264h3.104c1.132 0 1.76.616 1.76 1.722v.697c0 1.148-.628 1.722-1.719 1.722h-3.145v8.118c0 3.116 1.971 3.732 3.439 3.896 1.299.123 1.76.533 1.76 1.68v1.272c0 1.229-.712 1.721-2.179 1.721-3.817 0-8.345-2.008-8.345-7.666v-9.021h-1.132c-1.133 0-1.72-.574-1.72-1.722v-.697c0-1.106.587-1.722 1.762-1.722h1.216v-4.264c0-1.107.629-1.722 1.761-1.722zm-202.0454-3.809c4.794 0 8.01 1.715 9.763 2.915 1.228.8 1.287 2.001.467 3.258l-.759 1.143c-.877 1.315-1.871 1.315-3.274.629-1.227-.8-3.216-1.772-5.788-1.772-5.495 0-9.062 4.059-9.062 9.032 0 4.915 3.567 9.145 9.296 9.145 2.923 0 5.262-1.258 6.665-2.229 1.461-.801 2.572-.629 3.332.743l.585 1.086c.701 1.257.526 2.4-.643 3.201-1.813 1.314-5.437 3.372-10.582 3.372-9.88 0-16.194-6.802-16.194-15.262 0-8.287 6.314-15.261 16.194-15.261zm146.9342-.0002c8.477 0 13.213 5.887 13.213 13.89 0 1.257-1.111 2.458-2.572 2.458h-18.183c.468 5.258 4.444 8.002 8.945 8.002 2.748 0 5.028-1.029 6.431-1.886 1.462-.687 2.514-.515 3.275.8l.701 1.143c.701 1.314.468 2.458-.819 3.201-1.929 1.2-5.437 2.915-10.114 2.915-9.88 0-16.018-6.973-16.018-15.262 0-8.973 6.196-15.261 15.141-15.261zm33.8817 25.1703c1.133 0 1.762.575 1.762 1.681v1.846c0 1.147-.629 1.721-1.762 1.721h-1.844c-1.174 0-1.761-.574-1.761-1.721v-1.846c0-1.106.587-1.681 1.761-1.681zm9.8985-15.6621c1.132 0 1.719.616 1.719 1.722v17.467c0 1.147-.587 1.721-1.719 1.721h-1.844c-1.133 0-1.72-.574-1.72-1.721v-17.467c0-1.106.587-1.722 1.72-1.722zm-242.6273-8.8223c1.403 0 2.338.629 2.747 2.001l5.555 16.061c.584 1.716 1.11 4.401 1.11 4.401h.117s.2225922-1.2770511.5523146-2.6325803l.1020151-.4078145c.1224979-.4757336.2567048-.9463983.3976703-1.3606052l5.554-16.061c.41-1.372 1.345-2.001 2.748-2.001h2.748c1.812 0 2.572 1.086 1.987 2.744l-9.003 24.463c-.467 1.372-1.344 1.945-2.748 1.945h-4.676c-1.404 0-2.339-.573-2.748-1.945l-9.12-24.463c-.585-1.658.117-2.744 1.929-2.744zm30.3638.0007c1.578 0 2.397.857 2.397 2.4v24.35c0 1.6-.819 2.401-2.397 2.401h-2.572c-1.579 0-2.397-.801-2.397-2.401v-24.35c0-1.543.818-2.4 2.397-2.4zm40.5782 0c1.578 0 2.397.857 2.397 2.4v24.35c0 1.6-.819 2.401-2.397 2.401h-2.573c-1.578 0-2.397-.801-2.397-2.401v-24.35c0-1.543.819-2.4 2.397-2.4zm44.851 0c1.578 0 2.397.857 2.397 2.4v24.35c0 1.6-.819 2.401-2.397 2.401h-2.573c-1.578 0-2.397-.801-2.397-2.401v-24.35c0-1.543.819-2.4 2.397-2.4zm62.4239 0c1.578 0 2.397.857 2.397 2.4v24.35c0 1.6-.819 2.401-2.397 2.401h-2.573c-1.578 0-2.397-.801-2.397-2.401v-24.35c0-1.543.819-2.4 2.397-2.4zm41.9628 0c1.578 0 2.396.857 2.396 2.4v24.35c0 1.6-.818 2.401-2.396 2.401h-2.573c-1.579 0-2.397-.801-2.397-2.401v-24.35c0-1.543.818-2.4 2.397-2.4zm-124.399-.686c6.608 0 10.408 3.372 10.408 11.089v16.347c0 1.6-.82 2.401-2.457 2.401h-2.513c-1.578 0-2.455-.801-2.455-2.401v-14.862c0-3.543-.936-5.944-4.677-5.944-5.262 0-8.595 4.287-8.595 9.546v11.26c0 1.6-.817 2.401-2.396 2.401h-2.573c-1.579 0-2.396-.801-2.396-2.401v-24.35c0-1.543.817-2.4 2.396-2.4h2.281c1.578 0 2.396.857 2.396 2.4v1.772c0 .629-.117 1.315-.117 1.315h.117c1.286-2.458 4.561-6.173 10.581-6.173zm63.0336 0c6.197 0 9.764 3.429 9.764 11.089v16.347c0 1.6-.877 2.401-2.456 2.401h-2.514c-1.637 0-2.455-.801-2.455-2.401v-14.976c0-3.315-.644-5.83-4.093-5.83-5.027 0-7.6 5.03-7.6 10.117v10.689c0 1.6-.818 2.401-2.396 2.401h-2.572c-1.579 0-2.456-.801-2.456-2.401v-14.976c0-3.144-.468-5.83-3.976-5.83-5.262 0-7.717 5.259-7.717 10.117v10.689c0 1.6-.818 2.401-2.397 2.401h-2.573c-1.578 0-2.396-.801-2.396-2.401v-24.35c0-1.543.818-2.4 2.396-2.4h2.281c1.578 0 2.396.857 2.396 2.4v1.772c0 .629-.116 1.315-.116 1.315h.116c1.462-2.858 5.087-6.173 9.764-6.173 4.502 0 7.483 2.057 8.711 6.001h.117c1.578-3.029 5.495-6.001 10.172-6.001zm39.8578 5.4874c-3.8 0-6.489 2.572-7.191 6.458h13.212c-.116-4.058-2.63-6.458-6.021-6.458zm43.9552-4.1798c1.132 0 1.761.615 1.761 1.722v1.23c0 1.108-.629 1.681-1.761 1.681h-1.844c-1.133 0-1.72-.573-1.72-1.681v-1.23c0-1.107.587-1.722 1.72-1.722zm-212.2635-12.0536c1.578 0 2.455.857 2.455 2.4v1.715c0 1.543-.877 2.343-2.455 2.343h-2.572c-1.579 0-2.397-.8-2.397-2.343v-1.715c0-1.543.818-2.4 2.397-2.4zm40.5782 0c1.578 0 2.455.857 2.455 2.4v1.715c0 1.543-.877 2.343-2.455 2.343h-2.573c-1.578 0-2.397-.8-2.397-2.343v-1.715c0-1.543.819-2.4 2.397-2.4zm44.851 0c1.578 0 2.455.857 2.455 2.4v1.715c0 1.543-.877 2.343-2.455 2.343h-2.573c-1.578 0-2.397-.8-2.397-2.343v-1.715c0-1.543.819-2.4 2.397-2.4zm62.4239 0c1.578 0 2.455.857 2.455 2.4v1.715c0 1.543-.877 2.343-2.455 2.343h-2.573c-1.578 0-2.397-.8-2.397-2.343v-1.715c0-1.543.819-2.4 2.397-2.4zm41.9628 0c1.578 0 2.455.857 2.455 2.4v1.715c0 1.543-.877 2.343-2.455 2.343h-2.573c-1.579 0-2.397-.8-2.397-2.343v-1.715c0-1.543.818-2.4 2.397-2.4z" fill-rule="evenodd"/></svg>
