<svg viewBox="0 0 285 42" xmlns="http://www.w3.org/2000/svg" fill="currentColor"><path d="m255.9828 19.7923c6.079 0 9.475 4.223 9.475 9.963 0 .902-.796 1.763-1.845 1.763h-13.04c.335 3.772 3.187 5.74 6.415 5.74 1.971 0 3.607-.738 4.613-1.353 1.049-.492 1.803-.369 2.348.574l.503.82c.503.943.335 1.763-.587 2.296-1.383.861-3.899 2.091-7.253 2.091-7.087 0-11.49-5.002-11.49-10.947 0-6.438 4.445-10.947 10.861-10.947zm20.702-.0005c2.851 0 4.822.903 5.955 1.518.964.491 1.09 1.352.629 2.296l-.42.737c-.503.984-1.3 1.107-2.348.656-.923-.41-2.306-1.024-4.067-1.024-1.845 0-2.894.737-2.894 2.05 0 3.443 10.609 2.09 10.609 9.224 0 3.691-3.187 6.438-8.135 6.438-3.438 0-5.828-1.272-7.128-2.132-.965-.533-1.048-1.436-.419-2.337l.503-.738c.629-.862 1.342-.944 2.39-.41 1.006.533 2.599 1.434 4.78 1.434 1.845 0 2.977-.819 2.977-2.132 0-3.402-10.608-2.132-10.608-9.306 0-4.101 3.689-6.274 8.176-6.274zm-229.7227-9.0161c8.477 0 13.213 5.887 13.213 13.889 0 1.258-1.111 2.458-2.573 2.458h-18.182c.468 5.259 4.443 8.002 8.945 8.002 2.748 0 5.027-1.028 6.431-1.885 1.461-.687 2.514-.515 3.274.799l.701 1.144c.702 1.314.468 2.457-.818 3.201-1.929 1.2-5.437 2.914-10.114 2.914-9.881 0-16.019-6.972-16.019-15.261 0-8.973 6.197-15.261 15.142-15.261zm62.394 0c8.478 0 13.213 5.887 13.213 13.889 0 1.258-1.111 2.458-2.572 2.458h-18.183c.468 5.259 4.444 8.002 8.946 8.002 2.748 0 5.028-1.028 6.43-1.885 1.462-.687 2.514-.515 3.275.799l.701 1.144c.702 1.314.468 2.457-.818 3.201-1.93 1.2-5.438 2.914-10.115 2.914-9.88 0-16.018-6.972-16.018-15.261 0-8.973 6.197-15.261 15.141-15.261zm26.3715.0007c3.976 0 6.724 1.257 8.302 2.114 1.344.686 1.519 1.886.877 3.201l-.585 1.029c-.701 1.372-1.813 1.543-3.274.915-1.286-.572-3.216-1.429-5.671-1.429-2.572 0-4.034 1.028-4.034 2.858 0 4.801 14.791 2.915 14.791 12.86 0 5.144-4.442 8.973-11.342 8.973-4.794 0-8.126-1.771-9.938-2.971-1.345-.743-1.462-2.001-.585-3.258l.701-1.029c.878-1.2 1.871-1.315 3.333-.572 1.403.743 3.625 2.001 6.665 2.001 2.572 0 4.151-1.143 4.151-2.972 0-4.744-14.791-2.973-14.791-12.975 0-5.716 5.144-8.745 11.4-8.745zm43.0077 0c3.976 0 6.724 1.257 8.303 2.114 1.343.686 1.519 1.886.877 3.201l-.585 1.029c-.702 1.372-1.813 1.543-3.275.915-1.286-.572-3.215-1.429-5.67-1.429-2.572 0-4.034 1.028-4.034 2.858 0 4.801 14.791 2.915 14.791 12.86 0 5.144-4.443 8.973-11.343 8.973-4.793 0-8.126-1.771-9.937-2.971-1.345-.743-1.462-2.001-.585-3.258l.701-1.029c.877-1.2 1.871-1.315 3.333-.572 1.403.743 3.624 2.001 6.664 2.001 2.573 0 4.152-1.143 4.152-2.972 0-4.744-14.791-2.973-14.791-12.975 0-5.716 5.144-8.745 11.399-8.745zm25.1328-.0005c7.717 0 12.335 4.23 12.335 11.603v15.833c0 1.601-.818 2.4-2.455 2.4h-1.988c-1.578 0-2.397-.799-2.397-2.4v-1.143c0-.8.117-1.258.117-1.258h-.117s-2.806 5.487-9.354 5.487c-5.437 0-9.88-3.43-9.88-8.745 0-8.517 10.757-9.945 17.422-9.945h1.228v-.686c0-3.83-2.514-5.145-5.554-5.145-2.514 0-4.794.915-6.198 1.658-1.462.629-2.572.401-3.273-.972l-.585-1.085c-.701-1.315-.468-2.458.935-3.201 1.929-.972 5.321-2.401 9.764-2.401zm37.0455 25.1701c1.132 0 1.761.575 1.761 1.681v1.846c0 1.147-.629 1.721-1.761 1.721h-1.844c-1.175 0-1.762-.574-1.762-1.721v-1.846c0-1.106.587-1.681 1.762-1.681zm-15.3098-35.9153c1.578 0 2.396.857 2.396 2.4v28.521c0 2.859 1.228 3.374 2.339 3.488 1.052.114 1.813.743 1.813 2.057v1.944c0 1.486-.703 2.458-2.456 2.458-3.976 0-9.062-1.03-9.062-9.374v-29.094c0-1.543.818-2.4 2.397-2.4zm-216.2852 3.4861c1.579 0 2.456.857 2.456 2.401v5.944h4.326c1.579 0 2.456.857 2.456 2.401v.972c0 1.6-.877 2.4-2.397 2.4h-4.385v11.317c0 4.344 2.747 5.202 4.794 5.43 1.812.172 2.455.743 2.455 2.344v1.772c0 1.714-.994 2.401-3.04 2.401-5.32 0-11.634-2.801-11.634-10.689v-12.575h-1.579c-1.578 0-2.397-.8-2.397-2.4v-.972c0-1.544.819-2.401 2.456-2.401h1.695v-5.944c0-1.544.877-2.401 2.456-2.401zm17.0122 7.9455c1.578 0 2.397.857 2.397 2.4v24.35c0 1.6-.819 2.4-2.397 2.4h-2.572c-1.579 0-2.397-.8-2.397-2.4v-24.35c0-1.543.818-2.4 2.397-2.4zm54.6494-.686c6.606 0 10.406 3.372 10.406 11.088v16.348c0 1.6-.818 2.4-2.455 2.4h-2.514c-1.578 0-2.455-.8-2.455-2.4v-14.862c0-3.543-.936-5.944-4.678-5.944-5.261 0-8.593 4.287-8.593 9.546v11.26c0 1.6-.819 2.4-2.397 2.4h-2.573c-1.578 0-2.397-.8-2.397-2.4v-24.35c0-1.543.819-2.4 2.397-2.4h2.28c1.579 0 2.397.857 2.397 2.4v1.772c0 .629-.116 1.315-.116 1.315h.116c1.286-2.458 4.56-6.173 10.582-6.173zm127.8569 16.2326h-1.228c-3.741 0-10.114.571-10.114 4.915 0 1.944 1.521 3.83 4.502 3.83 4.15 0 6.84-4.115 6.84-7.659zm47.0197-3.2806c-2.726 0-4.655 1.845-5.159 4.633h9.477c-.084-2.911-1.887-4.633-4.318-4.633zm-93.3534-2.6059c1.578 0 2.454.799 2.454 2.342v1.601c0 1.601-.876 2.4-2.454 2.4h-12.688c-1.578 0-2.455-.799-2.455-2.4v-1.601c0-1.543.877-2.342 2.455-2.342zm-115.7173-4.8587c-3.8 0-6.489 2.572-7.191 6.458h13.213c-.117-4.058-2.631-6.458-6.022-6.458zm62.395 0c-3.8 0-6.489 2.572-7.191 6.458h13.212c-.116-4.058-2.63-6.458-6.021-6.458zm-82.8503-16.2334c1.578 0 2.455.857 2.455 2.4v1.715c0 1.543-.877 2.343-2.455 2.343h-2.572c-1.579 0-2.397-.8-2.397-2.343v-1.715c0-1.543.818-2.4 2.397-2.4z" fill-rule="evenodd"/></svg>
