<svg id="Layer_1" data-name="Layer 1" xmlns="http://www.w3.org/2000/svg" width="20" height="20" viewBox="0 0 20 20"><path id="_20x20-a" data-name="20x20-a" d="M3.2609,11.5652C3.4736,10.6343,4.842,9.512,6.653,8.6544a15.2475,15.2475,0,0,1,6.0656-.9913h.1795V5.87l3.6236,2.6892-3.6236,2.689V9.451l-.1828.0027a27.197,27.197,0,0,0-5.1928.2893A14.9307,14.9307,0,0,0,3.2609,11.5652ZM0,17.9565H.6937c0-2.1789,2.5518-6.6817,10.4014-6.9325v4.1514L20,8.5872,11.0951,2V6.1646C8.59,6.245,0,7.3054,0,17.9565Z" fill="#393939" fill-rule="evenodd"/></svg>