<svg width="18" height="20" viewBox="0 0 18 20" fill="none" xmlns="http://www.w3.org/2000/svg">
<path fill-rule="evenodd" clip-rule="evenodd" d="M11.3028 0H6.69722L3.69722 2H1C0.447715 2 0 2.44772 0 3C0 3.55228 0.447715 4 1 4H4.30278L7.30278 2H10.6972L13.6972 4H17C17.5523 4 18 3.55228 18 3C18 2.44772 17.5523 2 17 2H14.3028L11.3028 0ZM14 7H4V18H14V7ZM2 5V18C2 19.1046 2.89543 20 4 20H14C15.1046 20 16 19.1046 16 18V5H2ZM10.4142 13L12.4142 11L11 9.58578L9 11.5858L7 9.58578L5.58578 11L7.58578 13L5.58578 15L7 16.4142L9 14.4142L11 16.4142L12.4142 15L10.4142 13Z" fill="#393939"/>
</svg>
