<svg id="Layer_1" data-name="Layer 1" xmlns="http://www.w3.org/2000/svg" width="20" height="20" viewBox="0 0 20 20"><path id="_20x20-a" data-name="20x20-a" d="M10,18a8,8,0,1,0-8-8A8,8,0,0,0,10,18ZM10,0A10,10,0,1,1,0,10,10,10,0,0,1,10,0Zm1.0435,8.5983-2.6418.0052A.3963.3963,0,0,0,8.0052,9L8,10.0243a.3964.3964,0,0,0,.3965.3966,1,1,0,0,1,1,1V12.64a1,1,0,0,1-.8786.9927l-.1162.0073a.3963.3963,0,0,0-.3965.3965V15a.3482.3482,0,0,0,.3913.3409h4A.3573.3573,0,0,0,12.7983,15v-.9635a.3964.3964,0,0,0-.3966-.3965l-.5547-.0052a.4417.4417,0,0,1-.45-.3913L11.4017,9A.3669.3669,0,0,0,11.0435,8.5983ZM10,4a2,2,0,1,0,2,1.9975A2,2,0,0,0,10,4Z" fill="#393939"/></svg>