<svg width="18" height="18" viewBox="0 0 18 18" fill="none" xmlns="http://www.w3.org/2000/svg">
<path d="M6 2H5C4.44772 2 4 2.44772 4 3V6.38197C4 7.13951 3.572 7.83204 2.89443 8.17082L2.34164 8.44721C2.13226 8.5519 2 8.76591 2 9C2 9.23409 2.13226 9.4481 2.34164 9.55279L2.89443 9.82918C3.572 10.168 4 10.8605 4 11.618V15C4 15.5523 4.44772 16 5 16H6V18H5C3.34315 18 2 16.6569 2 15L2 11.618L1.44721 11.3416C0.560265 10.8982 0 9.99164 0 9C0 8.00836 0.560265 7.10183 1.44721 6.65836L2 6.38197V3C2 1.34315 3.34315 0 5 0H6V2Z" fill="#393939"/>
<path d="M12 2H13C13.5523 2 14 2.44772 14 3V6.38197C14 7.13951 14.428 7.83204 15.1056 8.17082L15.6584 8.44721C15.8677 8.5519 16 8.76591 16 9C16 9.23409 15.8677 9.4481 15.6584 9.55279L15.1056 9.82918C14.428 10.168 14 10.8605 14 11.618V15C14 15.5523 13.5523 16 13 16H12V18H13C14.6569 18 16 16.6569 16 15V11.618L16.5528 11.3416C17.4397 10.8982 18 9.99164 18 9C18 8.00836 17.4397 7.10183 16.5528 6.65836L16 6.38197V3C16 1.34315 14.6569 0 13 0H12V2Z" fill="#393939"/>
</svg>
