<svg id="Layer_1" data-name="Layer 1" xmlns="http://www.w3.org/2000/svg" width="20" height="20" viewBox="0 0 20 20"><path id="_20x20-a" data-name="20x20-a" d="M16.0188,9.4066a3.5748,3.5748,0,0,0,0-4.92,3.154,3.154,0,0,0-4.5818,0L10,5.9708,8.563,4.4862a3.154,3.154,0,0,0-4.5818,0,3.5748,3.5748,0,0,0,0,4.92L10,15.6244Zm1.437,1.391L10,18.5,2.5442,10.7976a5.5746,5.5746,0,0,1,0-7.7024,5.1536,5.1536,0,0,1,7.4558,0,5.1536,5.1536,0,0,1,7.4558,0A5.5746,5.5746,0,0,1,17.4558,10.7976Z" fill="#393939"/></svg>