<svg id="Layer_1" data-name="Layer 1" xmlns="http://www.w3.org/2000/svg" width="20" height="20" viewBox="0 0 20 20"><path id="_20x20-a" data-name="20x20-a" d="M13,17a4,4,0,0,1,4-4q.1882,0,.3738.0174a4.0006,4.0006,0,0,1,0-6.0348Q17.1884,7,17,7a4,4,0,0,1-4-4q0-.1883.0173-.3738a4,4,0,0,1-6.0347,0Q7,2.8114,7,3A4,4,0,0,1,3,7q-.1884,0-.3738-.0174a4.0006,4.0006,0,0,1,0,6.0348Q2.8114,13,3,13a4,4,0,0,1,4,4q0,.1882-.0174.3738a4,4,0,0,1,6.0347,0Q13,17.1886,13,17ZM11.99.1981a9.9418,9.9418,0,0,1,3.5266,1.46,2,2,0,0,0,2.8249,2.8249,9.9455,9.9455,0,0,1,1.46,3.5266,2,2,0,0,0,0,3.9806,9.9455,9.9455,0,0,1-1.46,3.5266,2,2,0,0,0-2.8249,2.8249,9.9418,9.9418,0,0,1-3.5266,1.46,2,2,0,0,0-3.9806,0,9.9418,9.9418,0,0,1-3.5266-1.46,2,2,0,0,0-2.8249-2.8249A9.9438,9.9438,0,0,1,.198,11.99,2,2,0,0,0,2,10,2,2,0,0,0,.198,8.01a9.9438,9.9438,0,0,1,1.46-3.5266A2,2,0,0,0,4.4831,1.6582,9.9418,9.9418,0,0,1,8.01.1981,2,2,0,0,0,10,2,2,2,0,0,0,11.99.1981ZM10,6a4,4,0,1,0,4,4A4,4,0,0,0,10,6Zm0,2a2,2,0,1,1-2,2A2,2,0,0,1,10,8Z" fill="#393939"/></svg>