<svg width="24" height="24" viewBox="0 0 24 24" fill="none" xmlns="http://www.w3.org/2000/svg">
<path d="M2.99902 9.75H7.49902V19.5H2.99902C2.80011 19.5 2.60935 19.421 2.46869 19.2803C2.32804 19.1397 2.24902 18.9489 2.24902 18.75V10.5C2.24902 10.3011 2.32804 10.1103 2.46869 9.96967C2.60935 9.82902 2.80011 9.75 2.99902 9.75V9.75Z" stroke="currentColor" stroke-width="1.5" stroke-linecap="round" stroke-linejoin="round"/>
<path d="M7.49902 9.75L11.249 2.25C11.643 2.25 12.0331 2.3276 12.3971 2.47836C12.761 2.62913 13.0918 2.8501 13.3703 3.12868C13.6489 3.40726 13.8699 3.73797 14.0207 4.10195C14.1714 4.46593 14.249 4.85603 14.249 5.25V7.5H20.0498C20.2625 7.5 20.4728 7.54523 20.6667 7.63269C20.8605 7.72015 21.0336 7.84785 21.1744 8.0073C21.3151 8.16675 21.4204 8.35431 21.4831 8.55753C21.5458 8.76076 21.5646 8.975 21.5383 9.18605L20.4133 18.1861C20.3679 18.5488 20.1916 18.8826 19.9176 19.1245C19.6435 19.3665 19.2905 19.5 18.9248 19.5H7.49902" stroke="currentColor" stroke-width="1.5" stroke-linecap="round" stroke-linejoin="round"/>
</svg>
