<svg width="40" height="40" viewBox="0 0 40 40" fill="none" xmlns="http://www.w3.org/2000/svg">
<path d="M20 34.4667C27.9897 34.4667 34.4667 27.9897 34.4667 20C34.4667 12.0103 27.9897 5.53333 20 5.53333C12.0103 5.53333 5.53333 12.0103 5.53333 20C5.53333 27.9897 12.0103 34.4667 20 34.4667ZM20 3.53333C29.0943 3.53333 36.4667 10.9057 36.4667 20C36.4667 29.0943 29.0943 36.4667 20 36.4667C10.9057 36.4667 3.53333 29.0943 3.53333 20C3.53333 10.9057 10.9057 3.53333 20 3.53333ZM21.4944 19H18.5055C17.2629 19 16.2555 20.0074 16.2555 21.25V29.7278C16.2555 30.9704 17.2629 31.9778 18.5055 31.9778H21.4944C22.7371 31.9778 23.7444 30.9704 23.7444 29.7278V21.25C23.7444 20.0074 22.7371 19 21.4944 19ZM21.4944 21C21.6325 21 21.7444 21.1119 21.7444 21.25V29.7278C21.7444 29.8658 21.6325 29.9778 21.4944 29.9778H18.5055C18.3675 29.9778 18.2555 29.8658 18.2555 29.7278V21.25C18.2555 21.1119 18.3675 21 18.5055 21H21.4944ZM20 9.39444C17.932 9.39444 16.2555 11.0709 16.2555 13.1389C16.2555 15.2069 17.932 16.8833 20 16.8833C22.068 16.8833 23.7444 15.2069 23.7444 13.1389C23.7444 11.0709 22.068 9.39444 20 9.39444ZM20 11.3944C20.9634 11.3944 21.7444 12.1755 21.7444 13.1389C21.7444 14.1023 20.9634 14.8833 20 14.8833C19.0366 14.8833 18.2555 14.1023 18.2555 13.1389C18.2555 12.1755 19.0366 11.3944 20 11.3944Z" fill="#393939"/>
</svg>
