<svg width="53" height="44" viewBox="0 0 53 44" fill="none" xmlns="http://www.w3.org/2000/svg">
<path d="M17.8495 0.294504C5.26226 0.956989 0.624859 7.84684 0.624859 20.4341V40.4411C0.624859 41.8986 1.81733 43.0911 3.2748 43.0911H19.1745C20.6319 43.0911 21.8244 41.8986 21.8244 40.4411V24.5415C21.8244 23.084 20.6319 21.8915 19.1745 21.8915H12.6821C12.8146 16.3267 13.6096 12.4842 19.1745 11.2918C21.2944 10.8943 21.8244 10.4968 21.8244 8.50933V3.60693C21.8244 0.691998 20.1019 0.162008 17.8495 0.294504ZM48.3238 0.294504C35.7366 0.956989 31.0992 7.84684 31.0992 20.4341V40.4411C31.0992 41.8986 32.2917 43.0911 33.7492 43.0911H49.6488C51.1063 43.0911 52.2988 41.8986 52.2988 40.4411V24.5415C52.2988 23.084 51.1063 21.8915 49.6488 21.8915H43.1565C43.289 16.3267 44.0839 12.4842 49.6488 11.2918C51.7688 10.8943 52.2988 10.4968 52.2988 8.50933V3.60693C52.2988 0.691998 50.5763 0.162008 48.3238 0.294504Z" fill="#393939"/>
</svg>
